<?xml version="1.0" encoding="UTF-8" standalone="no"?>
<!-- Created with Inkscape (http://www.inkscape.org/) -->

<svg
   width="39.202091mm"
   height="30.210119mm"
   viewBox="0 0 39.20209 30.210119"
   version="1.1"
   id="svg1"
   inkscape:version="1.4 (86a8ad7, 2024-10-11)"
   sodipodi:docname="caixa.svg"
   xmlns:inkscape="http://www.inkscape.org/namespaces/inkscape"
   xmlns:sodipodi="http://sodipodi.sourceforge.net/DTD/sodipodi-0.dtd"
   xmlns="http://www.w3.org/2000/svg"
   xmlns:svg="http://www.w3.org/2000/svg">
  <sodipodi:namedview
     id="namedview1"
     pagecolor="#ffffff"
     bordercolor="#000000"
     borderopacity="0.25"
     inkscape:showpageshadow="2"
     inkscape:pageopacity="0.0"
     inkscape:pagecheckerboard="0"
     inkscape:deskcolor="#d1d1d1"
     inkscape:document-units="mm"
     inkscape:zoom="2.9540684"
     inkscape:cx="70.411369"
     inkscape:cy="42.483783"
     inkscape:window-width="1920"
     inkscape:window-height="1009"
     inkscape:window-x="-8"
     inkscape:window-y="-8"
     inkscape:window-maximized="1"
     inkscape:current-layer="layer1" />
  <defs
     id="defs1" />
  <g
     inkscape:label="Camada 1"
     inkscape:groupmode="layer"
     id="layer1"
     transform="translate(-94.720829,-123.22649)">
    <path
       style="font-variation-settings:normal;fill:#ffffff;fill-opacity:1;stroke:#1a1a1a;stroke-width:0.504429;stroke-linecap:round;stroke-linejoin:round;stroke-miterlimit:4;stroke-dasharray:none;stroke-dashoffset:0;stroke-opacity:1;paint-order:normal;stop-color:#000000"
       d="m 94.97303,125.85537 c 5.1229,-0.52743 12.40397,-0.15057 17.51767,-0.78979 5.1027,-0.55317 13.28963,-0.65663 18.32594,-1.31369 0.92839,-0.13411 1.56263,-0.0457 2.47263,-0.27319 0.89758,0.98777 -0.0586,3.62503 -0.36643,5.40686 -1.1347,6.05123 -0.97037,11.62624 -1.44277,17.76777 0,0.0251 -0.2463,5.857 -0.3948,6.0551 -0.2481,0.33068 -2.1165,0.13163 -2.5011,0.13163 -1.1407,0 -5.98607,-0.0262 -7.12657,0 -2.6773,0.0615 -10.64487,0.17305 -13.32127,0.26326 -3.2073,0.10812 -6.2844,0.14604 -9.4776,-0.13163 -0.3833,-0.0333 -1.9706,0.002 -2.501,-0.26326 -0.2458,-0.12286 -0.1316,-3.37051 -0.1316,-4.60714 0,-4.04608 -0.4003,-8.07065 -0.5265,-12.11021 -0.042,-1.35954 -0.055,-2.72149 0,-4.08061 0.1119,-2.79874 0.674,-3.65398 -0.5266,-6.0551 z"
       id="path61-1"
       sodipodi:nodetypes="ccsccccsscccsccc" />
  </g>
</svg>
