<?xml version="1.0" encoding="UTF-8" standalone="no"?>
<!-- Created with Inkscape (http://www.inkscape.org/) -->

<svg
   width="102.0358mm"
   height="106.19495mm"
   viewBox="0 0 102.0358 106.19495"
   version="1.1"
   id="svg1"
   inkscape:version="1.4 (86a8ad7, 2024-10-11)"
   sodipodi:docname="caixaBranca.svg"
   xmlns:inkscape="http://www.inkscape.org/namespaces/inkscape"
   xmlns:sodipodi="http://sodipodi.sourceforge.net/DTD/sodipodi-0.dtd"
   xmlns="http://www.w3.org/2000/svg"
   xmlns:svg="http://www.w3.org/2000/svg">
  <sodipodi:namedview
     id="namedview1"
     pagecolor="#ffffff"
     bordercolor="#000000"
     borderopacity="0.25"
     inkscape:showpageshadow="2"
     inkscape:pageopacity="0.0"
     inkscape:pagecheckerboard="0"
     inkscape:deskcolor="#d1d1d1"
     inkscape:document-units="mm"
     inkscape:zoom="0.73851712"
     inkscape:cx="169.93513"
     inkscape:cy="333.77696"
     inkscape:window-width="1920"
     inkscape:window-height="1009"
     inkscape:window-x="-8"
     inkscape:window-y="-8"
     inkscape:window-maximized="1"
     inkscape:current-layer="layer1" />
  <defs
     id="defs1" />
  <g
     inkscape:label="Camada 1"
     inkscape:groupmode="layer"
     id="layer1"
     transform="translate(-60.141639,-60.209934)">
    <path
       style="font-variation-settings:normal;fill:#ffffff;fill-opacity:1;stroke:#1d1e20;stroke-width:0.618;stroke-linecap:round;stroke-linejoin:round;stroke-miterlimit:4;stroke-dasharray:none;stroke-dashoffset:0;stroke-opacity:1;paint-order:normal"
       d="m 62.314556,64.229468 c -1.95273,15.62213 -1.50339,31.44223 -1.7999,47.157652 -0.22412,11.87858 0.16375,10.28319 0.78761,23.69626 0.37415,8.04421 1.26782,16.72181 1.79992,24.70347 0.0958,1.43673 0,2.87985 0,4.31978 0,0.53133 -0.22707,1.34577 0,1.79991 0.4666,0.93321 10.44526,-1.87306 11.87941,-2.15989 7.79511,-1.55902 15.562836,-1.64923 23.398836,-2.51988 6.102728,-0.67808 12.177458,-1.43992 18.359098,-1.43992 12.21768,0 24.51911,-1.84215 36.71816,-2.51989 1.1085,-0.0616 7.10804,0.0917 7.19965,0 1.76576,-1.76576 1.07995,-8.34505 1.07995,-10.07949 0,-6.35604 0.32923,-3.00219 -0.0677,-9.88164 -0.0909,-1.57565 -0.47997,-3.11984 -0.71997,-4.67976 -0.11999,-1.67993 -0.29524,-3.35681 -0.35998,-5.03975 -0.22233,-5.78072 -0.0571,-11.52235 -0.35999,-17.27914 -0.13922,-2.64518 -0.81668,-5.28705 -1.07993,-7.91962 -0.4245,-4.245022 -0.51738,-8.704542 -0.71998,-12.959352 -0.25163,-5.28409 0.38818,-10.60213 -0.35998,-15.83921 -0.4919,-3.44327 -0.71996,-6.36317 -0.71996,-10.07949 0,-0.0958 0.0595,-1.05024 0,-1.07996 -1.55678,-0.77839 -8.57096,0.29965 -10.07951,0.35999 -6.57461,0.26298 -13.21884,0 -19.79901,0 -6.20257,0 -12.54903,0.41126 -18.71908,-0.35999 -9.137018,-1.14212 -17.831328,-1.79992 -26.998644,-1.79992 -5.45498,0 -11.12302,-0.61211 -16.1992,1.07996 -1.29794,0.43264 -2.14533,1.699 -3.23985,2.51988 z"
       id="path5"
       sodipodi:nodetypes="cssssssssscsscsssssscsssssc" />
  </g>
</svg>
