<?xml version="1.0" encoding="UTF-8" standalone="no"?>
<!-- Created with Inkscape (http://www.inkscape.org/) -->

<svg
   width="102.0358mm"
   height="106.19495mm"
   viewBox="0 0 102.0358 106.19495"
   version="1.1"
   id="svg1"
   inkscape:version="1.4 (86a8ad7, 2024-10-11)"
   sodipodi:docname="caixaSombraBranca.svg"
   xmlns:inkscape="http://www.inkscape.org/namespaces/inkscape"
   xmlns:sodipodi="http://sodipodi.sourceforge.net/DTD/sodipodi-0.dtd"
   xmlns="http://www.w3.org/2000/svg"
   xmlns:svg="http://www.w3.org/2000/svg">
  <sodipodi:namedview
     id="namedview1"
     pagecolor="#ffffff"
     bordercolor="#000000"
     borderopacity="0.25"
     inkscape:showpageshadow="2"
     inkscape:pageopacity="0.0"
     inkscape:pagecheckerboard="0"
     inkscape:deskcolor="#d1d1d1"
     inkscape:document-units="mm"
     inkscape:zoom="0.36925856"
     inkscape:cx="-207.17191"
     inkscape:cy="334.454"
     inkscape:window-width="1920"
     inkscape:window-height="1009"
     inkscape:window-x="-8"
     inkscape:window-y="-8"
     inkscape:window-maximized="1"
     inkscape:current-layer="layer1" />
  <defs
     id="defs1">
    <clipPath
       clipPathUnits="userSpaceOnUse"
       id="clipPath4">
      <path
         style="font-variation-settings:normal;fill:none;fill-opacity:1;stroke:#ffffff;stroke-width:0.219;stroke-linecap:round;stroke-linejoin:round;stroke-miterlimit:4;stroke-dasharray:none;stroke-dashoffset:0;stroke-opacity:1;paint-order:normal"
         d="m 609.52414,356.38028 c -1.95273,15.62211 -1.50339,31.44221 -1.7999,47.15764 -0.22413,11.87858 0.16375,10.28319 0.78761,23.69627 0.37415,8.04421 1.26783,16.7218 1.79993,24.70346 0.0958,1.43674 0,2.87986 0,4.31977 0,0.53134 -0.22709,1.34578 0,1.79991 0.46659,0.93321 10.44525,-1.87304 11.8794,-2.15987 7.7951,-1.55903 15.56284,-1.64923 23.39885,-2.5199 6.10272,-0.67807 12.17745,-1.43991 18.35909,-1.43991 12.21769,0 24.5191,-1.84216 36.71816,-2.51989 1.1085,-0.0616 7.10803,0.0917 7.19966,0 1.76575,-1.76575 1.07995,-8.34504 1.07995,-10.07949 0,-6.35603 0.32922,-3.0022 -0.0677,-9.88163 -0.0909,-1.57565 -0.47998,-3.11986 -0.71996,-4.67977 -0.12001,-1.67994 -0.29525,-3.35682 -0.35999,-5.03975 -0.22233,-5.78073 -0.0571,-11.52234 -0.35999,-17.27915 -0.13922,-2.64517 -0.81669,-5.28703 -1.07992,-7.91961 -0.4245,-4.24503 -0.5174,-8.70453 -0.71999,-12.95935 -0.25162,-5.2841 0.38817,-10.60214 -0.35999,-15.8392 -0.49189,-3.44329 -0.71996,-6.36317 -0.71996,-10.07951 0,-0.0958 0.0595,-1.05024 0,-1.07995 -1.55678,-0.77838 -8.57094,0.29964 -10.07951,0.35999 -6.57461,0.26297 -13.21882,0 -19.79901,0 -6.20255,0 -12.54903,0.41127 -18.71906,-0.35999 -9.13704,-1.14213 -17.83133,-1.79991 -26.99867,-1.79991 -5.45496,0 -11.123,-0.61211 -16.19919,1.07995 -1.29794,0.43265 -2.14532,1.699 -3.23985,2.51989 z"
         id="path299"
         sodipodi:nodetypes="cssssssssscsscsssssscsssssc" />
    </clipPath>
  </defs>
  <g
     inkscape:label="Camada 1"
     inkscape:groupmode="layer"
     id="layer1"
     transform="translate(-60.141639,-60.209934)">
    <path
       id="path294-8"
       style="opacity:0.172156;fill:#ffffff;stroke:#ffffff;stroke-width:0.244;stroke-dasharray:none"
       d="m 605.69106,329.60265 122.10463,63.36427 c -0.0369,-0.23131 -0.0682,-0.46264 -0.10327,-0.69387 L 606.94139,329.61007 c -0.41692,-0.003 -0.83438,-0.009 -1.25033,-0.007 z m 5.53103,0.0453 116.16202,60.28042 c -0.006,-0.0554 -0.0168,-0.11097 -0.0223,-0.16642 -0.0167,-0.16737 -0.0256,-0.33958 -0.0416,-0.50741 L 612.49841,329.6695 c -0.42618,-0.009 -0.84957,-0.0116 -1.27633,-0.0215 z m -9.59034,0.0594 c -0.35634,0.0225 -0.7093,0.0592 -1.06386,0.0892 l 127.73446,66.28617 c -0.0377,-0.23203 -0.0691,-0.46414 -0.10772,-0.69611 z m 15.21127,0.0357 110.29147,57.2337 c -0.0174,-0.22341 -0.0386,-0.44466 -0.055,-0.66863 L 618.12158,329.76535 c -0.42866,-0.003 -0.84855,-0.0211 -1.27856,-0.0223 z m 5.92997,0.10474 104.1416,54.0451 c -0.0131,-0.21983 -0.024,-0.44034 -0.0364,-0.66045 L 624.05304,329.87085 c -0.42408,-0.0123 -0.85504,-0.0127 -1.28005,-0.023 z m 5.88391,0.2006 98.09573,50.90701 c -0.0106,-0.2204 -0.0247,-0.43853 -0.0349,-0.65897 l -96.68567,-50.17599 c -0.45836,-0.023 -0.91618,-0.0513 -1.37514,-0.072 z m -31.67062,0.21915 c -0.30689,0.0543 -0.61574,0.10055 -0.92047,0.16345 l 132.66893,68.84702 c -0.0247,-0.22482 -0.0364,-0.44981 -0.0646,-0.67458 z m 37.72245,0.0981 91.91389,47.69761 c -0.009,-0.21977 -0.0192,-0.43568 -0.0282,-0.65525 l -90.47115,-46.94874 c -0.47046,-0.0333 -0.94399,-0.0625 -1.41451,-0.0936 z m 6.4359,0.51634 85.35467,44.29503 c -0.009,-0.21825 -0.0193,-0.43667 -0.0282,-0.6545 l -83.85249,-43.51647 c -0.49187,-0.045 -0.98267,-0.0813 -1.47395,-0.12406 z m -47.88408,0.27488 c -0.15023,0.0471 -0.30515,0.0757 -0.45467,0.12555 -0.1029,0.0343 -0.1973,0.0843 -0.29642,0.12555 l 136.4422,70.80758 c -0.01,-0.21773 -0.0121,-0.43526 -0.023,-0.65302 z m 54.91655,0.4034 78.19218,40.57673 c -0.01,-0.21631 -0.0182,-0.44035 -0.0282,-0.656 l -76.586,-39.74392 c -0.52542,-0.0588 -1.05398,-0.12041 -1.57795,-0.17681 z m 73.69381,0.35363 c -0.35335,-0.003 -0.75862,0.018 -1.14336,0.029 l 4.04967,2.10172 c -9e-5,-0.0607 -0.003,-0.11356 -0.003,-0.17459 0,-0.0389 0.01,-0.2808 0.0178,-0.45912 l -2.88029,-1.49475 c -0.0152,-1.6e-4 -0.0256,-0.002 -0.0409,-0.002 z m -4.94635,0.26746 c -0.43991,0.0402 -0.61144,0.0586 -1.0386,0.10177 l 8.9373,4.63804 c -0.006,-0.20977 -0.006,-0.43368 -0.0104,-0.64633 z m -61.73432,0.16492 71.10922,36.90077 c -0.005,-0.21517 -0.006,-0.43037 -0.01,-0.6456 L 656.7266,332.50301 c -0.51233,-0.0511 -1.02559,-0.095 -1.53636,-0.15676 z m -64.52173,0.28974 c -0.15308,0.13497 -0.31167,0.25977 -0.46136,0.40118 l 138.8463,72.0527 c -0.007,-0.21764 -0.0157,-0.43536 -0.023,-0.65302 z m 121.43897,0.0186 c -0.28159,0.0281 -0.82336,0.0857 -1.03786,0.10254 l 13.88737,7.2063 c -0.0127,-0.21769 -0.0236,-0.43878 -0.0349,-0.65822 z m -28.39807,0.19837 42.59005,22.10258 c -0.005,-0.21418 0.003,-0.42931 -0.004,-0.64337 l -41.32561,-21.44657 c -0.41946,-0.003 -0.84081,-0.0106 -1.25998,-0.0126 z m -4.18858,0.008 c -0.40119,0.004 -0.80617,0.009 -1.20799,0.0141 l 48.00815,24.91304 c 4.6e-4,-0.21458 -0.005,-0.42886 -0.005,-0.64337 z m -17.89097,0.005 64.62872,33.53757 c 8.2e-4,-0.2151 -0.0114,-0.42972 -0.01,-0.64485 l -63.33755,-32.86894 c -0.42657,-0.0141 -0.85552,-0.005 -1.28153,-0.0238 z m 45.5216,0.0386 c -0.39464,0.009 -0.7893,0.0195 -1.18421,0.0267 l 19.21039,9.96848 c -0.0204,-0.22387 -0.0436,-0.44912 -0.0624,-0.67309 z m -17.89245,0.004 36.91786,19.15764 c -0.0149,-0.22006 -0.022,-0.44055 -0.0394,-0.66045 L 690.5175,332.9212 c -0.41987,-0.006 -0.83879,-0.007 -1.25851,-0.0126 z m -15.11468,0.0156 c -0.40311,0.007 -0.80387,0.008 -1.20724,0.0141 l 53.38317,27.70268 c 0.003,-0.21164 0.007,-0.42358 0.0104,-0.63519 z m 20.9518,0.0423 30.77763,15.972 c -0.0249,-0.19248 -0.0372,-0.38566 -0.0646,-0.57799 -0.005,-0.0355 -0.008,-0.0678 -0.0134,-0.10326 l -29.44409,-15.28035 c -0.41903,-0.004 -0.83651,-0.006 -1.25553,-0.0104 z m -27.81934,0.005 58.99666,30.61568 c 0.004,-0.21176 0.007,-0.42344 0.0104,-0.63519 L 668.5457,332.98932 c -0.42379,10e-4 -0.84524,-0.0165 -1.2689,-0.0178 z m 33.35705,0.0156 24.85955,12.90152 c -0.0276,-0.22646 -0.0618,-0.46246 -0.0877,-0.68719 L 701.87525,332.9911 c -0.41362,10e-4 -0.82764,-0.004 -1.24141,-0.004 z m -111.96231,1.46503 c -0.15436,0.13378 -0.3031,0.27765 -0.46358,0.40044 l 140.93391,73.13589 c -0.004,-0.21566 -0.004,-0.43142 -0.008,-0.64708 z m -0.75108,2.5809 c -0.0234,0.20243 -0.0418,0.40524 -0.0646,0.60771 L 729.182,410.9824 c -0.002,-0.21545 -0.006,-0.4309 -0.009,-0.64635 z m -0.28528,2.67675 c -0.0211,0.2026 -0.0441,0.40505 -0.0646,0.6077 l 141.64859,73.50585 c -0.002,-0.21519 -0.006,-0.43043 -0.008,-0.64558 z m -0.28529,2.67375 c -0.0189,0.2028 -0.0462,0.40488 -0.0646,0.60771 l 141.96136,73.66931 c -0.002,-0.21543 -0.005,-0.43095 -0.007,-0.64635 z m -0.23402,2.73171 c -0.017,0.20538 -0.0288,0.41121 -0.0453,0.61663 l 142.20429,73.79559 c -0.003,-0.21537 -0.004,-0.43027 -0.007,-0.64559 z m -0.21246,2.86321 c -0.015,0.20581 -0.0315,0.41152 -0.0461,0.61736 l 142.48883,73.94196 c -0.005,-0.21665 -0.0119,-0.43346 -0.0163,-0.65005 z m -0.20208,2.71686 c -0.0131,0.20595 -0.0333,0.41138 -0.0461,0.61736 l 142.76148,74.0846 c -0.008,-0.21745 -0.009,-0.43418 -0.0163,-0.65155 z m -0.16121,2.73766 c -0.0116,0.20866 -0.0193,0.41757 -0.0305,0.62628 l 143.06831,74.2458 c -0.0156,-0.22133 -0.0283,-0.44275 -0.0423,-0.66418 z m -0.13521,2.78297 c -0.01,0.20878 -0.0208,0.41746 -0.0305,0.62628 l 143.41822,74.42707 c -0.0183,-0.2226 -0.0351,-0.44528 -0.0535,-0.66788 z m -0.14117,2.90035 c -0.008,0.20864 -0.0223,0.41687 -0.0305,0.62554 l 143.9301,74.69081 c -0.0422,-0.23547 -0.087,-0.47073 -0.12629,-0.70651 z m -0.10251,2.76885 c -0.007,0.21067 -0.0117,0.42155 -0.0186,0.63223 l 144.55563,75.0177 c -0.037,-0.23287 -0.0709,-0.46585 -0.11144,-0.69835 z m -0.081,2.78298 c -0.006,0.21051 -0.0128,0.42097 -0.0186,0.63148 l 144.95087,75.21977 c -0.0141,-0.24872 -0.0127,-0.28783 -0.0282,-0.55793 -0.002,-0.0343 -0.008,-0.0682 -0.0104,-0.10252 z m -0.0817,2.81046 c -0.005,0.21057 -0.0138,0.42091 -0.0186,0.63148 l 145.17893,75.3379 c -0.008,-0.18355 -0.0227,-0.45264 -0.0327,-0.65749 z m -0.058,2.94048 c -0.004,0.21243 -0.004,0.42498 -0.008,0.63742 l 145.31193,75.407 c 0.002,-0.18943 8.7e-4,-0.41113 -0.002,-0.64189 z m -0.0349,2.80674 c -0.003,0.21222 -0.005,0.42445 -0.008,0.63669 l 145.25992,75.38024 c 0.0107,-0.26231 0.0191,-0.41519 0.0297,-0.6248 z m -0.0349,2.80378 c -0.003,0.21225 -0.006,0.42443 -0.008,0.63668 l 145.24803,75.37504 c 0.003,-0.21542 0.005,-0.44486 0.009,-0.63669 z m -0.0357,2.83424 c -0.002,0.21225 -0.005,0.42442 -0.007,0.63667 l 145.2822,75.39288 c -0.006,-0.18218 -0.0246,-0.51206 -0.0253,-0.65452 z m -0.0364,2.95235 c -0.002,0.21226 -0.006,0.42444 -0.008,0.63668 l 145.41668,75.46419 c -0.007,-0.204 -10e-4,-0.44973 -0.009,-0.64485 z m -0.0349,2.80601 c -0.002,0.21222 -0.007,0.42445 -0.008,0.63667 l 145.49246,75.50208 c 0.002,-0.22584 -0.009,-0.42278 -0.01,-0.64633 z m -0.0327,2.80451 c -0.002,0.21289 -0.006,0.4253 -0.007,0.63817 l 145.41667,75.46494 c 0.018,-0.20361 0.0205,-0.41698 0.0342,-0.62406 z m -0.0319,2.83647 c -0.002,0.21283 -0.006,0.42535 -0.007,0.63817 l 145.00732,75.25171 c 0.0485,-0.19254 0.11442,-0.35696 0.15528,-0.56091 z m -0.0334,2.95681 c -0.002,0.21251 -0.005,0.42493 -0.007,0.63742 l 143.94866,74.70049 c 0.12634,-0.13838 0.24946,-0.28323 0.35809,-0.45542 z m -0.0312,2.80526 c -0.002,0.21268 -0.004,0.42551 -0.007,0.63817 L 724.39209,468.673 c 0.586,0.007 0.67635,-0.007 1.2325,-7.4e-4 z m -0.0312,2.80898 c -0.003,0.21234 -0.004,0.4251 -0.007,0.63742 L 718.94948,468.673 c 0.0762,-0.004 0.15262,-0.0106 0.22881,-0.0149 0.13674,-0.008 0.75169,0.006 0.98214,0.003 z m -0.0319,2.83646 c -0.004,0.21224 -0.003,0.42521 -0.007,0.63743 l 128.51006,66.6881 c 0.36522,-0.0262 0.72995,-0.0478 1.09507,-0.0728 z m -0.0275,2.95533 c -0.004,0.24858 -0.003,0.39935 -0.006,0.63891 l 123.55481,64.11686 c 0.35536,-0.0294 0.7108,-0.059 1.06608,-0.0877 z m -0.0245,2.81046 c -0.002,0.21106 -0.004,0.43381 -0.005,0.63744 l 118.90338,61.70607 c 0.34998,-0.0313 0.70056,-0.065 1.05048,-0.0958 z m -0.0245,2.81121 c -6e-5,0.18111 -0.006,0.46295 -0.005,0.63817 l 114.29804,59.31389 c 0.35067,-0.0323 0.70136,-0.0629 1.05197,-0.0951 z m -10e-4,2.85207 c 0.003,0.24353 0.0154,0.41798 0.0193,0.65154 l 109.59686,56.87338 c 0.35053,-0.0319 0.7007,-0.063 1.05122,-0.0951 z m 0.0914,3.01847 c 0.007,0.20875 0.012,0.44649 0.0201,0.65154 l 104.60518,54.28284 c 0.35289,-0.0302 0.70576,-0.0584 1.05866,-0.0892 z m 0.0899,2.87138 c 0.0104,0.19337 0.0298,0.46652 0.0408,0.66194 l 99.79627,51.78738 c 0.35938,-0.0276 0.71858,-0.0525 1.07798,-0.081 z m 0.18127,2.91522 c 0.0134,0.21166 0.0268,0.44449 0.0409,0.66343 l 94.81945,49.20498 c 0.36299,-0.0231 0.72608,-0.0515 1.08911,-0.0758 z m 0.18275,2.9479 c 0.0162,0.25305 0.0249,0.39784 0.0416,0.66343 l 89.64057,46.51933 c 0.37738,-0.0172 0.75478,-0.0346 1.13221,-0.0535 z m 0.17311,3.06379 c 0.011,0.18246 0.0245,0.46825 0.0357,0.65674 l 84.09023,43.63905 c 0.39727,-0.008 0.79426,-0.0108 1.19164,-0.0215 z m 0.15749,2.90333 c 0.0119,0.21237 0.0243,0.44078 0.0364,0.66045 l 78.69441,40.8375 c 0.39139,-0.005 0.7796,-0.0323 1.17158,-0.0327 z m 0.15824,2.90482 c 0.0126,0.24596 0.0229,0.40453 0.0357,0.65896 l 73.37584,38.07904 c 0.38926,-0.0203 0.7819,-0.0156 1.17159,-0.0327 z m 0.15899,2.93749 c 0.002,0.0454 0.004,0.0591 0.006,0.10476 0.008,0.18252 0.0246,0.37347 0.0334,0.55643 l 68.37824,35.48477 c 0.36119,-0.0293 0.72322,-0.0522 1.08465,-0.0795 z m 0.18202,3.06455 c 0.0123,0.21974 0.0266,0.44167 0.0394,0.66193 l 63.31821,32.85782 c 0.34495,-0.0348 0.68982,-0.0704 1.0349,-0.10402 z m 0.17309,2.91298 c 0.0141,0.22158 0.0249,0.43921 0.0394,0.66119 l 58.60886,30.41435 c 0.33915,-0.0375 0.67862,-0.0752 1.0178,-0.11218 z m 0.1731,2.91372 c 0.0155,0.22127 0.0348,0.44559 0.0505,0.66714 l 53.94629,27.99467 c 0.33914,-0.038 0.67802,-0.0755 1.01706,-0.11367 z m 0.22586,2.97019 c 0.0166,0.22244 0.0344,0.44526 0.0512,0.66788 l 49.09132,25.47543 c 0.35002,-0.0329 0.69957,-0.0628 1.04975,-0.0973 z m 0.23624,3.09352 c 0.0175,0.22306 0.0336,0.44474 0.0512,0.66788 l 43.99416,22.83063 c 0.34909,-0.0279 0.6998,-0.068 1.049,-0.0966 z m 0.22436,2.94121 c 0.0182,0.22505 0.0338,0.4399 0.052,0.66491 l 39.05078,20.26608 c 0.35659,-0.0276 0.71312,-0.0573 1.0698,-0.0847 z m 0.22881,2.94047 c 0.0184,0.22566 0.0336,0.44239 0.052,0.66788 l 34.1282,17.71045 c 0.3472,-0.0299 0.6943,-0.0721 1.04156,-0.10104 z m 0.23106,2.97242 c 0.0183,0.22476 0.0338,0.44339 0.052,0.66789 l 29.29402,15.20234 c 0.34469,-0.0364 0.68945,-0.0702 1.03415,-0.10476 z m 0.24145,3.09946 c 0.0177,0.22229 0.0337,0.44301 0.0512,0.66491 l 24.36848,12.64596 c 0.32315,-0.0442 0.64638,-0.0941 0.96952,-0.13595 z m 0.22882,2.94047 c 0.017,0.22138 0.0353,0.447 0.052,0.66788 l 19.95257,10.35407 c 0.30652,-0.0533 0.61325,-0.1129 0.91974,-0.16345 z m 0.22881,2.94121 c 0.0158,0.21898 0.0365,0.44952 0.052,0.66789 l 15.80931,8.20405 c 0.1782,-0.0431 0.70777,-0.17534 0.83949,-0.20505 z m 0.22213,2.96796 c 0.0131,0.21515 0.003,0.43102 0.0112,0.64634 l 11.88893,6.16995 c 0.32251,-0.081 0.54047,-0.1295 0.8395,-0.20505 z m 0.049,2.99842 c -0.004,0.21173 -0.006,0.42344 -0.0104,0.6352 l 7.96409,4.13359 c 0.36341,-0.0825 0.47709,-0.11962 0.84098,-0.20503 z m -0.0468,2.79784 c -5.2e-4,0.0916 -0.004,0.1833 -0.004,0.27487 0,0.0994 -0.0231,0.23652 -0.0319,0.34769 l 4.11875,2.13738 c 0.31668,-0.0553 0.5943,-0.093 0.93162,-0.15824 z m -0.0156,2.81714 c 0.006,0.0134 0.005,0.0324 0.0111,0.0453 0.0587,0.11741 0.25442,0.18104 0.50519,0.22213 z"
       clip-path="url(#clipPath4)"
       transform="translate(-547.20954,-292.15169)" />
    <path
       style="font-variation-settings:normal;fill:none;fill-opacity:1;stroke:#ffffff;stroke-width:0.618;stroke-linecap:round;stroke-linejoin:round;stroke-miterlimit:4;stroke-dasharray:none;stroke-dashoffset:0;stroke-opacity:1;paint-order:normal"
       d="m 62.314596,64.22858 c -1.95273,15.62213 -1.50339,31.44223 -1.7999,47.15765 -0.22412,11.87858 0.16375,10.28319 0.78761,23.69626 0.37415,8.04421 1.26782,16.72181 1.79992,24.70347 0.0958,1.43673 0,2.87985 0,4.31978 0,0.53133 -0.22707,1.34577 0,1.79991 0.4666,0.93321 10.44526,-1.87306 11.87941,-2.15989 7.79511,-1.55902 15.56284,-1.64923 23.39884,-2.51988 6.102734,-0.67808 12.177464,-1.43992 18.359104,-1.43992 12.21768,0 24.51911,-1.84215 36.71816,-2.51989 1.1085,-0.0616 7.10804,0.0917 7.19965,0 1.76576,-1.76576 1.07995,-8.34505 1.07995,-10.07949 0,-6.35604 0.32923,-3.00219 -0.0677,-9.88164 -0.0909,-1.57565 -0.47997,-3.11984 -0.71997,-4.67976 -0.11999,-1.67993 -0.29524,-3.35681 -0.35998,-5.03975 -0.22233,-5.78072 -0.0571,-11.52235 -0.35999,-17.27914 -0.13922,-2.64518 -0.81668,-5.28705 -1.07993,-7.91962 -0.4245,-4.24502 -0.51738,-8.70454 -0.71998,-12.95935 -0.25163,-5.28409 0.38818,-10.60213 -0.35998,-15.83921 -0.4919,-3.44327 -0.71996,-6.36317 -0.71996,-10.07949 0,-0.0958 0.0595,-1.05024 0,-1.07996 -1.55678,-0.77839 -8.57096,0.29965 -10.07951,0.35999 -6.57461,0.26298 -13.21884,0 -19.79901,0 -6.20257,0 -12.54903,0.41126 -18.71908,-0.35999 -9.137024,-1.14212 -17.831334,-1.79992 -26.998654,-1.79992 -5.45498,0 -11.12302,-0.61211 -16.1992,1.07996 -1.29794,0.43264 -2.14533,1.699 -3.23985,2.51988 z"
       id="path5-88"
       sodipodi:nodetypes="cssssssssscsscsssssscsssssc" />
  </g>
</svg>
