<?xml version="1.0" encoding="UTF-8" standalone="no"?>
<!-- Created with Inkscape (http://www.inkscape.org/) -->

<svg
   width="82.976875mm"
   height="39.713985mm"
   viewBox="0 0 82.976875 39.713985"
   version="1.1"
   id="svg1"
   inkscape:version="1.4 (86a8ad7, 2024-10-11)"
   sodipodi:docname="contornoImagem.svg"
   xmlns:inkscape="http://www.inkscape.org/namespaces/inkscape"
   xmlns:sodipodi="http://sodipodi.sourceforge.net/DTD/sodipodi-0.dtd"
   xmlns="http://www.w3.org/2000/svg"
   xmlns:svg="http://www.w3.org/2000/svg">
  <sodipodi:namedview
     id="namedview1"
     pagecolor="#ffffff"
     bordercolor="#000000"
     borderopacity="0.25"
     inkscape:showpageshadow="2"
     inkscape:pageopacity="0.0"
     inkscape:pagecheckerboard="0"
     inkscape:deskcolor="#d1d1d1"
     inkscape:document-units="mm"
     inkscape:zoom="2.0888419"
     inkscape:cx="190.77557"
     inkscape:cy="73.006963"
     inkscape:window-width="1920"
     inkscape:window-height="1009"
     inkscape:window-x="-8"
     inkscape:window-y="-8"
     inkscape:window-maximized="1"
     inkscape:current-layer="layer1" />
  <defs
     id="defs1" />
  <g
     inkscape:label="Camada 1"
     inkscape:groupmode="layer"
     id="layer1"
     transform="translate(-152.39999,-89.42916)">
    <path
       style="fill:#1d1e20;stroke-linecap:round;stroke-linejoin:round"
       d="m 155.73242,89.433594 c -0.36058,-0.0086 -0.72631,-0.0047 -1.04101,0.03125 -0.31471,0.03592 -0.58168,0.07387 -0.7793,0.271484 -0.4167,0.416714 -0.69628,0.567409 -0.875,0.892578 -0.17873,0.325169 -0.16818,0.716989 -0.0703,1.5 l -0.002,-0.0332 c -0.0141,0.790782 -0.36806,1.567844 -0.4375,2.470703 -0.28953,3.763795 -0.0175,7.701154 0.14453,11.427734 0.14766,3.39576 0.14649,6.81429 0.14649,10.22266 0,0.59517 0.0711,1.37471 0.10547,2.14453 0.0344,0.76982 0.0284,1.53077 -0.0977,2.03515 -0.15449,0.61795 -0.1543,1.18545 -0.1543,1.8125 0,0.15337 -0.006,1.76002 -0.01,3.32422 -0.002,0.78211 -0.003,1.55479 -0.002,2.13477 7e-4,0.28999 0.002,0.53185 0.004,0.70312 0.001,0.0856 0.002,0.15392 0.004,0.20313 7.6e-4,0.0246 7.7e-4,0.0427 0.002,0.0606 5.9e-4,0.009 0.002,0.0186 0.004,0.0312 8.2e-4,0.006 4.8e-4,0.0128 0.004,0.0273 0.002,0.007 0.01,0.0309 0.01,0.0312 1.2e-4,3e-4 0.0546,0.0858 0.0547,0.0859 0.10517,0.10519 0.23201,0.13977 0.32617,0.16015 0.0942,0.0204 0.16798,0.0299 0.20703,0.043 0.23616,0.0787 0.5848,0.0984 1.05469,0.11524 0.46989,0.0169 1.0365,0.0179 1.60156,0.01 1.13011,-0.0162 2.21825,-0.065 2.57031,-0.11523 0.44951,-0.0642 0.82005,-0.24801 1.16407,-0.29102 1.54091,-0.1926 3.3331,0.002 4.93945,0.002 4.15955,0 8.28814,-0.0624 12.4375,-0.29296 4.9655,-0.27587 10.04049,0 15.04101,0 11.37076,0 22.70123,-0.14649 34.05664,-0.14649 h 5.55469 c -0.0212,0 0.0845,0.004 0.19531,0.01 0.11086,0.005 0.25252,0.0132 0.39454,0.0176 0.14202,0.004 0.2831,0.005 0.39843,0.002 0.0577,-0.002 0.10899,-0.005 0.15821,-0.0117 0.0246,-0.004 0.0488,-0.006 0.082,-0.0176 0.0166,-0.006 0.0343,-0.0129 0.0605,-0.0293 0.0131,-0.008 0.0285,-0.0191 0.0449,-0.0352 0.008,-0.008 0.0169,-0.0181 0.0254,-0.0293 0.008,-0.0112 0.0251,-0.0385 0.0254,-0.0391 0.072,-0.14406 0.0868,-0.29102 0.10937,-0.48047 0.0226,-0.18945 0.0401,-0.40913 0.0566,-0.63281 0.0331,-0.44737 0.0778,-0.92678 0.13868,-1.10938 -0.0113,0.0338 0.001,-0.001 0.0234,-0.0332 0.0222,-0.0321 0.0531,-0.0755 0.0859,-0.11914 0.0328,-0.0437 0.0669,-0.0883 0.0977,-0.13281 0.0308,-0.0445 0.0598,-0.0759 0.0859,-0.1543 0.0594,-0.17825 0.0377,-0.34034 0.0215,-0.46875 -0.0162,-0.12841 -0.0264,-0.22757 -0.0137,-0.29102 0.6127,-3.06356 0.44154,-6.64941 0.002,-9.72656 -0.1794,-1.25575 0.002,-2.7206 0.002,-4.05859 0,-1.95884 -0.14648,-3.90073 -0.14648,-5.84766 0,-1.24889 0.23037,-2.81502 0.57617,-4.02539 0.0108,-0.0376 0.0165,-0.0469 0.0254,-0.0742 0.003,-4.1e-4 0.0136,-0.002 0.0137,-0.002 3.7e-4,-1.4e-4 0.0446,-0.0212 0.0449,-0.0215 3.8e-4,-2.4e-4 0.0222,-0.0174 0.0312,-0.0254 0.0723,-0.0638 0.0694,-0.0953 0.0781,-0.12109 0.009,-0.0258 0.0142,-0.0469 0.0195,-0.0723 0.0215,-0.10153 0.0447,-0.26764 0.0859,-0.59766 0.30688,-2.455126 0.8789,-4.804739 0.8789,-7.337892 0,-0.04794 0.0155,-0.262358 0.0332,-0.523437 0.0177,-0.26108 0.038,-0.58331 0.0449,-0.904297 0.007,-0.320987 3.3e-4,-0.640769 -0.0352,-0.908203 -0.0177,-0.133718 -0.0416,-0.253272 -0.084,-0.363282 -0.0423,-0.110009 -0.10286,-0.225257 -0.23828,-0.292968 -0.14377,-0.07188 -0.27556,-0.0794 -0.47656,-0.09766 -0.20101,-0.01826 -0.45174,-0.02912 -0.73829,-0.03516 -0.57309,-0.01207 -1.28941,-0.0042 -2.00781,0.01172 -1.43679,0.03189 -2.90673,0.0957 -3.16992,0.0957 h -13.44727 -47.06445 c -3.59426,0 -7.17691,-0.292969 -10.81445,-0.292969 -0.0488,0 -0.28135,-0.01731 -0.56641,-0.03711 -0.28506,-0.0198 -0.63941,-0.04023 -1,-0.04883 z m -0.0117,0.480468 c 0.34845,0.0083 0.69638,0.02923 0.97852,0.04883 0.28213,0.0196 0.48274,0.03906 0.59961,0.03906 3.61168,0 7.19421,0.291016 10.81445,0.291016 h 47.06445 13.44727 c 0.33176,0 1.74996,-0.06397 3.17969,-0.0957 0.71486,-0.01587 1.42818,-0.02351 1.98828,-0.01172 0.28005,0.0059 0.52105,0.01667 0.70312,0.0332 0.18208,0.01654 0.32316,0.05709 0.30664,0.04883 -0.0353,-0.01764 -0.0165,-0.01787 0.004,0.03516 0.0204,0.05303 0.0419,0.144791 0.0566,0.25586 0.0295,0.222138 0.0359,0.523708 0.0293,0.832031 -0.007,0.308323 -0.0255,0.624535 -0.043,0.882812 -0.0175,0.258278 -0.0332,0.44487 -0.0332,0.556641 0,2.460227 -0.56376,4.787309 -0.875,7.277342 -0.0303,0.24225 -0.0442,0.32495 -0.0586,0.41406 -0.003,0.002 -0.009,1.8e-4 -0.0117,0.002 -0.0979,0.0676 -0.10642,0.11986 -0.13281,0.18164 -0.0264,0.0618 -0.0515,0.13731 -0.082,0.24414 -0.36026,1.26099 -0.59375,2.85121 -0.59375,4.1582 0,1.97085 0.14648,3.91289 0.14648,5.84766 0,1.29261 -0.19097,2.77455 0.002,4.125 0.43461,3.04229 0.59703,6.59097 0.002,9.5664 -0.0351,0.17543 -0.007,0.32581 0.008,0.44532 0.015,0.1195 0.0176,0.20301 0,0.25586 0.0113,-0.0338 -0.001,0.001 -0.0234,0.0332 -0.0222,0.0321 -0.0531,0.0755 -0.0859,0.11914 -0.0328,0.0437 -0.0669,0.0883 -0.0977,0.13281 -0.0308,0.0445 -0.0598,0.0759 -0.0859,0.1543 -0.1056,0.3168 -0.12902,0.77931 -0.16211,1.22656 -0.0165,0.22363 -0.0322,0.43895 -0.0527,0.61133 -0.014,0.11693 -0.0288,0.16197 -0.043,0.21875 -0.0961,0.003 -0.23195,3.1e-4 -0.36914,-0.004 -0.13718,-0.004 -0.27705,-0.0103 -0.38672,-0.0156 -0.10966,-0.005 -0.16219,-0.01 -0.21875,-0.01 h -5.55469 c -11.35954,0 -22.69001,0.14649 -34.05664,0.14649 -4.98273,0 -10.0651,-0.27786 -15.0664,0 -4.1365,0.22985 -8.25735,0.29297 -12.41211,0.29297 -1.56637,0 -3.37345,-0.20111 -4.99805,0.002 -0.45328,0.0567 -0.82789,0.24356 -1.17383,0.29297 -0.24036,0.0343 -1.39029,0.0933 -2.50976,0.10937 -0.55974,0.008 -1.12133,0.007 -1.57813,-0.01 -0.45679,-0.0164 -0.83382,-0.0618 -0.91797,-0.0898 -0.10714,-0.0358 -0.19649,-0.0453 -0.25781,-0.0586 -0.0167,-0.004 -0.0122,-0.004 -0.0234,-0.008 -8.1e-4,-0.0384 -0.001,-0.0717 -0.002,-0.12696 -0.002,-0.1682 -0.003,-0.40805 -0.004,-0.69726 -0.001,-0.57842 8e-5,-1.35109 0.002,-2.13281 0.004,-1.56346 0.0117,-3.15786 0.0117,-3.32618 0,-0.62696 0.001,-1.14533 0.13867,-1.69531 0.15153,-0.6061 0.14635,-1.38982 0.11133,-2.17383 -0.035,-0.784 -0.10547,-1.56651 -0.10547,-2.12304 0,-3.4082 0.002,-6.83229 -0.14649,-10.24219 -0.16243,-3.7352 -0.43226,-7.658022 -0.14648,-11.373048 0.0608,-0.79112 0.423,-1.578368 0.43945,-2.498046 a 0.24046555,0.24046555 0 0 0 -0.002,-0.03516 c -0.0956,-0.764598 -0.0772,-1.038235 0.0156,-1.207031 0.0928,-0.168796 0.34827,-0.34044 0.79297,-0.785156 0.0161,-0.01614 0.21762,-0.101251 0.49414,-0.132813 0.27652,-0.03156 0.62616,-0.0376 0.97461,-0.0293 z"
       id="path47" />
  </g>
</svg>
