<?xml version="1.0" encoding="UTF-8" standalone="no"?>
<!-- Created with Inkscape (http://www.inkscape.org/) -->

<svg
   width="84.284828mm"
   height="57.622475mm"
   viewBox="0 0 84.284828 57.622475"
   version="1.1"
   id="svg1"
   inkscape:version="1.4 (86a8ad7, 2024-10-11)"
   sodipodi:docname="fraseIdeias.svg"
   xmlns:inkscape="http://www.inkscape.org/namespaces/inkscape"
   xmlns:sodipodi="http://sodipodi.sourceforge.net/DTD/sodipodi-0.dtd"
   xmlns="http://www.w3.org/2000/svg"
   xmlns:svg="http://www.w3.org/2000/svg">
  <sodipodi:namedview
     id="namedview1"
     pagecolor="#ffffff"
     bordercolor="#000000"
     borderopacity="0.25"
     inkscape:showpageshadow="2"
     inkscape:pageopacity="0.0"
     inkscape:pagecheckerboard="0"
     inkscape:deskcolor="#d1d1d1"
     inkscape:document-units="mm"
     inkscape:zoom="1.4770342"
     inkscape:cx="171.96623"
     inkscape:cy="113.40293"
     inkscape:window-width="1920"
     inkscape:window-height="1009"
     inkscape:window-x="-8"
     inkscape:window-y="-8"
     inkscape:window-maximized="1"
     inkscape:current-layer="layer1" />
  <defs
     id="defs1" />
  <g
     inkscape:label="Camada 1"
     inkscape:groupmode="layer"
     id="layer1"
     transform="translate(-63.235385,-111.65417)">
    <path
       id="path1"
       style="-inkscape-font-specification:'Anime Ace 2.0 BB';fill:#1a1a1a;stroke-width:1.15836;stroke-linecap:round;stroke-linejoin:round;paint-order:stroke markers fill"
       d="M 108.14996 111.65417 L 108.14944 111.65469 C 107.31203 111.65469 106.61179 111.97106 106.05654 112.60243 C 105.80226 112.8924 105.66535 113.11565 105.66535 113.29748 C 105.66535 113.43561 105.69007 113.54195 105.75837 113.61632 C 105.82667 113.69072 105.92977 113.72261 106.06791 113.73415 A 0.04961709 0.04961709 0 0 0 106.06998 113.73415 C 106.44498 113.75175 106.81905 113.77056 107.19446 113.78376 C 107.67721 113.81006 108.03596 113.8671 108.26003 113.95584 C 108.30063 113.97134 108.32714 113.99167 108.34374 114.01217 C 108.36044 114.03267 108.36855 114.0547 108.36855 114.0871 C 108.36855 114.129 108.35369 114.19049 108.32359 114.2721 C 108.23559 114.4933 108.06979 114.66494 107.81871 114.78835 C 107.60094 114.89504 107.35241 114.95113 107.08129 114.95113 C 106.63748 114.95113 106.33212 114.82784 106.1537 114.58887 L 106.15163 114.58732 C 106.10813 114.51762 106.06489 114.44734 106.01624 114.37648 C 105.95344 114.28458 105.87091 114.22714 105.77646 114.22714 C 105.72446 114.22714 105.67431 114.25597 105.64933 114.30207 C 105.62443 114.34817 105.61574 114.4056 105.61574 114.47829 C 105.61574 114.65637 105.67399 114.84364 105.78783 115.03484 C 105.90124 115.22541 106.03379 115.36732 106.1878 115.46066 C 106.30155 115.52986 106.45918 115.56246 106.65857 115.56246 C 107.18466 115.56246 107.68424 115.40262 108.15874 115.09375 C 108.6562 114.77108 108.98011 114.36465 109.12922 113.87212 C 109.14912 113.81222 109.1561 113.74281 109.1561 113.66387 C 109.1561 113.56857 109.1436 113.48857 109.1132 113.42409 C 109.0829 113.35959 109.0331 113.31059 108.97058 113.28611 C 108.81455 113.22761 108.4816 113.18127 107.95514 113.14142 C 107.51692 113.10632 107.16653 113.08942 106.90042 113.08922 C 106.89542 113.08932 106.89563 113.08912 106.89163 113.08922 C 106.72877 113.09422 106.60391 113.09157 106.52525 113.08457 C 106.49035 113.08157 106.4688 113.07729 106.4529 113.07269 C 106.4549 113.06669 106.45293 113.06992 106.45755 113.06132 C 106.46925 113.04072 106.48896 113.0116 106.51646 112.9776 A 0.04961709 0.04961709 0 0 0 106.51853 112.9776 C 106.83232 112.57355 107.24632 112.37557 107.77634 112.37557 C 107.81464 112.37557 107.85108 112.37774 107.88744 112.38074 C 107.91444 112.47634 107.93937 112.56254 107.96857 112.61845 C 107.98557 112.65085 108.00412 112.67702 108.02542 112.69752 C 108.04682 112.71802 108.07515 112.73369 108.10655 112.73369 C 108.18825 112.73369 108.27905 112.69638 108.38508 112.62724 C 108.49234 112.55734 108.55665 112.484 108.55665 112.39624 C 108.55665 112.32744 108.54329 112.24088 108.52099 112.13373 C 108.49449 112.01029 108.47705 111.92479 108.47345 111.89188 C 108.46445 111.79978 108.43727 111.73248 108.37837 111.69499 C 108.31937 111.65749 108.24672 111.65417 108.14996 111.65417 z M 118.86765 111.65417 L 118.86661 111.65469 C 118.02922 111.65469 117.32897 111.97106 116.77372 112.60243 C 116.51944 112.8924 116.38253 113.11565 116.38253 113.29748 C 116.38253 113.43561 116.40725 113.54195 116.47555 113.61632 C 116.54385 113.69072 116.64695 113.72261 116.78509 113.73415 C 117.16009 113.75175 117.53672 113.77056 117.91215 113.78376 C 118.39488 113.81006 118.75107 113.8671 118.97514 113.95584 A 0.04961709 0.04961709 0 0 0 118.9772 113.95584 C 119.0179 113.97134 119.04432 113.99167 119.06092 114.01217 C 119.07762 114.03267 119.08572 114.0547 119.08572 114.0871 C 119.08572 114.129 119.07086 114.19049 119.04076 114.2721 C 118.95266 114.4933 118.78699 114.66494 118.53589 114.78835 C 118.31813 114.89504 118.06958 114.95113 117.79846 114.95113 C 117.35466 114.95113 117.0493 114.82784 116.87087 114.58887 L 116.8688 114.58732 C 116.8253 114.51762 116.78206 114.44734 116.73341 114.37648 C 116.67061 114.28458 116.58755 114.22714 116.49312 114.22714 C 116.44102 114.22714 116.39139 114.25597 116.36651 114.30207 C 116.34161 114.34817 116.33292 114.4056 116.33292 114.47829 C 116.33292 114.65637 116.38853 114.84364 116.50242 115.03484 C 116.61583 115.22541 116.75096 115.36732 116.90498 115.46066 C 117.01873 115.52986 117.17636 115.56246 117.37575 115.56246 C 117.90184 115.56246 118.40141 115.40262 118.87592 115.09375 C 119.37337 114.77108 119.69472 114.36465 119.84382 113.87212 C 119.86372 113.81222 119.87327 113.74281 119.87327 113.66387 C 119.87327 113.56857 119.86078 113.48857 119.83038 113.42409 C 119.80008 113.35959 119.75029 113.31059 119.68775 113.28611 A 0.04961709 0.04961709 0 0 0 119.68569 113.28611 C 119.52965 113.22761 119.19877 113.18127 118.67231 113.14142 C 118.23408 113.10632 117.88423 113.08942 117.61811 113.08922 C 117.61311 113.08932 117.61281 113.08912 117.60881 113.08922 C 117.44594 113.09422 117.32107 113.09157 117.24242 113.08457 C 117.20852 113.08157 117.18608 113.07729 117.17008 113.07269 C 117.17208 113.06669 117.17063 113.06992 117.17525 113.06132 C 117.18695 113.04072 117.20656 113.0115 117.23416 112.9776 C 117.54795 112.57355 117.96194 112.37557 118.49196 112.37557 C 118.52976 112.37557 118.56669 112.37774 118.60255 112.38074 C 118.62955 112.47634 118.65696 112.56253 118.68626 112.61845 C 118.70326 112.65085 118.72181 112.67702 118.74311 112.69752 C 118.76451 112.71802 118.79284 112.73369 118.82424 112.73369 C 118.90594 112.73369 118.99676 112.69638 119.10278 112.62724 C 119.21005 112.55734 119.27486 112.484 119.27486 112.39624 C 119.27486 112.32744 119.26098 112.24088 119.23868 112.13373 C 119.21218 112.01029 119.19474 111.92479 119.19114 111.89188 C 119.18214 111.79978 119.15496 111.73248 119.09606 111.69499 C 119.03706 111.65749 118.96442 111.65417 118.86765 111.65417 z M 95.090805 111.72497 C 94.908375 111.72497 94.766798 111.81773 94.703748 111.98748 L 94.201454 113.34037 C 93.999146 113.85931 93.796109 114.29341 93.590638 114.64313 C 93.533298 114.72713 93.48288 114.81131 93.430441 114.89428 C 93.353991 115.01563 93.307968 115.09523 93.307968 115.17075 C 93.307968 115.26855 93.348134 115.37299 93.427857 115.47616 C 93.507667 115.5796 93.598775 115.64101 93.701742 115.64101 C 93.766262 115.64101 93.817742 115.59618 93.86659 115.53042 C 93.91107 115.47052 93.95594 115.38014 94.002499 115.27255 C 94.790267 115.12744 95.44985 114.99156 95.982223 114.86276 L 96.108831 115.16817 A 0.04961709 0.04961709 0 0 0 96.108831 115.17023 C 96.150071 115.25263 96.193272 115.31704 96.238022 115.36247 C 96.282852 115.40787 96.332344 115.4374 96.387367 115.4374 C 96.476097 115.4374 96.567974 115.40042 96.654017 115.32888 C 96.740547 115.25678 96.789926 115.17023 96.789926 115.07773 C 96.789926 115.04133 96.77632 115.00903 96.75582 114.96456 C 96.73532 114.92006 96.705453 114.86606 96.667453 114.80126 L 96.509323 114.55063 L 96.509323 114.54857 C 96.163355 113.96586 95.837298 113.26806 95.534189 112.45567 L 95.534189 112.4536 L 95.437037 112.15957 C 95.397307 112.04055 95.362728 111.9434 95.319215 111.87018 C 95.268945 111.77968 95.186752 111.72497 95.090805 111.72497 z M 101.97307 111.72497 C 101.79064 111.72497 101.64906 111.81773 101.58602 111.98748 L 101.08424 113.34037 C 100.88196 113.8593 100.68096 114.29341 100.47549 114.64313 C 100.41789 114.72743 100.36532 114.81098 100.31271 114.89428 C 100.23631 115.01563 100.19024 115.09523 100.19024 115.17075 C 100.19024 115.26855 100.23042 115.37299 100.31012 115.47616 C 100.39002 115.5796 100.48103 115.64101 100.58401 115.64101 C 100.64851 115.64101 100.70052 115.59618 100.74937 115.53042 C 100.79387 115.47052 100.83822 115.38014 100.88477 115.27255 C 101.67253 115.12744 102.33214 114.99156 102.86449 114.86276 L 102.9911 115.16817 A 0.04961709 0.04961709 0 0 0 102.9911 115.17023 C 103.0323 115.25263 103.07554 115.31704 103.12029 115.36247 C 103.16509 115.40787 103.21461 115.4374 103.26963 115.4374 C 103.35833 115.4374 103.45022 115.40042 103.53628 115.32888 C 103.62278 115.25678 103.67219 115.17023 103.67219 115.07773 C 103.67219 115.04133 103.65859 115.00903 103.63809 114.96456 C 103.61759 114.92006 103.5902 114.86606 103.5523 114.80126 A 0.04961709 0.04961709 0 0 0 103.55024 114.80126 L 103.39211 114.55063 L 103.39211 114.54857 C 103.04614 113.96586 102.72009 113.26806 102.41697 112.45567 L 102.41697 112.4536 L 102.3193 112.15957 C 102.2796 112.04057 102.24565 111.94347 102.202 111.87018 C 102.1517 111.77968 102.06953 111.72497 101.97359 111.72497 L 101.97307 111.72497 z M 114.51598 111.72497 C 114.33354 111.72497 114.19196 111.81773 114.12892 111.98748 L 113.62714 113.34037 C 113.42484 113.85931 113.22385 114.29341 113.01839 114.64313 C 112.96079 114.72743 112.90824 114.81098 112.85561 114.89428 C 112.77911 115.01563 112.73314 115.09523 112.73314 115.17075 C 112.73314 115.26855 112.77332 115.37299 112.85303 115.47616 C 112.93293 115.5796 113.02394 115.64101 113.12691 115.64101 C 113.19141 115.64101 113.24344 115.59618 113.29228 115.53042 C 113.33678 115.47052 113.38113 115.38014 113.42767 115.27255 C 114.21544 115.12744 114.87501 114.99156 115.40739 114.86276 L 115.534 115.16817 A 0.04961709 0.04961709 0 0 0 115.534 115.17023 C 115.5751 115.25263 115.61833 115.31704 115.66319 115.36247 C 115.70799 115.40787 115.75752 115.4374 115.81254 115.4374 C 115.90124 115.4374 115.99314 115.40042 116.07919 115.32888 C 116.16569 115.25678 116.2151 115.17023 116.2151 115.07773 C 116.2151 115.04133 116.20149 115.00903 116.18099 114.96456 C 116.16049 114.92006 116.13301 114.86606 116.09521 114.80126 A 0.04961709 0.04961709 0 0 0 116.09314 114.80126 L 115.93501 114.55063 L 115.93501 114.54857 C 115.58905 113.96586 115.26299 113.26806 114.95988 112.45567 L 114.95988 112.4536 L 114.86272 112.16163 A 0.04961709 0.04961709 0 0 0 114.86272 112.16112 A 0.04961709 0.04961709 0 0 0 114.86272 112.1606 A 0.04961709 0.04961709 0 0 0 114.86272 112.16008 A 0.04961709 0.04961709 0 0 0 114.86272 112.15957 C 114.82302 112.04055 114.78845 111.9434 114.7449 111.87018 C 114.6946 111.77968 114.61243 111.72548 114.51649 111.72548 L 114.51598 111.72497 z M 92.554526 111.7384 C 92.308871 111.7384 92.078588 111.76115 91.866712 111.81075 C 91.806132 111.82585 91.599266 111.89038 91.224374 112.00505 C 91.102838 112.04105 91.031491 112.06994 90.989246 112.10014 C 90.922066 112.15184 90.880136 112.23085 90.864706 112.32183 C 90.861206 112.33513 90.861155 112.34274 90.860055 112.35594 C 90.859337 112.36914 90.857472 112.38565 90.857472 112.40555 C 90.856881 112.44545 90.857472 112.50044 90.857472 112.56884 C 90.857472 112.70016 90.86817 113.00331 90.88486 113.45561 C 90.8405 113.47461 90.793402 113.49331 90.767038 113.53261 C 90.731828 113.58511 90.717428 113.65166 90.717428 113.72898 C 90.717428 113.81478 90.732782 113.88816 90.769622 113.94654 C 90.798582 113.99234 90.847997 114.01734 90.898296 114.03904 C 90.906396 114.45957 90.916982 114.79106 90.927752 115.01882 C 90.933552 115.13533 90.939698 115.22573 90.945838 115.29271 C 90.951638 115.35971 90.954086 115.39429 90.968576 115.4281 A 0.04961709 0.04961709 0 0 0 90.968576 115.43017 C 91.003676 115.50607 91.084973 115.54799 91.180966 115.54799 C 91.267616 115.54799 91.35181 115.52853 91.430046 115.48443 A 0.04961709 0.04961709 0 0 0 91.430046 115.48391 A 0.04961709 0.04961709 0 0 0 91.430046 115.48339 A 0.04961709 0.04961709 0 0 0 91.430046 115.48288 A 0.04961709 0.04961709 0 0 0 91.430046 115.48236 C 91.522016 115.42906 91.583525 115.35306 91.583525 115.2586 C 91.583525 115.1627 91.574323 115.05105 91.552003 114.91237 A 0.04961709 0.04961709 0 0 0 91.552003 114.91185 A 0.04961709 0.04961709 0 0 0 91.552003 114.91134 A 0.04961709 0.04961709 0 0 0 91.552003 114.91082 A 0.04961709 0.04961709 0 0 0 91.552003 114.9103 C 91.530223 114.80153 91.513286 114.68848 91.495676 114.57802 C 91.458606 114.32726 91.440837 114.11855 91.434697 113.9424 C 91.91558 113.77724 92.559342 113.64355 93.382382 113.54863 C 93.524606 113.53483 93.62089 113.50985 93.669703 113.44011 C 93.690443 113.41131 93.697092 113.37757 93.697092 113.34967 C 93.697092 113.26137 93.638572 113.18549 93.547747 113.12333 C 93.460407 113.06353 93.378733 113.02523 93.298666 113.01016 C 93.236806 112.99976 93.159666 112.99672 93.065606 112.99672 C 92.571657 112.99672 92.020697 113.09607 91.423329 113.27268 C 91.424116 113.10273 91.429278 112.92878 91.439348 112.74971 C 91.718085 112.63141 91.970801 112.54977 92.190207 112.51252 A 0.04961709 0.04961709 0 0 0 92.192274 112.51252 C 92.31125 112.49132 92.584044 112.45955 93.00256 112.42415 C 93.09766 112.41715 93.172966 112.39907 93.228903 112.36317 C 93.284853 112.32727 93.316753 112.2677 93.316753 112.20246 C 93.316753 112.11326 93.269687 112.02424 93.190146 111.93529 C 93.109526 111.84519 93.007674 111.78117 92.891456 111.75649 L 92.889389 111.75649 C 92.820699 111.74099 92.713211 111.7384 92.554526 111.7384 z M 99.507073 111.74719 C 98.799116 111.74719 98.176454 111.98025 97.651889 112.45102 C 97.104921 112.93969 96.828167 113.53937 96.828167 114.24058 C 96.828167 114.6065 96.92439 114.91489 97.118071 115.15008 C 97.276141 115.34602 97.485246 115.46782 97.734571 115.51543 C 97.762868 115.57556 97.791926 115.63156 97.81622 115.68183 C 97.8561 115.76433 97.884658 115.83552 97.894768 115.88285 C 97.904868 115.93015 97.903034 115.9458 97.890634 115.9707 C 97.895334 115.9607 97.802007 116.12408 97.732504 116.24614 C 97.697754 116.30714 97.665867 116.36507 97.642587 116.40995 C 97.630947 116.43235 97.622874 116.44243 97.609514 116.48023 C 97.606214 116.48923 97.601949 116.50036 97.597629 116.52726 C 97.596529 116.53426 97.595662 116.55228 97.595562 116.55258 C 97.595548 116.55283 97.595541 116.59165 97.595562 116.59185 C 97.595583 116.59204 97.613072 116.65635 97.613132 116.65645 C 97.613189 116.65659 97.673493 116.7442 97.673593 116.7443 C 97.673686 116.74438 97.787152 116.80063 97.787281 116.80063 C 97.787411 116.80066 97.878578 116.80066 97.878748 116.80063 C 97.879082 116.80057 97.960434 116.76785 97.960914 116.76755 C 97.9614 116.76724 97.98364 116.75165 97.99037 116.74585 C 97.99707 116.73985 98.001832 116.73435 98.005872 116.73035 A 0.23682749 0.23682749 0 0 0 98.060649 116.63268 C 98.062249 116.62868 98.060179 116.63499 98.064267 116.62699 C 98.080647 116.59539 98.110675 116.53941 98.144365 116.48023 C 98.211735 116.36191 98.277368 116.25616 98.314381 116.18154 C 98.380971 116.04839 98.384609 115.90149 98.359339 115.78312 C 98.337539 115.68096 98.298441 115.59437 98.260121 115.5144 C 98.714542 115.44467 99.221318 115.21269 99.783025 114.81987 C 99.847195 114.77287 99.917465 114.72869 99.989214 114.67931 A 0.04961709 0.04961709 0 0 0 99.993348 114.67466 C 100.06471 114.61466 100.09184 114.55315 100.1091 114.48914 A 0.04961709 0.04961709 0 0 0 100.11117 114.48914 C 100.11617 114.47364 100.13804 114.45976 100.13804 114.44366 C 100.13804 114.36686 100.13099 114.30626 100.10859 114.25815 C 100.08639 114.21005 100.03851 114.17236 99.98663 114.17236 C 99.96068 114.17236 99.950286 114.17897 99.929786 114.18787 C 99.909166 114.19587 99.884288 114.20864 99.852788 114.22404 C 99.789888 114.25494 99.70341 114.30022 99.592856 114.35995 C 99.320583 114.50927 99.093045 114.61865 98.914344 114.69274 C 98.622425 114.81038 98.37185 114.86896 98.174338 114.86896 C 98.119863 114.86896 98.067845 114.86546 98.017758 114.85863 A 0.23682749 0.23682749 0 0 0 97.890634 114.80437 L 97.890634 114.80488 A 0.23682749 0.23682749 0 0 0 97.822938 114.80798 C 97.74489 114.77901 97.671638 114.74151 97.604347 114.69016 C 97.428948 114.55653 97.346481 114.3946 97.346481 114.18321 C 97.346481 113.87757 97.493775 113.55266 97.796583 113.20601 C 98.126636 112.8342 98.612333 112.60093 99.241973 112.49546 L 99.289515 112.71509 A 0.04961709 0.04961709 0 0 0 99.292099 112.72025 C 99.312949 112.78965 99.335933 112.8422 99.366513 112.88304 C 99.397093 112.92394 99.440373 112.95332 99.488986 112.95332 C 99.579566 112.95332 99.6717 112.91167 99.769072 112.84221 A 0.04961709 0.04961709 0 0 0 99.771656 112.84221 C 99.870926 112.76661 99.927719 112.68138 99.927719 112.58693 C 99.927719 112.52633 99.906916 112.45012 99.875526 112.34715 C 99.845066 112.24715 99.830567 112.17413 99.830567 112.13218 C 99.830567 112.05828 99.827933 111.99916 99.823333 111.95338 C 99.818733 111.90758 99.811991 111.87576 99.796461 111.84692 A 0.04961709 0.04961709 0 0 0 99.796461 111.84641 A 0.04961709 0.04961709 0 0 0 99.796461 111.84589 A 0.04961709 0.04961709 0 0 0 99.796461 111.84537 A 0.04961709 0.04961709 0 0 0 99.796461 111.84486 C 99.772831 111.80776 99.733313 111.78276 99.685357 111.76786 C 99.637397 111.75296 99.578143 111.7477 99.506556 111.7477 L 99.507073 111.74719 z M 112.22568 111.8309 L 112.22619 111.83142 C 112.03322 111.83142 111.88427 111.90902 111.81898 112.05983 C 111.77728 112.15363 111.76266 112.2977 111.76266 112.50786 C 111.76266 112.93703 111.7804 113.4821 111.8102 114.13464 C 111.59938 114.24121 111.34412 114.35786 111.03867 114.48087 C 110.63905 114.64337 110.37127 114.72065 110.2537 114.72065 C 110.2229 114.72065 110.20971 114.71271 110.20151 114.70721 C 110.20651 114.71021 110.19567 114.69692 110.18807 114.66432 C 110.18007 114.63022 110.17104 114.58159 110.16534 114.51704 C 110.15374 114.38795 110.14932 114.20032 110.14932 113.95842 C 110.14932 113.31959 110.16696 112.82124 110.20616 112.47634 C 110.22386 112.31534 110.23819 112.19838 110.24699 112.12132 C 110.25199 112.08272 110.25377 112.05233 110.25577 112.03503 C 110.25622 112.03203 110.25542 112.03031 110.25577 112.02831 L 110.2537 112.03037 L 110.24492 112.04381 L 110.23303 112.0526 L 110.20513 112.04898 C 110.2054 112.04754 110.20978 112.00699 110.20978 112.00815 L 110.20978 112.00764 L 110.25939 112.00764 L 110.25939 112.00557 C 110.25938 112.00551 110.25732 112.00092 110.25732 112.00092 L 110.25732 111.99575 L 110.25732 111.99368 L 110.25009 111.97766 C 110.25009 111.97766 110.2433 111.97495 110.2413 111.97095 C 110.24057 111.97018 110.23923 111.96888 110.23923 111.96888 C 110.23023 111.93328 110.22428 111.89469 110.19428 111.87379 C 110.15198 111.84429 110.09861 111.83504 110.03356 111.83504 C 109.82475 111.83504 109.66593 111.90357 109.59896 112.04794 C 109.55516 112.14094 109.54264 112.29524 109.54264 112.52285 C 109.54264 112.81114 109.55413 113.20999 109.57623 113.70882 C 109.60713 114.27749 109.62195 114.66983 109.62635 114.88963 L 109.62635 114.94182 A 0.04961709 0.04961709 0 0 0 109.62635 114.95061 C 109.62935 114.96981 109.63135 115.00146 109.62635 115.04776 C 109.62135 115.09856 109.62118 115.13691 109.62118 115.15887 C 109.62118 115.25257 109.64313 115.33064 109.69353 115.38521 C 109.74383 115.43981 109.81768 115.46427 109.90385 115.46427 C 110.13218 115.46427 110.46948 115.3815 110.92188 115.22191 C 111.29958 115.08644 111.59541 114.95419 111.83862 114.82142 C 111.84162 114.9604 111.84639 115.08775 111.84999 115.16765 C 111.85199 115.21595 111.85522 115.25315 111.85722 115.28082 C 111.85822 115.29462 111.85773 115.3075 111.85877 115.317 C 111.85977 115.326 111.86001 115.33138 111.86601 115.34438 C 111.88291 115.38638 111.91349 115.42014 111.95179 115.44154 C 111.99019 115.46294 112.03312 115.47306 112.08305 115.47306 C 112.16775 115.47306 112.25686 115.44643 112.33885 115.39813 C 112.42552 115.34933 112.47923 115.27451 112.48096 115.1878 A 0.04961709 0.04961709 0 0 0 112.48354 115.18367 C 112.48354 115.15947 112.47861 115.12018 112.47011 115.04311 C 112.46111 114.96611 112.44698 114.85872 112.42928 114.71962 C 112.38978 114.39478 112.3683 114.07835 112.3683 113.77187 C 112.3683 113.33728 112.38515 112.95082 112.41585 112.61328 L 112.41585 112.61122 L 112.45667 112.31511 A 0.04961709 0.04961709 0 0 0 112.45667 112.31459 A 0.04961709 0.04961709 0 0 0 112.45667 112.31408 A 0.04961709 0.04961709 0 0 0 112.45667 112.31356 A 0.04961709 0.04961709 0 0 0 112.45667 112.31304 C 112.46997 112.19326 112.47941 112.09072 112.47941 112.00764 C 112.47941 111.95264 112.45068 111.90125 112.40448 111.87173 C 112.35828 111.84223 112.29946 111.8309 112.22568 111.8309 z M 95.056698 112.69132 C 95.338169 113.34681 95.562101 113.86754 95.706271 114.21629 C 95.285542 114.36883 94.817158 114.4837 94.307907 114.5713 C 94.683263 113.60206 94.930946 112.98429 95.056698 112.69132 z M 101.93897 112.69132 C 102.22045 113.34681 102.44438 113.86754 102.58854 114.21629 C 102.16826 114.36852 101.69873 114.48383 101.19017 114.5713 C 101.56553 113.60206 101.81323 112.98429 101.93897 112.69132 z M 114.48187 112.69338 C 114.76282 113.34767 114.98744 113.86797 115.13144 114.21629 C 114.71115 114.36853 114.24164 114.48384 113.73308 114.5713 C 114.10791 113.60343 114.35593 112.98691 114.48187 112.69338 z M 97.787281 116.33605 C 97.787253 116.33606 97.79841 116.33605 97.802784 116.33605 A 0.23682749 0.23682749 0 0 0 97.780046 116.33864 C 97.781208 116.33817 97.787311 116.33605 97.787281 116.33605 z M 97.861695 116.33605 C 97.866887 116.33605 97.878773 116.33606 97.878748 116.33605 C 97.878742 116.33605 97.883905 116.33838 97.884433 116.33864 A 0.23682749 0.23682749 0 0 0 97.861695 116.33605 z M 97.713384 116.36499 A 0.23682749 0.23682749 0 0 0 97.669976 116.39652 C 97.672376 116.39452 97.676441 116.3917 97.681861 116.3867 C 97.687261 116.3817 97.709223 116.36676 97.708733 116.36706 C 97.708704 116.36708 97.712872 116.36519 97.713384 116.36499 z M 97.976934 116.38411 C 97.979788 116.38551 97.990381 116.39084 97.99037 116.39083 C 97.990364 116.39082 97.993487 116.39552 97.993987 116.39652 A 0.23682749 0.23682749 0 0 0 97.976934 116.38411 z " />
    <path
       id="path3"
       style="color:#000000;font-style:normal;font-variant:normal;font-weight:normal;font-stretch:normal;font-size:medium;line-height:normal;font-family:sans-serif;-inkscape-font-specification:'Anime Ace 2.0 BB';font-variant-ligatures:normal;font-variant-position:normal;font-variant-caps:normal;font-variant-numeric:normal;font-variant-alternates:normal;font-variant-east-asian:normal;font-feature-settings:normal;font-variation-settings:normal;text-indent:0;text-align:start;text-decoration-line:none;text-decoration-style:solid;text-decoration-color:#000000;letter-spacing:normal;word-spacing:normal;text-transform:none;writing-mode:lr-tb;direction:ltr;text-orientation:mixed;dominant-baseline:auto;baseline-shift:baseline;text-anchor:start;white-space:normal;shape-padding:0;shape-margin:0;inline-size:0;clip-rule:nonzero;display:inline;overflow:visible;visibility:visible;isolation:auto;mix-blend-mode:normal;color-interpolation:sRGB;color-interpolation-filters:linearRGB;solid-color:#000000;solid-opacity:1;vector-effect:none;fill:#1a1a1a;fill-opacity:1;fill-rule:nonzero;stroke:none;stroke-width:1.15836;stroke-linecap:round;stroke-linejoin:round;stroke-miterlimit:4;stroke-dasharray:none;stroke-dashoffset:0;stroke-opacity:1;-inkscape-stroke:none;paint-order:stroke markers fill;color-rendering:auto;image-rendering:auto;shape-rendering:auto;text-rendering:auto;enable-background:accumulate;stop-color:#000000"
       d="M 100.96073 142.06213 A 0.23682749 0.23682749 0 0 0 100.90802 142.0704 C 99.987894 142.32137 100.39897 142.20617 99.664169 142.41612 A 0.23682749 0.23682749 0 0 0 99.501905 142.70912 A 0.23682749 0.23682749 0 0 0 99.794911 142.87087 C 100.53049 142.6607 100.11193 142.77847 101.03308 142.52722 A 0.23682749 0.23682749 0 0 0 101.19948 142.23628 A 0.23682749 0.23682749 0 0 0 100.96073 142.06213 z M 110.79631 143.19901 C 110.72821 143.19901 110.66344 143.22466 110.61544 143.27136 C 110.56744 143.31806 110.53506 143.38265 110.51364 143.46566 C 110.42084 143.83209 110.35414 144.10748 110.31417 144.29404 C 110.16576 144.88349 110.01666 145.383 109.862 145.83245 C 109.5932 145.12172 109.38223 144.49662 109.26462 144.01809 L 109.19434 143.7194 A 0.04961709 0.04961709 0 0 0 109.19227 143.71733 C 109.16927 143.64133 109.1461 143.58211 109.1132 143.53853 C 109.0803 143.49493 109.03267 143.46411 108.98195 143.46411 C 108.91385 143.46411 108.85157 143.49016 108.80315 143.53646 C 108.75475 143.58276 108.72033 143.64798 108.69669 143.73077 L 108.35304 145.01596 C 108.21689 145.50321 108.07604 145.91982 107.9231 146.27376 L 107.81664 146.50217 C 107.76734 146.61442 107.73758 146.69162 107.73758 146.75332 C 107.73758 146.83832 107.77243 146.93273 107.84145 147.04322 C 107.87635 147.10372 107.91073 147.14922 107.94997 147.18327 C 107.98927 147.21737 108.03642 147.23959 108.08381 147.23959 C 108.14571 147.23959 108.19783 147.19466 108.23316 147.12901 A 0.04961709 0.04961709 0 0 0 108.23316 147.12384 C 108.29976 146.96841 108.3415 146.84882 108.36441 146.7621 L 108.36441 146.76004 C 108.66251 145.84122 108.8491 145.24221 108.97264 144.84129 L 109.54522 146.68769 C 109.54422 146.70069 109.54005 146.71563 109.54005 146.72593 C 109.54005 146.82798 109.57004 146.93366 109.62584 147.04064 C 109.69144 147.1577 109.77072 147.23494 109.8682 147.23494 C 109.9301 147.23494 109.98183 147.19493 110.02633 147.13573 C 110.03793 147.12113 110.04177 147.11053 110.04907 147.09283 C 110.05607 147.07513 110.06407 147.05262 110.07387 147.02462 C 110.09357 146.96852 110.11997 146.88963 110.15087 146.78949 C 110.21287 146.58921 110.29854 146.30025 110.40667 145.92288 C 110.52312 145.51918 110.6368 145.11654 110.75031 144.71262 C 110.86105 145.08994 110.97064 145.46721 111.07846 145.84847 C 111.18225 146.20612 111.26347 146.47905 111.32496 146.6696 C 111.35566 146.7649 111.38165 146.8392 111.40195 146.89336 C 111.41235 146.92046 111.42164 146.94408 111.42934 146.96158 C 111.43634 146.97798 111.44206 146.9898 111.45156 147.0024 C 111.45199 147.003 111.45363 147.00179 111.45363 147.0024 C 111.45405 147.00293 111.45321 147.00295 111.45363 147.00395 C 111.48463 147.04555 111.53353 147.06751 111.58024 147.06751 C 111.67154 147.06751 111.7579 147.01251 111.8381 146.92282 C 111.9178 146.83382 111.96523 146.7448 111.96523 146.65565 C 111.96523 146.65523 111.96563 146.64688 111.96523 146.64428 C 111.96482 146.64228 111.96316 146.64211 111.96316 146.63911 C 111.96229 146.63611 111.96209 146.63235 111.96109 146.62775 C 111.95909 146.61975 111.95381 146.61039 111.94921 146.59829 C 111.94121 146.57399 111.93005 146.53844 111.91355 146.49442 C 111.88035 146.40622 111.83043 146.27983 111.76421 146.11202 C 111.54086 145.55584 111.3235 144.82848 111.1167 143.94005 L 111.1167 143.93799 C 111.0904 143.8063 111.0644 143.67429 111.0335 143.5375 A 0.04961709 0.04961709 0 0 0 111.0335 143.53698 A 0.04961709 0.04961709 0 0 0 111.0335 143.53646 A 0.04961709 0.04961709 0 0 0 111.0335 143.53594 A 0.04961709 0.04961709 0 0 0 111.0335 143.53543 C 111.0063 143.4335 110.97648 143.35526 110.94048 143.29772 C 110.90462 143.24034 110.85588 143.19933 110.79631 143.19901 z M 119.8278 143.25327 C 119.24228 143.25327 118.72028 143.4667 118.2713 143.88424 C 117.81309 144.31101 117.57884 144.82029 117.57884 145.4025 C 117.57884 145.91245 117.75809 146.34372 118.11524 146.69182 C 118.47229 147.03531 118.91093 147.20807 119.42059 147.20807 C 120.00585 147.20807 120.52832 146.99873 120.98173 146.58124 C 121.44007 146.15436 121.67161 145.64055 121.67161 145.05833 C 121.67161 144.54808 121.48832 144.11732 121.13108 143.77366 C 120.77399 143.42561 120.33746 143.25327 119.8278 143.25327 z M 93.792176 143.25741 L 93.791659 143.25793 C 92.954267 143.25793 92.254531 143.57482 91.699281 144.20619 C 91.444997 144.49616 91.307573 144.7189 91.307573 144.90072 C 91.307573 145.03886 91.332241 145.14519 91.400591 145.21956 C 91.468931 145.29396 91.572502 145.32585 91.710649 145.33739 A 0.04961709 0.04961709 0 0 0 91.712717 145.33739 C 92.087714 145.35499 92.461771 145.37379 92.837196 145.38699 C 93.319933 145.41329 93.678679 145.47034 93.902764 145.55908 C 93.943424 145.57458 93.9698 145.5949 93.98648 145.6154 C 94.00316 145.6359 94.011284 145.65794 94.011284 145.69034 C 94.011284 145.73224 93.996446 145.79424 93.966326 145.87585 C 93.878056 146.09634 93.71199 146.26845 93.461447 146.39158 C 93.243687 146.49827 92.995139 146.55437 92.724024 146.55437 C 92.28022 146.55437 91.974866 146.4316 91.796432 146.19263 L 91.794365 146.19056 C 91.750815 146.12086 91.707094 146.0511 91.658456 145.98024 C 91.595676 145.88834 91.513107 145.8309 91.418678 145.8309 C 91.366548 145.8309 91.316951 145.85921 91.29207 145.90531 C 91.26716 145.95141 91.260031 146.00935 91.260031 146.08204 C 91.260031 146.26012 91.316199 146.4474 91.430046 146.6386 C 91.54345 146.82917 91.676523 146.97055 91.830539 147.06389 C 91.944291 147.13309 92.101405 147.1657 92.300794 147.1657 C 92.826877 147.1657 93.328516 147.00638 93.803028 146.69751 C 94.300488 146.37484 94.62234 145.96841 94.771445 145.47588 C 94.791365 145.41598 94.8009 145.34656 94.8009 145.26762 A 0.04961709 0.04961709 0 0 0 94.798833 145.26245 C 94.798335 145.16945 94.785712 145.09062 94.755942 145.02733 C 94.725592 144.96283 94.675811 144.91384 94.613315 144.88935 C 94.457283 144.83085 94.12382 144.78399 93.597356 144.74414 C 93.160062 144.70914 92.811138 144.69276 92.545224 144.69246 L 92.543157 144.69246 C 92.538557 144.69257 92.538555 144.69236 92.533855 144.69246 C 92.370989 144.69746 92.245605 144.6943 92.166952 144.6873 C 92.132082 144.6843 92.110475 144.68053 92.094605 144.67593 C 92.096905 144.66993 92.095038 144.67264 92.099256 144.66404 C 92.110956 144.64344 92.130587 144.61413 92.158167 144.58033 A 0.04961709 0.04961709 0 0 0 92.160751 144.58033 C 92.47454 144.17628 92.888535 143.97881 93.418556 143.97881 C 93.456896 143.97881 93.492768 143.98046 93.529143 143.98346 C 93.556133 144.07906 93.583549 144.16526 93.612859 144.22117 C 93.629889 144.25357 93.646206 144.27974 93.667636 144.30024 C 93.689066 144.32074 93.717378 144.33641 93.748768 144.33641 C 93.830428 144.33641 93.921279 144.2991 94.027304 144.22996 C 94.134569 144.16016 94.19887 144.08723 94.19887 143.99948 C 94.19887 143.93068 94.185056 143.84412 94.162696 143.73697 C 94.136286 143.61347 94.119261 143.52794 94.115671 143.49512 C 94.106371 143.40302 94.079436 143.33573 94.020586 143.29823 C 93.961626 143.26073 93.888946 143.25741 93.792176 143.25741 z M 100.08843 143.29152 L 100.08843 143.29203 C 99.54394 143.29203 99.083923 143.39609 98.712806 143.60881 C 98.591827 143.67931 98.529355 143.80738 98.529355 143.97313 C 98.529355 144.06393 98.548308 144.14561 98.581548 144.22169 C 98.625798 144.32502 98.706214 144.38912 98.800656 144.38912 C 98.824746 144.38912 98.844897 144.38252 98.875587 144.37362 C 98.906287 144.36462 98.944372 144.3508 98.990825 144.3328 C 99.067045 144.3034 99.180813 144.25446 99.302951 144.20154 C 99.316041 145.23106 99.338108 146.01967 99.375298 146.55643 C 99.302088 146.56243 99.223452 146.56573 99.131385 146.56573 C 99.111575 146.56573 99.06121 146.5625 99.011496 146.5585 C 98.961806 146.5555 98.912767 146.55178 98.880238 146.55178 C 98.776796 146.55178 98.692423 146.57138 98.631157 146.61948 C 98.569877 146.66758 98.53814 146.74477 98.53814 146.83238 C 98.53814 146.96774 98.591812 147.07357 98.692135 147.12642 A 0.04961709 0.04961709 0 0 0 98.694719 147.12849 C 98.768279 147.16529 98.870476 147.18017 99.011496 147.18017 C 99.267042 147.18017 99.553096 147.14987 99.868808 147.08767 C 100.22956 147.02097 100.50198 146.93204 100.68323 146.8205 C 100.74083 146.7849 100.79144 146.72502 100.83257 146.65772 C 100.87367 146.59042 100.90492 146.51688 100.90492 146.4474 C 100.90492 146.4018 100.88921 146.35731 100.85531 146.32957 C 100.82141 146.30177 100.77708 146.29082 100.72819 146.29082 C 100.61537 146.29082 100.47358 146.31428 100.30289 146.36368 C 100.08746 146.42798 100.00248 146.452 99.961309 146.4629 C 99.887869 145.98362 99.84607 145.48588 99.84607 144.96532 C 99.84607 144.66661 99.860101 144.35512 99.884311 144.03979 C 100.09524 144.01949 100.33328 144.00168 100.6083 143.98088 C 100.6792 143.97588 100.73569 143.96774 100.78296 143.95194 C 100.82966 143.93614 100.86784 143.91114 100.89148 143.87494 C 100.89159 143.87479 100.89303 143.87509 100.89303 143.87494 C 100.91453 143.84344 100.91836 143.80623 100.91836 143.76849 C 100.91836 143.76549 100.91629 143.7627 100.91629 143.7597 A 0.04961709 0.04961709 0 0 0 100.91629 143.75919 A 0.04961709 0.04961709 0 0 0 100.91629 143.75867 A 0.04961709 0.04961709 0 0 0 100.91629 143.75815 A 0.04961709 0.04961709 0 0 0 100.91629 143.75764 C 100.9154 143.72224 100.9133 143.68612 100.8982 143.65118 C 100.8404 143.49687 100.71875 143.39116 100.5499 143.33906 L 100.54784 143.33906 C 100.44069 143.30526 100.28819 143.29152 100.08843 143.29152 z M 96.7398 143.32821 C 96.557358 143.32821 96.415793 143.42097 96.352743 143.59072 L 95.850448 144.94361 C 95.648152 145.46253 95.445104 145.89717 95.239633 146.24689 C 95.182293 146.33089 95.131358 146.41508 95.078919 146.49804 C 95.002469 146.61939 94.956963 146.69847 94.956963 146.77399 C 94.956963 146.87179 94.997129 146.97623 95.076852 147.0794 C 95.156782 147.18284 95.247759 147.24476 95.350737 147.24476 C 95.415257 147.24476 95.466737 147.19942 95.515585 147.13366 C 95.560065 147.07376 95.604947 146.98338 95.651494 146.87579 C 96.439274 146.73068 97.098857 146.59532 97.631218 146.46652 L 97.757826 146.77192 A 0.04961709 0.04961709 0 0 0 97.757826 146.77399 C 97.799066 146.85639 97.842267 146.9208 97.887017 146.96623 C 97.931847 147.01163 97.981327 147.04064 98.036362 147.04064 C 98.125092 147.04064 98.216946 147.00366 98.303012 146.93212 C 98.389542 146.86012 98.438921 146.77347 98.438921 146.68097 C 98.438921 146.64457 98.425315 146.61227 98.404815 146.5678 C 98.384315 146.5233 98.354448 146.46982 98.316448 146.40502 L 98.158318 146.15387 L 98.158318 146.15181 C 97.812349 145.5691 97.486293 144.87182 97.183184 144.05943 L 97.183184 144.05736 L 97.086032 143.76332 C 97.046302 143.64432 97.011833 143.54671 96.96821 143.47342 C 96.91794 143.38292 96.835735 143.32872 96.7398 143.32872 L 96.7398 143.32821 z M 106.13561 143.32821 C 105.95761 143.32821 105.76381 143.36106 105.54495 143.41916 A 0.04961709 0.04961709 0 0 0 105.5434 143.41916 L 104.98891 143.59537 C 104.86737 143.63137 104.79603 143.66026 104.75378 143.69046 A 0.04961709 0.04961709 0 0 0 104.75171 143.69252 C 104.68441 143.74432 104.64191 143.81805 104.62717 143.91163 C 104.62642 143.91463 104.62755 143.91893 104.62717 143.92093 C 104.62645 143.92693 104.62511 143.93005 104.62511 143.93695 C 104.62437 143.94895 104.62304 143.96281 104.62304 143.98191 C 104.62245 144.02011 104.62304 144.07462 104.62304 144.14521 C 104.62304 144.46945 104.63373 144.77587 104.65043 145.06557 C 104.55413 145.12347 104.483 145.20973 104.483 145.33273 C 104.483 145.47434 104.5505 145.58382 104.6649 145.63711 C 104.67617 146.0595 104.68755 146.39457 104.7021 146.62465 C 104.7091 146.74323 104.71654 146.83683 104.72484 146.90525 C 104.72984 146.93945 104.73378 146.96626 104.73828 146.98896 C 104.74328 147.01166 104.74626 147.02968 104.75636 147.04788 A 0.04961709 0.04961709 0 0 0 104.75843 147.04788 C 104.82723 147.15919 104.96457 147.21324 105.15014 147.21324 C 105.49724 147.21324 105.84645 147.18242 106.20641 147.12022 A 0.04961709 0.04961709 0 0 0 106.20847 147.12022 C 106.6315 147.04442 106.96169 146.9326 107.211 146.79208 A 0.04961709 0.04961709 0 0 0 107.21255 146.79208 C 107.27685 146.75348 107.33499 146.69082 107.37998 146.61999 C 107.42488 146.54919 107.45698 146.46982 107.45698 146.39158 C 107.45698 146.33148 107.4379 146.27577 107.396 146.24017 C 107.3541 146.20457 107.29751 146.19263 107.23115 146.19263 C 107.19145 146.19263 107.14244 146.19762 107.08594 146.21072 L 106.16506 146.41432 L 106.16713 146.41226 C 105.83772 146.47476 105.54573 146.50621 105.28967 146.50941 C 105.24317 146.19922 105.2148 145.87857 105.2013 145.54564 C 105.69318 145.38375 106.39713 145.24669 107.33243 145.13843 C 107.43298 145.12683 107.51246 145.10982 107.57015 145.07952 C 107.62345 145.05172 107.65478 145.00381 107.66058 144.95085 A 0.04961709 0.04961709 0 0 0 107.66937 144.93896 C 107.66937 144.84856 107.60444 144.77377 107.50193 144.70383 C 107.41283 144.64303 107.32634 144.60978 107.242 144.59996 C 107.1757 144.58956 107.09125 144.58601 106.98414 144.58601 C 106.44624 144.58601 105.8455 144.69011 105.18735 144.87591 C 105.18835 144.69054 105.19533 144.51182 105.20543 144.3421 C 105.48503 144.2233 105.73902 144.13967 105.95474 144.10232 A 0.04961709 0.04961709 0 0 0 105.95681 144.10232 C 106.06443 144.08172 106.33897 144.05375 106.77123 144.01395 C 106.86413 144.00695 106.93777 143.99034 106.99292 143.95504 C 107.04802 143.91994 107.08129 143.86006 107.08129 143.79639 C 107.08129 143.70789 107.03265 143.62015 106.95416 143.53181 C 106.87296 143.43621 106.77046 143.37066 106.65341 143.34629 C 106.58421 143.33149 106.47345 143.32371 106.31648 143.32821 L 106.13561 143.32821 z M 102.9911 143.36025 C 102.36549 143.36025 101.79902 143.67861 101.29869 144.30851 A 0.04961709 0.04961709 0 0 0 101.29663 144.31057 C 101.21843 144.41181 101.17209 144.50145 101.17209 144.59066 C 101.17209 144.66656 101.20405 144.74515 101.25115 144.81029 C 101.28915 144.86279 101.3449 144.89554 101.40308 144.92139 C 101.41348 145.58138 101.42515 146.09251 101.43925 146.44378 C 101.44625 146.62175 101.45546 146.76076 101.46406 146.86029 C 101.46906 146.91009 101.473 146.94897 101.4775 146.98018 C 101.4825 147.01138 101.48348 147.03199 101.49558 147.05459 C 101.53508 147.12789 101.61568 147.16776 101.71934 147.16776 C 101.80134 147.16776 101.87987 147.14964 101.9524 147.11144 C 102.0475 147.06634 102.1064 146.98917 102.1064 146.90318 C 102.1064 146.83038 102.09252 146.74316 102.07022 146.63601 A 0.04961709 0.04961709 0 0 0 102.06816 146.63601 C 102.05076 146.55751 102.0456 146.51973 102.0387 146.47323 C 102.23499 146.56843 102.4623 146.66001 102.75132 146.74712 C 103.10262 146.85832 103.37861 146.91197 103.58176 146.91197 C 103.64986 146.91197 103.71872 146.88302 103.77193 146.83962 C 103.82513 146.79622 103.86701 146.73705 103.86701 146.66547 C 103.86701 146.63067 103.85394 146.59472 103.83084 146.56832 C 103.80754 146.54192 103.77552 146.52451 103.73782 146.50941 A 0.04961709 0.04961709 0 0 0 103.7311 146.50734 C 103.6646 146.48964 103.61183 146.47617 103.57039 146.47117 L 103.57711 146.47117 C 103.31176 146.40477 102.97626 146.24982 102.60249 146.04587 C 103.02772 145.93988 103.40482 145.80497 103.70165 145.61385 A 0.04961709 0.04961709 0 0 0 103.70165 145.61334 A 0.04961709 0.04961709 0 0 0 103.70165 145.61282 A 0.04961709 0.04961709 0 0 0 103.70165 145.6123 A 0.04961709 0.04961709 0 0 0 103.70165 145.61179 C 104.13866 145.32347 104.36931 144.96344 104.36931 144.54415 C 104.36931 144.19069 104.21784 143.89465 103.93006 143.67082 C 103.66162 143.46608 103.34977 143.36076 102.99161 143.36076 L 102.9911 143.36025 z M 115.85285 143.37626 C 115.27821 143.37626 114.73351 143.62669 114.224 144.11834 C 114.126 144.21194 114.06334 144.27802 114.02918 144.32194 A 0.04961709 0.04961709 0 0 0 114.02918 144.32401 C 113.96788 144.41371 113.93203 144.50858 113.93203 144.60461 C 113.93203 144.69521 113.964 144.77105 114.0111 144.83974 C 114.0266 145.54137 114.04019 146.07407 114.05399 146.43913 C 114.06099 146.62167 114.06796 146.76113 114.07466 146.86029 C 114.07766 146.90989 114.08243 146.95066 114.08603 146.98018 C 114.08903 147.00968 114.08796 147.02398 114.09946 147.04788 A 0.04961709 0.04961709 0 0 0 114.10153 147.05304 C 114.13713 147.11384 114.19351 147.15691 114.26018 147.15691 A 0.04961709 0.04961709 0 0 0 114.27155 147.15485 C 114.27155 147.15485 114.35616 147.13277 114.52063 147.09387 L 114.99088 147.0055 A 0.04961709 0.04961709 0 0 0 114.99295 147.0055 C 115.60771 146.88523 116.13069 146.66543 116.56081 146.35179 C 117.10229 145.96182 117.37988 145.48468 117.37988 144.92656 C 117.37988 144.50452 117.22652 144.13734 116.93185 143.8336 C 116.63675 143.52943 116.27489 143.37678 115.85285 143.37678 L 115.85285 143.37626 z M 119.59267 143.815 C 119.97233 143.815 120.28845 143.96284 120.54972 144.25838 C 120.80273 144.5457 120.92489 144.87657 120.92489 145.26297 C 120.92489 145.64031 120.8007 145.96656 120.55178 146.25413 C 120.29468 146.55407 119.99006 146.69958 119.61954 146.69958 C 119.23951 146.69958 118.93102 146.55641 118.66973 146.26084 C 118.41653 145.97332 118.28732 145.64448 118.28732 145.26297 C 118.28732 144.88637 118.4122 144.55472 118.65577 144.26768 C 118.91741 143.96316 119.22215 143.81499 119.59267 143.815 z M 102.87534 143.99638 L 102.87586 143.99638 C 103.08307 143.99647 103.27715 144.0516 103.45929 144.16588 C 103.66146 144.29645 103.75333 144.45097 103.75333 144.63665 C 103.75333 144.80639 103.67686 144.97816 103.51148 145.16117 C 103.28508 145.40744 102.74746 145.54884 101.9524 145.57768 C 101.942 145.38315 101.93897 145.18883 101.93897 144.99374 C 101.93897 144.81768 101.94173 144.64532 101.95033 144.47336 C 102.27046 144.15763 102.57961 143.99656 102.87534 143.99638 z M 115.61772 144.0279 C 115.91063 144.0279 116.161 144.12708 116.37788 144.33125 C 116.59424 144.53488 116.70137 144.78136 116.70137 145.07332 C 116.70137 145.51372 116.4625 145.8542 115.95671 146.11357 C 115.59724 146.2975 115.15573 146.40838 114.64672 146.4598 C 114.57802 146.01661 114.54285 145.56332 114.54285 145.08675 C 114.54285 144.89716 114.54983 144.70282 114.56093 144.50953 C 114.9069 144.18984 115.25373 144.0279 115.61772 144.0279 z M 96.705693 144.29455 C 96.987164 144.95004 97.211107 145.47078 97.355266 145.81953 C 96.934536 145.97207 96.466142 146.08746 95.956902 146.17506 C 96.332258 145.20582 96.579941 144.58752 96.705693 144.29455 z " />
    <path
       style="fill:none;stroke:#1a1a1a;stroke-width:1.02969;stroke-linecap:round;stroke-linejoin:round;stroke-dasharray:none;paint-order:stroke markers fill"
       d="m 74.008934,117.12076 c 2.377319,-2.79095 6.311121,-3.38644 9.759079,-3.90363 0.434714,-0.0652 0.940317,-0.29277 1.366266,-0.29277"
       id="path15-5" />
    <path
       style="fill:none;stroke:#1a1a1a;stroke-width:1.02969;stroke-linecap:round;stroke-linejoin:round;stroke-dasharray:none;paint-order:stroke markers fill"
       d="m 79.083572,114.19304 c -1.585545,9.6971 -0.585488,19.59929 -0.585488,29.37482"
       id="path16-7" />
    <path
       style="fill:none;stroke:#1a1a1a;stroke-width:1.02969;stroke-linecap:round;stroke-linejoin:round;stroke-dasharray:none;paint-order:stroke markers fill"
       d="m 74.887205,143.71425 c 3.663085,0.20032 7.104969,-0.23279 10.637425,-1.17109 2.618434,-0.69553 1.010361,-0.68313 1.756617,-0.68313"
       id="path18-9" />
    <path
       style="fill:none;stroke:#1a1a1a;stroke-width:1.02969;stroke-linecap:round;stroke-linejoin:round;stroke-dasharray:none;paint-order:stroke markers fill"
       d="m 85.817336,120.43885 c 0.671984,3.66418 0.878347,7.20924 0.878347,10.93016"
       id="path19-8" />
    <path
       style="fill:none;stroke:#1a1a1a;stroke-width:1.02969;stroke-linecap:round;stroke-linejoin:round;stroke-dasharray:none;paint-order:stroke markers fill"
       d="m 84.060718,119.75571 c 1.771226,-0.52035 3.559443,0.0176 5.269929,0.48796 2.479501,0.68185 5.473523,1.73819 6.148199,4.58676 1.674041,7.06813 -4.511601,12.39852 -10.832563,13.66271"
       id="path20-3" />
    <path
       style="fill:none;stroke:#1a1a1a;stroke-width:1.02969;stroke-linecap:round;stroke-linejoin:round;stroke-dasharray:none;paint-order:stroke markers fill"
       d="m 106.21384,120.43885 c -2.27752,-0.75918 -4.76171,-0.25848 -7.124114,-0.39037 -0.704585,2.11376 -0.406036,0.72539 -0.195137,4.09882 0.231196,3.70014 0.429409,7.44431 0.87827,11.12535 0.127554,1.04585 0.307471,2.08489 0.488001,3.1229 0.0684,0.39489 0.21428,0.77862 0.29278,1.17109 0.0192,0.0957 -0.0538,0.37398 0,0.29277 0.087,-0.13056 0.24388,-0.56334 0.39035,-0.68313 1.90685,-1.56018 4.25588,-2.51833 6.44098,-3.61086 0.51206,-0.25603 1.92623,-1.4429 2.24454,-0.48796"
       id="path23-0" />
    <path
       style="fill:none;stroke:#1a1a1a;stroke-width:1.02969;stroke-linecap:round;stroke-linejoin:round;stroke-dasharray:none;paint-order:stroke markers fill"
       d="m 97.967419,129.46599 c -0.130091,0.065 -0.455397,0.065 -0.390351,0.19518 0.06535,0.13013 0.264488,-0.12229 0.390351,-0.19518 0.492456,-0.28511 0.967919,-0.59933 1.463835,-0.87831 1.338736,-0.75303 4.826216,-2.58768 6.441056,-2.04941"
       id="path24-2" />
    <path
       style="fill:none;stroke:#1a1a1a;stroke-width:1.02969;stroke-linecap:round;stroke-linejoin:round;stroke-dasharray:none;paint-order:stroke markers fill"
       d="m 109.69855,120.45559 c 1.5072,-0.0829 3.48102,-0.40111 4.97715,0.0976"
       id="path27-2" />
    <path
       style="fill:none;stroke:#1a1a1a;stroke-width:1.02969;stroke-linecap:round;stroke-linejoin:round;stroke-dasharray:none;paint-order:stroke markers fill"
       d="m 112.26447,120.43885 c -0.0584,4.33565 -0.59225,8.62508 -1.36627,12.88198"
       id="path28-3" />
    <path
       style="fill:none;stroke:#1a1a1a;stroke-width:1.02969;stroke-linecap:round;stroke-linejoin:round;stroke-dasharray:none;paint-order:stroke markers fill"
       d="m 110.00025,132.79245 c 2.64435,-1.59871 9.94976,1.18017 8.00246,5.07471"
       id="path30-6" />
    <path
       style="fill:none;stroke:#1a1a1a;stroke-width:1.02969;stroke-linecap:round;stroke-linejoin:round;stroke-dasharray:none;paint-order:stroke markers fill"
       d="m 114.89943,130.58828 c 1.65882,-3.13666 3.19724,-6.34188 4.68437,-9.56389 0.11087,-0.24017 1.20849,-2.53736 1.2687,-2.53736 0.20574,0 0.13009,0.39037 0.19513,0.58555 0.14332,0.42984 0.31078,0.85168 0.488,1.26868 0.3759,0.88458 0.76263,1.76487 1.17105,2.63495 1.87879,4.00258 3.35716,7.73724 4.19645,12.10125 0.0831,0.43242 0.39035,1.44738 0.39035,2.04942"
       id="path31-7" />
    <path
       style="fill:none;stroke:#1a1a1a;stroke-width:1.02969;stroke-linecap:round;stroke-linejoin:round;stroke-dasharray:none;paint-order:stroke markers fill"
       d="m 115.00192,128.54378 c 2.60737,0.33632 5.23456,0.61182 7.80725,1.1711 0.2588,0.0563 1.95183,0.30064 1.95183,0.58553"
       id="path32-1" />
    <path
       style="fill:none;stroke:#1a1a1a;stroke-width:1.02969;stroke-linecap:round;stroke-linejoin:round;stroke-dasharray:none;paint-order:stroke markers fill"
       d="m 74.204071,156.05948 c -0.130091,0 -0.39035,-0.13012 -0.39035,0 0,0.13013 0.511138,-0.0484 0.39035,0 -0.191984,0.0768 -1.105084,0.12922 -1.366266,0.39037 -0.431408,0.43138 -1.563172,1.46212 -0.878347,2.14699 0.349294,0.34923 0.966305,0.18648 1.366266,0.0976 1.697953,-0.37732 2.916291,-1.30188 4.196445,-2.43977 0.686439,-0.6102 1.022816,-1.52642 1.561403,-2.24459 0.163306,-0.21771 0.27556,-0.55099 0.390428,-0.78074 0.04613,-0.092 0.05151,-0.38477 0.09757,-0.29276 0.159001,0.31801 0.10964,0.73152 0.195214,1.0735 0.676521,2.70625 0.781855,5.52473 1.073484,8.29522 0.09534,0.90592 0.461471,5.81986 -0.780701,6.44099 -0.508833,0.25438 -0.307314,-1.55001 -0.292783,-1.65904 0.477694,-3.58313 1.605921,-7.44039 3.513235,-10.53981 0.726958,-1.18128 1.883325,-2.68562 3.220529,-3.22051 0.803614,-0.32144 2.329726,0.0728 2.732533,0.87833 0.173301,0.34665 0.135012,0.89464 0.09757,1.26869 -0.0592,0.59186 -0.331302,1.27283 -0.683133,1.75661 -0.322461,0.44333 -1.742932,1.83087 -2.439751,1.36628 -0.133858,-0.0892 0.587641,-1.14593 0.683134,-1.26868 0.341758,-0.43944 0.350216,-0.50626 0.780701,-0.9759 1.887247,-2.05879 3.800635,-2.83014 6.53855,-2.83014 0.685593,0 1.377415,0.0832 2.049476,0.1952 0.22297,0.0371 0.409957,0.10738 0.585488,0.19516 0.05843,0.0291 0.26026,0 0.195214,0 -1.471447,0 -2.892148,0.36368 -4.098799,1.26869 -1.051956,0.78896 -1.256858,2.14642 -0.585565,3.22049 0.175377,0.28057 0.214974,0.4056 0.585565,0.48796 1.956137,0.4347 3.799635,-2.81901 4.586718,-4.1964 0.05075,-0.0893 0.279097,-0.87832 0.487997,-0.87832 0.110716,0 0.222662,0.75193 0.39035,1.17108 0.750255,1.8756 2.867384,1.66064 4.196364,0.48797 0.98622,-0.87016 1.77599,-1.82139 2.43983,-2.92774 0.26795,-0.44666 0.5608,-0.90297 0.58556,-0.87832 0.27825,0.27832 0.1098,1.68164 0.0976,1.95183 -0.1437,3.16098 -0.25672,6.30543 -0.488,9.4663 -0.0607,0.82905 -0.0361,3.74483 -0.68313,4.39158 -0.66906,0.66908 -0.88319,-3.484 -0.87835,-3.61085 0.14709,-3.8227 1.97044,-8.11085 4.78201,-10.73499 0.67499,-0.63004 1.97006,-1.79631 3.02532,-1.26868 0.46447,0.23226 0.74864,0.74508 0.97591,1.17109 1.10839,2.07822 -0.73803,5.1662 -2.53739,6.24582 -0.5991,0.35944 -1.58655,0.49375 -1.46384,-0.48796 0.27272,-2.18174 5.10393,-3.86725 7.02655,-4.3916 0.66652,-0.18178 3.25974,-0.48677 3.02524,-1.65904 -0.02,-0.10087 -0.0185,-0.22692 -0.0976,-0.29276 -1.31168,-1.09309 -3.98755,2.89689 -1.17105,4.58676 1.52403,0.91443 5.43723,-0.63601 6.83133,-1.36627 0.91302,-0.47823 1.79721,-1.06065 2.63496,-1.65904 2.66011,-1.90008 5.90286,-3.80332 7.4169,-6.83136 0.30962,-0.6192 0.79877,-1.83616 0.19514,-2.43977 -0.56888,-0.56892 -2.49727,0.79887 -3.41559,1.46386 -0.93432,0.67656 -1.88879,1.86855 -2.63497,2.73255 -1.71971,1.99128 -4.78962,5.65267 -2.24461,8.19764 1.03412,1.03413 3.41474,0.37243 4.48915,0.0976 3.28611,-0.84062 6.16327,-2.76896 9.36873,-3.80603 1.12307,-0.36336 3.2582,-1.06571 4.0988,0.19519"
       id="path36-5" />
    <path
       style="fill:none;stroke:#1a1a1a;stroke-width:1.02969;stroke-linecap:round;stroke-linejoin:round;stroke-dasharray:none;paint-order:stroke markers fill"
       d="m 136.27185,120.43885 c 0.43134,-0.75064 0.5106,-1.62965 0.78071,-2.43977 0.10441,-0.31321 0.48792,-0.86939 0.48792,-1.17109 0,-0.0744 -0.2921,-0.19504 -0.29279,-0.19518 -0.75671,-0.15134 -1.96382,0.37079 -2.63488,0.58554 -2.60106,0.83234 -4.63462,2.48204 -6.44106,4.48918 -0.1394,0.15495 -1.22134,1.16518 -1.17106,1.36627 0.22536,0.90141 2.88054,1.6443 3.61088,1.95181 1.82989,0.77051 3.63349,1.57903 5.46507,2.34218 0.55204,0.23003 1.72063,0.66293 1.65905,1.46387 -0.18161,2.36062 -2.22001,4.52468 -3.51331,6.3434 -5.35904,7.53613 -0.23135,0.50526 -2.8301,3.90362 -0.18868,0.24677 -1.01067,1.82281 -1.2687,1.95182 -0.83683,0.4184 -4.05075,-1.58529 -4.8795,-2.04941 -0.30309,-0.16968 -3.22053,-1.82662 -3.22053,-1.85421 0,-0.0728 0.0976,-0.12245 0.0976,-0.1952"
       id="path43-5" />
  </g>
</svg>
