<?xml version="1.0" encoding="UTF-8" standalone="no"?>
<!-- Created with Inkscape (http://www.inkscape.org/) -->

<svg
   width="11.772947mm"
   height="10.883573mm"
   viewBox="0 0 11.772947 10.883573"
   version="1.1"
   id="svg1"
   inkscape:version="1.4 (86a8ad7, 2024-10-11)"
   sodipodi:docname="iconDescer.svg"
   xmlns:inkscape="http://www.inkscape.org/namespaces/inkscape"
   xmlns:sodipodi="http://sodipodi.sourceforge.net/DTD/sodipodi-0.dtd"
   xmlns="http://www.w3.org/2000/svg"
   xmlns:svg="http://www.w3.org/2000/svg">
  <sodipodi:namedview
     id="namedview1"
     pagecolor="#ffffff"
     bordercolor="#000000"
     borderopacity="0.25"
     inkscape:showpageshadow="2"
     inkscape:pageopacity="0.0"
     inkscape:pagecheckerboard="0"
     inkscape:deskcolor="#d1d1d1"
     inkscape:document-units="mm"
     inkscape:zoom="1.0444209"
     inkscape:cx="-91.43823"
     inkscape:cy="121.11975"
     inkscape:window-width="1920"
     inkscape:window-height="1009"
     inkscape:window-x="-8"
     inkscape:window-y="-8"
     inkscape:window-maximized="1"
     inkscape:current-layer="layer1" />
  <defs
     id="defs1" />
  <g
     inkscape:label="Camada 1"
     inkscape:groupmode="layer"
     id="layer1"
     transform="translate(-152.40002,-109.80206)">
    <path
       style="font-variation-settings:normal;vector-effect:none;fill:#1a1a1a;fill-opacity:1;stroke:#1a1a1a;stroke-width:0.322775;stroke-linecap:round;stroke-linejoin:round;stroke-miterlimit:4;stroke-dasharray:none;stroke-dashoffset:0;stroke-opacity:1;-inkscape-stroke:none;paint-order:normal;stop-color:#000000"
       d="m 156.7199,111.36094 c -1.4509,-0.0248 -2.7452,1.13543 -3.1683,2.48941 -0.2577,0.82443 -0.1891,1.8759 -0.1509,2.71574 0.035,0.77752 0.7192,1.70558 1.207,2.26309 2.564,2.93026 7.2225,1.83202 8.8261,-1.50873 0.4582,-0.95461 0.6853,-2.03131 0.5281,-3.09291 -0.036,-0.24498 -0.2001,-0.45308 -0.3018,-0.67892 -0.353,-0.7844 -0.7725,-1.63101 -1.5842,-2.0368 -0.6847,-0.34237 -1.5201,-0.36294 -2.263,-0.52805 -0.3768,-0.0837 -2.1054,-0.34292 -2.4894,-0.15088 -0.2391,0.11954 -0.4006,0.35411 -0.6036,0.52805 z"
       id="path268-4-8" />
    <path
       style="font-variation-settings:normal;vector-effect:none;fill:#ffffff;fill-opacity:1;stroke:#1a1a1a;stroke-width:0.322775;stroke-linecap:round;stroke-linejoin:round;stroke-miterlimit:4;stroke-dasharray:none;stroke-dashoffset:0;stroke-opacity:1;-inkscape-stroke:none;paint-order:normal;stop-color:#000000"
       d="m 155.9198,110.56082 c -1.451,-0.0248 -2.7453,1.13542 -3.1684,2.48941 -0.2576,0.82442 -0.189,1.8759 -0.1508,2.71573 0.035,0.77753 0.7192,1.70559 1.207,2.26309 2.5639,2.93025 7.2226,1.83202 8.8261,-1.50873 0.4582,-0.9546 0.6853,-2.03131 0.528,-3.0929 -0.036,-0.24498 -0.2,-0.45309 -0.3018,-0.67893 -0.3529,-0.78439 -0.7725,-1.631 -1.5841,-2.03679 -0.6847,-0.34238 -1.5201,-0.36295 -2.263,-0.52806 -0.3768,-0.0838 -2.1054,-0.34292 -2.4894,-0.15088 -0.2391,0.11955 -0.4006,0.35411 -0.6036,0.52806 z"
       id="path268-3" />
    <path
       style="font-variation-settings:normal;vector-effect:none;fill:#ffff88;fill-opacity:1;stroke:#1a1a1a;stroke-width:0.322775;stroke-linecap:round;stroke-linejoin:round;stroke-miterlimit:4;stroke-dasharray:none;stroke-dashoffset:0;stroke-opacity:1;-inkscape-stroke:none;paint-order:normal"
       d="m 156.3534,112.04282 c -0.021,0.68457 -0.031,1.36905 -0.054,2.05367 -0.01,0.15993 0,0.32006 0,0.48007 0,0.0445 0.039,0.11347 0,0.13335 -0.06,0.0303 -0.3829,-0.002 -0.4001,0 -0.3315,0.0165 -0.657,0.0471 -0.9868,0.08 -0.044,0.004 -0.102,-0.0314 -0.1334,0 -0.059,0.0592 0.3213,0.60074 0.3467,0.6401 0.423,0.65568 0.8896,1.24358 1.3869,1.84029 0.127,0.15236 0.407,0.61517 0.6134,0.66677 0.141,0.0353 0.4093,-0.32314 0.4801,-0.40006 0.128,-0.1391 0.242,-0.29083 0.3734,-0.42674 0.6196,-0.64096 1.3712,-1.15696 2.027,-1.76027 0.1467,-0.13501 0.3394,-0.25943 0.48,-0.40007 0.054,-0.0537 -0.1379,-0.0711 -0.2134,-0.08 -0.203,-0.0239 -0.4088,0 -0.6134,0 -0.254,0 -1.4501,0.0167 -1.4668,0 -0.038,-0.0383 0.018,-0.10652 0.027,-0.16003 0.057,-0.3895 0.091,-0.59271 0.1067,-0.96014 0.013,-0.29045 -0.022,-0.19081 0.027,-0.48009 0.029,-0.18096 0.08,-0.3248 0.08,-0.50674 0,-0.11558 0,-0.23115 0,-0.34672 0,-0.005 0.053,-0.1268 0.027,-0.13335 -0.077,-0.0194 -0.1601,0.004 -0.24,0 -0.3231,-0.018 -0.6387,-0.082 -0.9602,-0.10669 -0.3122,-0.0241 -0.6177,-0.009 -0.9068,-0.13336 z"
       id="path280-2" />
  </g>
</svg>
