<?xml version="1.0" encoding="UTF-8" standalone="no"?>
<!-- Created with Inkscape (http://www.inkscape.org/) -->

<svg
   width="82.976875mm"
   height="39.713985mm"
   viewBox="0 0 82.976875 39.713985"
   version="1.1"
   id="svg1"
   inkscape:version="1.4 (86a8ad7, 2024-10-11)"
   sodipodi:docname="imagemClip.svg"
   xmlns:inkscape="http://www.inkscape.org/namespaces/inkscape"
   xmlns:sodipodi="http://sodipodi.sourceforge.net/DTD/sodipodi-0.dtd"
   xmlns="http://www.w3.org/2000/svg"
   xmlns:svg="http://www.w3.org/2000/svg">
  <sodipodi:namedview
     id="namedview1"
     pagecolor="#ffffff"
     bordercolor="#000000"
     borderopacity="0.25"
     inkscape:showpageshadow="2"
     inkscape:pageopacity="0.0"
     inkscape:pagecheckerboard="0"
     inkscape:deskcolor="#d1d1d1"
     inkscape:document-units="mm"
     inkscape:zoom="2.0888418"
     inkscape:cx="145.29583"
     inkscape:cy="104.12469"
     inkscape:window-width="1920"
     inkscape:window-height="1009"
     inkscape:window-x="-8"
     inkscape:window-y="-8"
     inkscape:window-maximized="1"
     inkscape:current-layer="layer1" />
  <defs
     id="defs1" />
  <g
     inkscape:label="Camada 1"
     inkscape:groupmode="layer"
     id="layer1"
     transform="translate(-152.39999,-89.42916)">
    <path
       style="font-variation-settings:normal;vector-effect:none;fill:#000000;fill-opacity:1;stroke:none;stroke-width:0.480883;stroke-linecap:round;stroke-linejoin:round;stroke-miterlimit:4;stroke-dasharray:none;stroke-dashoffset:0;stroke-opacity:1;-inkscape-stroke:none;paint-order:normal"
       d="m 153.20537,92.09914 c -0.0153,0.85523 -0.37332,1.63779 -0.43846,2.48478 -0.28766,3.73941 -0.0161,7.66982 0.14615,11.40071 0.14796,3.40283 0.14616,6.82313 0.14616,10.23141 0,1.1517 0.27763,3.12825 0,4.23873 -0.146,0.58396 -0.14616,1.12694 -0.14616,1.75395 0,0.32168 -0.03,6.40114 0,6.43117 0.10893,0.10896 0.29231,0.0974 0.4385,0.14619 0.64061,0.21351 4.52326,0.0846 5.11569,0 0.39772,-0.0568 0.77065,-0.2425 1.1693,-0.29234 1.58276,-0.19783 3.3832,0 4.96956,0 4.15716,0 8.28093,-0.0621 12.42386,-0.29231 4.9834,-0.27686 10.06316,0 15.05479,0 11.36869,0 22.69849,-0.14619 34.05597,-0.14619 1.8514,0 3.70279,0 5.55419,0 0.0707,0 1.13503,0.0686 1.1693,0 0.15351,-0.30699 0.12586,-1.69304 0.29234,-2.19244 0.0297,-0.0892 0.2626,-0.34928 0.29233,-0.43849 0.077,-0.23109 -0.0478,-0.49194 0,-0.73081 0.60389,-3.0195 0.4371,-6.58704 0,-9.64676 -0.18616,-1.3031 0,-2.77725 0,-4.09255 0,-1.9468 -0.14618,-3.88763 -0.14618,-5.84652 0,-1.27794 0.23162,-2.8569 0.58465,-4.09258 0.23149,-0.81013 0.12811,0.43685 0.29234,-0.87699 0.30906,-2.47258 0.87699,-4.81144 0.87699,-7.30813 0,-0.31943 0.25439,-2.57681 -0.14618,-2.7771 -0.50898,-0.2545 -5.69005,0 -6.285,0 -4.48233,0 -8.96466,0 -13.44699,0 -15.68818,0 -31.37633,0 -47.06451,0 -3.60725,0 -7.19145,-0.29233 -10.81606,-0.29233 -0.33139,0 -2.78807,-0.28136 -3.21559,0.14615 -0.8614,0.86143 -1.07042,0.64484 -0.87699,2.19245 z"
       id="path47" />
  </g>
</svg>
