<?xml version="1.0" encoding="UTF-8" standalone="no"?>
<!-- Created with Inkscape (http://www.inkscape.org/) -->

<svg
   width="34.911175mm"
   height="7.3147154mm"
   viewBox="0 0 34.911175 7.3147154"
   version="1.1"
   id="svg1"
   inkscape:version="1.4 (86a8ad7, 2024-10-11)"
   sodipodi:docname="logoCompleto.svg"
   xmlns:inkscape="http://www.inkscape.org/namespaces/inkscape"
   xmlns:sodipodi="http://sodipodi.sourceforge.net/DTD/sodipodi-0.dtd"
   xmlns="http://www.w3.org/2000/svg"
   xmlns:svg="http://www.w3.org/2000/svg">
  <sodipodi:namedview
     id="namedview1"
     pagecolor="#ffffff"
     bordercolor="#000000"
     borderopacity="0.25"
     inkscape:showpageshadow="2"
     inkscape:pageopacity="0.0"
     inkscape:pagecheckerboard="0"
     inkscape:deskcolor="#d1d1d1"
     inkscape:document-units="mm"
     inkscape:zoom="4.1776836"
     inkscape:cx="59.482724"
     inkscape:cy="39.136521"
     inkscape:window-width="1920"
     inkscape:window-height="1009"
     inkscape:window-x="-8"
     inkscape:window-y="-8"
     inkscape:window-maximized="1"
     inkscape:current-layer="layer1" />
  <defs
     id="defs1" />
  <g
     inkscape:label="Camada 1"
     inkscape:groupmode="layer"
     id="layer1"
     transform="translate(-115.09375,-112.44789)">
    <path
       id="path1"
       style="-inkscape-font-specification:'Anime Ace 2.0 BB';fill:#1d1e20;stroke-linecap:round;stroke-linejoin:round;paint-order:stroke markers fill"
       d="M 138.2205 114.88598 L 138.2205 114.8865 C 138.1541 114.8865 138.09531 114.91013 138.04894 114.95523 C 138.00254 115.00033 137.9686 115.06513 137.94714 115.1485 C 137.85194 115.52491 137.78296 115.8068 137.74198 115.99806 L 137.74405 115.99806 C 137.58651 116.62396 137.42873 117.15817 137.26397 117.63104 C 136.97634 116.87522 136.75516 116.22237 136.63094 115.71694 L 136.55859 115.40843 A 0.03445119 0.03445119 0 0 0 136.55859 115.40792 A 0.03445119 0.03445119 0 0 0 136.55859 115.4074 A 0.03445119 0.03445119 0 0 0 136.55859 115.40688 A 0.03445119 0.03445119 0 0 0 136.55859 115.40637 C 136.53529 115.32937 136.51029 115.2708 136.47849 115.2286 C 136.44669 115.1864 136.40387 115.15987 136.35757 115.15987 C 136.29117 115.15987 136.23026 115.1837 136.18342 115.2286 C 136.13662 115.2735 136.10378 115.33666 136.08007 115.4198 L 135.7266 116.74013 C 135.58636 117.24228 135.44102 117.67202 135.28322 118.03721 L 135.17573 118.27131 C 135.12523 118.38599 135.09563 118.46531 135.09563 118.52142 C 135.09563 118.60392 135.12896 118.70035 135.19898 118.81236 C 135.23388 118.87266 135.27057 118.91847 135.30854 118.95137 C 135.34684 118.98457 135.38969 119.00408 135.43359 119.00408 C 135.48969 119.00408 135.53728 118.96483 135.57209 118.90021 A 0.03445119 0.03445119 0 0 0 135.57415 118.89814 C 135.64235 118.73892 135.6837 118.61524 135.70696 118.52711 L 135.70696 118.52504 C 136.02138 117.55591 136.22211 116.9081 136.34775 116.49984 L 136.9534 118.44907 C 136.9504 118.46457 136.94926 118.48103 136.94926 118.49403 C 136.94926 118.59579 136.97658 118.70016 137.03298 118.80823 A 0.03445119 0.03445119 0 0 0 137.03505 118.81029 C 137.06815 118.86929 137.10201 118.91449 137.14047 118.94723 C 137.17897 118.97993 137.22405 118.99994 137.26966 118.99994 C 137.32576 118.99994 137.37386 118.96314 137.41797 118.90434 C 137.42697 118.89254 137.43227 118.88277 137.43967 118.86507 C 137.44667 118.84737 137.45499 118.82339 137.46499 118.79479 C 137.48509 118.73749 137.51123 118.65727 137.54303 118.55449 C 137.60663 118.34892 137.69341 118.05334 137.80451 117.66566 C 137.92925 117.23322 138.05427 116.79963 138.17555 116.36703 C 138.29493 116.77279 138.4115 117.17762 138.52746 117.58763 C 138.63404 117.95499 138.71811 118.236 138.78119 118.4315 C 138.81269 118.5293 138.83862 118.60673 138.85922 118.66198 C 138.86952 118.68958 138.87881 118.71063 138.88661 118.72813 C 138.89361 118.74463 138.90012 118.7567 138.90832 118.7674 C 138.9087 118.76792 138.91038 118.76688 138.91038 118.7674 C 138.91069 118.7678 138.91005 118.76947 138.91038 118.76947 C 138.93928 118.80817 138.98319 118.82786 139.02717 118.82786 C 139.11397 118.82786 139.19868 118.77542 139.27935 118.68524 C 139.35965 118.59554 139.40648 118.50711 139.40648 118.42169 C 139.40648 118.42126 139.40681 118.41593 139.40648 118.41393 C 139.40615 118.41193 139.40441 118.40973 139.40441 118.40773 C 139.40362 118.40473 139.40356 118.40191 139.40234 118.39791 C 139.40034 118.38991 139.39701 118.38086 139.39201 118.36846 C 139.38301 118.34366 139.37035 118.30821 139.35325 118.26304 C 139.31915 118.17264 139.26886 118.04058 139.20081 117.86823 C 138.97082 117.29549 138.74733 116.54936 138.5347 115.63581 L 138.5347 115.63426 C 138.5076 115.49888 138.48051 115.36229 138.44891 115.22188 A 0.03445119 0.03445119 0 0 0 138.44891 115.22136 A 0.03445119 0.03445119 0 0 0 138.44891 115.22085 A 0.03445119 0.03445119 0 0 0 138.44891 115.22033 A 0.03445119 0.03445119 0 0 0 138.44891 115.21981 C 138.42121 115.11601 138.39078 115.03618 138.35538 114.97952 C 138.31988 114.92282 138.27457 114.88598 138.2205 114.88598 z M 128.22266 114.92371 C 127.76255 114.92371 127.42787 114.96932 127.20722 115.05858 C 127.04473 115.12758 126.95918 115.28608 126.95918 115.51179 C 126.95918 115.55909 126.96698 115.5997 126.99018 115.63064 C 127.01318 115.66164 127.05191 115.67767 127.09353 115.67767 C 127.17743 115.67767 127.31334 115.65485 127.51366 115.60945 C 127.71608 115.55995 127.86965 115.53711 127.96893 115.53711 C 128.06823 115.53711 128.12675 115.56025 128.14825 115.59395 A 0.03445119 0.03445119 0 0 0 128.14825 115.59602 C 128.18625 115.65112 128.22145 115.77475 128.24385 115.96292 C 128.26625 116.15109 128.27744 116.40266 128.27744 116.71688 C 128.27744 117.001 128.2603 117.22647 128.2206 117.39436 C 128.1679 117.62709 128.04735 117.80329 127.84956 117.93954 C 127.66491 118.06704 127.45078 118.13281 127.20309 118.13281 C 126.9076 118.13281 126.64325 118.02852 126.4083 117.82017 C 126.21747 117.65103 126.08489 117.36019 126.01763 116.94322 C 126.00133 116.84502 125.97427 116.76919 125.93547 116.71481 C 125.89667 116.66041 125.84205 116.62903 125.7794 116.62903 C 125.6814 116.62903 125.60135 116.65021 125.54686 116.69931 C 125.49236 116.74841 125.46883 116.82215 125.46883 116.91222 C 125.46883 117.39094 125.62071 117.81201 125.91996 118.17571 C 126.23808 118.55838 126.63979 118.75603 127.11162 118.75603 C 127.48559 118.75603 127.82058 118.64429 128.10743 118.4222 C 128.39392 118.2004 128.59262 117.90736 128.70326 117.54319 C 128.85398 117.05907 128.92753 116.54472 128.92753 116.0022 C 128.92753 115.67874 128.90525 115.43595 128.86345 115.26374 C 128.83955 115.15886 128.79544 115.07906 128.72858 115.02758 C 128.63738 114.95248 128.47041 114.92371 128.22266 114.92371 z M 131.16409 114.92939 L 131.16409 114.92991 C 130.67807 114.92991 130.20702 115.14225 129.75384 115.55881 C 129.46585 115.82852 129.31665 116.03972 129.31665 116.21872 C 129.31665 116.32306 129.34381 116.40826 129.39262 116.47969 C 129.4039 117.20357 129.41723 117.75283 129.43138 118.12713 C 129.43838 118.31494 129.44715 118.45992 129.45515 118.5607 C 129.45915 118.6111 129.46182 118.65063 129.46652 118.68007 C 129.46852 118.69477 129.47178 118.70646 129.47478 118.71676 C 129.47778 118.72706 129.47845 118.73521 129.48615 118.74621 A 0.03445119 0.03445119 0 0 0 129.48822 118.74828 C 129.53532 118.80588 129.60181 118.83251 129.68149 118.83251 C 129.76539 118.83251 129.84355 118.80835 129.92385 118.76585 A 0.03445119 0.03445119 0 0 0 129.92592 118.76585 C 129.97382 118.73955 130.01029 118.7114 130.03702 118.678 C 130.06372 118.6446 130.07837 118.60439 130.07837 118.56276 C 130.07837 118.46044 130.06511 118.33106 130.03341 118.17622 L 130.03341 118.17416 C 130.00021 117.98758 129.9809 117.87943 129.9745 117.82637 C 130.58497 117.73907 131.11147 117.59276 131.53719 117.37317 C 132.14855 117.06069 132.4575 116.64607 132.46478 116.13707 A 0.03445119 0.03445119 0 0 0 132.47667 116.1288 L 132.47253 116.1288 C 132.47254 116.1268 132.47667 116.12512 132.47667 116.12312 C 132.47667 115.78308 132.3401 115.49572 132.06636 115.26374 C 131.8112 115.04105 131.50698 114.92939 131.16409 114.92939 z M 146.20916 114.97848 C 146.08907 114.97848 145.99075 115.0026 145.91823 115.0529 C 145.84573 115.1032 145.80134 115.17965 145.78903 115.27562 C 145.76613 115.44453 145.74786 115.644 145.73426 115.88489 A 0.03445119 0.03445119 0 0 0 145.73426 115.88696 C 145.72926 116.09054 145.7201 116.29435 145.711 116.49829 L 145.66036 117.6114 L 143.76383 115.40843 C 143.72233 115.35623 143.65225 115.33609 143.57056 115.33609 C 143.45599 115.33609 143.36012 115.35441 143.28531 115.39241 C 143.21051 115.43041 143.15637 115.49023 143.12873 115.56811 C 143.11473 115.60511 143.10806 115.65923 143.10186 115.7402 C 143.09586 115.822 143.09152 115.9299 143.09152 116.06421 C 143.09152 116.22484 143.10567 116.71362 143.13287 117.5251 C 143.14427 117.96494 143.15377 118.29989 143.16387 118.52917 C 143.16887 118.6438 143.17497 118.73042 143.17937 118.79272 C 143.18137 118.82382 143.18358 118.84864 143.18558 118.86714 C 143.18758 118.88564 143.18733 118.89573 143.19333 118.91003 C 143.20703 118.95013 143.23391 118.98278 143.26981 119.00408 C 143.30611 119.02578 143.35061 119.03715 143.40262 119.03715 C 143.48652 119.03715 143.56418 119.01092 143.64446 118.96842 A 0.03445119 0.03445119 0 0 0 143.64653 118.96842 C 143.73823 118.91522 143.79484 118.84503 143.79484 118.76172 C 143.79484 118.70772 143.78499 118.6473 143.77159 118.57413 L 143.74058 118.39843 L 143.74058 118.39636 C 143.70018 118.09046 143.67598 117.70329 143.67598 117.2383 C 143.67598 117.00714 143.68671 116.75787 143.70131 116.50397 L 145.63969 118.69867 C 145.64229 118.73368 145.65988 118.76637 145.68982 118.78497 C 145.72462 118.80657 145.77054 118.81443 145.82831 118.81443 C 145.96174 118.81443 146.06388 118.78923 146.13682 118.73433 C 146.20972 118.67943 146.24637 118.59484 146.24637 118.4899 C 146.24637 118.4421 146.2424 118.38081 146.2288 118.30231 C 146.2157 118.21941 146.20993 118.16043 146.20503 118.12506 L 146.20503 118.12093 C 146.19163 117.9366 146.18384 117.7122 146.18384 117.44707 C 146.18384 116.73274 146.24206 116.06374 146.35954 115.44512 C 146.37314 115.37242 146.38375 115.31397 146.39055 115.27097 C 146.39755 115.22797 146.40088 115.20339 146.40088 115.18519 C 146.40088 115.12299 146.38599 115.06989 146.35179 115.03275 C 146.31759 114.99565 146.26774 114.97848 146.20916 114.97848 z M 141.21309 115.01931 C 141.03056 115.01931 140.89511 115.10786 140.83223 115.27717 L 140.31443 116.66779 C 140.10637 117.20151 139.89934 117.64941 139.6876 118.00982 C 139.6286 118.09612 139.57376 118.18201 139.51965 118.26769 C 139.44155 118.39161 139.39666 118.47605 139.39666 118.54468 C 139.39666 118.64048 139.43728 118.74146 139.51758 118.84543 C 139.59808 118.94952 139.68583 119.00976 139.78527 119.00976 C 139.84327 119.00976 139.89253 118.96791 139.94133 118.90228 C 139.98713 118.84068 140.03489 118.74771 140.08396 118.63304 C 140.90301 118.48228 141.58809 118.34079 142.13861 118.20723 L 142.27349 118.53537 A 0.03445119 0.03445119 0 0 0 142.27349 118.53692 C 142.31529 118.62062 142.35806 118.68387 142.40216 118.72864 C 142.44636 118.77344 142.49411 118.80099 142.54479 118.80099 C 142.63129 118.80099 142.72213 118.76532 142.80834 118.6935 C 142.89484 118.6214 142.94321 118.53828 142.94321 118.44907 C 142.94321 118.41717 142.93074 118.38492 142.91014 118.34004 C 142.88954 118.29524 142.85902 118.24047 142.82022 118.17416 A 0.03445119 0.03445119 0 0 0 142.82022 118.17364 A 0.03445119 0.03445119 0 0 0 142.82022 118.17312 A 0.03445119 0.03445119 0 0 0 142.82022 118.17261 A 0.03445119 0.03445119 0 0 0 142.82022 118.17209 L 142.65641 117.91422 C 142.30003 117.31424 141.96633 116.59575 141.6544 115.75983 L 141.55467 115.45494 A 0.03445119 0.03445119 0 0 0 141.5526 115.45494 C 141.5119 115.33276 141.47718 115.23329 141.43374 115.16039 C 141.38414 115.07109 141.30617 115.01931 141.21309 115.01931 z M 149.59397 115.02344 C 149.47562 115.02344 149.37249 115.07491 149.2989 115.16814 A 0.03445119 0.03445119 0 0 0 149.2989 115.1702 C 149.14894 115.39741 149.04296 115.57023 148.97437 115.69369 L 148.24987 116.91997 C 147.88345 116.45853 147.55142 115.99008 147.26181 115.51179 C 147.20051 115.4097 147.15339 115.33242 147.11919 115.27769 C 147.10209 115.25029 147.08886 115.2288 147.07836 115.2131 C 147.06836 115.1983 147.06289 115.19079 147.05459 115.18209 C 147.01569 115.13349 146.97763 115.10199 146.92953 115.10199 C 146.85113 115.10199 146.78433 115.16231 146.72283 115.26167 C 146.66203 115.35987 146.63084 115.44261 146.63084 115.51592 C 146.63084 115.59162 146.65637 115.67076 146.70887 115.75208 A 0.03445119 0.03445119 0 0 0 146.71094 115.75415 C 146.98773 116.14436 147.20501 116.4345 147.35535 116.62128 L 147.96099 117.42226 C 147.74385 117.81498 147.57833 118.11994 147.46903 118.32247 C 147.41313 118.42597 147.37198 118.50438 147.34398 118.55863 C 147.32998 118.58573 147.31966 118.60596 147.31246 118.62116 C 147.30846 118.62916 147.30464 118.63559 147.30264 118.64079 C 147.30164 118.64379 147.30157 118.64606 147.30057 118.64906 C 147.30013 118.65006 147.2985 118.65068 147.2985 118.65268 C 147.29806 118.65468 147.2985 118.66201 147.2985 118.66301 C 147.2985 118.73601 147.34519 118.80082 147.42769 118.85422 C 147.49609 118.89812 147.56649 118.91881 147.6406 118.91881 C 147.78148 118.91881 147.8983 118.82992 147.98787 118.67438 A 0.03445119 0.03445119 0 0 0 147.98993 118.67232 C 148.04873 118.54105 148.10225 118.40872 148.15633 118.27803 L 148.15788 118.27596 C 148.49656 117.55842 148.95675 116.80939 149.53092 116.01821 L 149.79292 115.6725 A 0.03445119 0.03445119 0 0 0 149.79499 115.6725 C 149.86329 115.5814 149.91401 115.50838 149.94899 115.45184 C 149.97989 115.40194 149.99585 115.37083 150.00015 115.3366 C 150.00021 115.33611 150.0001 115.33554 150.00015 115.33454 C 150.0006 115.33054 150.00583 115.32428 150.00583 115.32058 C 150.00583 115.22998 149.94834 115.15419 149.85184 115.09631 C 149.76994 115.04821 149.68195 115.02396 149.59397 115.02396 L 149.59397 115.02344 z M 130.8964 115.58258 C 131.11195 115.58258 131.31875 115.64453 131.51342 115.76397 C 131.73373 115.90056 131.83588 116.05921 131.83588 116.26006 C 131.83588 116.43527 131.75536 116.61221 131.58215 116.80318 C 131.34151 117.06493 130.77863 117.21291 129.92799 117.2445 C 129.91639 117.03762 129.91197 116.83065 129.91197 116.62335 C 129.91197 116.43952 129.91615 116.25983 129.92385 116.08023 C 130.25657 115.75054 130.58048 115.58258 130.8964 115.58258 z M 141.17795 115.9531 C 141.48032 116.65724 141.71576 117.20711 141.86731 117.57419 C 141.42072 117.7372 140.92218 117.85976 140.37903 117.95143 C 140.78205 116.90998 141.04899 116.25191 141.17795 115.9531 z M 133.76548 116.49002 C 133.65154 116.49175 133.53107 116.50898 133.40633 116.54118 C 133.13052 116.61238 132.91093 116.81864 132.72833 117.07241 C 132.59643 117.2557 132.54752 117.48733 132.49631 117.71268 L 132.25963 117.74834 C 132.1262 117.76794 132.03411 117.89201 132.05447 118.02533 C 132.07407 118.15876 132.19865 118.25084 132.33197 118.23048 L 132.56659 118.19534 C 132.64219 118.42271 132.75297 118.69195 133.01979 118.80461 C 133.39363 118.96244 133.86331 118.95677 134.62899 118.80461 C 134.76047 118.77851 134.84587 118.65091 134.82019 118.51935 C 134.79409 118.38787 134.66649 118.30247 134.53494 118.32815 C 134.04789 118.38335 133.32692 118.70648 133.01979 118.09561 L 134.5799 117.88683 C 134.71253 117.86623 134.8034 117.74198 134.78299 117.60933 C 134.72589 117.24422 134.63151 116.92526 134.39645 116.70706 C 134.23484 116.55706 134.01614 116.48621 133.76548 116.49002 z M 133.76186 116.96596 C 133.97446 116.97949 134.12703 117.16334 134.213 117.4512 L 133.01979 117.63259 C 133.00809 117.37339 133.19363 117.15485 133.52932 117.01195 C 133.61324 116.97623 133.69099 116.96145 133.76186 116.96596 z " />
    <path
       style="font-variation-settings:normal;vector-effect:none;fill:#1d1e20;fill-opacity:1;stroke:none;stroke-width:0.0688955;stroke-linecap:round;stroke-linejoin:round;stroke-miterlimit:4;stroke-dasharray:none;stroke-dashoffset:0;stroke-opacity:1;-inkscape-stroke:none;paint-order:stroke markers fill;stop-color:#000000"
       d="m 116.12275,119.75347 c -0.077,-0.0116 -0.1526,-0.0992 -0.1665,-0.19248 -0.015,-0.098 0.016,-0.61043 0.054,-0.91826 0.038,-0.29756 0.078,-0.53563 0.1979,-1.15995 0.054,-0.2841 0.1186,-0.62868 0.1423,-0.76574 l 0.043,-0.24921 h -0.041 c -0.093,0 -0.7195,-0.0558 -0.9112,-0.0811 -0.272,-0.036 -0.3475,-0.0871 -0.3475,-0.23542 0,-0.0505 0.045,-0.13949 0.1966,-0.39539 0.1082,-0.18164 0.3008,-0.5056 0.4282,-0.71991 0.2864,-0.48204 0.6595,-1.04481 0.8828,-1.33147 0.2051,-0.26323 0.5846,-0.65841 0.7941,-0.82678 0.1931,-0.15511 0.4814,-0.32811 0.63,-0.37788 0.2729,-0.0914 0.554,-0.0626 0.8665,0.0889 0.4527,0.21942 0.8673,0.62738 1.5496,1.52488 l 0.2753,0.36222 0.144,-0.23196 c 0.08,-0.12759 0.1605,-0.26351 0.1804,-0.30206 0.022,-0.0425 0.057,-0.0779 0.089,-0.0901 0.043,-0.0162 0.05,-0.0269 0.039,-0.0568 -0.01,-0.0203 -0.014,-0.0817 -0.013,-0.13651 4e-4,-0.15144 0.071,-0.28372 0.2399,-0.45224 0.2398,-0.23858 0.5118,-0.34111 0.854,-0.32198 0.2964,0.0165 0.4993,0.0911 1.0808,0.3972 0.4544,0.23925 0.6203,0.34961 0.8106,0.53966 0.1822,0.18183 0.2306,0.27006 0.2312,0.42167 4e-4,0.21693 -0.1035,0.38675 -0.4663,0.75969 -0.2254,0.23175 -0.2584,0.27316 -0.2584,0.32479 0,0.12759 -0.6196,1.44218 -0.9575,2.03122 -0.4312,0.75176 -0.9882,1.50829 -1.3006,1.76632 -0.36,0.29726 -0.7531,0.43563 -1.5114,0.5319 -0.2933,0.0372 -0.2996,0.0373 -0.3443,0.003 -0.037,-0.0278 -0.046,-0.0497 -0.046,-0.11637 0,-0.0809 -5e-4,-0.082 -0.054,-0.074 -0.1013,0.0151 -0.1605,-0.0433 -0.2251,-0.22181 -0.1456,-0.40243 -0.1889,-0.64502 -0.1892,-1.05866 -10e-5,-0.35882 0.026,-0.54662 0.1268,-0.89614 0.1661,-0.57889 0.4366,-1.10067 1.0701,-2.06435 l 0.2602,-0.39593 -0.2025,-0.25655 c -0.4359,-0.55189 -0.5979,-0.73943 -0.9036,-1.04569 -0.5488,-0.54984 -0.8509,-0.72931 -1.1289,-0.67087 -0.3894,0.0818 -1.1973,0.98395 -2.0462,2.28467 -0.2458,0.37654 -0.4983,0.77889 -0.5131,0.81756 -0.01,0.0231 0.024,0.0312 0.203,0.0493 0.1175,0.0119 0.3441,0.0302 0.5036,0.0406 0.395,0.0258 0.4569,0.0644 0.4341,0.27051 -0.016,0.14331 -0.1053,0.66641 -0.1985,1.15995 -0.1459,0.77242 -0.2035,1.1787 -0.2368,1.66964 l -0.012,0.17439 0.8402,0.01 c 0.4621,0.005 0.9422,0.0186 1.0668,0.0294 0.4834,0.0415 0.7714,0.0782 0.811,0.10344 0.071,0.0453 0.05,0.14037 -0.038,0.16871 -0.088,0.0284 -0.8047,0.0894 -1.2897,0.10978 -0.4164,0.0175 -1.5408,0.0212 -1.6445,0.005 z m 3.7312,-0.42745 c 0.01,-0.005 -0.2412,-0.19083 -0.3113,-0.23411 -0.015,-0.009 -0.012,0.0277 0.01,0.12303 0.022,0.10484 0.024,0.14372 0.01,0.16956 -0.019,0.0312 -0.011,0.0306 0.1345,-0.009 0.086,-0.0236 0.1584,-0.0457 0.1619,-0.0493 z m 0.3663,-0.13001 c -0.013,-0.0122 -0.1887,-0.1331 -0.3895,-0.26866 l -0.3651,-0.24648 0.01,0.0761 c 0.017,0.15291 0.011,0.14709 0.2824,0.30871 0.1421,0.0847 0.2742,0.16593 0.2935,0.18046 0.031,0.0232 0.045,0.0231 0.1149,-6.9e-4 0.065,-0.022 0.075,-0.0313 0.055,-0.0493 z m 0.6886,-0.2806 c 0.1984,-0.13671 0.3309,-0.25687 0.3202,-0.2905 -0.01,-0.0159 0.01,-0.0577 0.024,-0.0931 l 0.032,-0.0641 -0.14,-0.0294 c -0.1152,-0.0242 -0.1598,-0.0258 -0.2506,-0.009 -0.101,0.0188 -0.1147,0.0174 -0.1598,-0.0163 -0.028,-0.0205 -0.063,-0.076 -0.081,-0.12561 -0.018,-0.0499 -0.06,-0.11466 -0.095,-0.14773 -0.053,-0.0495 -0.077,-0.0588 -0.15,-0.0585 -0.047,2.2e-4 -0.1219,0.0165 -0.1654,0.0362 -0.1782,0.0808 -0.2303,0.0399 -0.3006,-0.23601 -0.051,-0.20069 -0.1983,-0.34951 -0.3844,-0.38878 -0.055,-0.0116 -0.058,-0.009 -0.068,0.057 -0.026,0.16337 -0.047,0.42784 -0.047,0.61523 l -3e-4,0.20185 0.1224,0.008 c 0.1535,0.0103 0.2572,0.0507 0.5747,0.22421 0.2794,0.15266 0.4849,0.28609 0.5521,0.35863 0.024,0.026 0.053,0.0474 0.065,0.0474 0.011,0 0.08,-0.0404 0.1513,-0.0898 z m 0.858,-0.97537 c 0.3142,-0.50314 1.0805,-1.89334 1.0494,-1.9037 -0.01,-0.003 -0.093,-0.0426 -0.1847,-0.087 -0.091,-0.0444 -0.1675,-0.0785 -0.1693,-0.0756 -9e-4,0.003 -0.014,0.0418 -0.027,0.0867 -0.056,0.19637 -0.2006,0.42471 -0.5243,0.82992 -0.239,0.29935 -0.5559,0.70193 -0.7661,0.97343 -0.077,0.0997 -0.165,0.1958 -0.1952,0.21359 -0.047,0.0279 -0.053,0.0379 -0.037,0.0725 0.017,0.0363 0.032,0.0402 0.158,0.0409 0.1708,6.9e-4 0.3007,0.0423 0.3956,0.12603 l 0.07,0.0619 0.037,-0.0448 c 0.02,-0.0247 0.1072,-0.15684 0.1926,-0.2937 z m -0.9654,-0.11743 c 0.01,-0.0225 0.1835,-0.27511 0.3887,-0.56151 0.5794,-0.80906 0.7465,-1.06684 0.8538,-1.31732 0.035,-0.0827 0.081,-0.17292 0.1,-0.20044 l 0.036,-0.0501 -0.1534,-0.10208 c -0.084,-0.0562 -0.1573,-0.10209 -0.1622,-0.10209 -0.01,0 -0.023,0.0265 -0.039,0.0589 -0.017,0.0324 -0.089,0.12007 -0.1601,0.19484 -0.2856,0.2989 -0.8828,1.00131 -1.1318,1.33111 -0.072,0.0957 -0.176,0.2465 -0.2305,0.33518 -0.054,0.0887 -0.1106,0.17072 -0.1246,0.18231 -0.021,0.0178 -0.019,0.0331 0.013,0.10012 0.036,0.074 0.042,0.0782 0.094,0.0665 0.031,-0.007 0.1138,-0.0124 0.1846,-0.0123 0.1132,2.1e-4 0.1393,0.007 0.2174,0.0573 0.049,0.0313 0.091,0.0578 0.094,0.0586 0,6.9e-4 0.012,-0.0168 0.021,-0.0392 z m -0.7264,-0.57538 c 0.072,-0.15461 0.2137,-0.35231 0.5981,-0.83378 0.5267,-0.65992 0.8466,-1.04064 0.8972,-1.06772 0.045,-0.0239 0.044,-0.0253 -0.1391,-0.16078 -0.1013,-0.0752 -0.2446,-0.19689 -0.3184,-0.27047 -0.074,-0.0736 -0.1397,-0.12731 -0.1465,-0.1194 -0.01,0.008 -0.1469,0.20197 -0.3116,0.43124 -0.5126,0.71335 -0.7349,1.06846 -0.9021,1.44079 -0.088,0.19673 -0.2057,0.53628 -0.1957,0.56623 0,0.0111 0.059,0.0308 0.1227,0.0438 0.067,0.0139 0.1576,0.0496 0.2164,0.0864 0.1,0.0624 0.1005,0.0626 0.1166,0.023 0.01,-0.0218 0.037,-0.0845 0.062,-0.1393 z m 2.9567,-1.55215 c 4e-4,-0.0113 -0.054,-0.0536 -0.1218,-0.0939 -0.067,-0.0404 -0.2691,-0.17535 -0.4485,-0.30001 -0.2821,-0.19593 -1.2528,-0.80884 -1.2811,-0.80884 -0.01,0 -0.031,0.0313 -0.056,0.0696 l -0.046,0.0696 0.175,0.13652 c 0.3918,0.30555 0.7726,0.53619 1.2503,0.75743 0.1689,0.0781 0.3462,0.16655 0.3942,0.19644 0.08,0.0498 0.089,0.0518 0.1104,0.0241 0.012,-0.0167 0.024,-0.0396 0.024,-0.0508 z m 0.2113,-0.33656 0.057,-0.0932 -0.2832,-0.18366 c -0.1557,-0.10101 -0.3688,-0.24107 -0.4735,-0.31123 -0.3069,-0.2058 -0.616,-0.39515 -0.8815,-0.54004 l -0.248,-0.13534 -0.071,0.12101 c -0.084,0.14441 -0.1097,0.11413 0.2578,0.30709 0.7829,0.41092 1.3117,0.7187 1.4834,0.8634 0.043,0.0365 0.084,0.0661 0.091,0.0658 0.01,-3.4e-4 0.038,-0.0425 0.068,-0.0938 z m 0.3811,-0.61702 c 0.1202,-0.12212 0.2411,-0.26125 0.2688,-0.30919 0.057,-0.0983 0.067,-0.20108 0.028,-0.27442 -0.087,-0.16158 -0.998,-0.69679 -1.4232,-0.83571 -0.1437,-0.0469 -0.189,-0.0533 -0.3806,-0.0533 -0.2005,0 -0.2246,0.003 -0.3089,0.0482 -0.096,0.0507 -0.2084,0.161 -0.2758,0.27073 -0.046,0.0763 -0.1366,0.30705 -0.1241,0.3195 0,0.005 0.1213,0.0569 0.2589,0.11597 0.548,0.23501 1.272,0.62338 1.6125,0.86497 0.059,0.0414 0.1106,0.0752 0.116,0.0752 0,0 0.1083,-0.0999 0.2284,-0.22202 z"
       id="path1-6-0-1" />
  </g>
</svg>
