<?xml version="1.0" encoding="UTF-8" standalone="no"?>
<!-- Created with Inkscape (http://www.inkscape.org/) -->

<svg
   width="9.2790012mm"
   height="7.3147054mm"
   viewBox="0 0 9.2790012 7.3147054"
   version="1.1"
   id="svg1"
   inkscape:version="1.4 (86a8ad7, 2024-10-11)"
   sodipodi:docname="logo.svg"
   xmlns:inkscape="http://www.inkscape.org/namespaces/inkscape"
   xmlns:sodipodi="http://sodipodi.sourceforge.net/DTD/sodipodi-0.dtd"
   xmlns="http://www.w3.org/2000/svg"
   xmlns:svg="http://www.w3.org/2000/svg">
  <sodipodi:namedview
     id="namedview1"
     pagecolor="#ffffff"
     bordercolor="#000000"
     borderopacity="0.25"
     inkscape:showpageshadow="2"
     inkscape:pageopacity="0.0"
     inkscape:pagecheckerboard="0"
     inkscape:deskcolor="#d1d1d1"
     inkscape:document-units="mm"
     inkscape:zoom="0.73851712"
     inkscape:cx="-18.956907"
     inkscape:cy="41.976008"
     inkscape:window-width="1150"
     inkscape:window-height="1000"
     inkscape:window-x="-7"
     inkscape:window-y="0"
     inkscape:window-maximized="0"
     inkscape:current-layer="layer1" />
  <defs
     id="defs1" />
  <g
     inkscape:label="Camada 1"
     inkscape:groupmode="layer"
     id="layer1"
     transform="translate(-110.06667,-137.58331)">
    <path
       style="font-variation-settings:normal;vector-effect:none;fill:#1d1e20;fill-opacity:1;stroke:none;stroke-width:0.0688955;stroke-linecap:round;stroke-linejoin:round;stroke-miterlimit:4;stroke-dasharray:none;stroke-dashoffset:0;stroke-opacity:1;-inkscape-stroke:none;paint-order:stroke markers fill;stop-color:#000000"
       d="m 111.09567,144.88889 c -0.077,-0.0116 -0.1526,-0.0992 -0.1665,-0.19248 -0.015,-0.098 0.016,-0.61043 0.054,-0.91826 0.038,-0.29756 0.078,-0.53563 0.1979,-1.15995 0.054,-0.2841 0.1186,-0.62868 0.1423,-0.76574 l 0.043,-0.24921 h -0.041 c -0.093,0 -0.7195,-0.0558 -0.9112,-0.0811 -0.272,-0.036 -0.3475,-0.0871 -0.3475,-0.23542 0,-0.0505 0.045,-0.13949 0.1966,-0.39539 0.1082,-0.18164 0.3008,-0.5056 0.4282,-0.71991 0.2864,-0.48204 0.6595,-1.04481 0.8828,-1.33147 0.2051,-0.26323 0.5846,-0.65841 0.7941,-0.82678 0.1931,-0.15512 0.4814,-0.32811 0.63,-0.37788 0.2729,-0.0914 0.554,-0.0626 0.8665,0.0889 0.4527,0.21942 0.8673,0.62738 1.5496,1.52488 l 0.2753,0.36222 0.144,-0.23196 c 0.08,-0.12759 0.1605,-0.26351 0.1804,-0.30206 0.022,-0.0425 0.057,-0.0779 0.089,-0.09 0.043,-0.0162 0.05,-0.0269 0.039,-0.0568 -0.01,-0.0203 -0.014,-0.0817 -0.013,-0.13651 4e-4,-0.15144 0.071,-0.28372 0.2399,-0.45224 0.2398,-0.23858 0.5118,-0.34111 0.854,-0.32198 0.2964,0.0165 0.4993,0.0911 1.0808,0.3972 0.4544,0.23925 0.6203,0.34961 0.8106,0.53966 0.1822,0.18183 0.2306,0.27006 0.2312,0.42167 4e-4,0.21693 -0.1035,0.38675 -0.4663,0.75969 -0.2254,0.23175 -0.2584,0.27316 -0.2584,0.32479 0,0.12759 -0.6196,1.44218 -0.9575,2.03122 -0.4312,0.75176 -0.9882,1.50829 -1.3006,1.76632 -0.36,0.29725 -0.7531,0.43562 -1.5114,0.5319 -0.2933,0.0372 -0.2996,0.0373 -0.3443,0.003 -0.037,-0.0278 -0.046,-0.0497 -0.046,-0.11637 0,-0.0809 -5e-4,-0.082 -0.054,-0.074 -0.1013,0.0151 -0.1605,-0.0433 -0.2251,-0.22181 -0.1456,-0.40243 -0.1889,-0.64502 -0.1892,-1.05866 -1e-4,-0.35882 0.026,-0.54662 0.1268,-0.89614 0.1661,-0.57889 0.4366,-1.10067 1.0701,-2.06435 l 0.2602,-0.39593 -0.2025,-0.25655 c -0.4359,-0.55189 -0.5979,-0.73943 -0.9036,-1.04569 -0.5488,-0.54984 -0.8509,-0.72931 -1.1289,-0.67087 -0.3894,0.0818 -1.1973,0.98395 -2.0462,2.28467 -0.2458,0.37654 -0.4983,0.77889 -0.5131,0.81755 -0.01,0.0231 0.024,0.0312 0.203,0.0493 0.1175,0.0119 0.3441,0.0302 0.5036,0.0406 0.395,0.0258 0.4569,0.0644 0.4341,0.27051 -0.016,0.14331 -0.1053,0.66641 -0.1985,1.15995 -0.1459,0.77242 -0.2035,1.1787 -0.2368,1.66964 l -0.012,0.17439 0.8402,0.01 c 0.4621,0.005 0.9422,0.0186 1.0668,0.0293 0.4834,0.0415 0.7714,0.0782 0.811,0.10344 0.071,0.0453 0.05,0.14037 -0.038,0.16871 -0.088,0.0284 -0.8047,0.0894 -1.2897,0.10978 -0.4164,0.0175 -1.5408,0.0212 -1.6445,0.005 z m 3.7312,-0.42745 c 0.01,-0.006 -0.2412,-0.19083 -0.3113,-0.23411 -0.015,-0.009 -0.012,0.0277 0.01,0.12303 0.022,0.10483 0.024,0.14372 0.01,0.16956 -0.019,0.0312 -0.011,0.0306 0.1345,-0.009 0.086,-0.0236 0.1584,-0.0457 0.1619,-0.0493 z m 0.3663,-0.13001 c -0.013,-0.0122 -0.1887,-0.1331 -0.3895,-0.26866 l -0.3651,-0.24648 0.01,0.0761 c 0.017,0.15291 0.011,0.14709 0.2824,0.30871 0.1421,0.0847 0.2742,0.16593 0.2935,0.18046 0.031,0.0231 0.045,0.0231 0.1149,-6.9e-4 0.065,-0.0221 0.075,-0.0313 0.055,-0.0493 z m 0.6886,-0.2806 c 0.1984,-0.13671 0.3309,-0.25687 0.3202,-0.2905 -0.01,-0.0159 0.01,-0.0577 0.024,-0.0931 l 0.032,-0.0641 -0.14,-0.0294 c -0.1152,-0.0242 -0.1598,-0.0258 -0.2506,-0.009 -0.101,0.0188 -0.1147,0.0174 -0.1598,-0.0163 -0.028,-0.0205 -0.063,-0.076 -0.081,-0.12561 -0.018,-0.0499 -0.06,-0.11466 -0.095,-0.14773 -0.053,-0.0495 -0.077,-0.0588 -0.15,-0.0585 -0.047,2.2e-4 -0.1219,0.0165 -0.1654,0.0362 -0.1782,0.0808 -0.2303,0.0399 -0.3006,-0.23601 -0.051,-0.20069 -0.1983,-0.34951 -0.3844,-0.38878 -0.055,-0.0116 -0.058,-0.009 -0.068,0.057 -0.026,0.16337 -0.047,0.42784 -0.047,0.61523 l -3e-4,0.20185 0.1224,0.008 c 0.1535,0.0103 0.2572,0.0507 0.5747,0.22421 0.2794,0.15266 0.4849,0.28609 0.5521,0.35863 0.024,0.026 0.053,0.0474 0.065,0.0474 0.011,0 0.08,-0.0404 0.1513,-0.0898 z m 0.858,-0.97537 c 0.3142,-0.50314 1.0805,-1.89334 1.0494,-1.90371 -0.01,-0.003 -0.093,-0.0426 -0.1847,-0.087 -0.091,-0.0444 -0.1675,-0.0785 -0.1693,-0.0756 -9e-4,0.003 -0.014,0.0418 -0.027,0.0867 -0.056,0.19637 -0.2006,0.42471 -0.5243,0.82992 -0.239,0.29935 -0.5559,0.70193 -0.7661,0.97343 -0.077,0.0997 -0.165,0.1958 -0.1952,0.21359 -0.047,0.0279 -0.053,0.0379 -0.037,0.0725 0.017,0.0363 0.032,0.0402 0.158,0.0409 0.1708,6.9e-4 0.3007,0.0423 0.3956,0.12603 l 0.07,0.0619 0.037,-0.0448 c 0.02,-0.0247 0.1072,-0.15684 0.1926,-0.2937 z m -0.9654,-0.11743 c 0.01,-0.0225 0.1835,-0.27511 0.3887,-0.56151 0.5794,-0.80906 0.7465,-1.06684 0.8538,-1.31732 0.035,-0.0827 0.081,-0.17292 0.1,-0.20044 l 0.036,-0.0501 -0.1534,-0.10208 c -0.084,-0.0562 -0.1573,-0.10209 -0.1622,-0.10209 -0.01,0 -0.023,0.0265 -0.039,0.0589 -0.017,0.0324 -0.089,0.12007 -0.1601,0.19484 -0.2856,0.2989 -0.8828,1.00131 -1.1318,1.33111 -0.072,0.0957 -0.176,0.2465 -0.2305,0.33518 -0.054,0.0887 -0.1106,0.17072 -0.1246,0.18231 -0.021,0.0178 -0.019,0.0331 0.013,0.10012 0.036,0.074 0.042,0.0783 0.094,0.0665 0.031,-0.007 0.1138,-0.0124 0.1846,-0.0123 0.1132,2.1e-4 0.1393,0.007 0.2174,0.0573 0.049,0.0313 0.091,0.0578 0.094,0.0586 0,6.9e-4 0.012,-0.0168 0.021,-0.0392 z m -0.7264,-0.57538 c 0.072,-0.15461 0.2137,-0.35231 0.5981,-0.83378 0.5267,-0.65992 0.8466,-1.04064 0.8972,-1.06772 0.045,-0.0239 0.044,-0.0253 -0.1391,-0.16078 -0.1013,-0.0752 -0.2446,-0.19689 -0.3184,-0.27047 -0.074,-0.0736 -0.1397,-0.12731 -0.1465,-0.1194 -0.01,0.008 -0.1469,0.20197 -0.3116,0.43124 -0.5126,0.71335 -0.7349,1.06846 -0.9021,1.44079 -0.088,0.19673 -0.2057,0.53628 -0.1957,0.56623 0,0.0111 0.059,0.0308 0.1227,0.0438 0.067,0.0139 0.1576,0.0496 0.2164,0.0864 0.1,0.0624 0.1005,0.0626 0.1166,0.023 0.01,-0.0218 0.037,-0.0845 0.062,-0.1393 z m 2.9567,-1.55215 c 4e-4,-0.0113 -0.054,-0.0536 -0.1218,-0.0939 -0.067,-0.0404 -0.2691,-0.17535 -0.4485,-0.30001 -0.2821,-0.19593 -1.2528,-0.80884 -1.2811,-0.80884 -0.01,0 -0.031,0.0313 -0.056,0.0696 l -0.046,0.0696 0.175,0.13652 c 0.3918,0.30555 0.7726,0.53619 1.2503,0.75742 0.1689,0.0782 0.3462,0.16656 0.3942,0.19645 0.08,0.0498 0.089,0.0518 0.1104,0.0241 0.012,-0.0167 0.024,-0.0396 0.024,-0.0508 z m 0.2113,-0.33656 0.057,-0.0932 -0.2832,-0.18366 c -0.1557,-0.10101 -0.3688,-0.24107 -0.4735,-0.31123 -0.3069,-0.2058 -0.616,-0.39515 -0.8815,-0.54004 l -0.248,-0.13534 -0.071,0.12101 c -0.084,0.14441 -0.1097,0.11413 0.2578,0.30709 0.7829,0.41092 1.3117,0.7187 1.4834,0.8634 0.043,0.0365 0.084,0.0661 0.091,0.0658 0.01,-3.4e-4 0.038,-0.0425 0.068,-0.0938 z m 0.3811,-0.61702 c 0.1202,-0.12212 0.2411,-0.26125 0.2688,-0.30919 0.057,-0.0983 0.067,-0.20108 0.028,-0.27442 -0.087,-0.16158 -0.998,-0.69679 -1.4232,-0.83571 -0.1437,-0.0469 -0.189,-0.0533 -0.3806,-0.0533 -0.2005,0 -0.2246,0.003 -0.3089,0.0482 -0.096,0.0507 -0.2084,0.161 -0.2758,0.27073 -0.046,0.0763 -0.1366,0.30705 -0.1241,0.3195 0,0.005 0.1213,0.0569 0.2589,0.11597 0.548,0.23501 1.272,0.62338 1.6125,0.86497 0.059,0.0414 0.1106,0.0752 0.116,0.0752 0,0 0.1083,-0.0999 0.2284,-0.22202 z"
       id="path1-6-0-1" />
  </g>
</svg>
