<?xml version="1.0" encoding="UTF-8" standalone="no"?>
<!-- Created with Inkscape (http://www.inkscape.org/) -->

<svg
   width="84.284828mm"
   height="57.622475mm"
   viewBox="0 0 84.284828 57.622475"
   version="1.1"
   id="svg1"
   inkscape:version="1.4 (86a8ad7, 2024-10-11)"
   sodipodi:docname="marcaTexto2.svg"
   xmlns:inkscape="http://www.inkscape.org/namespaces/inkscape"
   xmlns:sodipodi="http://sodipodi.sourceforge.net/DTD/sodipodi-0.dtd"
   xmlns="http://www.w3.org/2000/svg"
   xmlns:svg="http://www.w3.org/2000/svg">
  <sodipodi:namedview
     id="namedview1"
     pagecolor="#ffffff"
     bordercolor="#000000"
     borderopacity="0.25"
     inkscape:showpageshadow="2"
     inkscape:pageopacity="0.0"
     inkscape:pagecheckerboard="0"
     inkscape:deskcolor="#d1d1d1"
     inkscape:document-units="mm"
     inkscape:zoom="1.0444209"
     inkscape:cx="66.065318"
     inkscape:cy="75.640001"
     inkscape:window-width="1150"
     inkscape:window-height="1000"
     inkscape:window-x="-7"
     inkscape:window-y="0"
     inkscape:window-maximized="0"
     inkscape:current-layer="layer1" />
  <defs
     id="defs1" />
  <g
     inkscape:label="Camada 1"
     inkscape:groupmode="layer"
     id="layer1"
     transform="translate(-63.235385,-111.65417)">
    <path
       style="opacity:0.466801;fill:none;stroke:#ffff00;stroke-width:3.02357;stroke-linecap:square;stroke-linejoin:round;stroke-dasharray:none;stroke-opacity:1;paint-order:normal"
       d="m 76.484898,161.3838 c 1.956521,-0.005 2.598828,-2.73911 4.565191,-2.73911 1.433849,0 2.111369,3.38314 3.423892,3.19563 1.277771,-0.18252 3.637867,-2.68565 4.336993,-2.51085 0.975762,0.24394 2.173878,2.90761 3.423893,2.2826 0.48715,-0.24357 3.208457,-2.80666 3.652167,-2.51086 1.559866,1.03992 2.109755,1.58551 4.108641,1.1413 1.440385,-0.32008 3.238055,-2.04224 4.793465,-1.59782 0.99222,0.28349 1.48913,1.94081 2.51087,2.05433 2.16481,0.24054 2.9066,-2.35193 4.33699,-2.51085 1.50513,-0.16724 2.55101,1.99593 3.88037,1.1413 0.5452,-0.3505 2.99725,-3.3147 4.33699,-2.51086 0.81953,0.49174 1.36096,2.09829 2.2826,2.2826 1.16044,0.23209 2.62566,-1.02741 3.65209,-1.36955 0.96415,-0.32139 2.03586,0.68478 2.96742,0.68478 1.34681,0 2.069,-1.36224 3.42389,-0.68478"
       id="path60-6" />
  </g>
</svg>
