<?xml version="1.0" encoding="UTF-8" standalone="no"?>
<!-- Created with Inkscape (http://www.inkscape.org/) -->

<svg
   width="39.202091mm"
   height="30.210119mm"
   viewBox="0 0 39.20209 30.210119"
   version="1.1"
   id="svg1"
   inkscape:version="1.4 (86a8ad7, 2024-10-11)"
   sodipodi:docname="marcaTextoCaixa.svg"
   xmlns:inkscape="http://www.inkscape.org/namespaces/inkscape"
   xmlns:sodipodi="http://sodipodi.sourceforge.net/DTD/sodipodi-0.dtd"
   xmlns="http://www.w3.org/2000/svg"
   xmlns:svg="http://www.w3.org/2000/svg">
  <sodipodi:namedview
     id="namedview1"
     pagecolor="#ffffff"
     bordercolor="#000000"
     borderopacity="0.25"
     inkscape:showpageshadow="2"
     inkscape:pageopacity="0.0"
     inkscape:pagecheckerboard="0"
     inkscape:deskcolor="#d1d1d1"
     inkscape:document-units="mm"
     inkscape:zoom="2.9540684"
     inkscape:cx="70.242111"
     inkscape:cy="42.483783"
     inkscape:window-width="1920"
     inkscape:window-height="1009"
     inkscape:window-x="-8"
     inkscape:window-y="-8"
     inkscape:window-maximized="1"
     inkscape:current-layer="layer1" />
  <defs
     id="defs1" />
  <g
     inkscape:label="Camada 1"
     inkscape:groupmode="layer"
     id="layer1"
     transform="translate(-94.720829,-123.22649)">
    <path
       style="font-variation-settings:normal;opacity:0.466801;vector-effect:none;fill:none;fill-opacity:1;stroke:#ffff00;stroke-width:2.25877;stroke-linecap:square;stroke-linejoin:round;stroke-miterlimit:4;stroke-dasharray:none;stroke-dashoffset:0;stroke-opacity:1;-inkscape-stroke:none;paint-order:normal;stop-color:#000000"
       d="m 100.77741,132.0562 c 1.23165,-0.98418 -0.46613,-0.44491 1.61863,-1.40123 0.63476,-0.29118 0.96622,-0.87987 1.48375,-1.29345 0.47264,-0.37768 0.99397,-0.71442 1.48376,-1.07788 0.16473,-0.12224 0.57136,-0.50118 0.53954,-0.32335 -0.44681,2.49933 -3.71566,6.26081 -5.08292,8.60202 -0.0602,0.10306 0.26551,-0.0846 0.40467,-0.10779 5.02354,-0.83966 11.55169,-4.78639 10.09399,-7.22176 -0.31283,-0.52263 1.61916,-1.40019 1.88843,-0.8623 0.27597,0.55135 -0.93345,1.8191 -0.94421,1.83239 -2.69047,2.92923 -4.94405,6.05771 -7.32712,9.09282 -0.11606,0.13128 -0.26977,0.27046 -0.26977,0.43115 0,0.0804 0.20117,-0.0489 0.26977,-0.10779 4.12227,-2.48383 5.97561,-6.51899 9.62018,-9.30842 0.38611,-0.27111 1.90476,-1.39435 2.83261,-1.61678 0.17226,-0.0412 0.58448,-0.13916 0.53956,0 -0.81561,2.52544 -2.164,4.14431 -3.77683,6.35946 -1.0129,1.39118 -2.76352,4.25627 -4.31637,5.49715 -0.10046,0.0802 0.0596,-0.22701 0.13488,-0.32336 0.37679,-0.48174 0.80222,-0.93815 1.21398,-1.40123 1.8795,-2.11381 2.67136,-3.09994 4.85591,-4.95822 0.54465,-0.46331 1.16072,-0.86961 1.75352,-1.29346 0.53079,-0.37952 1.07911,-0.8203 1.07911,-0.43114 0,0.91696 -1.83696,3.27243 -1.88841,3.34141 -0.87613,1.17435 -5.27978,6.33564 -5.935,7.11398 -0.54295,0.64489 -1.06318,1.30208 -1.61866,1.94015 -0.1644,0.18886 -0.41079,0.33316 -0.53953,0.53894 -0.0853,0.13634 0.28547,-0.20432 0.40466,-0.32336 0.42132,-0.42084 0.79607,-0.87046 1.21398,-1.29343 0.80702,-0.81688 5.35378,-5.29886 6.06989,-5.92833 1.56134,-1.37243 3.19587,-2.69176 4.8559,-3.98814 0.32157,-0.25111 0.70499,-0.44741 1.07908,-0.64672 0.0375,-0.02 0.14673,-0.0349 0.13491,0 m -18.61434,-0.10779 c -0.0506,-0.0514 4.24638,-2.60709 5.12568,-2.80247 2.87761,-0.63945 -0.68322,5.4881 -5.16892,8.87725 -1.0821,0.81757 -1.45951,2.07493 -2.15819,3.12584 -0.0665,0.10034 -0.17983,0.21556 -0.13488,0.32335 0.0681,0.16344 0.65889,-0.1393 1.48376,-0.75452 0.97619,-0.72805 1.88842,-1.50899 2.8326,-2.26352 3.2442,-2.59242 6.01851,-5.91837 9.88996,-7.90717 0.62949,-0.32336 1.26099,-0.64419 1.8884,-0.97006 0.48146,-0.25009 1.51208,-0.93018 1.21398,-0.2156 -0.17355,0.41607 -0.61964,0.72421 -0.94421,1.07788 -0.66471,0.72434 -1.37418,1.42242 -2.02329,2.15575 -3.45262,3.90066 -6.80115,7.88273 -10.11648,11.85662 -0.41509,0.49755 -0.82377,0.99878 -1.21397,1.509 -0.10484,0.13712 -0.26978,0.2705 -0.26978,0.43117 0,0.10176 0.18325,-0.14111 0.26978,-0.21557 0.49803,-0.42861 1.01229,-0.84608 1.48375,-1.29346 0.96794,-0.91851 1.82949,-1.90839 2.8326,-2.80247 4.81227,-4.28915 6.88788,-6.1857 11.73513,-9.48529 2.03194,-1.38317 4.64905,-3.30662 7.41875,-3.77256 0.2476,-0.0417 0.21613,0.76263 -0.53954,1.94016 -0.58067,0.90483 -1.32265,1.73807 -2.02328,2.58691 -4.35918,5.2813 -8.92454,10.51411 -13.75843,15.52139 -0.39033,0.40432 -0.80121,0.79583 -1.21399,1.18567 -0.0821,0.0775 -0.3597,0.28741 -0.26976,0.21555 2.68476,-2.14537 -4.44931,3.58365 4.85592,-4.63483 2.77637,-2.45218 7.72641,-5.78586 11.7351,-7.00619 0.12606,-0.0384 0.0501,0.22329 0,0.32336 -0.27456,0.54847 -2.01548,2.47073 -2.0233,2.4791 -3.87573,4.16506 -1.61482,1.16059 -6.20475,7.0062 -0.0778,0.0989 -0.71698,1.09112 -0.53958,1.18566 0.25584,0.13628 5.19398,-2.43887 6.47456,-2.69471 1.63233,-0.32607 0.85776,1.94019 2.42795,1.94019"
       id="path246"
       sodipodi:nodetypes="cssscsssscssssssssssssscssssssssccssssssssssssssssssssssssssscsssc" />
  </g>
</svg>
