<?xml version="1.0" encoding="UTF-8" standalone="no"?>
<!-- Created with Inkscape (http://www.inkscape.org/) -->

<svg
   width="75.626091mm"
   height="15.438404mm"
   viewBox="0 0 75.626091 15.438404"
   version="1.1"
   id="svg1"
   inkscape:version="1.4 (86a8ad7, 2024-10-11)"
   sodipodi:docname="marcaTextoRetangulo.svg"
   xmlns:inkscape="http://www.inkscape.org/namespaces/inkscape"
   xmlns:sodipodi="http://sodipodi.sourceforge.net/DTD/sodipodi-0.dtd"
   xmlns="http://www.w3.org/2000/svg"
   xmlns:svg="http://www.w3.org/2000/svg">
  <sodipodi:namedview
     id="namedview1"
     pagecolor="#ffffff"
     bordercolor="#000000"
     borderopacity="0.25"
     inkscape:showpageshadow="2"
     inkscape:pageopacity="0.0"
     inkscape:pagecheckerboard="0"
     inkscape:deskcolor="#d1d1d1"
     inkscape:document-units="mm"
     inkscape:zoom="0.73851712"
     inkscape:cx="176.02842"
     inkscape:cy="20.988004"
     inkscape:window-width="1920"
     inkscape:window-height="1009"
     inkscape:window-x="-8"
     inkscape:window-y="-8"
     inkscape:window-maximized="1"
     inkscape:current-layer="layer1" />
  <defs
     id="defs1" />
  <g
     inkscape:label="Camada 1"
     inkscape:groupmode="layer"
     id="layer1"
     transform="translate(-58.472933,-142.875)">
    <path
       style="font-variation-settings:normal;opacity:0.466801;fill:none;fill-opacity:1;stroke:#ffff00;stroke-width:2.35532;stroke-linecap:square;stroke-linejoin:round;stroke-miterlimit:4;stroke-dasharray:none;stroke-dashoffset:0;stroke-opacity:1;paint-order:normal;stop-color:#000000"
       d="m 73.5132,150.64875 c 0.1423,0.51349 5.1318,-1.93479 5.1858,-1.64381 0.088,0.473 -1.5131,3.24402 -1.754,4.1095 -0.1341,0.48175 -0.2373,0.91259 0.3813,0.95888 0.1773,0.0132 0.3828,0.0845 0.5338,0 1.6278,-0.91107 3.1742,-1.93548 4.7282,-2.94513 0.8363,-0.54339 1.6286,-1.13951 2.4403,-1.7123 0.3975,-0.28042 1.0652,-0.97543 1.6015,-1.09586 0.024,-0.006 0.014,0.0492 0,0.0684 -0.3953,0.55466 -0.8347,1.08365 -1.2202,1.6438 -0.4576,0.70775 -0.9151,1.41548 -1.3727,2.12322 -0.2033,0.25116 -0.4261,0.49052 -0.61,0.75342 -0.376,0.53706 -0.7226,1.09034 -1.0677,1.6438 -0.012,0.0199 -0.025,0.0639 0,0.0685 0.7624,0.13694 2.0625,-0.71017 2.2878,-0.82191 1.9922,-0.98808 2.8446,-1.50403 4.4994,-2.46568 0.4322,-0.25114 0.8648,-0.50148 1.2964,-0.75341 0.095,-0.0556 0.3051,-0.23909 0.3051,-0.13699 0,0.82041 -1.7126,2.23873 -2.2879,3.01363 -0.095,0.12743 -0.3812,0.34245 -0.2287,0.41096 0.2156,0.0969 0.4744,-0.1022 0.6863,-0.20549 4.3398,-2.11399 3.0139,-1.67667 7.0159,-3.69853 0.545,-0.27531 1.1107,-0.51694 1.6778,-0.75342 0.1901,-0.0793 0.6826,-0.31364 0.6101,-0.13699 -0.4101,0.99959 -0.84,1.47723 -1.3727,2.39722 -0.1155,0.19948 -0.2014,0.4117 -0.305,0.61643 -0.023,0.0464 -0.1331,0.13697 -0.076,0.13697 1.4608,0 3.9591,-1.74089 5.0331,-2.32871 0.8079,-0.44213 1.619,-0.87979 2.4404,-1.30134 0.1125,-0.0577 0.36,-0.18332 0.3813,-0.0685 0.025,0.13699 -0.019,0.28203 -0.076,0.41095 -0.1481,0.33239 -1.6964,3.25783 -1.0677,3.49307 0.7022,0.26277 2.6663,-0.65003 2.7454,-0.68491 1.8189,-0.80193 3.4469,-1.92458 5.262,-2.73967 0.3035,-0.13633 0.056,0.354 -0.1525,0.82191 -0.1491,0.33484 -1.1795,1.90411 -0.7626,2.46568 0.3061,0.4125 3.3121,-1.4505 3.4317,-1.5068 0.5145,-0.24202 1.0351,-0.50082 1.6014,-0.61643 0.2468,-0.0504 -0.074,2.31306 0.1526,2.4657 0.2273,0.15315 0.5601,0.18706 0.8388,0.13698 0.3902,-0.07 0.7339,-0.28497 1.0677,-0.47945 1.3452,-0.78366 1.2861,-0.74406 1.9065,-1.30133"
       id="path266-2" />
  </g>
</svg>
