<?xml version="1.0" encoding="UTF-8" standalone="no"?>
<!-- Created with Inkscape (http://www.inkscape.org/) -->

<svg
   width="8.2199526mm"
   height="9.6312408mm"
   viewBox="0 0 8.2199522 9.6312406"
   version="1.1"
   id="svg1"
   inkscape:version="1.4 (86a8ad7, 2024-10-11)"
   sodipodi:docname="mouse.svg"
   xmlns:inkscape="http://www.inkscape.org/namespaces/inkscape"
   xmlns:sodipodi="http://sodipodi.sourceforge.net/DTD/sodipodi-0.dtd"
   xmlns="http://www.w3.org/2000/svg"
   xmlns:svg="http://www.w3.org/2000/svg">
  <sodipodi:namedview
     id="namedview1"
     pagecolor="#ffffff"
     bordercolor="#000000"
     borderopacity="0.25"
     inkscape:showpageshadow="2"
     inkscape:pageopacity="0.0"
     inkscape:pagecheckerboard="0"
     inkscape:deskcolor="#d1d1d1"
     inkscape:document-units="mm"
     inkscape:zoom="8.3553674"
     inkscape:cx="1.7354114"
     inkscape:cy="18.610792"
     inkscape:window-width="1920"
     inkscape:window-height="1009"
     inkscape:window-x="-8"
     inkscape:window-y="-8"
     inkscape:window-maximized="1"
     inkscape:current-layer="layer1" />
  <defs
     id="defs1" />
  <g
     inkscape:label="Camada 1"
     inkscape:groupmode="layer"
     id="layer1"
     transform="translate(-156.87439,-135.13772)">
    <path
       style="fill:#ffffff;fill-opacity:1;stroke-width:0.759772;stroke-linecap:round;stroke-linejoin:round"
       d="m 157.6481,139.9151 c -0.0381,-0.19039 -0.57281,-4.58328 -0.31977,-4.58328 0.4512,0 1.32997,0.42296 1.59881,0.53294 3.11288,1.27345 -0.6274,-0.22233 2.66469,1.06588 0.35635,0.13944 0.71204,0.28066 1.06588,0.42635 0.35384,0.1457 0.71415,0.27561 1.06588,0.42635 0.3267,0.14002 0.78885,0.25592 0.95928,0.42634 0.0502,0.0502 0.24495,-0.0635 0.21317,0 -0.13983,0.27967 -2.17708,1.24964 -2.13174,1.38565 0.0405,0.12152 0.14211,0.21318 0.21318,0.31977 0.54128,0.81192 1.0191,1.76521 1.70539,2.4515 0.0208,0.0208 0.18501,0.13476 0.10659,0.21317 -0.22132,0.22133 -0.8738,0.22021 -1.17246,0.31976 -0.18706,0.0624 -0.88919,1.00603 -1.06877,0.88631 -0.56357,-0.37572 -2.13125,-2.91146 -2.23545,-2.91146 -0.0988,0 -0.3258,0.26949 -0.42635,0.31975 -0.37386,0.18693 -1.64831,0.63953 -2.02515,0.63953 -0.11654,-0.59831 -0.0375,-1.25999 -0.21318,-1.91856 z"
       id="path3" />
    <path
       id="path2"
       style="opacity:1;fill:#1a1a1a;fill-opacity:1;stroke-width:0.759772;stroke-linecap:round;stroke-linejoin:round"
       d="m 157.32754,135.13772 c -0.0781,1.6e-4 -0.14548,0.0496 -0.17472,0.0875 -0.0293,0.038 -0.04,0.0691 -0.0491,0.0982 -0.018,0.0583 -0.0241,0.11491 -0.0294,0.18256 -0.009,0.11212 -0.009,0.25805 -0.005,0.42286 -0.0479,0.0175 -0.0872,0.0493 -0.10758,0.0758 -0.0293,0.038 -0.0401,0.0687 -0.0491,0.0978 -0.018,0.0583 -0.0245,0.11335 -0.0298,0.181 -0.0107,0.13531 -0.0107,0.3126 -0.003,0.52376 0.0154,0.42231 0.0611,0.97887 0.11464,1.54183 0.0536,0.56295 0.11599,1.13187 0.16766,1.57167 0.0258,0.21989 0.0488,0.40686 0.0667,0.54614 0.0179,0.13927 0.0266,0.21403 0.0369,0.26541 a 0.19452072,0.19452072 0 0 0 0.003,0.0118 c 0.16361,0.61318 0.086,1.26447 0.21084,1.9054 a 0.19452072,0.19452072 0 0 0 0.18964,0.15744 c 0.26629,0 0.65702,-0.12131 1.07579,-0.25991 0.41877,-0.13861 0.82747,-0.29555 1.03731,-0.40048 0.12228,-0.0612 0.17907,-0.13762 0.25677,-0.2077 0.0177,-0.016 0.0299,-0.0249 0.0459,-0.0385 0.0493,0.065 0.1129,0.15448 0.1916,0.26698 0.16908,0.24166 0.39196,0.56914 0.63056,0.91089 0.2386,0.34173 0.49242,0.69713 0.72439,0.99294 0.23197,0.2958 0.42692,0.52765 0.6172,0.6545 0.0958,0.0639 0.20225,0.0453 0.26856,0.0192 0.0663,-0.0261 0.12011,-0.0628 0.1751,-0.10522 0.10999,-0.0849 0.22248,-0.19829 0.33531,-0.31488 0.11282,-0.11659 0.22409,-0.23664 0.31488,-0.32785 0.0454,-0.0456 0.0856,-0.0848 0.11543,-0.10993 0.0207,-0.0175 0.0394,-0.0266 0.0397,-0.0279 0.11278,-0.0349 0.34551,-0.0637 0.57637,-0.10404 0.23731,-0.0414 0.48361,-0.0816 0.66196,-0.25992 0.0602,-0.0602 0.0865,-0.16821 0.0711,-0.24029 -0.0153,-0.0721 -0.0478,-0.11465 -0.0758,-0.1484 -0.028,-0.0337 -0.0546,-0.0585 -0.0758,-0.077 -0.0213,-0.0184 -0.0491,-0.0449 -0.0267,-0.0224 -0.0288,-0.0288 -0.0571,-0.0588 -0.0852,-0.0887 0.14107,-0.0376 0.27534,-0.0924 0.38359,-0.20063 0.0602,-0.0602 0.0864,-0.16979 0.0711,-0.24186 -0.0154,-0.0721 -0.0474,-0.11465 -0.0754,-0.14841 -0.028,-0.0337 -0.0546,-0.0589 -0.0758,-0.0773 -0.0213,-0.0184 -0.0491,-0.0429 -0.0267,-0.0204 -0.57916,-0.57916 -1.01876,-1.38247 -1.49394,-2.13234 0.10947,-0.0628 0.21579,-0.12409 0.33805,-0.19317 0.26096,-0.14745 0.52879,-0.29999 0.7448,-0.43621 0.10801,-0.0681 0.20284,-0.13145 0.28034,-0.19159 0.0775,-0.0602 0.1388,-0.10247 0.18846,-0.20182 0.008,-0.0166 0.0181,-0.037 0.0224,-0.0742 0.002,-0.0186 0.003,-0.0419 -0.003,-0.0683 -0.003,-0.0132 -0.0131,-0.0396 -0.0134,-0.0401 -2.2e-4,-4.5e-4 -0.0233,-0.0397 -0.0236,-0.04 -2.9e-4,-3.9e-4 -0.031,-0.0307 -0.0314,-0.031 -3.8e-4,-3.2e-4 -0.0207,-0.0152 -0.031,-0.0208 -0.0207,-0.0113 -0.0398,-0.0173 -0.055,-0.0208 -0.0304,-0.007 -0.0484,-0.005 -0.0636,-0.004 -0.0605,0.004 -0.0783,0.0137 -0.10248,0.0204 -0.0166,0.005 -0.0244,0.007 -0.0326,0.009 -0.0203,-0.0156 -0.0421,-0.0292 -0.0632,-0.0436 0.0389,-0.0237 0.0831,-0.049 0.11936,-0.0719 0.108,-0.0681 0.20323,-0.13145 0.28072,-0.1916 0.0775,-0.0602 0.13879,-0.1009 0.18846,-0.20024 0.008,-0.0166 0.0193,-0.0386 0.0236,-0.0758 0.002,-0.0186 0.001,-0.0419 -0.005,-0.0683 -0.003,-0.0132 -0.0131,-0.0396 -0.0133,-0.04 -2.1e-4,-4.5e-4 -0.0233,-0.0381 -0.0236,-0.0385 -3e-4,-3.8e-4 -0.0306,-0.0307 -0.031,-0.031 -3.8e-4,-3.2e-4 -0.0211,-0.0167 -0.0314,-0.0224 -0.0207,-0.0113 -0.0398,-0.0174 -0.055,-0.0208 -0.0304,-0.007 -0.0484,-0.005 -0.0636,-0.005 -0.0606,0.004 -0.0783,0.014 -0.10247,0.0208 -0.0167,0.005 -0.0243,0.007 -0.0326,0.009 -0.1201,-0.0922 -0.2526,-0.16442 -0.40519,-0.22262 -0.18438,-0.0704 -0.37896,-0.13409 -0.52965,-0.19867 -0.35874,-0.15374 -0.72022,-0.28407 -1.06872,-0.42757 -0.35536,-0.14632 -0.71296,-0.28749 -1.0699,-0.42717 -0.82143,-0.32143 -1.20309,-0.46819 -1.36672,-0.53004 -3.6e-4,-1.4e-4 -0.002,-10e-4 -0.003,-10e-4 -0.009,-0.004 -0.0113,-0.006 -0.0224,-0.0106 -0.14121,-0.0601 -0.49163,-0.20371 -1.27013,-0.52219 -0.12229,-0.05 -0.41723,-0.18772 -0.7346,-0.31017 -0.31722,-0.12238 -0.6513,-0.23743 -0.93759,-0.23753 z m 0.13388,0.42442 c 0.17898,0.0249 0.41321,0.0796 0.66471,0.17668 0.30203,0.11653 0.58058,0.2459 0.72714,0.30585 0.71477,0.29242 1.00404,0.41227 1.16216,0.479 7.6e-4,5.8e-4 0.003,0.003 0.003,0.003 4.7e-4,2.9e-4 0.0197,0.0115 0.0236,0.0134 0.004,0.002 0.007,0.003 0.0102,0.005 0.006,0.003 0.0126,0.006 0.0196,0.009 0.0141,0.006 0.0311,0.0127 0.0487,0.0196 0.035,0.014 0.0484,0.0217 0.0934,0.0353 0.003,7.6e-4 0.006,0.002 0.0122,0.003 0.003,7.6e-4 0.0132,0.003 0.0134,0.003 1.8e-4,7e-5 0.002,-6e-5 0.002,0 0.17593,0.0669 0.50851,0.19505 1.28034,0.49707 0.35575,0.13921 0.71012,0.28092 1.06244,0.42599 0.35919,0.1479 0.71812,0.2767 1.06283,0.42443 0.17602,0.0754 0.37477,0.13932 0.54575,0.20455 0.13439,0.0513 0.21479,0.10119 0.27758,0.14253 -0.0279,0.0184 -0.0445,0.0323 -0.0754,0.0518 -0.20388,0.12856 -0.47012,0.279 -0.73028,0.426 -0.26016,0.147 -0.51535,0.28999 -0.7079,0.40793 -0.0963,0.059 -0.17572,0.11169 -0.23872,0.16059 -0.0315,0.0245 -0.0583,0.0455 -0.0864,0.0785 -0.014,0.0165 -0.0301,0.0369 -0.0444,0.0699 -0.0143,0.033 -0.0287,0.0884 -0.007,0.15273 0.0621,0.18628 0.18382,0.28812 0.23597,0.36633 0.52691,0.79037 1.00782,1.74298 1.71537,2.45899 -0.0833,0.0391 -0.17222,0.0835 -0.33255,0.11151 -0.21893,0.0382 -0.45248,0.0585 -0.64233,0.12171 -0.0759,0.0253 -0.1124,0.0583 -0.15745,0.0962 -0.0451,0.0379 -0.0898,0.0825 -0.13938,0.13231 -0.0991,0.0995 -0.21067,0.22001 -0.3192,0.33216 -0.10853,0.11216 -0.21566,0.21732 -0.29368,0.27758 -0.0173,0.0134 -0.0225,0.014 -0.0357,0.0224 -0.10187,-0.0809 -0.27772,-0.2619 -0.48214,-0.52258 -0.22373,-0.28531 -0.47425,-0.63573 -0.71104,-0.97488 -0.2368,-0.33916 -0.46034,-0.66692 -0.63212,-0.91246 -0.0859,-0.12277 -0.1574,-0.22493 -0.21516,-0.29996 -0.0289,-0.0375 -0.0535,-0.0681 -0.0785,-0.095 -0.0125,-0.0135 -0.0243,-0.0265 -0.0432,-0.0416 -0.01,-0.008 -0.0215,-0.0154 -0.0401,-0.0251 -0.009,-0.005 -0.0201,-0.01 -0.0353,-0.0145 -0.0153,-0.005 -0.06,-0.009 -0.0608,-0.009 -0.11309,0 -0.1576,0.0439 -0.20653,0.0785 -0.0489,0.0346 -0.0938,0.0729 -0.13663,0.11151 -0.0856,0.0772 -0.19055,0.16045 -0.16882,0.14959 -0.16402,0.082 -0.58093,0.24563 -0.98706,0.38005 -0.33395,0.11054 -0.60651,0.16711 -0.78328,0.19593 -0.066,-0.51556 -0.0269,-1.09218 -0.1916,-1.71852 7.5e-4,0.004 -0.0149,-0.10131 -0.0326,-0.23871 -0.0176,-0.1374 -0.041,-0.32468 -0.0667,-0.54339 -0.0514,-0.43742 -0.11287,-1.00201 -0.16609,-1.56107 -0.0532,-0.55907 -0.0982,-1.11214 -0.11307,-1.51945 -0.007,-0.1929 -0.005,-0.34639 0.002,-0.45269 z" />
  </g>
</svg>
