<?xml version="1.0" encoding="UTF-8" standalone="no"?>
<!-- Created with Inkscape (http://www.inkscape.org/) -->

<svg
   width="19.041189mm"
   height="5.2115564mm"
   viewBox="0 0 19.041189 5.2115564"
   version="1.1"
   id="svg1"
   inkscape:version="1.4 (86a8ad7, 2024-10-11)"
   sodipodi:docname="ondasBrancas.svg"
   xmlns:inkscape="http://www.inkscape.org/namespaces/inkscape"
   xmlns:sodipodi="http://sodipodi.sourceforge.net/DTD/sodipodi-0.dtd"
   xmlns="http://www.w3.org/2000/svg"
   xmlns:svg="http://www.w3.org/2000/svg">
  <sodipodi:namedview
     id="namedview1"
     pagecolor="#ffffff"
     bordercolor="#000000"
     borderopacity="0.25"
     inkscape:showpageshadow="2"
     inkscape:pageopacity="0.0"
     inkscape:pagecheckerboard="0"
     inkscape:deskcolor="#d1d1d1"
     inkscape:document-units="mm"
     inkscape:zoom="0.73851712"
     inkscape:cx="-75.150594"
     inkscape:cy="50.777428"
     inkscape:window-width="1920"
     inkscape:window-height="1009"
     inkscape:window-x="-8"
     inkscape:window-y="-8"
     inkscape:window-maximized="1"
     inkscape:current-layer="layer1" />
  <defs
     id="defs1" />
  <g
     inkscape:label="Camada 1"
     inkscape:groupmode="layer"
     id="layer1"
     transform="translate(-125.15434,-134.9261)">
    <path
       d="m 144.08059,136.13555 c -0.3424,-0.0752 -0.5901,0.48939 -0.7811,1.78127 -0.074,0.49969 -0.2157,1.03897 -0.3151,1.19839 -0.2686,0.43109 -0.6818,0.0165 -1.9629,-1.96899 -0.8857,-1.37293 -1.165,-1.66747 -1.5311,-1.61517 -0.3636,0.052 -0.5129,0.30558 -0.7942,1.35025 -0.1905,0.70745 -0.3892,1.32904 -0.4414,1.38132 -0.052,0.0522 -0.329,-0.27671 -0.6149,-0.73106 -0.2859,-0.45437 -0.7484,-1.18952 -1.0275,-1.6337 -0.2791,-0.44416 -0.5744,-0.80619 -0.6561,-0.80449 -0.4556,0.009 -0.6568,0.46768 -0.778,1.77214 -0.074,0.80031 -0.1972,1.4551 -0.2731,1.4551 -0.076,0 -0.5374,-0.72491 -1.0257,-1.61091 -1.3196,-2.39449 -1.8397,-2.38008 -2.0088,0.0557 l -0.101,1.45427 -0.8661,-1.54619 c -1.307,-2.33323 -1.831,-2.3048 -2.0332,0.11037 l -0.1291,1.54109 -1.2154,-1.46393 c -0.6685,-0.80515 -1.3723,-1.49413 -1.5641,-1.53105 -0.4701,-0.0906 -0.6856,0.54746 -0.7852,2.32504 -0.09,1.59636 0.1,1.55743 0.4443,-0.0915 0.1219,-0.58298 0.2833,-1.05986 0.3587,-1.05975 0.075,1.1e-4 0.3899,0.45038 0.699,1.00061 1.0936,1.94709 2.2806,2.68943 3.0578,1.91224 0.1745,-0.17449 0.3173,-0.59967 0.3173,-0.94487 v -0.6276 l 0.7317,0.85485 c 0.6123,0.71525 0.8347,0.84482 1.3628,0.79345 0.6085,-0.0593 0.6347,-0.10106 0.7325,-1.17183 l 0.1015,-1.11041 0.4362,0.80757 c 0.6674,1.23574 1.2341,1.74882 1.8528,1.67724 0.4864,-0.0563 0.556,-0.17515 0.7457,-1.27345 l 0.2092,-1.21136 0.4952,0.87784 c 0.2725,0.48281 0.747,1.00798 1.0545,1.16703 0.8761,0.45307 1.299,0.0956 1.5808,-1.33626 0.1305,-0.66311 0.3079,-1.16197 0.3943,-1.10856 0.086,0.0534 0.427,0.57408 0.7569,1.15705 0.8206,1.4506 1.5822,2.17037 2.2961,2.17037 0.6123,0 0.9878,-0.55796 1.2909,-1.91801 0.124,-0.5567 0.1492,-2.04829 -0.014,-2.08413 z"
       style="font-variation-settings:normal;opacity:0.148148;vector-effect:none;fill:#ffffff;fill-opacity:1;stroke:none;stroke-width:0.697459;stroke-linecap:square;stroke-linejoin:round;stroke-miterlimit:4;stroke-dasharray:none;stroke-dashoffset:0;stroke-opacity:1;-inkscape-stroke:none;paint-order:normal;stop-color:#000000"
       id="path1-8-84-7"
       sodipodi:nodetypes="sssssscssscssscsscsssssssscssscssscssssssss" />
  </g>
</svg>
