<?xml version="1.0" encoding="UTF-8" standalone="no"?>
<!-- Created with Inkscape (http://www.inkscape.org/) -->

<svg
   width="48.880489mm"
   height="13.078712mm"
   viewBox="0 0 48.880489 13.078712"
   version="1.1"
   id="svg1"
   inkscape:version="1.4 (86a8ad7, 2024-10-11)"
   sodipodi:docname="retanguloPreto.svg"
   xmlns:inkscape="http://www.inkscape.org/namespaces/inkscape"
   xmlns:sodipodi="http://sodipodi.sourceforge.net/DTD/sodipodi-0.dtd"
   xmlns="http://www.w3.org/2000/svg"
   xmlns:svg="http://www.w3.org/2000/svg">
  <sodipodi:namedview
     id="namedview1"
     pagecolor="#ffffff"
     bordercolor="#000000"
     borderopacity="0.25"
     inkscape:showpageshadow="2"
     inkscape:pageopacity="0.0"
     inkscape:pagecheckerboard="0"
     inkscape:deskcolor="#d1d1d1"
     inkscape:document-units="mm"
     inkscape:zoom="0.73851712"
     inkscape:cx="-452.93466"
     inkscape:cy="-75.150594"
     inkscape:window-width="1920"
     inkscape:window-height="1009"
     inkscape:window-x="-8"
     inkscape:window-y="-8"
     inkscape:window-maximized="1"
     inkscape:current-layer="layer1" />
  <defs
     id="defs1" />
  <g
     inkscape:label="Camada 1"
     inkscape:groupmode="layer"
     id="layer1"
     transform="translate(-225.16042,-168.53958)">
    <path
       style="font-variation-settings:normal;vector-effect:none;fill:#1d1e20;fill-opacity:1;stroke:#1d1e20;stroke-width:0.306496;stroke-linecap:round;stroke-linejoin:round;stroke-miterlimit:4;stroke-dasharray:none;stroke-dashoffset:0;stroke-opacity:1;-inkscape-stroke:none;paint-order:normal"
       d="m 225.88973,169.27852 c 8.01041,-0.35264 16.07927,-0.2635 24.10952,-0.2635 10.00538,0 2.11878,0.043 12.25239,-0.13175 3.03002,-0.0523 6.06024,-0.0934 9.09047,-0.13174 0.43913,-0.006 0.8783,0 1.31746,0 0.13176,0 0.37319,-0.1299 0.39525,0 0.39214,2.30932 0.56118,4.65141 0.79047,6.98253 0.0946,0.96151 0,1.93227 0,2.89842 0,0.48627 0.01,1.18407 0,1.18572 -1.68813,0.28135 -4.58098,0 -6.19207,0 -4.96244,0 -9.92526,-0.062 -14.88729,0 -2.06573,0.0258 -4.12669,0.2181 -6.19208,0.26349 -1.93182,0.0424 -3.86638,-0.0839 -5.79683,0 -6.13426,0.73611 -0.82616,0.23183 -5.40158,0.39523 -2.75133,0.0983 -5.586,0.22449 -8.30001,0.65874 -0.64968,0.10395 -1.6409,0.47887 -1.71269,0.26349 -0.20593,-0.61779 0.33823,-1.74442 0.39523,-2.37143 0.14014,-1.54149 0.15349,-3.33976 0,-4.87461 -0.10211,-1.0211 -0.12306,-0.0796 -0.26349,-0.92221 -0.10805,-0.64829 -0.17086,-1.95148 0,-2.63493 0.10182,-0.40728 0.26349,-0.11907 0.26349,-0.39524 0.0439,-0.30741 0.0878,-0.61481 0.13176,-0.92221 z"
       id="path282" />
  </g>
</svg>
