<?xml version="1.0" encoding="UTF-8" standalone="no"?>
<!-- Created with Inkscape (http://www.inkscape.org/) -->

<svg
   width="75.626091mm"
   height="15.438404mm"
   viewBox="0 0 75.626091 15.438404"
   version="1.1"
   id="svg1"
   inkscape:version="1.4 (86a8ad7, 2024-10-11)"
   sodipodi:docname="retangulo.svg"
   xmlns:inkscape="http://www.inkscape.org/namespaces/inkscape"
   xmlns:sodipodi="http://sodipodi.sourceforge.net/DTD/sodipodi-0.dtd"
   xmlns="http://www.w3.org/2000/svg"
   xmlns:svg="http://www.w3.org/2000/svg">
  <sodipodi:namedview
     id="namedview1"
     pagecolor="#ffffff"
     bordercolor="#000000"
     borderopacity="0.25"
     inkscape:showpageshadow="2"
     inkscape:pageopacity="0.0"
     inkscape:pagecheckerboard="0"
     inkscape:deskcolor="#d1d1d1"
     inkscape:document-units="mm"
     inkscape:zoom="0.73851712"
     inkscape:cx="8.1243886"
     inkscape:cy="-37.236781"
     inkscape:window-width="1920"
     inkscape:window-height="1009"
     inkscape:window-x="-8"
     inkscape:window-y="-8"
     inkscape:window-maximized="1"
     inkscape:current-layer="layer1" />
  <defs
     id="defs1" />
  <g
     inkscape:label="Camada 1"
     inkscape:groupmode="layer"
     id="layer1"
     transform="translate(-110.86045,-125.67708)">
    <path
       style="font-variation-settings:normal;vector-effect:none;fill:#ffffff;fill-opacity:1;stroke:#1a1a1a;stroke-width:0.450141;stroke-linecap:round;stroke-linejoin:round;stroke-miterlimit:4;stroke-dasharray:none;stroke-dashoffset:0;stroke-opacity:1;-inkscape-stroke:none;paint-order:normal"
       d="m 111.08552,126.15426 c 13.3968,-0.9654 26.8063,1.13264 40.1879,1.47285 10.6436,0.2706 21.3316,0 31.9821,0 1.2043,0 2.9401,-0.23264 2.9457,-0.21041 0.3945,1.57787 -1.351,4.27663 -1.8937,5.47061 -2.2471,4.94361 -1.16,2.74069 -2.3145,5.04978 -0.393,0.78601 -0.4764,1.92147 -1.2625,2.3145 -0.5712,0.28559 -6.8618,-0.007 -7.1538,0 -1.5442,0.0368 -3.086,0.14027 -4.629,0.2104 -5.1199,0.0701 -10.2395,0.17435 -15.3597,0.21041 -11.5743,0.0815 -23.1431,0.21041 -34.7174,0.21041 -0.036,0 -4.6117,0.0171 -4.6289,0 -0.3017,-0.30168 0.47351,-0.51062 0.74001,-0.84374 0.219,-0.27384 0.55416,-1.09717 0.55416,-1.44786 0,-2.23779 0.0711,-0.45306 -0.66297,-3.38942 -0.411,-1.64387 -0.9547,-3.59272 -1.6833,-5.04979 -0.1481,-0.29619 -0.656,-0.59417 -0.8416,-0.84163 -0.8631,-1.1509 -1.047,-1.64802 -1.2625,-3.15611 z"
       id="path265-4"
       sodipodi:nodetypes="cssccsscccsccscccc" />
  </g>
</svg>
