<?xml version="1.0" encoding="UTF-8" standalone="no"?>
<!-- Created with Inkscape (http://www.inkscape.org/) -->

<svg
   width="30.548073mm"
   height="22.582188mm"
   viewBox="0 0 30.548073 22.582188"
   version="1.1"
   id="svg1"
   inkscape:version="1.4 (86a8ad7, 2024-10-11)"
   sodipodi:docname="apresentacoes.svg"
   xmlns:inkscape="http://www.inkscape.org/namespaces/inkscape"
   xmlns:sodipodi="http://sodipodi.sourceforge.net/DTD/sodipodi-0.dtd"
   xmlns="http://www.w3.org/2000/svg"
   xmlns:svg="http://www.w3.org/2000/svg">
  <sodipodi:namedview
     id="namedview1"
     pagecolor="#ffffff"
     bordercolor="#000000"
     borderopacity="0.25"
     inkscape:showpageshadow="2"
     inkscape:pageopacity="0.0"
     inkscape:pagecheckerboard="0"
     inkscape:deskcolor="#d1d1d1"
     inkscape:document-units="mm"
     inkscape:zoom="5.9081369"
     inkscape:cx="56.701462"
     inkscape:cy="59.155704"
     inkscape:window-width="1920"
     inkscape:window-height="1009"
     inkscape:window-x="-8"
     inkscape:window-y="-8"
     inkscape:window-maximized="1"
     inkscape:current-layer="layer1" />
  <defs
     id="defs1" />
  <g
     inkscape:label="Camada 1"
     inkscape:groupmode="layer"
     id="layer1"
     transform="translate(-164.57083,-109.5375)">
    <path
       style="fill:#ffffff;stroke-linecap:round;stroke-linejoin:round"
       d="m 171.5206,113.22146 c 0.0182,1.362 0.16567,2.71121 0.19412,4.07661 0.0521,2.50382 -0.29118,4.98074 -0.29118,7.47378 0,0.36535 -0.13138,0.95345 0.29118,1.16474 0.64623,0.32312 3.99852,0.0971 4.56192,0.0971 1.95945,0 3.87546,-0.11406 5.82372,-0.29118 1.59411,-0.14492 3.16385,-0.25556 4.75605,-0.38825 0.24135,-0.0201 0.73007,0.0928 0.87357,-0.19413 0.5992,-1.19844 0.0533,-5.122 0.0971,-6.69728 0.0453,-1.6316 0.14355,-3.32616 0.29118,-4.95017 0.0311,-0.34166 0.27461,-1.10083 0.0971,-1.45593 -0.19989,-0.3998 -0.8333,-0.31486 -1.16475,-0.29119 -0.98611,0.0705 -1.93647,0.36827 -2.91187,0.48532 -1.37607,0.16514 -2.78953,0.19412 -4.17366,0.19412 -1.20258,0 -2.39692,0.0971 -3.59131,0.0971 -1.00436,0 -2.96189,-0.26617 -3.88248,0.19411 -0.0745,0.0372 -0.22096,-0.0439 -0.29117,0 -0.23603,0.14752 -0.45297,0.32355 -0.67945,0.48532 z"
       id="path1" />
    <path
       id="path2"
       style="fill:#1a1a1a;stroke-linecap:round;stroke-linejoin:round"
       d="M 187.51517 111.45004 C 187.32034 111.44638 187.14503 111.46661 187.02941 111.47485 C 185.99833 111.54855 185.04304 111.84837 184.10349 111.96112 C 182.74687 112.12392 181.34478 112.15439 179.96472 112.15439 C 178.74645 112.15439 177.55179 112.24999 176.37321 112.24999 C 175.89679 112.24999 175.14962 112.18478 174.40434 112.17558 C 173.68848 112.16694 172.97631 112.19753 172.42978 112.44533 C 172.4246 112.44742 172.41781 112.4514 172.39619 112.4474 C 172.33899 112.4368 172.22564 112.37512 172.04479 112.48822 C 171.78845 112.64844 171.56803 112.82951 171.3513 112.98432 L 171.38489 112.98638 A 0.29166667 0.29166667 0 0 0 171.22831 113.22461 C 171.24671 114.60508 171.39554 115.95656 171.42364 117.30498 C 171.47514 119.77816 171.1327 122.2519 171.1327 124.77171 C 171.1327 124.91943 171.09642 125.17088 171.12082 125.43782 C 171.14512 125.70476 171.26494 126.038 171.58384 126.19746 C 171.84778 126.32942 172.1768 126.35386 172.60342 126.37885 C 173.03003 126.40385 173.53262 126.40658 174.03124 126.39848 C 175.02848 126.38228 176.03439 126.32614 176.27709 126.32614 C 176.42649 126.32614 176.57416 126.32124 176.72306 126.31994 C 176.37625 127.48981 175.73157 128.59107 175.32056 129.82412 A 0.29163751 0.29163751 0 0 0 175.50608 130.1936 A 0.29163751 0.29163751 0 0 0 175.87298 130.00757 C 176.27544 128.80019 176.97039 127.64474 177.33129 126.31115 C 178.93526 126.27867 180.5188 126.17918 182.12066 126.03365 A 0.29163751 0.29163751 0 0 0 182.12893 126.25586 C 182.43006 126.88542 182.92298 127.48796 183.32834 128.09967 C 183.73371 128.71137 184.04096 129.31856 184.04096 129.9161 A 0.29163751 0.29163751 0 0 0 184.3319 130.20704 A 0.29163751 0.29163751 0 0 0 184.6249 129.9161 C 184.6249 129.1246 184.24099 128.42061 183.81462 127.77721 C 183.38825 127.13382 182.90887 126.53553 182.65448 126.00368 A 0.29163751 0.29163751 0 0 0 182.64466 125.98972 C 184.05797 125.86681 185.45974 125.76293 186.88058 125.64453 C 186.93998 125.63953 187.13874 125.66106 187.34774 125.64866 C 187.45223 125.64266 187.56438 125.62691 187.68157 125.57631 C 187.79876 125.52581 187.92115 125.42886 187.99007 125.29106 C 188.17626 124.91867 188.24828 124.42593 188.28308 123.84774 C 188.31788 123.26954 188.30579 122.61011 188.27739 121.94139 C 188.22089 120.60393 188.09797 119.21807 188.11875 118.4708 C 188.16385 116.8453 188.26111 115.15673 188.40814 113.53932 C 188.41924 113.41751 188.48789 113.12869 188.53319 112.83394 C 188.57849 112.5392 188.62605 112.22559 188.47635 111.92598 C 188.31761 111.60848 187.98591 111.49408 187.71464 111.46296 C 187.64682 111.45519 187.58011 111.45126 187.51517 111.45004 z M 187.50845 112.0345 C 187.55697 112.03517 187.60392 112.03767 187.64849 112.04277 C 187.82676 112.06317 187.91378 112.10514 187.95493 112.18747 C 187.98263 112.24297 187.9968 112.48706 187.957 112.74609 C 187.9172 113.00513 187.84835 113.26624 187.82833 113.48609 C 187.68011 115.1167 187.58079 116.8176 187.53532 118.4553 C 187.51232 119.28331 187.63984 120.6469 187.69552 121.96465 C 187.72332 122.62353 187.7338 123.26884 187.7012 123.8126 C 187.6685 124.35636 187.58259 124.80222 187.46918 125.02906 C 187.46618 125.03506 187.47369 125.03124 187.45109 125.04094 C 187.42879 125.05094 187.37837 125.06237 187.3126 125.06627 C 187.18102 125.07427 187.01391 125.0491 186.832 125.0642 C 185.24224 125.19669 183.67213 125.30599 182.07416 125.45126 C 180.13183 125.62784 178.22575 125.74219 176.27761 125.74219 C 175.95691 125.74219 175.00273 125.79854 174.02142 125.81454 C 173.53077 125.82254 173.04037 125.82057 172.63907 125.79697 C 172.23777 125.77347 171.90503 125.70513 171.84584 125.67553 C 171.74218 125.62373 171.71677 125.55586 171.70115 125.38459 C 171.68555 125.21331 171.7151 124.98883 171.7151 124.77119 C 171.7151 122.30493 172.05878 119.82756 172.00604 117.2931 C 171.97834 115.96173 171.84668 114.66158 171.82052 113.36724 C 171.98795 113.24358 172.15069 113.12006 172.30886 113.01739 C 172.36296 113.03089 172.44982 113.08397 172.6215 112.99827 A 0.29166667 0.29166667 0 0 0 172.6215 112.99775 A 0.29166667 0.29166667 0 0 0 172.6215 112.99724 A 0.29166667 0.29166667 0 0 0 172.6215 112.99672 A 0.29166667 0.29166667 0 0 0 172.6215 112.9962 C 172.98773 112.8131 173.68394 112.74915 174.39866 112.75797 C 175.11337 112.76697 175.84526 112.83394 176.37321 112.83394 C 177.5834 112.83394 178.77836 112.73627 179.96524 112.73627 C 181.35344 112.73627 182.77877 112.70844 184.17429 112.54093 C 185.18553 112.41957 186.13115 112.12401 187.0723 112.05672 C 187.20526 112.0472 187.36288 112.03251 187.50845 112.0345 z M 185.78814 114.54391 C 185.53638 114.54251 185.26866 114.58008 185.20678 114.58008 C 183.2132 114.58008 181.24467 114.75201 179.28311 114.77335 A 0.29163751 0.29163751 0 0 0 178.99424 115.06843 A 0.29163751 0.29163751 0 0 0 179.28931 115.3573 C 181.28062 115.3356 183.24716 115.16403 185.20678 115.16403 C 185.38478 115.16403 185.61083 115.13532 185.77729 115.13302 A 0.29163751 0.29163751 0 0 0 185.77729 115.36918 A 0.29163751 0.29163751 0 0 0 186.18967 115.36918 C 186.26387 115.29498 186.32084 115.22631 186.3633 115.13302 C 186.4058 115.03972 186.42373 114.88817 186.35503 114.76974 C 186.28653 114.65131 186.18536 114.60642 186.10905 114.58215 C 186.03275 114.55785 185.96394 114.55111 185.89459 114.54701 C 185.85992 114.54499 185.82411 114.54411 185.78814 114.54391 z M 176.08331 115.11494 C 175.73802 115.11887 175.41099 115.16196 175.11127 115.16196 C 174.69469 115.16196 174.38574 115.14131 174.14234 115.13251 L 174.14234 115.13302 C 173.89894 115.12402 173.71893 115.1061 173.51757 115.2033 C 173.41689 115.2519 173.32249 115.34842 173.27521 115.45135 C 173.22791 115.55429 173.21483 115.6543 173.21113 115.75779 C 173.20313 115.96478 173.23493 116.20429 173.26953 116.55051 C 173.33173 117.17303 173.33053 117.82272 173.36513 118.47855 C 173.43733 119.85115 173.59067 121.20495 173.65606 122.55272 L 173.67984 122.5274 A 0.29166667 0.29166667 0 0 0 173.94752 122.83178 A 0.29166667 0.29166667 0 0 0 173.98214 122.82196 L 173.98214 122.82816 C 174.45779 122.76876 174.9757 122.75896 175.45906 122.82816 C 175.54816 122.84086 175.76385 122.92463 175.99597 122.99404 C 176.2281 123.06344 176.51011 123.13645 176.79489 122.99404 C 177.06149 122.86074 177.15751 122.57188 177.17006 122.36101 C 177.18266 122.15013 177.15043 121.95845 177.15043 121.85923 C 177.15043 119.80844 177.44136 117.7477 177.44136 115.64824 C 177.44136 115.51692 177.35798 115.37829 177.27135 115.31441 C 177.18475 115.25051 177.10532 115.23047 177.03519 115.21467 C 176.89493 115.18307 176.76672 115.17655 176.72254 115.16765 C 176.50414 115.12397 176.29048 115.11258 176.08331 115.11494 z M 176.09054 115.70405 C 176.27246 115.70046 176.44499 115.70782 176.60731 115.74022 C 176.71095 115.76092 176.78956 115.76626 176.85329 115.77536 C 176.84189 117.77908 176.56648 119.79698 176.56648 121.85923 C 176.56648 122.03923 176.59467 122.20855 176.58767 122.32587 C 176.58067 122.44319 176.57866 122.45085 176.53496 122.47263 C 176.49586 122.49213 176.35368 122.49212 176.16392 122.43542 C 175.97416 122.37862 175.77022 122.28261 175.54122 122.2499 C 175.09657 122.1863 174.65123 122.2144 174.21882 122.2499 C 174.14642 120.97191 174.01373 119.70513 173.94752 118.44703 C 173.91412 117.81254 173.91605 117.15425 173.84985 116.49211 C 173.81495 116.1429 173.79057 115.90257 173.79507 115.77898 C 173.79607 115.74108 173.79776 115.73877 173.80076 115.72627 C 173.81376 115.72605 173.91118 115.70905 174.12115 115.71645 L 174.12115 115.71697 C 174.35035 115.72497 174.67624 115.74591 175.11127 115.74591 C 175.45865 115.74591 175.78735 115.71002 176.09054 115.70405 z M 184.86675 116.30039 C 184.69084 116.29858 184.51626 116.32129 184.3474 116.37119 C 184.0486 116.45949 183.79363 116.65992 183.58001 116.92568 C 182.90668 117.39549 182.41537 118.07702 182.29688 118.90644 C 182.26278 119.14531 182.24293 119.47066 182.26743 119.80457 C 182.29193 120.13847 182.35105 120.48034 182.53718 120.75955 C 183.06826 121.55617 184.05425 121.90238 184.99026 121.82047 C 185.92628 121.73857 186.85379 121.20824 187.2263 120.21488 C 187.82366 118.62194 187.04664 117.23387 186.0057 116.63267 C 185.64788 116.42601 185.25375 116.30437 184.86675 116.30039 z M 184.86262 116.91431 C 185.12018 116.90705 185.39959 116.96747 185.67187 117.11533 A 0.29163751 0.29163751 0 0 0 185.59384 117.10344 A 0.29163751 0.29163751 0 0 0 185.3029 117.39438 C 185.3029 117.53941 185.1294 118.01541 184.94737 118.41189 C 184.85637 118.61013 184.76684 118.79824 184.70294 118.95501 C 184.67104 119.03341 184.64457 119.10236 184.62697 119.17774 C 184.61797 119.21544 184.61162 119.25473 184.61302 119.31055 C 184.61402 119.36635 184.62394 119.45786 184.70914 119.54309 C 184.87628 119.71026 185.0514 119.71846 185.2383 119.73636 C 185.4252 119.75426 185.63205 119.75141 185.83982 119.74411 C 186.2192 119.73042 186.62908 119.70923 186.77206 119.71776 C 186.74714 119.81358 186.71667 119.91075 186.67956 120.00973 C 186.39435 120.77027 185.69668 121.17183 184.93961 121.23808 C 184.18255 121.30428 183.40963 121.01481 183.02345 120.43554 C 182.93975 120.30989 182.87044 120.04328 182.84982 119.76168 C 182.82922 119.48007 182.84774 119.18452 182.87514 118.99015 C 182.92984 118.60728 183.0948 118.28503 183.26943 117.97833 A 0.29163751 0.29163751 0 0 0 183.3888 118.06618 A 0.29163751 0.29163751 0 0 0 183.74227 117.85379 C 183.8665 117.35684 184.13002 117.16779 184.41975 117.04298 C 184.44665 117.03698 184.45664 117.00746 184.48434 117.00216 A 0.29163751 0.29163751 0 0 0 184.60165 116.94532 C 184.6851 116.92752 184.77247 116.91685 184.86262 116.91431 z M 185.79641 117.18923 C 186.39129 117.56793 186.87466 118.2587 186.85474 119.1395 C 186.56271 119.1029 186.19126 119.14842 185.81811 119.16223 C 185.62087 119.16923 185.43293 119.16955 185.29463 119.15655 C 185.26203 119.15355 185.27891 119.15655 185.25381 119.15035 C 185.30731 119.02165 185.38772 118.84977 185.47653 118.65632 C 185.66248 118.25131 185.88684 117.81285 185.88684 117.39438 A 0.29163751 0.29163751 0 0 0 185.79641 117.18923 z M 180.28925 117.3303 C 180.02222 117.33002 179.68779 117.34821 179.35339 117.37681 C 179.01898 117.40541 178.68664 117.44226 178.4258 117.48223 C 178.29538 117.50223 178.18492 117.52286 178.09352 117.54476 C 178.04782 117.55566 178.00716 117.56617 177.96485 117.58197 C 177.92255 117.59777 177.87518 117.57819 177.78139 117.71891 C 177.68809 117.85879 177.71068 117.91503 177.70698 117.9959 C 177.70298 118.0768 177.70705 118.16576 177.71318 118.26565 C 177.72518 118.46541 177.75109 118.70802 177.78139 118.95139 C 177.84199 119.43813 177.92183 119.96548 177.92816 120.04125 C 177.98286 120.70101 177.87256 121.42028 177.92816 122.17187 A 0.29166667 0.29166667 0 0 0 178.1855 122.44162 C 178.40655 122.46622 179.01266 122.62595 179.59214 122.7615 C 179.88187 122.8293 180.16911 122.89271 180.42774 122.9279 C 180.68638 122.9631 180.90399 122.98774 181.12538 122.91394 C 181.2272 122.88004 181.28119 122.80969 181.31089 122.75995 C 181.34059 122.71015 181.3532 122.66805 181.3636 122.62869 C 181.3844 122.55009 181.39354 122.47614 181.39874 122.39253 C 181.40904 122.2253 181.40254 122.02752 181.39254 121.82822 C 181.37204 121.4296 181.32823 121.009 181.32433 120.96264 C 181.29373 120.59581 181.29702 119.92012 181.27162 119.26352 C 181.24612 118.60693 181.2162 117.98538 181.00187 117.55665 C 180.93357 117.42007 180.84789 117.40012 180.7931 117.38095 C 180.7383 117.36175 180.69152 117.35467 180.64065 117.34787 C 180.53892 117.33417 180.42277 117.3305 180.28925 117.3303 z M 180.28925 117.91218 C 180.37945 117.91227 180.43903 117.917 180.49596 117.922 C 180.58706 118.16448 180.66626 118.6956 180.68923 119.28729 C 180.71403 119.92473 180.70644 120.58356 180.74194 121.01018 C 180.74994 121.10728 180.79127 121.48344 180.81067 121.85974 C 180.82067 122.04788 180.82385 122.23281 180.81635 122.3579 C 180.74085 122.3619 180.66827 122.37164 180.50784 122.34964 C 180.28244 122.31894 180.0066 122.26102 179.72495 122.19512 C 179.26014 122.08639 178.85249 121.98412 178.50797 121.92021 C 178.48917 121.31219 178.56457 120.67196 178.50797 119.99216 C 178.49277 119.81056 178.41869 119.35372 178.35965 118.87905 C 178.33015 118.64171 178.30566 118.40663 178.29506 118.23051 C 178.29206 118.17481 178.29299 118.14073 178.29299 118.09977 C 178.35489 118.08687 178.4219 118.07489 178.51572 118.06049 C 178.75775 118.02339 179.08153 117.98476 179.40455 117.95714 C 179.72757 117.92954 180.051 117.91188 180.28925 117.91218 z M 184.19599 123.11186 C 184.16782 123.11218 184.13936 123.11251 184.11124 123.11341 C 183.88627 123.12041 183.6638 123.15004 183.48647 123.17594 C 183.39777 123.18894 183.31981 123.20082 183.26168 123.20902 C 183.20358 123.21702 183.15276 123.21783 183.17951 123.21883 A 0.29163751 0.29163751 0 0 0 182.87721 123.4984 A 0.29163751 0.29163751 0 0 0 183.15626 123.80123 C 183.23516 123.80423 183.27789 123.79481 183.34385 123.78521 C 183.40985 123.77621 183.48734 123.76453 183.57226 123.75213 C 183.74208 123.72733 183.94309 123.70171 184.12881 123.69581 C 184.31452 123.68981 184.48518 123.71082 184.56444 123.74232 C 184.64374 123.77372 184.62284 123.74163 184.62284 123.80123 A 0.29163751 0.29163751 0 0 0 184.91584 124.09423 A 0.29163751 0.29163751 0 0 0 185.2073 123.80123 C 185.2073 123.52136 184.99512 123.28527 184.77942 123.19971 C 184.59067 123.12481 184.39316 123.10965 184.19599 123.11186 z " />
  </g>
</svg>
