<?xml version="1.0" encoding="UTF-8" standalone="no"?>
<!-- Created with Inkscape (http://www.inkscape.org/) -->

<svg
   width="30.548073mm"
   height="22.582188mm"
   viewBox="0 0 30.548073 22.582188"
   version="1.1"
   id="svg1"
   inkscape:version="1.4 (86a8ad7, 2024-10-11)"
   sodipodi:docname="ilustracoes.svg"
   xmlns:inkscape="http://www.inkscape.org/namespaces/inkscape"
   xmlns:sodipodi="http://sodipodi.sourceforge.net/DTD/sodipodi-0.dtd"
   xmlns="http://www.w3.org/2000/svg"
   xmlns:svg="http://www.w3.org/2000/svg">
  <sodipodi:namedview
     id="namedview1"
     pagecolor="#ffffff"
     bordercolor="#000000"
     borderopacity="0.25"
     inkscape:showpageshadow="2"
     inkscape:pageopacity="0.0"
     inkscape:pagecheckerboard="0"
     inkscape:deskcolor="#d1d1d1"
     inkscape:document-units="mm"
     inkscape:zoom="4.1776837"
     inkscape:cx="37.1019"
     inkscape:cy="41.290824"
     inkscape:window-width="1920"
     inkscape:window-height="1009"
     inkscape:window-x="-8"
     inkscape:window-y="-8"
     inkscape:window-maximized="1"
     inkscape:current-layer="layer1" />
  <defs
     id="defs1" />
  <g
     inkscape:label="Camada 1"
     inkscape:groupmode="layer"
     id="layer1"
     transform="translate(-155.57498,-146.31458)">
    <path
       style="fill:#ffffff;stroke-width:0.485;stroke-linecap:round;stroke-linejoin:round;paint-order:markers fill stroke"
       d="m 165.92985,155.4503 -5.31993,-2.94496 7.56824,-1.23499 -1.34582,-1.09248 10.10154,0.20583 1.77331,1.06082 -0.12666,0.63332 -1.45665,2.07414 1.58331,2.69164 -0.0633,0.60165 -1.70998,0.50666 -0.0633,2.50164 -1.25082,1.45665 -5.41493,3.37246 -3.34079,-2.05831 -1.64665,-4.82911 z"
       id="path1" />
    <path
       id="path248"
       style="fill:#1a1a1a;stroke-linecap:round;stroke-linejoin:round"
       d="M 166.40739 149.66166 C 166.37335 149.66141 166.33935 149.66281 166.30404 149.66631 L 166.30456 149.6658 C 166.23396 149.6728 166.14779 149.66092 166.0255 149.7831 C 166.02546 149.78314 165.94747 149.91223 165.94747 149.91229 C 165.94745 149.91235 165.93352 150.02126 165.93352 150.02133 C 165.93353 150.02148 165.95874 150.13274 165.95884 150.13295 C 165.95894 150.13316 165.98251 150.17554 165.98261 150.17584 C 165.98279 150.17612 165.99392 150.19185 165.99812 150.19755 C 166.01502 150.22015 166.02192 150.22684 166.02912 150.23424 C 166.04362 150.24914 166.05403 150.25848 166.06633 150.26938 C 166.09093 150.29108 166.12125 150.31639 166.15625 150.34379 C 166.22645 150.39869 166.31631 150.46376 166.41411 150.52156 C 166.80353 150.75167 167.15602 150.91277 167.50552 151.09362 C 167.25743 151.11442 167.00919 151.13289 166.75001 151.15459 C 166.44752 151.17979 166.13035 151.19094 165.80071 151.23624 C 164.47119 151.41873 163.13584 151.66838 161.83196 151.97263 C 161.72963 151.99653 161.47995 152.01148 161.22631 152.04498 C 160.97268 152.07838 160.68972 152.11484 160.46254 152.34212 C 160.37204 152.43272 160.3531 152.62613 160.38864 152.71471 C 160.42414 152.80331 160.46431 152.83988 160.49974 152.87335 C 160.57064 152.94025 160.64201 152.98414 160.72815 153.0351 C 160.90041 153.13701 161.12418 153.24667 161.36119 153.35549 C 161.83521 153.57313 162.35037 153.78155 162.47637 153.83195 C 162.78826 153.95669 163.1074 154.03518 163.32386 154.13891 C 163.35196 154.18631 163.35144 154.21947 163.39414 154.24795 C 163.58456 154.37473 163.74141 154.41142 163.80083 154.45103 C 163.94041 154.54413 164.21511 154.75326 164.5057 154.93938 C 164.79628 155.12551 165.07976 155.31661 165.43743 155.31661 A 0.3154265 0.3154265 0 0 0 165.75162 155.00191 A 0.3154265 0.3154265 0 0 0 165.43743 154.68565 C 165.39423 154.68565 165.10611 154.57492 164.84573 154.40814 C 164.58536 154.24136 164.32954 154.04559 164.15017 153.926 C 163.98535 153.81613 163.87182 153.78533 163.79877 153.7503 C 163.79377 153.7403 163.7965 153.7388 163.7905 153.7286 C 163.7505 153.6622 163.68422 153.61009 163.62875 153.58235 C 163.30796 153.42196 162.96093 153.34612 162.71046 153.24594 C 162.59029 153.19784 162.07959 152.99228 161.62474 152.78344 C 161.52904 152.73954 161.46858 152.70289 161.38238 152.66045 C 161.57612 152.63945 161.78279 152.6332 161.97614 152.5881 C 163.2616 152.28815 164.5774 152.04122 165.8865 151.86153 C 166.17604 151.82173 166.4819 151.8101 166.8022 151.7835 C 167.13326 151.7559 167.47604 151.73913 167.82591 151.70133 C 167.87321 151.69633 168.024 151.70443 168.18506 151.68583 C 168.26556 151.67683 168.35456 151.6652 168.4605 151.6016 C 168.56644 151.538 168.67547 151.37352 168.67547 151.22487 C 168.67547 151.11984 168.59521 150.99404 168.53078 150.94944 C 168.47948 150.91394 168.45496 150.91008 168.43156 150.90448 C 168.40016 150.88108 168.36175 150.84825 168.29668 150.80268 L 168.29668 150.80475 C 168.09086 150.66067 167.8986 150.58775 167.68897 150.48435 C 168.72476 150.58797 169.88503 150.52569 170.83761 150.52569 C 171.6016 150.52569 171.81278 150.52463 172.05253 150.52363 C 172.05853 150.52563 172.06306 150.52676 172.06596 150.52776 C 172.08326 150.53076 172.09145 150.53038 172.09955 150.53138 C 172.11585 150.53338 172.13043 150.53451 172.14813 150.53551 C 172.2902 150.54251 172.67847 150.55272 173.63434 150.56652 C 175.1902 150.58902 176.8062 150.40077 178.00565 151.24038 C 178.16281 151.3504 178.2913 151.47465 178.34517 151.59591 C 178.36517 151.64101 178.36684 151.73782 178.28884 151.90649 C 178.21084 152.07516 178.06436 152.28577 177.89817 152.50025 C 177.73197 152.71473 177.54593 152.9334 177.38657 153.14465 C 177.2728 153.29547 177.16961 153.43646 177.0977 153.59269 C 177.0564 153.54823 177.01575 153.50336 176.97057 153.46091 C 176.83912 153.33737 176.68943 153.22478 176.50962 153.15034 C 176.3298 153.07594 176.10829 153.04807 175.89467 153.11933 C 175.84327 153.13643 175.84814 153.13694 175.81664 153.15034 C 175.78514 153.16384 175.7429 153.18185 175.6952 153.20305 C 175.5998 153.24565 175.47772 153.30137 175.35362 153.36118 C 175.22952 153.42098 175.10545 153.48319 175.00015 153.54308 C 174.94755 153.57298 174.89855 153.60225 174.85339 153.63455 C 174.81619 153.66113 174.77884 153.67305 174.72988 153.74927 C 174.53255 153.72846 174.35919 153.75685 174.21105 153.7596 C 174.04968 153.7616 173.95585 153.73246 173.92942 153.70896 C 173.83522 153.62516 173.82081 153.58176 173.80488 153.49605 C 173.78898 153.41035 173.79299 153.2742 173.79299 153.09143 C 173.79299 153.10293 173.80281 153.03606 173.80281 152.94312 C 173.80287 152.89662 173.80415 152.83697 173.76405 152.74778 C 173.72355 152.65858 173.59035 152.54812 173.47105 152.53487 L 173.47053 152.53539 C 172.61974 152.44089 171.65123 152.68585 170.93942 152.82426 C 169.7226 153.06086 169.22204 153.16333 169.04082 153.20718 C 169.03482 153.20818 169.03072 153.2098 169.02532 153.2108 C 168.73761 153.255 168.42898 153.30398 167.41612 153.4728 C 167.05351 153.53321 166.69626 153.60783 166.35313 153.66245 A 0.3154265 0.3154265 0 0 0 166.11542 153.59372 A 0.3154265 0.3154265 0 0 0 165.95884 153.67382 C 165.88902 153.67678 165.82541 153.68104 165.77332 153.68777 C 165.73232 153.69277 165.69803 153.69913 165.65654 153.71103 C 165.63584 153.71703 165.61379 153.72323 165.57799 153.74203 C 165.56009 153.75103 165.53721 153.76246 165.50771 153.78906 C 165.49301 153.80236 165.45953 153.8454 165.45913 153.8459 C 165.45875 153.84646 165.41231 153.94462 165.41211 153.94512 C 165.41196 153.94566 165.40642 154.08361 165.40642 154.08413 C 165.40651 154.08466 165.4547 154.20454 165.455 154.20505 C 165.45533 154.20556 165.49666 154.25727 165.51546 154.27327 C 165.53426 154.28917 165.54973 154.29866 165.56403 154.30686 C 165.62123 154.33946 165.64891 154.34268 165.67359 154.34768 C 165.72299 154.35768 165.75725 154.35877 165.79865 154.35957 C 165.82346 154.36017 165.85417 154.35838 165.88288 154.3575 C 165.86741 154.75382 165.73764 155.13796 165.57437 155.55071 C 165.35686 156.10058 165.07743 156.68948 165.04107 157.38057 C 165.01647 157.84806 164.96584 158.68684 165.04314 159.22852 C 165.14568 159.94657 165.5423 161.00324 165.79503 161.61701 C 166.04718 162.22935 166.28798 162.91661 166.83786 163.4665 C 167.21619 163.84482 167.69462 164.05662 168.00213 164.30263 C 168.45777 164.66715 169.22829 165.19519 169.85731 165.37492 C 169.80031 165.35862 169.81652 165.35317 169.87282 165.40437 C 169.92912 165.45557 170.08275 165.57799 170.28106 165.54493 C 170.90019 165.44176 171.22539 165.006 171.55643 164.75376 C 172.28437 164.19917 173.12649 163.762 173.93562 163.22259 C 174.91893 162.56704 176.31585 162.00717 176.96696 160.70492 C 177.34075 159.95736 177.35516 159.02705 177.21087 158.17742 C 177.36895 158.15752 177.4596 158.14823 177.62686 158.11903 C 177.85258 158.07963 178.07684 158.02915 178.28109 157.95108 C 178.48534 157.87308 178.6813 157.77193 178.81439 157.57229 C 178.94362 157.37843 178.94436 157.17531 178.92601 156.9806 C 178.90771 156.78589 178.85723 156.58623 178.79682 156.39252 C 178.67607 156.00509 178.51002 155.64055 178.43147 155.47474 C 178.18915 154.96317 177.83112 154.55664 177.54883 154.16578 C 177.53935 154.15264 177.52117 154.12844 177.51059 154.11359 A 0.3154265 0.3154265 0 0 0 177.6403 153.93995 C 177.6526 153.88935 177.74702 153.71559 177.89041 153.52551 C 178.03381 153.33543 178.21899 153.11617 178.39633 152.88731 C 178.57368 152.65844 178.74502 152.42066 178.8609 152.17004 C 178.97677 151.91942 179.04764 151.62416 178.92136 151.34011 C 178.79304 151.05126 178.56712 150.86328 178.36687 150.7231 C 176.92109 149.71105 175.13329 149.95764 173.64416 149.93606 C 172.9215 149.92556 172.73515 149.92016 172.53467 149.91436 C 172.53461 149.91336 172.53467 149.89266 172.53467 149.89266 L 172.53105 149.89266 C 172.52905 149.89265 172.52792 149.89266 172.52692 149.89266 L 172.52278 149.89266 C 172.51778 149.8927 172.49699 149.89253 172.45819 149.89266 C 172.30338 149.89317 171.85742 149.89472 170.8371 149.89472 C 169.82559 149.89472 168.63893 149.96437 167.66365 149.85597 C 167.66465 149.85613 167.54957 149.83631 167.42129 149.81101 C 167.29302 149.78571 167.13375 149.75417 166.97377 149.72677 C 166.81379 149.69937 166.65337 149.67591 166.51126 149.66631 C 166.47571 149.66381 166.44144 149.66191 166.40739 149.66166 z M 173.16615 153.19116 C 173.16415 153.3232 173.15472 153.45561 173.18372 153.61129 C 173.21952 153.80389 173.32582 154.0159 173.51187 154.18128 C 173.73724 154.3816 174.00868 154.39176 174.22087 154.38851 C 174.3831 154.38621 174.53221 154.37601 174.62291 154.37559 C 174.62293 154.37886 174.62291 154.38997 174.62291 154.39264 C 174.62291 154.78226 174.69877 155.07067 174.84357 155.30473 C 174.98839 155.53878 175.16512 155.70412 175.38462 155.97239 C 175.83502 156.52286 176.26923 157.0384 176.49205 157.6405 C 176.46015 157.6455 176.40806 157.65041 176.37888 157.65601 A 0.3154265 0.3154265 0 0 0 176.1329 158.02704 A 0.3154265 0.3154265 0 0 0 176.50394 158.27509 C 176.51964 158.27209 176.57289 158.26642 176.59179 158.26372 C 176.71051 158.99856 176.69311 159.84186 176.40213 160.4238 C 175.88555 161.457 174.64769 161.98908 173.58577 162.69704 C 172.81536 163.21064 171.95987 163.65328 171.17403 164.25199 C 170.77522 164.55587 170.55032 164.81385 170.22266 164.89071 C 170.18216 164.85031 170.15186 164.80226 170.03095 164.76772 C 169.61289 164.64827 168.79755 164.13323 168.39435 163.81067 C 167.99541 163.49152 167.54473 163.28145 167.28486 163.02157 C 166.85879 162.5955 166.63806 162.00797 166.37897 161.37878 C 166.13752 160.7924 165.74876 159.70481 165.6679 159.1386 C 165.6109 158.7388 165.64547 157.87986 165.66997 157.41416 C 165.69817 156.87859 165.93401 156.35551 166.16038 155.78325 C 166.3405 155.3279 166.51067 154.83186 166.51178 154.2836 C 166.86248 154.22418 167.2031 154.14662 167.51947 154.09395 C 168.48712 153.93268 168.75569 153.89104 169.04651 153.8459 C 169.05551 153.84585 169.07233 153.84797 169.07803 153.84797 C 169.10093 153.84697 169.11464 153.84584 169.13074 153.84384 C 169.19534 153.83584 169.28555 153.82056 169.37879 153.80456 C 169.47199 153.78856 169.56019 153.77337 169.61495 153.76167 C 169.62865 153.75867 169.63488 153.75749 169.66198 153.74979 C 169.66898 153.74779 169.69445 153.73862 169.69505 153.73842 C 169.69533 153.73831 169.73774 153.71475 169.73794 153.71465 C 169.73795 153.71465 169.74314 153.70996 169.74414 153.70896 C 170.01942 153.65106 170.20569 153.60956 171.06034 153.44334 C 171.72139 153.3148 172.52005 153.17301 173.16615 153.19116 z M 176.17321 153.70586 C 176.20085 153.70809 176.23123 153.71647 176.26932 153.73222 C 176.34552 153.76382 176.44292 153.83152 176.53908 153.92187 C 176.73142 154.10262 176.91347 154.36102 177.0393 154.53527 C 177.34455 154.95791 177.66891 155.33955 177.86147 155.74605 C 177.93337 155.89781 178.09049 156.24589 178.1953 156.58217 C 178.2477 156.75031 178.28694 156.91449 178.29866 157.03899 C 178.31036 157.1635 178.28211 157.23584 178.29091 157.22244 C 178.27801 157.24184 178.19808 157.30728 178.0563 157.36145 C 177.91456 157.41565 177.72319 157.46229 177.51938 157.49788 C 177.37634 157.52288 177.26181 157.53505 177.11888 157.55265 C 177.10888 157.52225 177.11398 157.48272 177.10338 157.45292 C 176.83208 156.69327 176.32096 156.11994 175.87297 155.57241 C 175.63325 155.27942 175.46601 155.11066 175.38049 154.97245 C 175.29499 154.83423 175.25388 154.71391 175.25388 154.39264 C 175.25388 154.33194 175.25088 154.25427 175.25388 154.18335 C 175.25588 154.14085 175.25439 154.14286 175.2575 154.12496 C 175.2743 154.11436 175.28591 154.10568 175.31021 154.09188 C 175.39311 154.04478 175.51025 153.98583 175.62699 153.92962 C 175.74373 153.87342 175.86247 153.81963 175.95306 153.77924 C 175.99836 153.75904 176.03654 153.74246 176.06417 153.73066 C 176.09187 153.71876 176.13312 153.70361 176.09362 153.71671 C 176.12072 153.70766 176.14556 153.70364 176.17321 153.70586 z M 163.21896 153.97458 C 163.21996 153.98058 163.27391 154.05036 163.30061 154.10377 C 163.28191 154.08767 163.26486 154.07938 163.24996 154.05468 C 163.22166 154.00768 163.21786 153.96818 163.21896 153.97458 z M 173.0659 154.26086 C 172.99895 154.2621 172.93124 154.27143 172.86333 154.29084 C 172.16354 154.49078 171.7602 155.06832 171.45308 155.63649 C 171.14597 156.20466 170.90231 156.7954 170.59784 157.15061 A 0.31545804 0.31545804 0 0 0 170.83813 157.67203 C 171.63337 157.67203 171.50249 157.70445 172.31814 157.5449 C 173.1403 157.38405 173.30314 157.34517 173.43177 157.30874 C 173.5604 157.27234 173.62264 157.24762 174.31647 157.09583 C 174.49817 157.05613 174.68663 157.02064 174.87871 156.98266 C 174.88471 156.9832 174.88713 156.98321 174.89473 156.98421 C 174.91253 156.98621 174.93323 156.98728 174.96863 156.98628 C 174.98633 156.98569 175.00638 156.98446 175.04098 156.97646 C 175.05828 156.97246 175.08074 156.96726 175.10764 156.95476 C 175.12104 156.94876 175.13423 156.9422 175.15053 156.9315 C 175.16683 156.9208 175.20284 156.88911 175.20324 156.88861 C 175.28334 156.80851 175.30164 156.69891 175.29884 156.6385 C 175.29584 156.5781 175.28225 156.54486 175.27145 156.51757 C 175.24985 156.46307 175.22836 156.43418 175.20686 156.40234 C 175.16386 156.33854 175.11631 156.27792 175.06423 156.21682 C 174.96011 156.09461 174.83552 155.95835 174.81825 155.93725 C 174.68403 155.77321 174.43328 155.3209 174.13457 154.93524 C 173.98521 154.7424 173.81919 154.56114 173.61316 154.42778 C 173.45864 154.32777 173.26675 154.25715 173.0659 154.26086 z M 169.1819 154.27843 C 169.1452 154.27812 169.10786 154.27907 169.0708 154.28154 L 169.07441 154.27947 C 169.02771 154.28247 168.92823 154.28716 168.82017 154.30066 C 168.71211 154.31386 168.59541 154.32861 168.46308 154.39471 C 167.699 154.77675 167.43464 155.49762 167.1443 156.07833 C 167.0797 156.20763 167.08507 156.33771 167.08797 156.39458 C 167.08944 156.42234 167.08949 156.43295 167.08952 156.43593 C 167.06129 156.49141 166.95862 156.58495 166.82236 156.74392 A 0.31545804 0.31545804 0 0 0 166.98462 157.25603 C 167.49248 157.42227 168.01365 157.52095 168.51166 157.61725 C 168.52066 157.62025 168.5313 157.62293 168.5313 157.62293 C 168.53135 157.62294 168.54048 157.624 168.54318 157.625 C 168.54378 157.62512 168.54425 157.62488 168.54525 157.625 C 168.54825 157.62555 168.54893 157.62707 168.55093 157.62707 C 168.55493 157.62771 168.5572 157.62913 168.5592 157.62913 C 168.5632 157.62975 168.56794 157.62847 168.57264 157.62913 C 168.58164 157.63013 168.59298 157.63334 168.60778 157.63534 C 168.63758 157.63934 168.67922 157.64424 168.72922 157.65084 C 168.82912 157.66364 168.96193 157.67943 169.09819 157.69373 C 169.23445 157.70803 169.37342 157.7217 169.49093 157.7268 C 169.54973 157.7298 169.60096 157.7298 169.65474 157.7268 C 169.68164 157.7248 169.71012 157.72313 169.74672 157.71543 C 169.78332 157.70743 169.83345 157.71002 169.92449 157.61932 C 169.92463 157.61918 169.98072 157.54365 169.98082 157.54335 C 169.98096 157.54308 169.99449 157.51146 169.99839 157.50046 C 170.00639 157.47856 170.01024 157.4656 170.01234 157.4555 C 170.01634 157.4352 170.01703 157.42488 170.01803 157.41468 C 170.02003 157.39428 170.02116 157.38027 170.02216 157.36197 C 170.02416 157.32537 170.02423 157.28087 170.02423 157.22916 C 170.02513 157.1257 170.02523 156.9917 170.02423 156.85399 C 170.02223 156.57856 170.01648 156.27945 170.01648 156.2194 L 170.01648 155.28561 C 170.01648 155.01119 170.00158 154.75983 169.83044 154.54354 C 169.68071 154.35428 169.43881 154.28063 169.1819 154.27843 z M 173.08761 154.88925 C 173.13908 154.88658 173.19123 154.9049 173.27157 154.95695 C 173.3787 155.02625 173.50869 155.15941 173.63486 155.3223 C 173.88719 155.64807 174.10691 156.06519 174.32991 156.33774 C 174.35081 156.36334 174.38674 156.40264 174.41414 156.43334 C 174.33594 156.44884 174.26103 156.46297 174.1816 156.48037 C 173.48084 156.63366 173.36695 156.67066 173.25969 156.70103 C 173.15242 156.73143 173.01633 156.76561 172.19722 156.92582 C 171.71983 157.01922 171.57089 156.99033 171.40244 156.99403 C 171.60813 156.63593 171.82471 156.27496 172.00809 155.9357 C 172.29002 155.41414 172.58362 155.02763 173.03541 154.89855 C 173.05339 154.89343 173.07045 154.89014 173.08761 154.88925 z M 169.17983 154.90682 C 169.3162 154.90324 169.32625 154.92552 169.33435 154.93576 C 169.34335 154.94746 169.38499 155.05779 169.38499 155.28509 L 169.38499 156.21889 C 169.38499 156.30549 169.39074 156.58708 169.39274 156.85916 C 169.39345 156.94396 169.39268 157.01205 169.39274 157.08602 C 169.31844 157.08002 169.248 157.07508 169.16433 157.06638 C 169.03493 157.05278 168.90514 157.03785 168.8088 157.02555 C 168.7606 157.01955 168.72119 157.01385 168.69356 157.01005 C 168.68226 157.00805 168.67484 157.00692 168.66824 157.00592 C 168.67124 157.00663 168.67806 157.01005 168.67806 157.01005 C 168.67806 157.01004 168.6713 157.03389 168.6703 157.03899 A 0.31545804 0.31545804 0 0 0 168.6641 157.00592 C 168.66328 157.00576 168.66355 157.00602 168.66255 157.00592 C 168.66155 157.00564 168.66042 157.00385 168.65842 157.00385 L 168.65635 157.00385 C 168.29571 156.93405 167.9517 156.84459 167.60732 156.7558 C 167.63232 156.7142 167.65927 156.71307 167.67967 156.66227 A 0.31545804 0.31545804 0 0 0 167.67967 156.66175 A 0.31545804 0.31545804 0 0 0 167.67967 156.66124 A 0.31545804 0.31545804 0 0 0 167.67967 156.66072 A 0.31545804 0.31545804 0 0 0 167.67967 156.6602 C 167.73087 156.53012 167.72134 156.41097 167.71894 156.36306 C 167.7182 156.3452 167.71746 156.3449 167.71687 156.34343 C 168.02226 155.73056 168.22083 155.22148 168.74575 154.95901 C 168.74533 154.95922 168.81954 154.93534 168.89613 154.92594 C 168.97273 154.91694 169.05184 154.91322 169.10904 154.90992 L 169.10955 154.90992 A 0.31545804 0.31545804 0 0 0 169.11317 154.90992 C 169.13819 154.90826 169.16035 154.90733 169.17983 154.90682 z M 167.09211 156.42766 L 167.09417 156.42766 C 167.09328 156.42988 167.09121 156.43253 167.09004 156.43489 C 167.09022 156.43433 167.0903 156.43214 167.09211 156.42766 z M 174.92005 156.97439 L 174.91799 156.97646 C 174.90279 156.97946 174.9148 156.97546 174.9061 156.97646 C 174.9111 156.97554 174.91535 156.97539 174.92005 156.97439 z M 169.92759 158.53141 C 169.85493 158.53241 169.78325 158.54486 169.71882 158.56861 C 169.4243 158.67731 169.27731 158.90511 169.08578 159.15411 C 168.98435 159.28597 168.93812 159.40462 168.8982 159.4745 A 0.3154265 0.3154265 0 0 0 169.0155 159.90445 A 0.3154265 0.3154265 0 0 0 169.44752 159.78714 C 169.51582 159.66762 169.55438 159.58022 169.58601 159.5391 C 169.77136 159.29814 169.91567 159.16833 169.93741 159.16031 C 169.94831 159.15631 169.92827 159.15299 169.96067 159.16599 C 169.99257 159.17909 170.06762 159.22594 170.16789 159.32619 C 170.20909 159.36739 170.24814 159.40386 170.27331 159.43368 C 170.27826 159.43953 170.28112 159.44512 170.28313 159.4497 C 170.28123 159.43934 170.27951 159.42027 170.27951 159.38665 A 0.3154265 0.3154265 0 0 0 170.5937 159.70136 A 0.3154265 0.3154265 0 0 0 170.91048 159.38665 C 170.91048 159.18589 170.81717 159.09992 170.75597 159.0275 C 170.69477 158.9551 170.63299 158.89884 170.61334 158.87919 C 170.47883 158.74467 170.35263 158.64388 170.20148 158.58205 C 170.11646 158.54729 170.02102 158.53011 169.92759 158.53141 z M 170.28313 159.4497 C 170.28411 159.45505 170.28515 159.45859 170.28571 159.45951 C 170.28556 159.45788 170.28495 159.45385 170.28313 159.4497 z M 173.98316 159.43729 A 0.3154265 0.3154265 0 0 0 173.82245 159.47088 C 172.31927 160.22247 170.73921 160.78398 169.12092 161.27749 A 0.3154265 0.3154265 0 0 0 168.91215 161.67178 A 0.3154265 0.3154265 0 0 0 169.30489 161.88107 C 170.94146 161.38198 172.55695 160.80746 174.10563 160.03312 A 0.3154265 0.3154265 0 0 0 174.24619 159.61144 A 0.3154265 0.3154265 0 0 0 174.06429 159.45331 A 0.3154265 0.3154265 0 0 0 173.98316 159.43729 z " />
  </g>
</svg>
