<?xml version="1.0" encoding="UTF-8" standalone="no"?>
<!-- Created with Inkscape (http://www.inkscape.org/) -->

<svg
   width="30.548073mm"
   height="22.582188mm"
   viewBox="0 0 30.548073 22.582188"
   version="1.1"
   id="svg1"
   inkscape:version="1.4 (86a8ad7, 2024-10-11)"
   sodipodi:docname="logos.svg"
   xmlns:inkscape="http://www.inkscape.org/namespaces/inkscape"
   xmlns:sodipodi="http://sodipodi.sourceforge.net/DTD/sodipodi-0.dtd"
   xmlns="http://www.w3.org/2000/svg"
   xmlns:svg="http://www.w3.org/2000/svg">
  <sodipodi:namedview
     id="namedview1"
     pagecolor="#ffffff"
     bordercolor="#000000"
     borderopacity="0.25"
     inkscape:showpageshadow="2"
     inkscape:pageopacity="0.0"
     inkscape:pagecheckerboard="0"
     inkscape:deskcolor="#d1d1d1"
     inkscape:document-units="mm"
     inkscape:zoom="4.1776837"
     inkscape:cx="70.85266"
     inkscape:cy="87.488673"
     inkscape:window-width="1920"
     inkscape:window-height="1009"
     inkscape:window-x="-8"
     inkscape:window-y="-8"
     inkscape:window-maximized="1"
     inkscape:current-layer="layer1" />
  <defs
     id="defs1" />
  <g
     inkscape:label="Camada 1"
     inkscape:groupmode="layer"
     id="layer1"
     transform="translate(-135.99583,-123.03124)">
    <path
       style="fill:#ffffff;stroke-width:0.485;stroke-linecap:round;stroke-linejoin:round;paint-order:markers fill stroke"
       d="m 143.50816,140.37341 1.62338,-1.00762 0.69112,0.18519 16.12484,0.29623 0.69414,-2.91089 -9.62832,-5.35155 -0.11196,-1.63458 -0.85087,-1.43305 -2.6198,-0.20152 -3.11241,1.63457 -5.77699,6.11287 -0.71652,1.65696 0.7613,1.5674 z"
       id="path1" />
    <path
       id="path193"
       style="fill:#1a1a1a;stroke-linecap:round;stroke-linejoin:round"
       d="M 150.93549 128.00045 C 148.75453 127.93403 146.69338 129.16212 145.26348 130.59202 C 143.65339 132.20211 142.07177 133.82888 140.56816 135.54882 A 0.31545804 0.31545804 0 0 0 140.5294 135.60567 C 140.37656 135.88587 140.13385 136.19329 139.92582 136.53688 C 139.71779 136.88047 139.53633 137.28005 139.58217 137.73835 C 139.66387 138.55564 140.10815 139.20803 140.69322 139.66227 C 141.27829 140.11651 142.00251 140.3869 142.71067 140.48806 C 142.87352 140.51126 142.99149 140.47944 143.0662 140.46894 C 143.1173 140.46194 143.11053 140.46373 143.11323 140.46273 C 143.13013 140.48153 143.14317 140.49703 143.17007 140.52113 C 143.21437 140.56083 143.2733 140.61234 143.38659 140.63843 C 143.49988 140.66453 143.67224 140.61687 143.7597 140.5294 C 144.07437 140.21472 144.55582 139.88957 145.06969 139.52429 C 145.05887 139.55029 145.04497 139.58944 145.04489 139.58992 C 145.04474 139.59055 145.04076 139.71859 145.04076 139.71911 C 145.04085 139.71963 145.09885 139.85304 145.09915 139.85347 C 145.09947 139.8539 145.18278 139.93317 145.18338 139.93357 C 145.18392 139.93391 145.2329 139.96056 145.2516 139.96716 C 145.2703 139.97416 145.28375 139.97583 145.29655 139.97853 C 145.39915 139.99853 145.40911 139.98359 145.4335 139.98059 C 145.4823 139.97459 145.53892 139.97284 145.48621 139.97284 C 145.95666 139.97284 146.30927 139.84158 146.65616 139.84158 L 149.51749 139.84158 C 152.6092 139.84158 155.72285 140.23226 158.87867 140.23226 C 159.12363 140.23226 159.81887 140.27013 160.49563 140.25603 C 160.83402 140.24903 161.17269 140.22921 161.46663 140.18161 C 161.76056 140.13391 162.01531 140.08612 162.22265 139.87879 C 162.36222 139.73921 162.38706 139.59138 162.40817 139.45091 C 162.42927 139.31045 162.43213 139.16534 162.43143 139.0251 C 162.43043 138.74462 162.43456 138.43613 162.43556 138.4334 C 162.47006 138.29527 162.59158 138.0364 162.71255 137.77143 C 162.83352 137.50647 162.96473 137.23585 162.96473 136.92548 C 162.96473 136.92482 162.96153 136.88282 162.95853 136.86502 C 162.95553 136.84732 162.95186 136.83356 162.94716 136.82006 C 162.93816 136.79316 162.927 136.77343 162.9177 136.75753 C 162.899 136.72573 162.88241 136.70659 162.86861 136.69139 C 162.84091 136.66109 162.81978 136.64303 162.79678 136.62473 C 162.75078 136.58823 162.70056 136.55518 162.64227 136.51776 C 162.52571 136.44286 162.37948 136.35683 162.22627 136.26971 C 161.91985 136.09548 161.58633 135.91775 161.50177 135.87077 C 158.77184 134.35414 155.94354 133.02507 153.2971 131.44313 C 153.36491 130.99758 153.36144 130.52673 153.27901 130.07422 C 153.18961 129.58322 153.00438 129.1128 152.69145 128.73839 C 152.37851 128.36398 151.92861 128.09264 151.37319 128.03093 L 151.37319 128.03145 C 151.22687 128.01519 151.08088 128.00487 150.93549 128.00045 z M 150.91533 128.63141 C 151.04443 128.63503 151.17391 128.64395 151.30291 128.65829 C 151.70209 128.70269 151.98434 128.87579 152.20724 129.14249 C 152.43015 129.40919 152.58397 129.77887 152.65838 130.18739 C 152.71101 130.47632 152.71939 130.7833 152.69455 131.08088 C 152.68761 131.07657 152.68031 131.07279 152.67336 131.06848 A 0.3154265 0.3154265 0 0 0 152.43514 131.02713 A 0.3154265 0.3154265 0 0 0 152.24032 131.16976 A 0.3154265 0.3154265 0 0 0 152.3416 131.60333 C 152.41954 131.65175 152.49901 131.69754 152.57725 131.74544 C 152.49891 132.02422 152.38932 132.26919 152.25582 132.4472 C 151.8462 132.99337 151.36925 133.51461 150.85074 134.01817 C 150.80501 133.13687 150.67478 132.24904 150.33966 131.52736 C 150.11066 131.03421 149.77299 130.61081 149.29114 130.36723 C 148.80928 130.12364 148.20481 130.07488 147.49229 130.24992 A 0.3154265 0.3154265 0 0 0 147.26181 130.63078 A 0.3154265 0.3154265 0 0 0 147.64266 130.86125 C 148.25111 130.71178 148.67936 130.76488 149.00589 130.92998 C 149.33242 131.09504 149.57924 131.38735 149.7676 131.79298 C 150.10171 132.51246 150.21616 133.5675 150.23785 134.58816 C 148.75744 135.91571 147.03577 137.1328 145.54512 138.37501 C 144.857 138.94845 144.08137 139.41204 143.49046 139.94907 C 143.47906 139.93487 143.47902 139.92479 143.41812 139.89429 C 143.24418 139.80739 143.08201 139.82885 142.97835 139.84365 C 142.87469 139.85845 142.80934 139.86655 142.80058 139.86535 C 142.19089 139.77825 141.55977 139.53639 141.08027 139.16411 C 140.60077 138.79183 140.27397 138.30484 140.21108 137.67582 C 140.18548 137.4203 140.28581 137.15911 140.46481 136.86347 C 140.63581 136.58105 140.86969 136.28 141.0565 135.94931 C 142.54175 134.2514 144.10756 132.6404 145.70893 131.03902 C 147.05082 129.69713 148.97891 128.57721 150.91533 128.63141 z M 153.14362 132.08598 C 155.77594 133.64514 158.54807 134.95094 161.19533 136.42164 C 161.29946 136.47944 161.61764 136.64992 161.91414 136.81851 C 162.05954 136.90121 162.19748 136.98245 162.295 137.04485 C 162.2706 137.16154 162.23119 137.31119 162.14049 137.50994 C 162.02653 137.75956 161.88807 138.01577 161.82216 138.2794 C 161.75756 138.5381 161.79977 138.77621 161.80097 139.02923 C 161.80157 139.15574 161.79755 139.2757 161.78495 139.35738 C 161.77884 139.39799 161.76731 139.42597 161.7617 139.43954 C 161.74475 139.44726 161.59427 139.52117 161.36482 139.5584 C 161.12077 139.598 160.8062 139.61836 160.48426 139.62506 C 159.84039 139.63846 159.18142 139.6018 158.87867 139.6018 C 155.77526 139.6018 152.66181 139.21113 149.51749 139.21113 L 146.65616 139.21113 C 146.41135 139.21113 146.2524 139.24408 146.05826 139.27728 A 0.3154265 0.3154265 0 0 0 145.87688 139.21113 C 145.79368 139.21113 145.69671 139.19595 145.5601 139.21475 C 145.5301 139.21886 145.49853 139.22697 145.46657 139.23645 C 145.62821 139.11586 145.7904 138.99157 145.94923 138.85921 C 147.3381 137.70182 148.97119 136.54911 150.43371 135.2646 A 0.3154265 0.3154265 0 0 0 150.5567 135.29096 A 0.3154265 0.3154265 0 0 0 150.87296 134.97676 C 150.87296 134.94173 150.87207 134.90557 150.87192 134.87031 C 151.56811 134.2284 152.21383 133.55171 152.75966 132.82392 C 152.92033 132.60971 153.04863 132.35921 153.14362 132.08598 z M 145.99574 132.61877 C 145.76901 132.62382 145.52959 132.65704 145.28105 132.7185 A 0.3154265 0.3154265 0 0 0 145.05057 133.10143 A 0.3154265 0.3154265 0 0 0 145.43143 133.3319 C 146.10399 133.16557 146.57365 133.25518 146.88095 133.4983 C 147.18825 133.74137 147.38066 134.17714 147.38066 134.84551 A 0.3154265 0.3154265 0 0 0 147.69744 135.16228 A 0.3154265 0.3154265 0 0 0 148.01163 134.84551 C 148.01163 134.05167 147.76959 133.39601 147.27369 133.00376 C 146.93276 132.73408 146.49454 132.60766 145.99574 132.61877 z M 154.06708 133.91688 C 153.81584 133.91878 153.54974 133.9759 153.28728 134.0254 A 0.3154265 0.3154265 0 0 0 153.23819 134.01352 C 153.22679 134.01552 153.19955 134.03312 153.18755 134.03522 C 153.08616 134.05692 152.99126 134.03214 152.89041 134.06054 C 152.4073 134.19701 151.94029 134.40694 151.57421 134.65844 C 151.55381 134.67244 151.5571 134.6984 151.537 134.7127 C 151.5171 134.7249 151.50192 134.7219 151.48222 134.7344 C 151.16365 134.93683 150.87188 135.17483 150.68744 135.48268 C 150.503 135.79054 150.46316 136.21057 150.67762 136.5684 C 150.96556 137.04829 151.45955 137.30768 151.98038 137.38695 C 152.5012 137.46625 153.06099 137.3827 153.57615 137.18748 C 154.09131 136.99239 154.56542 136.6842 154.89649 136.27539 C 155.22757 135.86658 155.40893 135.33458 155.28509 134.77729 C 155.17817 134.29617 154.75476 134.01345 154.31254 133.93548 L 154.31202 133.93548 C 154.23242 133.92152 154.15065 133.91625 154.06708 133.91688 z M 154.01592 134.54423 C 154.08354 134.54321 154.14664 134.54677 154.20299 134.55663 L 154.2035 134.55663 C 154.49695 134.60834 154.62108 134.69345 154.67014 134.91424 C 154.74874 135.26812 154.64545 135.58153 154.40453 135.87903 C 154.1636 136.17653 153.77992 136.43633 153.35343 136.59785 C 152.92693 136.75936 152.46162 136.82243 152.07599 136.76374 C 151.69036 136.70504 151.39715 136.54186 151.21867 136.24439 C 151.14377 136.11959 151.19244 136.03181 151.22694 135.93381 A 0.3154265 0.3154265 0 0 0 151.52356 135.62685 C 151.52356 135.59855 151.66632 135.4168 151.86721 135.24807 C 152.40214 134.92171 153.11871 134.67513 153.32656 134.64087 C 153.56641 134.59302 153.81246 134.54732 154.01592 134.54423 z M 156.88499 135.57414 C 156.77819 135.58944 156.62226 135.5814 156.44316 135.5881 C 156.26406 135.5951 156.04669 135.61866 155.84371 135.75398 C 155.64908 135.88378 155.57832 136.08225 155.54089 136.22837 C 155.50349 136.37448 155.48466 136.49682 155.46286 136.55496 C 155.19237 137.27628 155.23803 137.95457 155.58585 138.4551 C 155.93367 138.95563 156.54352 139.24582 157.28704 139.32017 C 157.82328 139.37377 158.37183 139.38037 158.91433 139.32017 C 159.79967 139.22177 160.353 138.63572 160.39847 137.97451 C 160.44397 137.3133 160.03139 136.6298 159.27916 136.25369 C 158.45868 135.84344 157.82777 135.76309 156.9961 135.57828 A 0.31545804 0.31545804 0 0 0 156.88499 135.57414 z M 143.28376 135.96637 C 143.26283 135.96591 143.24185 135.96599 143.22071 135.96688 C 142.88245 135.98128 142.51644 136.12429 142.07246 136.39632 A 0.3154265 0.3154265 0 0 0 141.96704 136.82988 A 0.3154265 0.3154265 0 0 0 142.40061 136.9353 C 142.79253 136.69516 143.08261 136.60487 143.2481 136.59785 C 143.41358 136.59085 143.45002 136.61985 143.50958 136.71103 C 143.62869 136.8933 143.65553 137.48979 143.49046 138.15021 A 0.3154265 0.3154265 0 0 0 143.72094 138.53314 A 0.3154265 0.3154265 0 0 0 144.10335 138.30266 C 144.28686 137.56864 144.36951 136.87268 144.03927 136.36738 C 143.88449 136.13052 143.59769 135.97327 143.28376 135.96637 z M 156.89068 136.20305 C 157.72723 136.38742 158.27362 136.45629 158.99804 136.81851 C 159.56141 137.10019 159.79477 137.56525 159.76957 137.93162 C 159.74437 138.29799 159.51171 138.61914 158.84405 138.69333 C 158.35275 138.74793 157.84831 138.74313 157.34957 138.69333 C 156.7321 138.63153 156.31824 138.40476 156.10365 138.09595 C 155.88905 137.78714 155.83332 137.36303 156.053 136.77717 C 156.1132 136.61679 156.12872 136.47843 156.15222 136.3865 C 156.17582 136.2946 156.19406 136.2792 156.19356 136.27953 C 156.24556 136.24483 156.33055 136.22365 156.46693 136.21855 C 156.58118 136.21455 156.73266 136.21665 156.89068 136.20305 z M 151.31996 137.49857 C 150.31602 137.49419 149.30557 137.58135 148.285 137.78693 A 0.3154265 0.3154265 0 0 0 148.03696 138.15797 A 0.3154265 0.3154265 0 0 0 148.41006 138.40601 C 150.64039 137.95666 152.8259 138.091 155.04686 138.5352 A 0.3154265 0.3154265 0 0 0 155.4179 138.28922 A 0.3154265 0.3154265 0 0 0 155.16985 137.91819 C 154.03236 137.69069 152.89522 137.54017 151.74991 137.50581 C 151.60674 137.50151 151.46338 137.4992 151.31996 137.49857 z " />
  </g>
</svg>
