<?xml version="1.0" encoding="UTF-8" standalone="no"?>
<!-- Created with Inkscape (http://www.inkscape.org/) -->

<svg
   width="30.548073mm"
   height="22.582188mm"
   viewBox="0 0 30.548073 22.582188"
   version="1.1"
   id="svg1"
   inkscape:version="1.4 (86a8ad7, 2024-10-11)"
   sodipodi:docname="midias.svg"
   xmlns:inkscape="http://www.inkscape.org/namespaces/inkscape"
   xmlns:sodipodi="http://sodipodi.sourceforge.net/DTD/sodipodi-0.dtd"
   xmlns="http://www.w3.org/2000/svg"
   xmlns:svg="http://www.w3.org/2000/svg">
  <sodipodi:namedview
     id="namedview1"
     pagecolor="#ffffff"
     bordercolor="#000000"
     borderopacity="0.25"
     inkscape:showpageshadow="2"
     inkscape:pageopacity="0.0"
     inkscape:pagecheckerboard="0"
     inkscape:deskcolor="#d1d1d1"
     inkscape:document-units="mm"
     inkscape:zoom="4.1776837"
     inkscape:cx="49.548988"
     inkscape:cy="43.445127"
     inkscape:window-width="1920"
     inkscape:window-height="1009"
     inkscape:window-x="-8"
     inkscape:window-y="-8"
     inkscape:window-maximized="1"
     inkscape:current-layer="layer1" />
  <defs
     id="defs1" />
  <g
     inkscape:label="Camada 1"
     inkscape:groupmode="layer"
     id="layer1"
     transform="translate(-145.52081,-144.46249)">
    <path
       id="path1"
       style="fill:#ffffff;stroke-linecap:round;stroke-linejoin:round"
       d="M 155.58428 148.49015 C 154.32511 148.44979 153.10333 148.81617 152.24598 149.95931 C 150.97313 152.26074 152.36681 155.18001 153.80196 157.08963 C 153.29813 157.21654 151.0088 156.37822 150.04198 156.7005 C 149.93124 156.73741 150.48671 158.79346 150.56081 159.16392 C 150.70415 159.88058 153.52087 158.47205 153.80196 159.03421 C 154.16217 159.75451 153.47511 162.56565 154.19057 162.92338 C 154.40441 163.03029 154.98029 162.79367 155.22771 162.79367 C 155.80247 162.79367 156.76909 163.18985 157.302 162.92338 C 157.3666 162.89108 156.81149 159.70114 156.78369 159.42333 C 156.7695 159.28145 156.52347 157.99789 156.65398 157.86736 C 156.7876 157.73374 158.86448 158.63807 158.98717 158.51538 C 159.06026 158.44225 159.13199 157.6082 159.16649 157.50459 C 159.29176 157.12825 159.13625 156.20741 159.12825 156.20441 C 158.46861 155.87458 157.35008 156.98369 156.78369 156.7005 C 156.01705 156.31717 156.5469 152.0187 157.302 151.51529 C 158.20133 150.91574 158.98338 153.99006 159.3763 152.81133 C 159.48033 152.49927 159.50367 152.08231 159.63571 151.77419 C 159.94309 151.04409 159.88274 150.41114 160.28373 149.6999 C 159.98125 149.57027 159.6788 149.44093 159.3763 149.31129 C 158.87249 149.12252 158.44974 149.13181 157.82083 148.92217 C 157.10912 148.68493 156.33978 148.51437 155.58428 148.49015 z M 165.33149 152.19535 C 164.31492 152.18706 163.36586 152.44902 162.87634 153.33017 C 162.45099 154.09577 162.48773 155.18658 162.48773 156.05248 C 162.48773 157.47519 163.07225 160.18542 164.43232 160.97879 C 165.35973 161.51979 165.9234 161.51884 166.89522 161.62682 C 168.18986 161.77066 169.57637 161.71172 170.65468 160.84909 C 171.5644 160.12132 171.56263 157.94775 171.56263 156.95992 C 171.56263 154.57192 171.37402 151.88608 168.19178 152.68163 C 167.43235 152.48184 166.34805 152.20364 165.33149 152.19535 z " />
    <path
       id="path2"
       style="fill:#1a1a1a;stroke-linecap:round;stroke-linejoin:round"
       d="M 155.59358 148.17492 C 155.32846 148.1667 155.06292 148.17567 154.80035 148.2049 C 153.74959 148.32208 152.7336 148.78396 151.99432 149.76966 A 0.31545804 0.31545804 0 0 0 151.97055 149.80687 C 151.2832 151.04967 151.32098 152.45124 151.70493 153.7596 C 152.02944 154.86543 152.6518 155.84528 153.26349 156.73461 C 153.22789 156.72961 153.23288 156.73348 153.19528 156.72634 C 152.905 156.67254 152.5409 156.59108 152.15813 156.51343 C 151.39261 156.35814 150.57535 156.19164 149.94328 156.40233 C 149.94241 156.40262 149.88658 156.42519 149.86318 156.44109 C 149.83988 156.45699 149.82039 156.47515 149.80479 156.49225 C 149.77369 156.52645 149.75521 156.55605 149.74381 156.58165 C 149.72121 156.63305 149.71807 156.66584 149.71487 156.69327 C 149.70887 156.74807 149.71187 156.78507 149.71487 156.82608 C 149.72087 156.90818 149.73589 156.99784 149.75569 157.10513 C 149.79529 157.31971 149.85806 157.5961 149.92571 157.88079 C 150.06101 158.45018 150.22245 159.07976 150.25179 159.22645 C 150.29119 159.42318 150.4654 159.58314 150.62696 159.63831 C 150.78852 159.69351 150.94649 159.69472 151.11323 159.68172 C 151.44671 159.65572 151.82622 159.55922 152.20671 159.46261 C 152.5872 159.36601 152.96695 159.2674 153.24024 159.23006 C 153.37061 159.21226 153.4698 159.2117 153.52342 159.2187 C 153.55772 159.3096 153.59962 159.55857 153.59732 159.89256 C 153.59532 160.2478 153.56754 160.67719 153.54874 161.10127 C 153.52984 161.52535 153.51951 161.94341 153.56631 162.30636 C 153.61301 162.66931 153.70425 163.03266 154.04897 163.20502 C 154.19469 163.27782 154.31842 163.27074 154.43344 163.26134 C 154.54846 163.25234 154.65891 163.23138 154.76572 163.20708 C 154.97935 163.15858 155.20504 163.1089 155.22823 163.1089 C 155.44314 163.1089 155.82937 163.20043 156.22662 163.26909 C 156.62387 163.33779 157.05248 163.40028 157.44308 163.20502 C 157.44333 163.20489 157.51926 163.15044 157.51956 163.15024 C 157.51979 163.15002 157.56432 163.0999 157.56452 163.0996 C 157.56495 163.09896 157.59513 163.04201 157.60173 163.02311 C 157.61503 162.98531 157.6172 162.96622 157.6193 162.94922 C 157.6233 162.91512 157.62291 162.8954 157.62291 162.8748 C 157.62205 162.8336 157.6181 162.79372 157.6131 162.74406 C 157.6031 162.64476 157.58652 162.51309 157.56452 162.357 C 157.52052 162.04482 157.45555 161.6334 157.3883 161.21444 C 157.321 160.79549 157.25197 160.36917 157.1971 160.03105 C 157.1422 159.69293 157.09986 159.41776 157.09736 159.39233 C 157.08936 159.31393 157.07376 159.22866 157.05086 159.08744 C 157.02806 158.94622 156.99924 158.77188 156.97644 158.59961 C 156.95814 158.46139 156.9488 158.33835 156.9413 158.22651 C 156.9519 158.22951 156.95562 158.22919 156.96662 158.23219 C 157.16952 158.29259 157.44521 158.38743 157.72058 158.48437 C 157.99596 158.58127 158.27238 158.67899 158.4978 158.74792 C 158.61051 158.78242 158.70923 158.81112 158.80062 158.82802 C 158.84632 158.83602 158.88938 158.84227 158.94531 158.84197 C 159.00131 158.84159 159.09033 158.85872 159.21093 158.7381 C 159.31698 158.63199 159.30218 158.5941 159.31635 158.5469 C 159.33055 158.4997 159.34149 158.45324 159.35149 158.40221 C 159.37129 158.30023 159.3882 158.18196 159.4042 158.06424 C 159.4202 157.94652 159.43469 157.82936 159.44709 157.73817 C 159.45939 157.64697 159.48576 157.53978 159.46466 157.60329 C 159.56396 157.30486 159.53729 156.98068 159.51169 156.68758 C 159.49889 156.54103 159.48133 156.40866 159.46673 156.31035 C 159.45973 156.26115 159.45269 156.22042 159.44709 156.18942 C 159.44409 156.17392 159.44234 156.16033 159.43934 156.14653 C 159.43734 156.13953 159.43714 156.13441 159.43314 156.12121 C 159.43114 156.11421 159.42197 156.08812 159.42177 156.08762 C 159.42168 156.08738 159.398 156.04328 159.398 156.04318 C 159.39796 156.04311 159.36296 155.99409 159.36286 155.99409 C 159.36283 155.99406 159.28501 155.94054 159.25744 155.92174 C 159.00071 155.79807 158.72587 155.81443 158.48384 155.87678 C 158.23816 155.94008 158.0073 156.04732 157.7888 156.1486 C 157.5703 156.24988 157.36456 156.34621 157.20485 156.39458 C 157.04513 156.44298 156.95399 156.43323 156.92321 156.41783 C 156.93931 156.42583 156.89212 156.39521 156.84932 156.27934 C 156.80652 156.16349 156.76897 155.98304 156.74751 155.76774 C 156.70461 155.33713 156.72102 154.76384 156.78472 154.18748 C 156.84842 153.61112 156.96106 153.02859 157.09736 152.57414 C 157.23366 152.11969 157.4456 151.79766 157.47615 151.77729 C 157.52805 151.74269 157.5324 151.74683 157.564 151.75403 C 157.5956 151.76103 157.65952 151.79432 157.73815 151.86514 C 157.89541 152.00682 158.08792 152.28157 158.26525 152.55295 C 158.44259 152.82434 158.58412 153.08568 158.81612 153.2697 C 158.87412 153.3157 158.94339 153.3586 159.03678 153.38288 C 159.13018 153.40718 159.25192 153.40142 159.34942 153.35342 C 159.54443 153.25742 159.61492 153.09384 159.6755 152.9121 C 159.80174 152.53343 159.82889 152.12394 159.92562 151.89821 A 0.31545804 0.31545804 0 0 0 159.92562 151.8977 A 0.31545804 0.31545804 0 0 0 159.92562 151.89718 A 0.31545804 0.31545804 0 0 0 159.92562 151.89666 C 160.26401 151.09291 160.2031 150.48518 160.55814 149.85544 A 0.31545804 0.31545804 0 0 0 160.40776 149.40999 C 160.10529 149.28036 159.80231 149.15103 159.4998 149.02138 A 0.31545804 0.31545804 0 0 0 159.48585 149.01518 C 158.92447 148.80484 158.50549 148.81828 157.91954 148.62296 C 157.18622 148.37852 156.38947 148.19963 155.59358 148.17492 z M 155.57446 148.80641 C 156.28947 148.82945 157.03047 148.99085 157.72058 149.22086 C 158.39245 149.44482 158.81947 149.4402 159.26571 149.6074 C 159.47845 149.6986 159.69169 149.78959 159.90443 149.88076 C 159.64634 150.51382 159.57814 151.1004 159.34581 151.65223 C 159.19277 152.01057 159.16481 152.37415 159.09776 152.62478 C 159.01496 152.52229 158.92483 152.40919 158.79287 152.20724 C 158.61317 151.93224 158.41648 151.6258 158.1619 151.39643 C 158.03461 151.28175 157.88783 151.18023 157.70301 151.13857 C 157.5182 151.09687 157.29978 151.13646 157.12682 151.25174 C 156.77982 151.48308 156.64373 151.88761 156.49223 152.39276 C 156.34072 152.89791 156.22576 153.51006 156.1584 154.11926 C 156.091 154.72846 156.0715 155.3313 156.1212 155.83027 C 156.1461 156.07975 156.18771 156.30334 156.25969 156.49793 C 156.33169 156.69252 156.43481 156.87876 156.64261 156.98266 C 156.89502 157.10887 157.1568 157.06786 157.38675 156.99816 C 157.6167 156.92856 157.83844 156.82005 158.05286 156.72066 C 158.26729 156.62126 158.4752 156.5312 158.64249 156.48811 C 158.74515 156.46171 158.7904 156.48005 158.85333 156.48605 C 158.86373 156.56325 158.87419 156.64372 158.88279 156.74236 C 158.90569 157.0044 158.89318 157.32642 158.86728 157.40434 C 158.82888 157.51964 158.83542 157.55776 158.82232 157.65445 C 158.80922 157.75115 158.79483 157.86547 158.77943 157.97846 C 158.77043 158.04776 158.75968 158.10332 158.74998 158.16398 C 158.72358 158.15698 158.71156 158.15601 158.68176 158.14641 C 158.47902 158.08441 158.20583 157.98776 157.92987 157.89061 C 157.6539 157.79351 157.37651 157.69489 157.14852 157.62706 C 157.03452 157.59316 156.93404 157.56638 156.84002 157.55058 C 156.79302 157.54258 156.74723 157.53679 156.68964 157.53869 C 156.63204 157.54069 156.54381 157.53216 156.43177 157.64463 C 156.30659 157.76984 156.31778 157.8528 156.30878 157.92782 C 156.29978 158.00282 156.29958 158.07628 156.30258 158.15623 C 156.30858 158.31612 156.32706 158.49918 156.35116 158.68178 C 156.37536 158.86438 156.40444 159.04587 156.42764 159.18924 C 156.45084 159.33262 156.46926 159.46232 156.46846 159.45486 C 156.47976 159.56833 156.51881 159.79367 156.57388 160.13285 C 156.62888 160.47204 156.69861 160.89682 156.7656 161.31417 C 156.8326 161.73152 156.89641 162.14163 156.93923 162.44537 C 156.95093 162.52827 156.95646 162.57761 156.96456 162.64226 C 156.79712 162.67066 156.61074 162.69626 156.33359 162.64846 C 155.97065 162.58566 155.58807 162.47844 155.22823 162.47844 C 155.00399 162.47844 154.81633 162.54854 154.62671 162.59162 C 154.53191 162.61312 154.44363 162.63002 154.3828 162.63502 C 154.35489 162.63732 154.3359 162.6341 154.32492 162.63244 C 154.30276 162.60993 154.22527 162.49235 154.19108 162.22678 C 154.15408 161.93952 154.15925 161.54263 154.17765 161.12917 C 154.19605 160.7157 154.22559 160.28437 154.22829 159.89876 C 154.23129 159.51314 154.22829 159.18196 154.08359 158.89262 C 153.98959 158.70455 153.79423 158.62124 153.63659 158.59599 C 153.47895 158.57079 153.32311 158.58241 153.15394 158.60581 C 152.81559 158.65201 152.42942 158.75614 152.05271 158.85179 C 151.67601 158.94749 151.30787 159.03435 151.06414 159.05333 C 150.95455 159.06233 150.88628 159.05 150.85537 159.043 C 150.80387 158.80001 150.66656 158.27092 150.53911 157.73455 C 150.47471 157.46329 150.41854 157.20709 150.38253 157.01573 C 150.7725 156.96133 151.38132 156.99873 152.03307 157.13097 C 152.40637 157.20667 152.76923 157.29042 153.08004 157.34801 C 153.39084 157.40561 153.6184 157.46012 153.87896 157.39452 A 0.31545804 0.31545804 0 0 0 154.05466 156.90049 C 153.354 155.9682 152.66389 154.78633 152.31058 153.58235 C 151.95952 152.38606 151.94116 151.1867 152.51522 150.13294 C 153.14546 149.3044 153.95982 148.93378 154.87114 148.83225 C 155.10087 148.80666 155.33612 148.79873 155.57446 148.80641 z M 165.33407 151.87857 L 165.33407 151.87909 C 164.26173 151.87009 163.16211 152.16848 162.60142 153.17772 C 162.11058 154.0612 162.17199 155.19543 162.17199 156.05248 C 162.17199 156.80704 162.32213 157.86027 162.65051 158.85179 C 162.97889 159.84331 163.47559 160.78662 164.27367 161.25216 C 165.24926 161.82127 165.90276 161.83504 166.86111 161.94153 C 168.18973 162.08914 169.67573 162.03619 170.85156 161.09558 C 171.42614 160.63593 171.64368 159.83836 171.76159 159.04868 C 171.8795 158.259 171.87682 157.45256 171.87682 156.95888 C 171.87682 155.75659 171.84908 154.45717 171.35179 153.48416 C 171.10315 152.99766 170.71787 152.59217 170.17409 152.385 C 169.66951 152.19276 169.01886 152.21005 168.26361 152.37467 C 167.50273 152.17452 166.40353 151.88728 165.33407 151.87857 z M 165.32994 152.50954 C 166.29072 152.51754 167.3534 152.78717 168.11116 152.98652 A 0.31545804 0.31545804 0 0 0 168.26723 152.98858 C 169.02157 152.8 169.56274 152.82527 169.94929 152.97256 C 170.33583 153.11982 170.5928 153.38752 170.78904 153.77148 C 171.18152 154.53942 171.24585 155.77318 171.24585 156.95888 C 171.24585 157.45304 171.24678 158.22913 171.13837 158.95515 C 171.02997 159.68117 170.79191 160.3355 170.45676 160.60362 C 169.47597 161.38823 168.1905 161.45268 166.92984 161.31262 C 165.94454 161.20314 165.4707 161.21985 164.59148 160.70698 C 164.02948 160.37915 163.55386 159.56995 163.24996 158.65232 C 162.94606 157.7347 162.80244 156.72116 162.80244 156.053 C 162.80244 155.17826 162.79248 154.13033 163.15229 153.48261 C 163.57065 152.72957 164.36915 152.50222 165.32994 152.51006 L 165.32994 152.50954 z M 167.76648 153.79422 A 0.31545804 0.31545804 0 0 0 167.49208 154.05674 C 167.35511 154.89021 167.34668 155.36727 167.54479 155.71865 C 167.54776 155.72391 167.55144 155.72897 167.55461 155.73415 C 166.6332 155.5685 166.22132 155.70224 165.52321 155.87678 A 0.31545804 0.31545804 0 0 0 165.42399 155.92019 C 165.0775 156.15118 164.58229 156.32673 164.19926 156.74805 C 164.0567 156.90486 164.02114 157.09137 164.00805 157.23432 C 163.99495 157.37728 163.99857 157.49603 163.98997 157.56815 C 163.93237 158.02908 164.12889 158.44713 164.4318 158.74792 C 164.73471 159.04871 165.13973 159.26094 165.57437 159.40835 C 166.44364 159.70317 167.4207 159.77219 168.07396 159.44555 C 169.37922 158.79294 169.38366 156.74707 168.2295 155.99202 C 168.34032 155.95737 168.43429 155.89616 168.51941 155.8282 C 168.77432 155.62479 168.9754 155.32468 169.08991 154.99983 C 169.14721 154.83741 169.18158 154.66675 169.16588 154.48823 C 169.15018 154.30971 169.06809 154.11028 168.90026 153.98439 C 168.69716 153.83206 168.46884 153.80926 168.28686 153.80456 C 168.10488 153.79956 167.94885 153.80974 167.84761 153.79474 A 0.31545804 0.31545804 0 0 0 167.76648 153.79422 z M 168.10961 154.42984 C 168.15941 154.42896 168.22702 154.43452 168.26929 154.43552 C 168.40432 154.43852 168.48012 154.4593 168.52147 154.4903 C 168.53047 154.4973 168.53454 154.49438 168.53904 154.54508 C 168.54304 154.59588 168.52998 154.68667 168.49408 154.78899 C 168.42198 154.99364 168.25386 155.2331 168.12718 155.33418 C 168.10558 155.35148 168.11136 155.34541 168.09566 155.35381 C 168.06896 155.28781 168.07191 154.88843 168.10961 154.42984 z M 166.73088 156.28451 C 166.93165 156.27992 167.16359 156.30254 167.48639 156.36306 C 168.63359 156.57817 168.73439 158.40893 167.79077 158.88073 C 167.44273 159.05475 166.51746 159.06141 165.77745 158.81045 C 165.40745 158.68496 165.07968 158.50399 164.87518 158.30092 C 164.67068 158.09785 164.58357 157.90017 164.61525 157.6467 C 164.63355 157.50018 164.62906 157.37689 164.63696 157.29116 C 164.64496 157.20546 164.66019 157.17803 164.66589 157.17179 C 164.89782 156.91668 165.30436 156.74598 165.71079 156.48656 C 166.1481 156.37599 166.39628 156.29215 166.73088 156.28451 z " />
  </g>
</svg>
