<?xml version="1.0" encoding="UTF-8" standalone="no"?>
<!-- Created with Inkscape (http://www.inkscape.org/) -->

<svg
   width="19.626333mm"
   height="13.903073mm"
   viewBox="0 0 19.626333 13.903073"
   version="1.1"
   id="svg1"
   inkscape:version="1.4 (86a8ad7, 2024-10-11)"
   sodipodi:docname="sites.svg"
   xmlns:inkscape="http://www.inkscape.org/namespaces/inkscape"
   xmlns:sodipodi="http://sodipodi.sourceforge.net/DTD/sodipodi-0.dtd"
   xmlns="http://www.w3.org/2000/svg"
   xmlns:svg="http://www.w3.org/2000/svg">
  <sodipodi:namedview
     id="namedview1"
     pagecolor="#ffffff"
     bordercolor="#000000"
     borderopacity="0.25"
     inkscape:showpageshadow="2"
     inkscape:pageopacity="0.0"
     inkscape:pagecheckerboard="0"
     inkscape:deskcolor="#d1d1d1"
     inkscape:document-units="mm"
     inkscape:zoom="1.0444209"
     inkscape:cx="5.7448102"
     inkscape:cy="-35.42633"
     inkscape:window-width="1150"
     inkscape:window-height="1000"
     inkscape:window-x="-7"
     inkscape:window-y="0"
     inkscape:window-maximized="0"
     inkscape:current-layer="layer1" />
  <defs
     id="defs1" />
  <g
     inkscape:label="Camada 1"
     inkscape:groupmode="layer"
     id="layer1"
     transform="translate(-123.82502,-126.2063)">
    <g
       id="g1">
      <path
         style="font-variation-settings:normal;fill:none;fill-opacity:1;stroke:#1a1a1a;stroke-width:0.395508;stroke-linecap:round;stroke-linejoin:round;stroke-miterlimit:4;stroke-dasharray:none;stroke-dashoffset:0;stroke-opacity:1;paint-order:stroke markers fill"
         d="m 124.02277,126.87958 c 0.22744,1.92845 0.48548,3.85495 0.77379,5.77677 0.20025,1.33475 0.39871,2.66919 0.56319,4.00883 0.10282,0.83742 0.19223,1.66604 0.23681,2.50676 0.004,0.0698 -0.10248,0.72735 0.0262,0.73882 0.19495,0.0174 0.30937,-0.24751 0.48925,-0.32462 0.90484,-0.38792 1.27185,-0.3577 2.34852,-0.5271 0.62247,-0.0979 1.24212,-0.21586 1.86742,-0.29381 1.98918,-0.24796 4.00825,-0.29453 6.01004,-0.29269 1.49891,0.001 3.00719,-0.008 4.49984,0.12502 0.12188,0.0109 0.76595,0.16708 0.83016,-0.018 0.21128,-0.60906 0.0238,-2.11945 0.0535,-2.665 0.13032,-2.39083 0.59131,-4.73683 1.00052,-7.09154 0.068,-0.39146 0.838,-2.16526 0.3944,-2.35842 -0.47885,-0.20851 -4.05579,0.1886 -4.0676,0.1897 -2.61554,0.2446 -5.23991,0.73027 -7.87747,0.58651 -0.85457,-0.0465 -1.70201,-0.1994 -2.55737,-0.22802 -0.68646,-0.0229 -1.44827,0.055 -2.117,-0.005 -0.88991,-0.0794 -1.56183,-0.30342 -2.47417,-0.12854 z"
         id="path65-3" />
      <path
         style="font-variation-settings:normal;fill:none;fill-opacity:1;stroke:#1a1a1a;stroke-width:0.395508;stroke-linecap:round;stroke-linejoin:round;stroke-miterlimit:4;stroke-dasharray:none;stroke-dashoffset:0;stroke-opacity:1;paint-order:stroke markers fill"
         d="m 131.67398,129.86328 c -0.1543,1.73064 -0.0382,0.0675 0.13094,3.69411 0.0215,0.46204 -0.23621,1.03149 0.0605,1.38631 0.21922,0.26215 0.68386,-0.037 1.02096,-0.0931 2.10064,-0.34925 4.45819,-0.89137 6.59878,-0.70052 0.12553,0.0112 0.23167,0.11272 0.3572,0.12391 0.12177,0.0109 0.27155,0.11101 0.36534,0.0326 0.2786,-0.233 -0.0997,-1.30242 -0.13557,-1.57713 -0.0846,-0.64793 -0.1488,-1.29877 -0.19433,-1.9506 -0.0268,-0.38397 0.18995,-1.38304 -0.12743,-1.66846 -0.78624,-0.70707 -4.26724,-0.0218 -4.88146,0.0251 -0.54845,0.0419 -2.83461,0.0708 -2.86395,0.1129 -0.13299,0.19105 -0.22067,0.40993 -0.33101,0.61491 z"
         id="path71-0" />
      <path
         style="font-variation-settings:normal;fill:none;fill-opacity:1;stroke:#1a1a1a;stroke-width:0.395508;stroke-linecap:round;stroke-linejoin:round;stroke-miterlimit:4;stroke-dasharray:none;stroke-dashoffset:0;stroke-opacity:1;paint-order:stroke markers fill"
         d="m 126.61799,129.78073 c 0.37348,-0.0588 0.74829,-0.10959 1.12044,-0.17628 0.3126,-0.0642 0.62519,-0.12838 0.93778,-0.19257 0.18539,-0.0142 0.3725,-0.0136 0.55615,-0.0425 0.0675,-0.0106 0.13754,-0.11787 0.19082,-0.075 0.2869,0.23055 0.005,0.73626 -0.006,1.10416 -0.0386,1.27947 -0.0241,2.60224 0.11466,3.87678 0.0618,0.56721 0.3066,1.95051 0.28566,1.95875 -0.31087,0.12226 -1.04838,-0.0935 -1.37002,-0.12215 -0.19183,-0.0171 -1.79256,0.0801 -1.84298,0.0198 -0.24563,-0.29372 -0.19161,-1.07476 -0.2432,-1.4026 -0.0759,-0.48214 -0.33428,-3.80816 -0.18156,-4.15893 0.12019,-0.276 0.29242,-0.52629 0.43864,-0.78944 z"
         id="path77-0" />
      <path
         style="font-variation-settings:normal;fill:none;fill-opacity:1;stroke:#1a1a1a;stroke-width:0.395508;stroke-linecap:round;stroke-linejoin:round;stroke-miterlimit:4;stroke-dasharray:none;stroke-dashoffset:0;stroke-opacity:1;paint-order:stroke markers fill"
         d="m 126.37369,132.52078 c 0.76152,0.0218 1.53075,0.10299 2.29151,0.11225 0.29203,0.004 0.65392,-0.0397 0.64749,-0.0343 -0.0524,0.0438 -0.12721,0.05 -0.19081,0.075"
         id="path85-4" />
      <path
         style="font-variation-settings:normal;fill:none;fill-opacity:1;stroke:#1a1a1a;stroke-width:0.395508;stroke-linecap:round;stroke-linejoin:round;stroke-miterlimit:4;stroke-dasharray:none;stroke-dashoffset:0;stroke-opacity:1;paint-order:stroke markers fill"
         d="m 126.40163,134.27243 c 0.95502,0.35951 2.16934,0.19342 3.10539,0.27687"
         id="path86-8" />
      <path
         style="font-variation-settings:normal;fill:none;fill-opacity:1;stroke:#1a1a1a;stroke-width:0.395508;stroke-linecap:round;stroke-linejoin:round;stroke-miterlimit:4;stroke-dasharray:none;stroke-dashoffset:0;stroke-opacity:1;paint-order:stroke markers fill"
         d="m 132.83931,136.41144 c 0.21582,-0.0114 0.43137,-0.0313 0.64749,-0.0343 0.64339,-0.009 6.61647,0.13349 6.6331,-0.053"
         id="path88-3" />
      <path
         style="font-variation-settings:normal;fill:none;fill-opacity:1;stroke:#1a1a1a;stroke-width:0.395508;stroke-linecap:round;stroke-linejoin:round;stroke-miterlimit:4;stroke-dasharray:none;stroke-dashoffset:0;stroke-opacity:1;paint-order:stroke markers fill"
         d="m 131.8212,133.37472 c 0.34516,-0.42953 0.69034,-0.85906 1.0355,-1.28859 0.20354,-0.25327 0.41021,-0.81139 0.7045,-0.67367 0.40034,0.18735 1.98762,2.48811 1.94774,2.93548"
         id="path110-0" />
      <path
         style="font-variation-settings:normal;fill:none;fill-opacity:1;stroke:#1a1a1a;stroke-width:0.395508;stroke-linecap:round;stroke-linejoin:round;stroke-miterlimit:4;stroke-dasharray:none;stroke-dashoffset:0;stroke-opacity:1;paint-order:stroke markers fill"
         d="m 134.71773,132.89649 c 0.35043,-0.56829 0.24377,-0.44638 0.92788,-1.11407 0.11682,-0.11402 0.66565,-0.58497 0.88716,-0.65739 0.51563,-0.16857 1.59283,2.30896 1.96403,2.75282"
         id="path112-1" />
      <path
         style="font-variation-settings:normal;fill:none;fill-opacity:1;stroke:#1a1a1a;stroke-width:0.395508;stroke-linecap:round;stroke-linejoin:round;stroke-miterlimit:4;stroke-dasharray:none;stroke-dashoffset:0;stroke-opacity:1;paint-order:stroke markers fill"
         d="m 137.49322,129.64563 c 0.0502,1.63168 2.15461,0.913 1.1123,-0.085 -0.0796,-0.0762 -0.14782,-0.21549 -0.25772,-0.2071 -0.30016,0.0229 -0.56972,0.1947 -0.85458,0.29205 z"
         id="path113-2" />
    </g>
  </g>
</svg>
