<?xml version="1.0" encoding="UTF-8" standalone="no"?>
<!-- Created with Inkscape (http://www.inkscape.org/) -->

<svg
   width="30.548073mm"
   height="22.582188mm"
   viewBox="0 0 30.548073 22.582188"
   version="1.1"
   id="svg1"
   inkscape:version="1.4 (86a8ad7, 2024-10-11)"
   sodipodi:docname="sites.svg"
   xmlns:inkscape="http://www.inkscape.org/namespaces/inkscape"
   xmlns:sodipodi="http://sodipodi.sourceforge.net/DTD/sodipodi-0.dtd"
   xmlns="http://www.w3.org/2000/svg"
   xmlns:svg="http://www.w3.org/2000/svg">
  <sodipodi:namedview
     id="namedview1"
     pagecolor="#ffffff"
     bordercolor="#000000"
     borderopacity="0.25"
     inkscape:showpageshadow="2"
     inkscape:pageopacity="0.0"
     inkscape:pagecheckerboard="0"
     inkscape:deskcolor="#d1d1d1"
     inkscape:document-units="mm"
     inkscape:zoom="2.9540685"
     inkscape:cx="9.4784532"
     inkscape:cy="26.912037"
     inkscape:window-width="1920"
     inkscape:window-height="1009"
     inkscape:window-x="-8"
     inkscape:window-y="-8"
     inkscape:window-maximized="1"
     inkscape:current-layer="layer1" />
  <defs
     id="defs1" />
  <g
     inkscape:label="Camada 1"
     inkscape:groupmode="layer"
     id="layer1"
     transform="translate(-137.31876,-147.10832)">
    <path
       style="fill:#ffffff;stroke-linecap:round;stroke-linejoin:round;paint-order:markers fill stroke;stroke:#ffffff;stroke-width:2;stroke-dasharray:none"
       d="m 140.80869,150.70518 c 0.27874,2.36339 0.59498,4.7244 0.94832,7.07966 0.24541,1.6358 0.48863,3.27121 0.6902,4.91299 0.12601,1.0263 0.23558,2.04181 0.29022,3.07214 0.005,0.0855 -0.12559,0.8914 0.0321,0.90546 0.23892,0.0213 0.37914,-0.30333 0.5996,-0.39784 1.10891,-0.47541 1.5587,-0.43837 2.8782,-0.64597 0.76287,-0.12003 1.52227,-0.26456 2.2886,-0.36008 2.43782,-0.30389 4.91229,-0.36096 7.36557,-0.35871 1.83696,0.002 3.68543,-0.01 5.51474,0.15322 0.14936,0.0133 0.93869,0.20477 1.01739,-0.0221 0.25893,-0.74644 0.0291,-2.59748 0.0656,-3.26607 0.15971,-2.93006 0.72467,-5.80518 1.22618,-8.69098 0.0833,-0.47975 1.027,-2.65362 0.48335,-2.89034 -0.58685,-0.25554 -4.97054,0.23113 -4.98501,0.23249 -3.20545,0.29976 -6.42173,0.89498 -9.65417,0.71879 -1.04731,-0.0571 -2.08588,-0.24438 -3.13416,-0.27944 -0.84129,-0.0281 -1.77492,0.0674 -2.59447,-0.006 -1.09062,-0.0972 -1.91409,-0.37184 -3.0322,-0.15752 z"
       id="path1" />
    <path
       id="path2"
       style="fill:#1a1a1a;stroke-linecap:round;stroke-linejoin:round;paint-order:markers fill stroke"
       d="M 163.17971 149.88231 L 163.17971 149.88283 C 162.67779 149.89283 162.07078 149.92961 161.48266 149.97481 C 160.30643 150.06511 159.20839 150.18704 159.20115 150.18772 C 155.98104 150.48885 152.77617 151.08012 149.58209 150.90602 C 148.55486 150.85002 147.51504 150.66282 146.44327 150.62697 C 145.57768 150.59807 144.6477 150.69117 143.86306 150.62077 C 142.80192 150.52617 141.94086 150.24109 140.76351 150.46677 A 0.24252426 0.24252426 0 0 0 140.57024 150.65797 A 0.24252426 0.24252426 0 0 0 140.56817 150.73446 C 140.84721 153.10039 141.16375 155.46255 141.51747 157.82033 C 141.76285 159.45593 142.00576 161.0888 142.20683 162.72649 C 142.33256 163.75046 142.44205 164.76153 142.49622 165.78315 C 142.49422 165.75205 142.49509 165.78302 142.49209 165.81054 C 142.48909 165.83804 142.4849 165.87582 142.4802 165.92009 C 142.4712 166.00859 142.46148 166.1224 142.45488 166.23635 C 142.44788 166.35029 142.44501 166.46194 142.45901 166.57018 C 142.46601 166.62428 142.47434 166.67749 142.50604 166.74226 C 142.53774 166.80706 142.62464 166.90491 142.74789 166.9159 C 142.98006 166.9366 143.14287 166.79394 143.24605 166.69317 C 143.34924 166.5924 143.42972 166.51487 143.46464 166.4999 C 144.54753 166.03564 144.9529 166.08061 146.28514 165.871 C 147.05312 165.75017 147.81009 165.60609 148.56614 165.51185 C 150.98767 165.20999 153.4512 165.15406 155.90057 165.15631 C 157.73876 165.15831 159.58043 165.1449 161.39429 165.30669 C 161.39929 165.30713 161.4876 165.32317 161.58601 165.33977 C 161.68451 165.35647 161.80642 165.37519 161.92966 165.38679 C 162.05289 165.39829 162.17676 165.40422 162.3007 165.38472 C 162.3627 165.37472 162.42608 165.3593 162.49242 165.3222 C 162.55872 165.2851 162.62978 165.21536 162.66192 165.12272 C 162.81901 164.66987 162.81393 164.01969 162.79317 163.37296 C 162.77237 162.72622 162.72591 162.0856 162.74201 161.79114 C 162.9005 158.8835 163.46257 156.01792 163.96468 153.12862 C 163.97758 153.05432 164.05091 152.81774 164.14245 152.54313 C 164.23405 152.26852 164.34402 151.94155 164.43545 151.61709 C 164.52685 151.29263 164.60213 150.97242 164.61735 150.69311 C 164.62535 150.55345 164.61794 150.42365 164.57808 150.29676 C 164.53828 150.16988 164.44672 150.03612 164.30471 149.97429 C 164.16777 149.91469 164.02865 149.90238 163.84169 149.89058 C 163.65473 149.87878 163.43067 149.87761 163.17971 149.88231 z M 163.18953 150.36704 C 163.4323 150.36204 163.64552 150.3643 163.81068 150.3753 C 163.97583 150.3858 164.10166 150.4139 164.11144 150.4182 C 164.10544 150.4152 164.10357 150.40235 164.11557 150.44145 C 164.12787 150.48065 164.13884 150.56338 164.13314 150.66831 C 164.12174 150.87817 164.05629 151.17624 163.96933 151.4848 C 163.88233 151.79337 163.77382 152.1133 163.68201 152.38862 C 163.59021 152.66394 163.51542 152.87935 163.48667 153.04491 C 162.98577 155.92721 162.41925 158.81334 162.25832 161.76582 C 162.23792 162.13995 162.2866 162.75644 162.3069 163.38898 C 162.3265 163.99801 162.30193 164.59858 162.20923 164.9062 C 162.15623 164.9132 162.07133 164.91365 161.97514 164.90465 C 161.87253 164.89465 161.76219 164.87714 161.66818 164.86124 C 161.57418 164.84534 161.50745 164.83075 161.4377 164.82455 C 159.59294 164.65995 157.73837 164.67204 155.90264 164.67004 C 153.44545 164.66804 150.9603 164.72533 148.50619 165.03126 C 147.72958 165.12806 146.96693 165.27325 146.20917 165.39248 C 144.90241 165.59807 144.40888 165.5684 143.27395 166.05497 C 143.10436 166.12767 143.01552 166.24006 142.93754 166.32058 C 142.93821 166.29848 142.93654 166.28674 142.93754 166.26374 C 142.94354 166.16374 142.95438 166.05788 142.96338 165.97073 C 142.96838 165.92713 142.97205 165.88853 142.97475 165.8555 C 142.97775 165.8231 142.98395 165.80783 142.98095 165.75783 C 142.92585 164.7188 142.81424 163.69672 142.68794 162.66809 C 142.48587 161.02222 142.24195 159.38398 141.99651 157.74798 C 141.6574 155.48752 141.35683 153.22318 141.08649 150.95511 C 142.02579 150.83199 142.78739 151.01128 143.81862 151.10342 C 144.67308 151.17992 145.6113 151.08419 146.42828 151.11169 C 147.45308 151.14599 148.4899 151.33256 149.55729 151.39075 C 152.8281 151.56904 156.05583 150.96877 159.24662 150.67038 C 159.25362 150.6697 160.35393 150.54904 161.51987 150.45954 C 162.10284 150.41484 162.70453 150.37715 163.19005 150.36755 L 163.18953 150.36704 z M 158.42497 152.80771 C 157.96941 152.79962 157.47789 152.82582 156.99198 152.86714 C 155.69622 152.97719 154.40379 153.20378 154.08208 153.22836 C 153.76727 153.25236 152.89074 153.27529 152.10132 153.29709 C 151.70661 153.30799 151.33155 153.31866 151.05074 153.33016 C 150.91034 153.33616 150.79373 153.34133 150.70709 153.34773 C 150.66379 153.35073 150.6277 153.35492 150.59547 153.35962 C 150.57937 153.36162 150.56623 153.36137 150.54483 153.36737 C 150.53413 153.37037 150.52047 153.37427 150.49987 153.38287 C 150.48957 153.38687 150.46171 153.40418 150.46111 153.40458 C 150.46049 153.40498 150.39268 153.46877 150.39238 153.46917 C 150.20835 153.73355 150.09925 154.01142 149.97277 154.24639 A 0.24238024 0.24238024 0 0 0 149.94693 154.32235 A 0.24238024 0.24238024 0 0 0 149.94331 154.33992 C 149.89611 154.86942 149.86968 155.13957 149.85908 155.32642 C 149.84848 155.51327 149.85705 155.62407 149.87665 155.78324 C 149.91535 156.10159 150.00008 156.68289 150.10351 158.90088 C 150.11441 159.13446 150.04806 159.44276 150.01566 159.76388 C 149.98326 160.085 149.9893 160.45133 150.23425 160.74418 C 150.343 160.87422 150.50161 160.94269 150.64611 160.95709 C 150.79062 160.97149 150.92491 160.94583 151.05281 160.91213 C 151.30862 160.84453 151.55514 160.73903 151.71065 160.71317 C 154.29615 160.28332 157.16873 159.62904 159.736 159.85793 C 159.7543 159.85993 159.79991 159.87614 159.87087 159.91064 C 159.94187 159.94514 160.03821 159.99621 160.1737 160.00831 C 160.1914 160.01031 160.27033 160.03617 160.37265 160.06257 C 160.47494 160.08897 160.65335 160.11369 160.79846 159.99229 C 160.97451 159.84505 161.00525 159.63672 161.00982 159.4378 C 161.01482 159.23888 160.98426 159.02614 160.94316 158.81458 C 160.86096 158.39146 160.73139 157.94395 160.71837 157.8441 C 160.61541 157.05506 160.53767 156.2612 160.4822 155.46698 C 160.4699 155.29157 160.52268 154.85016 160.53698 154.42415 C 160.54398 154.21114 160.54118 153.99674 160.50598 153.79732 C 160.47068 153.59791 160.40575 153.4035 160.24604 153.25988 C 159.92456 152.97077 159.43662 152.87232 158.86732 152.82838 L 158.86732 152.82787 C 158.72499 152.81689 158.57682 152.81041 158.42497 152.80771 z M 158.4167 153.29347 C 158.5603 153.2961 158.69883 153.30247 158.83011 153.31259 C 159.35524 153.35309 159.76172 153.47486 159.92203 153.61903 C 159.95683 153.65033 160.00419 153.73934 160.02952 153.88258 C 160.05482 154.02583 160.05937 154.21249 160.05277 154.40813 C 160.03967 154.79941 159.9774 155.20491 159.998 155.50006 C 160.0541 156.30354 160.13402 157.10701 160.23829 157.90611 C 160.26919 158.14293 160.3914 158.51831 160.4667 158.90605 C 160.5043 159.09992 160.52871 159.28826 160.52561 159.42591 C 160.52261 159.5442 160.49899 159.58156 160.49409 159.59386 C 160.43859 159.57956 160.35018 159.53693 160.21865 159.52513 C 160.20035 159.52313 160.15475 159.50692 160.08378 159.47242 C 160.01278 159.43792 159.91489 159.38685 159.7794 159.37475 C 159.45075 159.34545 159.11852 159.3302 158.78412 159.32618 A 0.242356 0.242356 0 0 0 158.73244 159.12722 C 158.65294 159.03212 158.47572 158.73483 158.27924 158.37895 C 158.08275 158.02306 157.85518 157.59705 157.61933 157.19143 C 157.38348 156.78581 157.14128 156.40211 156.90413 156.11707 C 156.78555 155.97455 156.66989 155.85599 156.53929 155.76981 C 156.4087 155.68361 156.23856 155.62089 156.06439 155.67782 C 155.83737 155.75202 155.62504 155.9234 155.39828 156.10157 C 155.17152 156.27975 154.97106 156.45492 154.88306 156.54082 C 154.24261 157.16588 154.1412 157.26119 153.93945 157.57848 C 153.71302 157.25367 153.4824 156.94374 153.27334 156.68913 C 153.14467 156.53244 153.02484 156.39578 152.91626 156.28709 C 152.80767 156.1784 152.72128 156.09714 152.60155 156.04111 C 152.4446 155.96761 152.25311 155.99046 152.12509 156.06436 C 151.99707 156.13826 151.90939 156.24232 151.83002 156.34962 C 151.67128 156.56422 151.54091 156.8149 151.44555 156.93356 C 151.14466 157.30799 150.84426 157.68284 150.54379 158.05752 C 150.45955 156.53886 150.38876 155.98343 150.35724 155.72433 C 150.33874 155.57238 150.3344 155.51967 150.3438 155.35329 C 150.3528 155.19493 150.3807 154.91173 150.4239 154.42984 C 150.53779 154.21225 150.63446 154.00872 150.7443 153.83194 C 150.8204 153.82594 150.93338 153.81997 151.07038 153.81437 C 151.34603 153.80307 151.72102 153.7922 152.11527 153.7813 C 152.90378 153.7596 153.76195 153.73832 154.11928 153.71102 C 154.55033 153.67812 155.76695 153.45684 157.03332 153.34928 C 157.50821 153.30893 157.98588 153.2856 158.4167 153.29347 z M 147.37086 153.41336 C 147.34839 153.41404 147.32774 153.41732 147.3104 153.42215 L 147.3104 153.42163 C 147.241 153.44093 147.20498 153.46919 147.17759 153.48829 C 147.12279 153.52659 147.0868 153.52865 147.1564 153.51775 C 146.9569 153.54925 146.73405 153.54792 146.49391 153.56632 A 0.24238024 0.24238024 0 0 0 146.4629 153.57046 C 146.07982 153.64916 145.69778 153.72792 145.31465 153.80662 C 144.86714 153.88662 144.41061 153.94936 143.95143 154.02159 L 144.0491 154.02573 A 0.24238024 0.24238024 0 0 0 143.77728 154.14252 C 143.60564 154.45142 143.3882 154.76431 143.22848 155.13109 C 143.17208 155.26056 143.17193 155.36843 143.16233 155.53158 C 143.15233 155.69473 143.1498 155.89605 143.152 156.12534 C 143.157 156.58392 143.18072 157.15472 143.21452 157.73041 C 143.28222 158.88179 143.38194 160.02506 143.43518 160.36332 C 143.46018 160.52219 143.46183 160.87171 143.49203 161.22064 C 143.52223 161.56957 143.56318 161.9316 143.7871 162.19939 C 143.78758 162.19997 143.81189 162.2274 143.82379 162.2366 C 143.83569 162.2456 143.84798 162.25238 143.85738 162.25778 C 143.87628 162.26848 143.88994 162.27509 143.90234 162.27949 C 143.92724 162.28849 143.946 162.29199 143.9628 162.29499 C 143.9966 162.30099 144.02692 162.30333 144.06202 162.30533 C 144.13222 162.31033 144.21743 162.31101 144.31833 162.31101 C 144.52014 162.31054 144.77972 162.30204 145.04439 162.29344 C 145.30907 162.28444 145.57819 162.27512 145.79473 162.26812 C 146.01127 162.26112 146.19988 162.26092 146.20866 162.26192 C 146.36854 162.27622 146.70316 162.34896 147.03703 162.40248 C 147.3709 162.45598 147.70126 162.51151 147.99769 162.39473 C 147.99779 162.39469 148.08183 162.34005 148.08193 162.33995 C 148.08202 162.33986 148.12058 162.28951 148.12068 162.28931 C 148.12084 162.28903 148.14642 162.22728 148.14652 162.22678 C 148.14677 162.22581 148.15121 162.18663 148.15221 162.17613 C 148.15321 162.15513 148.15291 162.14403 148.15221 162.13273 C 148.15121 162.11013 148.14952 162.08915 148.14652 162.06245 C 148.14052 162.00905 148.128 161.93825 148.115 161.85161 C 148.089 161.67835 148.05226 161.44341 148.01165 161.18756 C 147.93045 160.67587 147.83723 160.07656 147.80081 159.74217 C 147.63244 158.19631 147.61471 156.58687 147.6618 155.02567 C 147.6668 154.85863 147.74982 154.5931 147.79874 154.32028 C 147.82324 154.18387 147.84011 154.04171 147.81631 153.89292 C 147.79241 153.74412 147.71482 153.5863 147.57808 153.47641 A 0.24238024 0.24238024 0 0 0 147.57808 153.47589 A 0.24238024 0.24238024 0 0 0 147.57808 153.47537 A 0.24238024 0.24238024 0 0 0 147.57808 153.47486 C 147.52176 153.42963 147.43826 153.41134 147.37086 153.41336 z M 158.37742 153.49501 C 158.367 153.49497 158.35669 153.49522 158.3459 153.49604 C 157.89737 153.53034 157.54931 153.75879 157.23847 153.86501 A 0.24238024 0.24238024 0 0 0 157.07414 154.10376 C 157.09114 154.65624 157.29353 155.05586 157.58781 155.28508 C 157.88209 155.5143 158.2474 155.56428 158.56036 155.4861 C 158.87331 155.4079 159.15613 155.19678 159.24817 154.87115 C 159.34017 154.54553 159.20697 154.16042 158.84768 153.81644 C 158.82718 153.79684 158.78137 153.73122 158.7128 153.65831 C 158.64849 153.58996 158.53376 153.49566 158.37742 153.49501 z M 147.32435 153.94925 C 147.32635 153.95825 147.33402 153.95965 147.33572 153.97095 C 147.34572 154.03195 147.34198 154.12429 147.32228 154.2345 C 147.28278 154.45493 147.18641 154.72582 147.17759 155.00965 C 147.15307 155.82247 147.14622 156.65073 147.16829 157.47875 C 147.12467 157.48256 147.07611 157.48705 147.01378 157.49167 C 146.86302 157.50317 146.66771 157.51507 146.50218 157.51337 C 145.5851 157.50217 144.64299 157.40349 143.69718 157.37643 L 143.69718 157.37694 A 0.242356 0.242356 0 0 0 143.68323 157.37849 C 143.65936 156.92312 143.6406 156.48048 143.63672 156.12121 C 143.63472 155.89868 143.63576 155.70487 143.64447 155.56052 C 143.65347 155.41616 143.68353 155.30236 143.67393 155.32436 C 143.7941 155.0484 143.9756 154.7756 144.1447 154.48255 C 144.56143 154.41835 144.98107 154.35898 145.40457 154.28308 A 0.24238024 0.24238024 0 0 0 145.41232 154.28153 C 145.79151 154.20363 146.16996 154.12685 146.5492 154.04898 C 146.75865 154.03398 146.98716 154.03467 147.23082 153.99627 C 147.29452 153.98627 147.29135 153.96815 147.32435 153.94925 z M 158.35003 153.98232 C 158.35268 153.98511 158.35443 153.98692 158.35934 153.99214 C 158.39064 154.02544 158.43685 154.09252 158.51385 154.16629 C 158.79328 154.43382 158.81573 154.61735 158.78153 154.73835 C 158.74733 154.85935 158.62132 154.97093 158.4415 155.01585 C 158.26167 155.06075 158.05162 155.03194 157.88495 154.90216 C 157.75058 154.79751 157.66964 154.54422 157.62088 154.24587 C 157.88251 154.13756 158.13507 154.0092 158.35003 153.98232 z M 156.21011 156.14136 C 156.21361 156.1425 156.23136 156.14627 156.27368 156.17392 C 156.33798 156.21642 156.43193 156.30452 156.53309 156.4261 C 156.73541 156.66927 156.97123 157.04022 157.20127 157.43585 C 157.43131 157.83148 157.65675 158.2536 157.85549 158.61356 C 158.01816 158.9082 158.15405 159.1527 158.27924 159.32928 C 157.22668 159.35131 156.15734 159.47822 155.10114 159.64037 C 155.08572 159.58502 155.06587 159.52958 155.04274 159.46881 C 154.98764 159.32405 154.91104 159.16081 154.8164 158.98253 C 154.6604 158.68868 154.45746 158.35498 154.23762 158.01928 C 154.50986 157.56993 154.4844 157.60698 155.22258 156.88653 C 155.27778 156.83273 155.48427 156.64995 155.69748 156.48242 C 155.90708 156.31773 156.15933 156.1605 156.21011 156.14136 z M 152.38399 156.47209 C 152.38482 156.47181 152.38474 156.47496 152.39639 156.48036 C 152.39939 156.48136 152.4806 156.53703 152.57209 156.62867 C 152.66359 156.72027 152.77675 156.84759 152.89869 156.99609 C 153.13742 157.28684 153.41426 157.66437 153.67642 158.05132 A 0.242356 0.242356 0 0 0 153.78907 158.28542 A 0.242356 0.242356 0 0 0 153.84592 158.3066 C 154.05447 158.62614 154.24582 158.94212 154.38852 159.21094 C 154.47702 159.37769 154.5462 159.5251 154.59006 159.64037 C 154.60013 159.66682 154.60807 159.6918 154.61486 159.71479 C 153.59218 159.88223 152.58792 160.07505 151.63106 160.23413 C 151.37344 160.27693 151.12918 160.39078 150.92982 160.44342 C 150.83012 160.46972 150.74593 160.47953 150.6952 160.47443 C 150.6445 160.46943 150.63079 160.4642 150.60529 160.4336 C 150.48654 160.29162 150.47028 160.09055 150.49832 159.81245 C 150.52632 159.53435 150.60327 159.20978 150.58772 158.87711 C 150.58593 158.83881 150.58433 158.81886 150.58255 158.78151 C 150.99629 158.2667 151.41061 157.75329 151.82433 157.23845 C 151.97841 157.04672 152.10027 156.79974 152.22069 156.63694 C 152.28089 156.55554 152.33823 156.50107 152.36694 156.48449 C 152.38129 156.47619 152.38317 156.47236 152.38399 156.47209 z M 143.7101 157.86219 C 144.62251 157.88959 145.5574 157.98666 146.49598 157.99809 C 146.64129 158.00009 146.78185 157.99119 146.91611 157.98259 A 0.242356 0.242356 0 0 0 147.14658 158.03117 C 147.15413 158.02819 147.16842 158.02588 147.18689 158.02238 C 147.21251 158.6169 147.25438 159.20954 147.31815 159.79488 C 147.31979 159.80995 147.32304 159.8307 147.32487 159.84656 C 146.18665 159.77874 144.85045 159.91891 143.83723 159.54942 C 143.7952 159.08442 143.74856 158.48437 143.7101 157.86219 z M 143.88942 160.07652 C 145.04756 160.42437 146.37565 160.2679 147.3905 160.33749 C 147.4336 160.63306 147.48502 160.96045 147.53312 161.26353 C 147.57382 161.51966 147.61106 161.75479 147.63648 161.92395 C 147.63736 161.92995 147.63754 161.93169 147.63854 161.93739 C 147.50029 161.94789 147.34523 161.96115 147.11351 161.92395 C 146.80166 161.87395 146.48638 161.79809 146.25206 161.77719 C 146.1433 161.76719 145.99857 161.77639 145.77923 161.78339 C 145.55989 161.79039 145.29021 161.79981 145.02733 161.80871 C 144.76446 161.81771 144.50908 161.82578 144.31833 161.82628 C 144.24353 161.82646 144.18918 161.82415 144.14057 161.82215 C 144.07097 161.70525 143.99981 161.46989 143.97468 161.17981 C 143.94698 160.8597 143.95252 160.53027 143.91422 160.28736 C 143.90824 160.24936 143.89812 160.15365 143.88942 160.07652 z M 160.55869 162.03919 A 0.242356 0.242356 0 0 0 160.41554 162.07692 C 160.41194 162.07789 160.40866 162.07861 160.40211 162.08002 C 160.36541 162.08802 160.29026 162.09714 160.19333 162.10534 C 159.99946 162.12164 159.71167 162.13464 159.36341 162.14254 C 158.66689 162.15834 157.72598 162.15948 156.7615 162.15288 C 154.83254 162.13918 152.82694 162.09572 152.40414 162.10172 C 152.12676 162.10572 151.85984 162.13143 151.60161 162.14513 A 0.242356 0.242356 0 0 0 151.37113 162.40093 A 0.242356 0.242356 0 0 0 151.62693 162.62934 C 151.89771 162.61504 152.15798 162.5916 152.41035 162.588 C 152.77605 162.583 154.82449 162.62339 156.75788 162.63709 C 157.72458 162.64409 158.66683 162.64327 159.37323 162.62727 C 159.72643 162.61927 160.02072 162.60796 160.23416 162.59006 C 160.34089 162.58106 160.42661 162.57002 160.49977 162.55492 C 160.53637 162.54692 160.56847 162.54023 160.6114 162.52133 C 160.6329 162.51233 160.65879 162.50156 160.69149 162.47276 C 160.72419 162.44396 160.76988 162.38435 160.77728 162.30067 A 0.242356 0.242356 0 0 0 160.55869 162.03919 z M 160.41037 162.08105 A 0.242356 0.242356 0 0 0 160.34526 162.13479 C 160.35375 162.12437 160.36208 162.11561 160.36903 162.10947 C 160.38971 162.09119 160.40227 162.08474 160.41037 162.08105 z M 160.33544 162.14823 A 0.242356 0.242356 0 0 0 160.29514 162.25778 C 160.29945 162.21067 160.31667 162.17487 160.33544 162.14823 z " />
  </g>
</svg>
