<?xml version="1.0" encoding="UTF-8" standalone="no"?>
<!-- Created with Inkscape (http://www.inkscape.org/) -->

<svg
   width="30.548073mm"
   height="22.582188mm"
   viewBox="0 0 30.548073 22.582188"
   version="1.1"
   id="svg1"
   inkscape:version="1.4 (86a8ad7, 2024-10-11)"
   sodipodi:docname="videos.svg"
   xmlns:inkscape="http://www.inkscape.org/namespaces/inkscape"
   xmlns:sodipodi="http://sodipodi.sourceforge.net/DTD/sodipodi-0.dtd"
   xmlns="http://www.w3.org/2000/svg"
   xmlns:svg="http://www.w3.org/2000/svg">
  <sodipodi:namedview
     id="namedview1"
     pagecolor="#ffffff"
     bordercolor="#000000"
     borderopacity="0.25"
     inkscape:showpageshadow="2"
     inkscape:pageopacity="0.0"
     inkscape:pagecheckerboard="0"
     inkscape:deskcolor="#d1d1d1"
     inkscape:document-units="mm"
     inkscape:zoom="5.9081369"
     inkscape:cx="51.285203"
     inkscape:cy="41.383604"
     inkscape:window-width="1920"
     inkscape:window-height="1009"
     inkscape:window-x="-8"
     inkscape:window-y="-8"
     inkscape:window-maximized="1"
     inkscape:current-layer="layer1" />
  <defs
     id="defs1" />
  <g
     inkscape:label="Camada 1"
     inkscape:groupmode="layer"
     id="layer1"
     transform="translate(-165.89375,-125.67708)">
    <path
       style="fill:#ffffff;stroke-linecap:round;stroke-linejoin:round"
       d="m 171.05333,130.7297 c 4.14235,-0.10424 8.27622,-0.13527 12.38764,-0.73486 2.4606,-0.35884 4.89547,-0.88236 7.3486,-1.25976 0.0843,-0.013 0.81883,-0.23097 0.9448,-0.10498 0.13193,0.13194 -0.19645,1.22972 -0.20996,1.36474 -0.25006,2.50075 -0.2797,5.04809 -0.20995,7.55856 0.009,0.30629 0.16579,2.81284 0.20995,3.25437 0.0539,0.53938 0.20996,1.14636 0.20996,1.67968 0,0.25234 -0.2132,0.48517 -0.41991,0.62988 -1.21013,0.84708 -7.35998,0.89209 -8.71333,0.94482 -0.14073,0.006 -5.30933,0.087 -6.50877,0.20996 -1.31121,0.13448 -2.70444,0.41366 -3.98922,0.73486 -0.14474,0.0362 -1.04293,0.42335 -1.25976,0.31493 -0.23777,-0.11888 -0.0916,-1.01685 -0.10498,-1.36473 -0.0229,-0.59548 -0.0864,-1.18904 -0.10498,-1.78466 -0.11956,-3.82579 -0.11588,-7.69216 0.41991,-11.44281 z"
       id="path1" />
    <path
       id="path2"
       style="fill:#1a1a1a;stroke-linecap:round;stroke-linejoin:round"
       d="M 191.62655 128.26969 C 191.59494 128.27104 191.5644 128.2744 191.53508 128.27537 C 191.41778 128.27937 191.30097 128.29853 191.1873 128.32033 C 191.07363 128.34223 190.9636 128.36774 190.87879 128.38854 C 190.79399 128.40934 190.7004 128.43008 190.74236 128.42368 C 188.2769 128.80297 185.84114 129.32675 183.39449 129.68355 C 179.31141 130.27901 175.19091 130.30993 171.04486 130.41426 A 0.31545804 0.31545804 0 0 0 170.74048 130.68556 C 170.20043 134.46605 170.19852 138.34888 170.31829 142.1815 C 170.33739 142.79298 170.40134 143.38784 170.42371 143.96899 C 170.42871 144.08843 170.39613 144.41552 170.39063 144.71881 C 170.38763 144.87046 170.39082 145.02104 170.41802 145.16633 C 170.44522 145.31161 170.49023 145.49697 170.70328 145.60351 C 170.90257 145.70311 171.02692 145.65897 171.16785 145.63297 C 171.30878 145.60697 171.45587 145.56598 171.59779 145.5198 C 171.7397 145.4736 171.8758 145.42277 171.98433 145.38285 C 172.09287 145.34295 172.19737 145.30817 172.17967 145.31257 C 173.45412 144.99395 174.83548 144.71827 176.12517 144.586 C 176.68616 144.5285 178.29378 144.47609 179.75182 144.43976 C 180.48084 144.42156 181.1762 144.40675 181.69899 144.39635 C 181.96039 144.39135 182.17893 144.38601 182.33616 144.38291 C 182.49229 144.37991 182.56942 144.37871 182.61314 144.37671 C 183.27473 144.35091 185.16384 144.32761 187.03303 144.20308 C 187.96763 144.14088 188.8991 144.05242 189.68351 143.92558 C 190.46793 143.79874 191.09152 143.6577 191.4958 143.37471 C 191.74926 143.19728 192.04874 142.91795 192.04874 142.48794 C 192.04874 141.89309 191.88814 141.28019 191.8379 140.77745 C 191.7982 140.37998 191.63593 137.79386 191.62861 137.54457 C 191.55911 135.0425 191.58972 132.50724 191.8379 130.02514 C 191.8329 130.07524 191.85598 129.94216 191.88648 129.81843 C 191.91708 129.69469 191.95703 129.53833 191.9919 129.37866 C 192.0268 129.21899 192.0572 129.05842 192.072 128.91202 C 192.079 128.83882 192.0844 128.77006 192.0782 128.69498 C 192.0722 128.61988 192.07437 128.52306 191.95728 128.40611 C 191.82827 128.27708 191.72138 128.26562 191.62655 128.26969 z M 191.43173 128.92236 C 191.41873 129.01685 191.40114 129.12411 191.37488 129.2443 C 191.34248 129.39245 191.30636 129.54386 191.27566 129.66805 C 191.24496 129.79224 191.22277 129.84554 191.21107 129.96312 C 190.95914 132.48252 190.93025 135.04379 191.00023 137.56266 C 191.01093 137.92595 191.1625 140.35439 191.21107 140.83998 C 191.26867 141.41601 191.41829 142.01667 191.41829 142.48846 C 191.41829 142.56316 191.29301 142.74751 191.13304 142.85949 C 190.93226 143.00004 190.33356 143.1814 189.58223 143.30288 C 188.83091 143.42437 187.91344 143.51062 186.99014 143.57211 C 185.14355 143.69508 183.27958 143.71931 182.58782 143.74626 C 182.59582 143.74591 182.48132 143.74895 182.32427 143.75195 C 182.16722 143.75495 181.94931 143.7602 181.68762 143.7659 C 181.16424 143.7763 180.46697 143.79059 179.73632 143.80879 C 178.27502 143.84519 176.69902 143.89368 176.06057 143.95917 C 174.72784 144.09586 173.32235 144.37746 172.02723 144.70124 C 171.93713 144.72374 171.87517 144.75166 171.76781 144.79116 C 171.66045 144.83066 171.53029 144.87673 171.40246 144.91828 C 171.27463 144.95988 171.14767 144.99668 171.05468 145.01388 C 171.03168 145.01788 171.05501 145.02009 171.03711 145.02009 C 171.02671 144.95049 171.0194 144.84981 171.0216 144.7307 C 171.0266 144.46832 171.06141 144.17417 171.05261 143.94573 C 171.02921 143.33592 170.96737 142.74214 170.94926 142.16238 C 170.83269 138.43241 170.84869 134.67732 171.34406 131.03748 C 175.38874 130.93868 179.44106 130.89725 183.48647 130.30729 C 185.96102 129.94642 188.39716 129.42293 190.83796 129.04742 C 190.92206 129.03442 190.94861 129.02226 191.02917 129.00246 C 191.10967 128.98266 191.21043 128.95843 191.30667 128.93993 C 191.35487 128.93093 191.38853 128.92816 191.43173 128.92236 z M 187.97922 131.41471 C 187.42019 131.41807 186.87085 131.49716 186.33746 131.57233 C 185.38914 131.7062 184.48995 131.82682 183.63272 131.58215 A 0.31545804 0.31545804 0 0 0 183.23223 131.8519 C 183.17053 132.44807 183.4107 132.87286 183.44152 133.27352 C 183.44652 133.33712 183.48102 133.84818 183.53712 134.33805 C 183.56512 134.58299 183.59786 134.82319 183.63892 135.0176 C 183.65942 135.1148 183.68108 135.19998 183.71488 135.28321 C 183.73178 135.32481 183.74895 135.36733 183.79085 135.42015 C 183.83275 135.47295 183.92383 135.55865 184.07042 135.55865 C 184.92865 135.55865 185.80803 135.22667 186.52557 135.13697 C 187.25693 135.04554 188.05293 134.99829 188.81483 134.92923 C 188.81027 134.93181 188.91894 134.93189 189.0236 134.93801 C 189.14326 134.94501 189.29402 134.95378 189.44735 134.95558 C 189.60067 134.95758 189.75401 134.95594 189.90055 134.93026 C 189.97385 134.91746 190.04569 134.89938 190.12483 134.85998 C 190.20393 134.82058 190.30824 134.74647 190.35376 134.60987 C 190.39516 134.48548 190.37388 134.48964 190.37288 134.45742 C 190.37194 134.42522 190.36912 134.39268 190.36512 134.35407 C 190.35812 134.27687 190.34665 134.18018 190.33205 134.06675 C 190.30285 133.83987 190.26042 133.54987 190.21268 133.25853 C 190.16498 132.96719 190.11371 132.67428 190.06437 132.44204 C 190.03967 132.32592 190.01602 132.22517 189.99202 132.14128 C 189.98002 132.09938 189.96805 132.06236 189.95275 132.02398 C 189.93755 131.98558 189.93725 131.95168 189.85715 131.87153 C 189.67765 131.69205 189.46469 131.62954 189.30059 131.58266 C 188.85545 131.45548 188.41416 131.4121 187.97922 131.41471 z M 181.4344 131.64157 C 181.33931 131.63795 181.24693 131.64954 181.15793 131.66379 L 181.15845 131.66431 C 180.80246 131.72141 180.42672 131.87075 180.33215 131.89065 C 178.57334 132.26093 176.69583 132.30176 174.8653 132.73246 C 174.43632 132.83343 174.12412 133.02558 173.87104 133.0389 C 173.66135 133.0499 173.38155 132.91802 173.01166 132.83582 A 0.31545804 0.31545804 0 0 0 172.62719 133.15828 C 172.67629 134.32846 172.58963 135.50178 172.52332 136.69553 C 172.50772 136.97732 172.53702 137.22303 172.52332 137.42778 C 172.52275 137.43678 172.45556 138.28749 172.39826 139.08608 C 172.36966 139.48537 172.34322 139.88103 172.32592 140.18162 C 172.31692 140.33192 172.31105 140.45902 172.30835 140.55266 C 172.30735 140.59946 172.30743 140.63669 172.30835 140.67203 C 172.30882 140.68973 172.30904 140.70629 172.31248 140.73249 C 172.31448 140.74559 172.31467 140.75989 172.32437 140.79089 C 172.32937 140.80639 172.353 140.85695 172.3533 140.85755 C 172.35345 140.85783 172.39455 140.91378 172.39465 140.91388 C 172.39482 140.91406 172.48591 140.98406 172.48611 140.98416 C 172.60341 141.04286 172.67543 141.04374 172.77343 141.05444 C 172.87143 141.06514 172.98279 141.07087 173.10726 141.07407 C 173.35621 141.08107 173.65445 141.07687 173.94752 141.06787 C 174.24058 141.05987 174.5277 141.04727 174.75006 141.03687 C 174.97242 141.02637 175.16876 141.01723 175.14848 141.01723 C 177.14454 141.01723 179.08678 140.85414 181.05096 140.70304 C 181.08866 140.70004 181.61482 140.67581 182.09586 140.64051 C 182.33639 140.62291 182.57412 140.60261 182.76352 140.57591 C 182.85822 140.56261 182.9393 140.54804 183.0157 140.52734 C 183.0539 140.51694 183.09074 140.50668 183.13869 140.48238 C 183.18669 140.45808 183.28293 140.42696 183.32628 140.25345 C 183.38098 140.0348 183.35614 139.82189 183.31594 139.58011 C 183.27594 139.33833 183.21068 139.07557 183.14024 138.82201 C 182.99938 138.31489 182.83004 137.80642 182.80435 137.6934 C 182.40353 135.92975 182.07571 134.08785 182.07571 132.30458 C 182.07571 132.05769 181.93029 131.80414 181.72844 131.71082 C 181.62751 131.66417 181.5295 131.6452 181.4344 131.64157 z M 187.98077 132.04672 C 188.3722 132.0434 188.75459 132.0804 189.12902 132.18728 C 189.25094 132.22208 189.3315 132.26619 189.38069 132.30458 C 189.38169 132.30958 189.38282 132.30992 189.38482 132.31492 C 189.40172 132.37422 189.42445 132.46436 189.44735 132.57227 C 189.49315 132.78807 189.54331 133.07505 189.58998 133.35982 C 189.63658 133.6446 189.67939 133.93008 189.70728 134.14685 C 189.71628 134.21475 189.71925 134.25887 189.72485 134.31066 C 189.64965 134.31866 189.56208 134.32581 189.4551 134.32461 C 189.32097 134.32261 189.17929 134.31571 189.06081 134.30911 C 188.94232 134.30211 188.88316 134.29034 188.76574 134.30084 C 188.01504 134.36914 187.20881 134.41626 186.44547 134.51168 C 185.67986 134.60738 184.91097 134.852 184.258 134.89461 C 184.25737 134.89161 184.25694 134.8914 184.25594 134.8884 C 184.22294 134.7322 184.19085 134.50278 184.16395 134.26777 C 184.11015 133.79774 184.07692 133.31046 184.07042 133.22442 C 184.03602 132.77649 183.94083 132.48923 183.90454 132.18934 C 184.76473 132.33342 185.61963 132.31124 186.42583 132.19761 C 186.95941 132.12228 187.47751 132.05098 187.98077 132.04672 z M 181.4065 132.27771 C 181.43196 132.27869 181.4385 132.28062 181.44732 132.28184 C 181.44662 132.28862 181.44526 132.29217 181.44526 132.30458 C 181.44526 134.16444 181.784 136.05013 182.1894 137.83396 C 182.2434 138.07148 182.39894 138.50925 182.53304 138.99203 C 182.60014 139.23342 182.65939 139.47656 182.69324 139.68139 C 182.71454 139.81001 182.70739 139.86669 182.70719 139.94546 C 182.69369 139.94746 182.69017 139.94914 182.67567 139.95114 C 182.5137 139.97394 182.28448 139.99492 182.0509 140.01212 C 181.58375 140.04642 181.12834 140.06495 181.00187 140.07465 C 179.03453 140.22599 177.10974 140.38678 175.14848 140.38678 C 175.06218 140.38678 174.94118 140.39591 174.7206 140.40641 C 174.50002 140.41681 174.21677 140.42922 173.92995 140.43742 C 173.64312 140.44542 173.35328 140.44952 173.12535 140.44362 C 173.05305 140.44162 173.00205 140.4378 172.94552 140.4338 C 172.94852 140.3659 172.95033 140.30884 172.95533 140.21883 C 172.97223 139.92428 172.99908 139.52885 173.02768 139.13104 C 173.08478 138.33542 173.14632 137.56933 173.15274 137.46861 C 173.17184 137.18455 173.14134 136.93804 173.15274 136.73067 C 173.21124 135.67694 173.26559 134.61022 173.24627 133.53138 C 173.44921 133.59828 173.62669 133.68445 173.90463 133.66987 C 174.38123 133.64477 174.72773 133.4123 175.00999 133.34586 C 176.75366 132.93559 178.62499 132.89427 180.46134 132.50767 C 180.71176 132.45497 181.01805 132.32553 181.25819 132.28701 C 181.31822 132.27736 181.36977 132.2763 181.4065 132.27771 z M 175.4265 134.17837 C 175.36955 134.1764 175.30664 134.1815 175.2167 134.22643 C 175.21666 134.22645 175.08184 134.35558 175.08182 134.35562 C 175.0818 134.35566 175.04306 134.49613 175.04306 134.49618 C 175.04306 134.49624 175.04875 134.57618 175.04875 134.57628 C 175.04876 134.57635 175.0626 134.61907 175.0627 134.61917 C 175.06277 134.61935 175.08224 134.66176 175.08234 134.66206 C 175.08248 134.66231 175.08915 134.677 175.09215 134.6817 C 175.10425 134.7006 175.11016 134.70429 175.11386 134.70909 C 175.12086 134.71909 175.12406 134.72337 175.12936 134.73027 C 175.13996 134.74397 175.15252 134.76252 175.16812 134.78712 C 175.19912 134.83632 175.23827 134.90986 175.26217 135.00571 C 175.40471 135.57583 175.53028 136.15934 175.56861 136.73429 C 175.61071 137.36515 175.62675 138.00445 175.78565 138.67577 A 0.31545804 0.31545804 0 0 0 176.30293 138.83958 C 176.63689 138.54275 176.91241 138.23454 177.21709 138.02361 C 177.24589 138.00361 177.31961 137.98064 177.4455 137.96264 C 177.57139 137.94464 177.74436 137.93335 177.92816 137.82828 C 178.22229 137.66021 178.6259 137.44234 179.00406 137.1818 C 179.38221 136.92126 179.74457 136.62272 179.94354 136.22476 C 179.94362 136.2246 179.97103 136.02136 179.97093 136.02115 C 179.97089 136.02095 179.9302 135.91599 179.9301 135.91573 C 179.92994 135.91547 179.89526 135.86952 179.89496 135.86922 C 179.89468 135.86891 179.87769 135.85125 179.87119 135.84545 C 179.84509 135.82205 179.83342 135.81566 179.82262 135.80876 C 179.80082 135.79486 179.78584 135.78664 179.76784 135.77724 C 179.73174 135.75824 179.68682 135.73729 179.6309 135.71109 C 179.51909 135.65859 179.36321 135.58842 179.17408 135.50594 C 178.79581 135.34098 178.28876 135.12891 177.76796 134.92199 C 177.24716 134.71508 176.71346 134.51474 176.27968 134.37474 C 176.06278 134.30474 175.87294 134.24895 175.71124 134.21506 C 175.63044 134.19816 175.55647 134.18567 175.48283 134.18147 L 175.48231 134.18147 C 175.46391 134.18047 175.44548 134.17903 175.4265 134.17837 z M 175.88487 134.91786 C 175.95587 134.93856 176.00441 134.9484 176.08589 134.9747 C 176.49566 135.10695 177.02212 135.30407 177.53542 135.508 C 178.04871 135.71194 178.55064 135.9223 178.9219 136.0842 C 179.0124 136.1237 179.06392 136.14917 179.13687 136.18187 C 178.99506 136.34374 178.87331 136.50564 178.64646 136.66194 C 178.30733 136.89559 177.9212 137.1045 177.615 137.27947 C 177.5776 137.30087 177.48946 137.32083 177.35558 137.33993 C 177.2217 137.35903 177.03806 137.37868 176.85742 137.50375 C 176.64989 137.64742 176.50349 137.80519 176.33601 137.9647 C 176.28121 137.54929 176.22732 137.14048 176.19751 136.69346 C 176.15651 136.07929 176.02466 135.48282 175.88487 134.91786 z M 188.40555 136.38805 C 188.33004 136.38686 188.28738 136.39839 188.26965 136.39839 C 186.80888 136.39839 185.5114 136.92868 184.2518 136.6175 A 0.31545804 0.31545804 0 0 0 183.8632 136.9689 C 183.9465 137.55212 183.98281 137.6744 184.0761 138.14092 C 184.0922 138.22132 184.0973 138.4495 184.0823 138.71298 C 184.0671 138.97647 184.03807 139.28436 184.01357 139.58786 C 183.98907 139.89136 183.96885 140.18947 183.97275 140.44362 C 183.97475 140.5707 183.98266 140.6866 184.00376 140.79709 C 184.02486 140.90759 184.0473 141.02155 184.1624 141.1366 C 184.34195 141.31615 184.52921 141.31502 184.71689 141.32212 C 184.90457 141.32912 185.10807 141.31173 185.30859 141.28543 C 185.70963 141.23283 186.10996 141.14202 186.23256 141.11748 C 187.22358 140.91927 188.38347 140.95026 189.45149 140.46481 C 189.55215 140.41911 189.61871 140.33135 189.65044 140.25965 C 189.68214 140.18795 189.6913 140.12658 189.6954 140.06845 C 189.7034 139.95218 189.68931 139.84104 189.66801 139.7186 C 189.62471 139.47371 189.54256 139.18618 189.44942 138.88868 C 189.35632 138.59118 189.25174 138.28848 189.16623 138.03343 C 189.08073 137.77839 189.01265 137.55646 188.99983 137.49238 C 188.97683 137.37714 188.98245 137.36142 188.97865 137.37094 C 188.99545 137.33974 189.02162 137.31009 189.02722 137.28309 C 189.05002 137.17458 189.0294 137.13194 189.0174 137.0862 C 188.9938 136.9947 188.95437 136.89504 188.87684 136.70121 C 188.81452 136.54539 188.62339 136.41157 188.49237 136.39477 L 188.49185 136.39477 C 188.45933 136.3907 188.43058 136.38845 188.40555 136.38805 z M 188.32597 137.02522 C 188.35087 137.09092 188.37155 137.14442 188.38075 137.17199 C 188.37575 137.18689 188.35596 137.20178 188.35336 137.21488 C 188.32536 137.35137 188.34645 137.44174 188.38075 137.61537 C 188.41245 137.77375 188.48181 137.97436 188.56833 138.23239 C 188.65483 138.49043 188.75617 138.78983 188.84584 139.07626 C 188.93554 139.36269 189.01328 139.6401 189.04686 139.83022 C 189.05486 139.87342 189.05213 139.88607 189.05513 139.91807 C 188.18319 140.27255 187.14835 140.29012 186.10957 140.49788 C 185.9569 140.52848 185.58817 140.61277 185.22694 140.66014 C 185.04633 140.68384 184.86756 140.69595 184.74066 140.69115 C 184.68745 140.68905 184.64904 140.67904 184.62284 140.67151 C 184.61327 140.61933 184.60527 140.53613 184.60372 140.4338 C 184.60072 140.22278 184.61889 139.93647 184.64299 139.6385 C 184.66699 139.34054 184.69717 139.0288 184.71327 138.74812 C 184.72937 138.46744 184.7383 138.22819 184.6957 138.01534 C 184.6305 137.6895 184.59666 137.4798 184.55514 137.23813 C 185.87763 137.40829 187.11312 137.02936 188.26965 137.02936 C 188.31077 137.02936 188.30204 137.02626 188.32597 137.02522 z M 188.87116 137.49238 C 188.87016 137.49338 188.87058 137.495 188.86909 137.496 C 188.80719 137.542 188.75957 137.5483 188.8045 137.5332 C 188.8167 137.5292 188.84706 137.50568 188.87116 137.49238 z M 180.88818 141.86266 C 180.82221 141.86436 180.75852 141.87009 180.6975 141.87712 C 180.4534 141.90522 180.23426 141.95691 180.07015 141.96291 C 178.06872 142.03701 176.07157 142.16816 174.08033 142.2771 A 0.3154265 0.3154265 0 0 0 173.78319 142.60938 A 0.3154265 0.3154265 0 0 0 174.11547 142.90807 C 176.11151 142.79887 178.10471 142.66547 180.09392 142.59181 C 180.34945 142.58281 180.57848 142.52596 180.76933 142.50396 C 180.95154 142.48296 181.07727 142.49426 181.16672 142.5422 C 181.16876 142.54504 181.17299 142.54996 181.18171 142.56649 C 181.20201 142.60519 181.22927 142.67756 181.28919 142.76751 A 0.3154265 0.3154265 0 0 0 181.72638 142.85536 A 0.3154265 0.3154265 0 0 0 181.81474 142.41818 C 181.80474 142.40318 181.78043 142.34981 181.74033 142.27348 C 181.70023 142.19718 181.63548 142.08664 181.50417 142.00787 C 181.30167 141.88637 181.0861 141.85754 180.88818 141.86266 z " />
  </g>
</svg>
