<?xml version="1.0" encoding="UTF-8" standalone="no"?>
<!-- Created with Inkscape (http://www.inkscape.org/) -->

<svg
   width="10.999955mm"
   height="14.703726mm"
   viewBox="0 0 10.999955 14.703726"
   version="1.1"
   id="svg1"
   inkscape:version="1.3 (0e150ed6c4, 2023-07-21)"
   sodipodi:docname="formulario.svg"
   xmlns:inkscape="http://www.inkscape.org/namespaces/inkscape"
   xmlns:sodipodi="http://sodipodi.sourceforge.net/DTD/sodipodi-0.dtd"
   xmlns="http://www.w3.org/2000/svg"
   xmlns:svg="http://www.w3.org/2000/svg">
  <sodipodi:namedview
     id="namedview1"
     pagecolor="#ffffff"
     bordercolor="#000000"
     borderopacity="0.25"
     inkscape:showpageshadow="2"
     inkscape:pageopacity="0.0"
     inkscape:pagecheckerboard="0"
     inkscape:deskcolor="#d1d1d1"
     inkscape:document-units="mm"
     inkscape:zoom="0.73049944"
     inkscape:cx="20.533897"
     inkscape:cy="80.76666"
     inkscape:window-width="1920"
     inkscape:window-height="1009"
     inkscape:window-x="-8"
     inkscape:window-y="-8"
     inkscape:window-maximized="1"
     inkscape:current-layer="layer1" />
  <defs
     id="defs1" />
  <g
     inkscape:label="Camada 1"
     inkscape:groupmode="layer"
     id="layer1"
     transform="translate(-99.4833,-127.26458)">
    <path
       style="fill:#50a4f4;fill-opacity:1;stroke-width:0.108586"
       d="m 100.5096,141.92898 c -0.5076,-0.12359 -0.927,-0.565 -1.0263,-1.07261 0,-0.21298 0,-9.96343 0,-10.17674 0.1104,-0.52638 0.5628,-0.98765 1.0925,-1.08807 0.1103,-0.011 0.4083,-0.0331 0.7062,-0.0331 h 0.5518 l 0.1103,-0.15008 c 0.1104,-0.21629 0.4083,-0.51755 0.629,-0.62459 0.2318,-0.11035 0.4194,-0.14456 0.7725,-0.14456 h 0.2759 v -0.18649 c 0.1103,-0.36747 0.2759,-0.71067 0.5628,-0.91592 0.5738,-0.40941 1.2679,-0.35313 1.7634,0.14235 0.2097,0.21519 0.3421,0.46569 0.3862,0.76032 v 0.20084 h 0.2759 c 0.3642,0 0.5407,0.0331 0.7945,0.15781 0.2428,0.11807 0.4856,0.36747 0.607,0.60803 l 0.1103,0.15339 h 0.5518 c 0.618,0 0.7835,0.0221 1.0373,0.14346 0.2207,0.0993 0.5076,0.38292 0.618,0.5959 0.1655,0.33216 0.1544,0.0662 0.1544,5.4656 0,5.38262 0,5.13455 -0.1544,5.45678 0,0.0772 -0.1435,0.2196 -0.2318,0.3156 -0.1876,0.19753 -0.4745,0.35754 -0.7283,0.40499 -0.1104,0.0221 -1.6939,0.0331 -4.4251,0.0221 -3.5379,-9.9e-4 -4.2971,-0.009 -4.4339,-0.0441 z m 8.8447,-0.94792 c 0,-0.0331 0.1103,-0.0993 0.1434,-0.13904 l 0.1104,-0.0773 v -4.99484 -4.99484 l -0.1104,-0.0773 c -0.1434,-0.18981 -0.1655,-0.19643 -0.7614,-0.20636 l -0.5407,-0.009 v 0.3134 c 0,0.28802 0,0.32112 -0.1104,0.41382 -0.1545,0.20856 0,0.19532 -3.1263,0.19532 -3.1715,0 -2.9662,0.011 -3.1262,-0.19532 -0.1104,-0.0883 -0.1104,-0.1258 -0.1104,-0.41382 v -0.3134 l -0.5407,0.009 c -0.5959,0.0103 -0.618,0.011 -0.7614,0.20636 -0.1104,0.0773 -0.1104,0.0773 -0.1104,4.99727 0,2.70483 0,4.95953 0,5.01041 0,0.11476 0.1435,0.26153 0.2538,0.31229 0.1104,0.0331 0.8497,0.0331 4.36,0.0331 4.264,-0.007 4.2706,-0.007 4.3501,-0.0662 z m -7.7887,-1.3507 c -0.1324,-0.0662 -0.2096,-0.1567 -0.2427,-0.26926 0,-0.0662 0,-0.32664 0,-0.66763 0,-0.61907 0,-0.64003 0.2096,-0.78349 0.1104,-0.0552 0.1214,-0.0552 0.6621,-0.0662 0.6621,-0.0103 0.7284,0.003 0.8718,0.18318 l 0.1104,0.11035 v 0.62239 0.62238 l -0.1104,0.0993 c -0.1324,0.17877 -0.2097,0.19533 -0.8276,0.19533 -0.4525,-1.1e-4 -0.5738,-0.009 -0.6401,-0.0441 z m 2.7489,-0.46237 c 0,-0.0221 -0.1324,-0.0883 -0.1766,-0.14787 -0.1103,-0.0773 -0.1103,-0.13132 -0.1103,-0.26595 0,-0.17877 0,-0.27147 0.1986,-0.38292 0.1104,-0.0552 0.1104,-0.0552 2.047,-0.0662 2.1938,-0.009 2.089,-0.0221 2.2457,0.1887 0.1103,0.14456 0.1103,0.38292 0,0.52748 -0.1545,0.20415 -0.1104,0.19642 -2.2104,0.19532 -1.7325,-5.5e-4 -1.9455,-0.005 -2.0304,-0.0441 z m -2.7489,-2.29521 c -0.1324,-0.0662 -0.2096,-0.1567 -0.2427,-0.26925 0,-0.0662 0,-0.32665 0,-0.66763 0,-0.61907 0,-0.64004 0.2096,-0.7835 0.1104,-0.0552 0.1214,-0.0552 0.6621,-0.0662 0.6621,-0.0103 0.7284,0.003 0.8718,0.18318 l 0.1104,0.11036 v 0.62238 0.62238 l -0.1104,0.0993 c -0.1324,0.17877 -0.2097,0.19532 -0.8276,0.19532 -0.4525,-1.1e-4 -0.5738,-0.009 -0.6401,-0.0441 z m 2.7489,-0.46237 c 0,-0.0221 -0.1324,-0.0883 -0.1766,-0.14787 -0.1103,-0.0772 -0.1103,-0.13132 -0.1103,-0.26595 0,-0.17877 0,-0.27146 0.1986,-0.38292 0.1104,-0.0552 0.1104,-0.0552 2.047,-0.0662 2.1938,-0.009 2.089,-0.0221 2.2457,0.1887 0.1103,0.14456 0.1103,0.38292 0,0.52748 -0.1545,0.20415 -0.1104,0.19533 -2.2104,0.19533 -1.7325,-5.6e-4 -1.9455,-0.005 -2.0304,-0.0442 z m -2.7489,-2.29531 c -0.1324,-0.0662 -0.2096,-0.1567 -0.2427,-0.26926 0,-0.0662 0,-0.32664 0,-0.66763 0,-0.61907 0,-0.64004 0.2096,-0.78349 0.1104,-0.0552 0.1214,-0.0552 0.6621,-0.0662 0.6621,-0.0104 0.7284,0.003 0.8718,0.18319 l 0.1104,0.11035 v 0.62238 0.62239 l -0.1104,0.0993 c -0.1324,0.17877 -0.2097,0.19532 -0.8276,0.19532 -0.4525,-1.1e-4 -0.5738,-0.009 -0.6401,-0.0441 z m 2.7489,-0.46238 c 0,-0.0221 -0.1324,-0.0883 -0.1766,-0.14787 -0.1103,-0.0772 -0.1103,-0.13132 -0.1103,-0.26594 0,-0.17877 0,-0.27147 0.1986,-0.38292 0.1104,-0.0552 0.1104,-0.0552 2.047,-0.0662 2.1938,-0.009 2.089,-0.0221 2.2457,0.18871 0.1103,0.14456 0.1103,0.38292 0,0.52748 -0.1545,0.20415 -0.1104,0.19642 -2.2104,0.19532 -1.7325,-5.5e-4 -1.9455,-0.005 -2.0304,-0.0441 z m 2.9486,-3.48346 c 0,-0.33878 0,-0.40279 -0.2097,-0.5319 -0.1103,-0.0552 -0.1324,-0.0552 -0.7062,-0.0772 -0.629,-0.011 -0.629,-0.011 -0.7284,-0.0883 -0.1655,-0.12249 -0.1986,-0.22842 -0.1986,-0.5959 0,-0.36747 0,-0.47561 -0.1765,-0.58486 -0.1876,-0.14235 -0.3863,-0.13684 -0.5628,0.011 -0.1545,0.13242 -0.1766,0.23063 -0.1766,0.58265 0,0.35202 0,0.46017 -0.1986,0.58156 -0.1104,0.0772 -0.1104,0.0772 -0.7284,0.0883 -0.5738,0.011 -0.629,0.0221 -0.7062,0.0772 -0.1766,0.12801 -0.1986,0.19201 -0.2097,0.5319 v 0.3145 h 2.3042 2.303 z"
       id="path304" />
  </g>
</svg>
