<?xml version="1.0" encoding="UTF-8" standalone="no"?>
<!-- Created with Inkscape (http://www.inkscape.org/) -->

<svg
   width="19.2484mm"
   height="15.17404mm"
   viewBox="0 0 19.2484 15.17404"
   version="1.1"
   id="svg1"
   inkscape:version="1.3 (0e150ed6c4, 2023-07-21)"
   sodipodi:docname="LogoJPeMANYazul.svg"
   xmlns:inkscape="http://www.inkscape.org/namespaces/inkscape"
   xmlns:sodipodi="http://sodipodi.sourceforge.net/DTD/sodipodi-0.dtd"
   xmlns="http://www.w3.org/2000/svg"
   xmlns:svg="http://www.w3.org/2000/svg">
  <sodipodi:namedview
     id="namedview1"
     pagecolor="#ffffff"
     bordercolor="#000000"
     borderopacity="0.25"
     inkscape:showpageshadow="2"
     inkscape:pageopacity="0.0"
     inkscape:pagecheckerboard="0"
     inkscape:deskcolor="#d1d1d1"
     inkscape:document-units="mm"
     inkscape:zoom="2.9219978"
     inkscape:cx="28.405224"
     inkscape:cy="51.334742"
     inkscape:window-width="1920"
     inkscape:window-height="1009"
     inkscape:window-x="-8"
     inkscape:window-y="-8"
     inkscape:window-maximized="1"
     inkscape:current-layer="layer1" />
  <defs
     id="defs1" />
  <g
     inkscape:label="Camada 1"
     inkscape:groupmode="layer"
     id="layer1"
     transform="translate(-102.6583,-115.62292)">
    <path
       style="fill:#50a4f4;fill-opacity:1;stroke-width:0.142094"
       d="m 104.7919,130.7771 c -0.159,-0.0242 -0.3162,-0.20585 -0.3452,-0.39926 -0.03,-0.20337 0.033,-1.26624 0.1129,-1.90478 0.077,-0.61724 0.1619,-1.11109 0.4104,-2.40613 0.1129,-0.58932 0.2459,-1.30411 0.2953,-1.58842 l 0.09,-0.51694 h -0.086 c -0.1926,0 -1.4926,-0.11576 -1.89,-0.16822 -0.5643,-0.0746 -0.721,-0.18066 -0.721,-0.48833 0,-0.10476 0.091,-0.28934 0.4077,-0.82018 0.2245,-0.37677 0.6241,-1.04877 0.8883,-1.49333 0.594,-0.99992 1.3681,-2.16728 1.8313,-2.76191 0.4253,-0.54604 1.2126,-1.36577 1.6472,-1.71504 0.4005,-0.32175 0.9987,-0.6806 1.3069,-0.78384 0.566,-0.18956 1.1492,-0.12977 1.7975,0.18451 0.9389,0.45513 1.7989,1.30139 3.2141,3.16311 l 0.5712,0.75136 0.2987,-0.48117 c 0.1645,-0.26466 0.3328,-0.54661 0.3742,-0.62657 0.046,-0.0882 0.1187,-0.16168 0.1853,-0.18679 0.089,-0.0336 0.1043,-0.0559 0.081,-0.11776 -0.016,-0.042 -0.029,-0.16944 -0.027,-0.28315 0,-0.31415 0.1462,-0.58854 0.4976,-0.93811 0.4975,-0.49489 1.0617,-0.70757 1.7717,-0.66788 0.6145,0.0343 1.0355,0.18907 2.2416,0.82392 0.9429,0.49627 1.2867,0.7252 1.6818,1.11944 0.3777,0.37716 0.478,0.56019 0.4793,0.87468 0,0.44998 -0.2145,0.80224 -0.9672,1.57586 -0.4675,0.48072 -0.5358,0.56661 -0.5358,0.67371 0,0.26466 -1.2855,2.99157 -1.9865,4.21345 -0.8941,1.5594 -2.0498,3.12869 -2.6979,3.66393 -0.7464,0.61661 -1.5621,0.90363 -3.1349,1.10334 -0.6084,0.0772 -0.6214,0.0775 -0.7143,0.007 -0.077,-0.0576 -0.094,-0.10319 -0.094,-0.24138 0,-0.16788 0,-0.17007 -0.1128,-0.15353 -0.2103,0.0313 -0.3331,-0.0898 -0.4669,-0.46012 -0.3021,-0.83477 -0.392,-1.33798 -0.3925,-2.19601 0,-0.74432 0.054,-1.13388 0.263,-1.85889 0.3445,-1.20082 0.9055,-2.28317 2.2197,-4.28217 l 0.5399,-0.82129 -0.4203,-0.53216 c -0.904,-1.14482 -1.2401,-1.53384 -1.8743,-2.16913 -1.1384,-1.14054 -1.7649,-1.51282 -2.3417,-1.39161 -0.8076,0.16976 -2.4837,2.04105 -4.2445,4.73918 -0.5098,0.78107 -1.0337,1.61568 -1.0643,1.69588 -0.019,0.0479 0.05,0.0647 0.421,0.10233 0.2437,0.0247 0.7139,0.0627 1.0447,0.0843 0.8192,0.0534 0.9478,0.13362 0.9006,0.56113 -0.033,0.29726 -0.2185,1.38235 -0.4118,2.40613 -0.3026,1.60225 -0.4222,2.445 -0.4912,3.46338 l -0.024,0.36174 1.7428,0.0204 c 0.9587,0.0114 1.9545,0.0386 2.2129,0.0609 1.0028,0.086 1.6003,0.16231 1.6825,0.21457 0.1479,0.094 0.1029,0.29119 -0.079,0.34997 -0.1827,0.0589 -1.6694,0.18547 -2.6755,0.22771 -0.8636,0.0363 -3.1961,0.044 -3.4113,0.0114 z m 7.7399,-0.88667 c 0.014,-0.0114 -0.5003,-0.39585 -0.6457,-0.48563 -0.03,-0.0189 -0.026,0.0575 0.016,0.25521 0.046,0.21746 0.049,0.29812 0.016,0.35173 -0.04,0.0647 -0.022,0.0634 0.2789,-0.0192 0.1774,-0.0489 0.3286,-0.0948 0.3359,-0.10219 z m 0.7597,-0.26969 c -0.029,-0.0253 -0.3912,-0.27609 -0.808,-0.55728 l -0.7574,-0.51129 0.017,0.15782 c 0.034,0.31718 0.024,0.3051 0.5859,0.64036 0.2947,0.17573 0.5685,0.34419 0.6087,0.37433 0.064,0.048 0.093,0.0479 0.2383,-0.001 0.1344,-0.0457 0.156,-0.065 0.1158,-0.10232 z m 1.4286,-0.58205 c 0.4116,-0.2836 0.6864,-0.53284 0.6642,-0.6026 -0.014,-0.033 0.014,-0.11977 0.049,-0.19302 l 0.067,-0.13305 -0.2904,-0.061 c -0.2389,-0.0502 -0.3315,-0.0535 -0.5198,-0.0184 -0.2097,0.039 -0.238,0.0362 -0.3314,-0.0337 -0.057,-0.0426 -0.1316,-0.15757 -0.1675,-0.26055 -0.037,-0.10346 -0.1229,-0.23785 -0.1972,-0.30644 -0.1116,-0.10276 -0.1607,-0.12205 -0.3112,-0.12134 -0.099,5.3e-4 -0.253,0.0343 -0.343,0.0752 -0.3697,0.16774 -0.4779,0.0828 -0.6236,-0.48956 -0.1058,-0.4163 -0.4113,-0.72499 -0.7973,-0.80645 -0.1144,-0.024 -0.1202,-0.0196 -0.1415,0.11819 -0.054,0.33888 -0.096,0.88748 -0.096,1.27619 v 0.4187 l 0.2539,0.017 c 0.3185,0.0213 0.5335,0.10519 1.1922,0.4651 0.5797,0.31666 1.0058,0.59343 1.1453,0.74391 0.05,0.054 0.11,0.0983 0.1343,0.0983 0.024,0 0.1648,-0.0839 0.3136,-0.18629 z m 1.7798,-2.02325 c 0.6517,-1.04369 2.2411,-3.92744 2.1767,-3.94893 -0.021,-0.007 -0.1938,-0.0883 -0.3831,-0.18051 -0.1893,-0.0922 -0.3473,-0.16274 -0.3513,-0.15691 0,0.006 -0.029,0.0867 -0.056,0.1798 -0.1173,0.40735 -0.4163,0.881 -1.0876,1.72154 -0.4961,0.62095 -1.1531,1.45603 -1.5893,2.01922 -0.1601,0.20678 -0.3421,0.40616 -0.4047,0.44306 -0.099,0.0579 -0.1087,0.0786 -0.076,0.15039 0.034,0.0753 0.066,0.0835 0.3275,0.0849 0.3544,10e-4 0.6239,0.0877 0.8207,0.26143 l 0.1454,0.12833 0.077,-0.093 c 0.043,-0.0512 0.2222,-0.32533 0.3996,-0.60922 z m -2.0025,-0.24358 c 0.019,-0.0466 0.3805,-0.57068 0.8062,-1.16477 1.202,-1.67827 1.5486,-2.213 1.771,-2.73257 0.073,-0.17158 0.1667,-0.35869 0.2072,-0.41579 l 0.074,-0.1039 -0.318,-0.21175 c -0.1751,-0.11647 -0.3265,-0.21177 -0.3365,-0.21177 -0.014,0 -0.047,0.055 -0.082,0.12219 -0.034,0.0672 -0.184,0.24907 -0.3322,0.40416 -0.5924,0.62004 -1.8313,2.07706 -2.3478,2.76118 -0.15,0.19845 -0.3651,0.51133 -0.4782,0.69529 -0.1129,0.18394 -0.2294,0.35412 -0.2584,0.37816 -0.044,0.037 -0.04,0.0686 0.027,0.20768 0.074,0.15354 0.087,0.16232 0.1956,0.13805 0.064,-0.0143 0.2359,-0.0257 0.3826,-0.0254 0.235,4.5e-4 0.2892,0.0147 0.4513,0.1189 0.1015,0.065 0.1887,0.1199 0.1945,0.12162 0,0.001 0.024,-0.0349 0.043,-0.0813 z m -1.507,-1.19354 c 0.149,-0.32072 0.4433,-0.73082 1.2405,-1.72954 1.0927,-1.36891 1.7564,-2.15865 1.8612,-2.21481 0.093,-0.0496 0.09,-0.0525 -0.2885,-0.33351 -0.21,-0.15595 -0.5072,-0.40842 -0.6604,-0.56105 -0.1533,-0.15263 -0.2898,-0.26409 -0.3038,-0.24768 -0.014,0.0164 -0.3048,0.41895 -0.6465,0.89453 -1.0633,1.47974 -1.5245,2.21636 -1.8713,2.98868 -0.1832,0.4081 -0.4266,1.11243 -0.406,1.17456 0.014,0.023 0.1229,0.0639 0.2545,0.0909 0.1415,0.0287 0.327,0.1029 0.4492,0.17915 0.2073,0.12948 0.2085,0.12977 0.2416,0.0477 0.019,-0.0453 0.077,-0.17529 0.1301,-0.28896 z m 6.1332,-3.21968 c 0,-0.0234 -0.1129,-0.11119 -0.2525,-0.19488 -0.1401,-0.0837 -0.5583,-0.36373 -0.9305,-0.62231 -0.5851,-0.40643 -2.5987,-1.67781 -2.6574,-1.67781 -0.014,0 -0.063,0.065 -0.1159,0.1444 l -0.096,0.14442 0.3631,0.28319 c 0.8127,0.6338 1.6026,1.11223 2.5937,1.57115 0.3501,0.16212 0.7181,0.34549 0.8176,0.4075 0.166,0.10333 0.1852,0.10747 0.2289,0.0499 0.026,-0.0346 0.049,-0.082 0.049,-0.10547 z m 0.4383,-0.69815 0.1171,-0.19334 -0.5872,-0.38098 c -0.3232,-0.20952 -0.7652,-0.50005 -0.9823,-0.64559 -0.6368,-0.42689 -1.2781,-0.81967 -1.8287,-1.12023 l -0.5143,-0.28073 -0.1468,0.25102 c -0.1749,0.29954 -0.2276,0.23674 0.5348,0.637 1.6239,0.85239 2.7207,1.49083 3.077,1.79098 0.09,0.0757 0.1744,0.13705 0.188,0.13648 0.014,-7.2e-4 0.077,-0.0882 0.1414,-0.19453 z m 0.7906,-1.2799 c 0.249,-0.25332 0.5001,-0.54193 0.5575,-0.64137 0.1172,-0.20383 0.1401,-0.41712 0.059,-0.56925 -0.1794,-0.33515 -2.0701,-1.44535 -2.9521,-1.73352 -0.2982,-0.0973 -0.3922,-0.11047 -0.7896,-0.11047 -0.4159,0 -0.466,0.007 -0.6407,0.10004 -0.1991,0.10518 -0.4323,0.33395 -0.5722,0.56157 -0.097,0.15823 -0.2832,0.63692 -0.2574,0.66276 0.014,0.01 0.2515,0.11804 0.5371,0.24055 1.1366,0.48748 2.6384,1.29311 3.345,1.79425 0.1214,0.0859 0.2291,0.15603 0.2405,0.15603 0.014,0 0.2245,-0.20724 0.4739,-0.46055 z"
       id="path1-6-4-4-9" />
  </g>
</svg>
