<?xml version="1.0" encoding="UTF-8" standalone="no"?>
<!-- Created with Inkscape (http://www.inkscape.org/) -->

<svg
   width="10.99965mm"
   height="11.007943mm"
   viewBox="0 0 10.99965 11.007943"
   version="1.1"
   id="svg1"
   inkscape:version="1.3 (0e150ed6c4, 2023-07-21)"
   sodipodi:docname="whatsapp.svg"
   xmlns:inkscape="http://www.inkscape.org/namespaces/inkscape"
   xmlns:sodipodi="http://sodipodi.sourceforge.net/DTD/sodipodi-0.dtd"
   xmlns="http://www.w3.org/2000/svg"
   xmlns:svg="http://www.w3.org/2000/svg">
  <sodipodi:namedview
     id="namedview1"
     pagecolor="#ffffff"
     bordercolor="#000000"
     borderopacity="0.25"
     inkscape:showpageshadow="2"
     inkscape:pageopacity="0.0"
     inkscape:pagecheckerboard="0"
     inkscape:deskcolor="#d1d1d1"
     inkscape:document-units="mm"
     inkscape:zoom="0.73049944"
     inkscape:cx="-64.339543"
     inkscape:cy="-28.747455"
     inkscape:window-width="1920"
     inkscape:window-height="1009"
     inkscape:window-x="-8"
     inkscape:window-y="-8"
     inkscape:window-maximized="1"
     inkscape:current-layer="layer1" />
  <defs
     id="defs1" />
  <g
     inkscape:label="Camada 1"
     inkscape:groupmode="layer"
     id="layer1"
     transform="translate(-122.2375,-156.10415)">
    <path
       style="fill:#50a4f4;fill-opacity:1;stroke-width:0.0812933"
       d="m 122.2855,167.06227 c -0.025,-0.0274 -0.048,-0.0649 -0.048,-0.0833 0,-0.0185 0.2081,-0.64645 0.4626,-1.39547 0.2542,-0.74902 0.4624,-1.37362 0.4624,-1.38798 0,-0.0143 -0.063,-0.15042 -0.1404,-0.30236 -0.8813,-1.73505 -0.7611,-3.78203 0.3162,-5.38978 0.2786,-0.41587 0.744,-0.92157 1.1253,-1.2236 1.3438,-1.06368 3.1046,-1.43206 4.7618,-0.99631 1.1698,0.30753 2.214,1.00698 2.9369,1.96699 0.5769,0.76607 0.9079,1.57765 1.0486,2.57032 0.035,0.25279 0.035,1.03881 0,1.30128 -0.1547,1.12175 -0.5917,2.07218 -1.3438,2.92163 -0.7429,0.83924 -1.8232,1.45352 -2.9552,1.68041 -1.1259,0.22567 -2.3479,0.0817 -3.3499,-0.39458 -0.1397,-0.0664 -0.2683,-0.12079 -0.286,-0.12079 -0.017,0 -0.6718,0.20325 -1.4541,0.45168 -0.7823,0.24843 -1.4374,0.45168 -1.4561,0.45168 -0.019,0 -0.055,-0.0224 -0.081,-0.0497 z m 6.0979,-1.38154 c 0.9538,-0.12497 1.8155,-0.54859 2.4916,-1.22455 0.6568,-0.65687 1.0465,-1.4216 1.2064,-2.36736 0.049,-0.29192 0.049,-0.92847 9e-4,-1.23584 -0.088,-0.55339 -0.2769,-1.0769 -0.5584,-1.54865 -0.4334,-0.72691 -1.1166,-1.33823 -1.8862,-1.68821 -0.5604,-0.25488 -1.0331,-0.36722 -1.6453,-0.3911 -1.1824,-0.0461 -2.3378,0.40881 -3.1819,1.25274 -1.1465,1.14642 -1.5395,2.79854 -1.0304,4.33252 0.097,0.29467 0.2899,0.68816 0.4671,0.95714 0.081,0.12434 0.142,0.23865 0.142,0.27095 0,0.0308 -0.1019,0.35874 -0.226,0.72892 -0.1241,0.37019 -0.2238,0.67514 -0.2205,0.67766 0,0.002 0.3205,-0.0958 0.705,-0.21863 0.3845,-0.12269 0.7249,-0.22442 0.7567,-0.2259 0.035,-0.001 0.1217,0.0375 0.2203,0.0987 0.3471,0.21641 0.889,0.4335 1.2923,0.51779 0.4744,0.0991 1.0167,0.1227 1.4666,0.0639 z m 0.4802,-1.69032 c -0.239,-0.0502 -0.6993,-0.20202 -0.9769,-0.32243 -0.7434,-0.32225 -1.4418,-0.91525 -2.0489,-1.73956 -0.4209,-0.57153 -0.6047,-0.93302 -0.6743,-1.32594 -0.043,-0.23458 -0.017,-0.62148 0.051,-0.83571 0.097,-0.30499 0.288,-0.56466 0.4871,-0.66585 0.1283,-0.0653 0.4625,-0.14177 0.6318,-0.14466 0.1591,-0.002 0.2443,0.0378 0.3251,0.15435 0.028,0.0418 0.1566,0.32271 0.2834,0.62421 0.1739,0.4133 0.231,0.57198 0.2319,0.64495 0,0.13361 -0.083,0.29443 -0.2671,0.51019 -0.084,0.0972 -0.1512,0.18636 -0.1512,0.19803 0,0.0489 0.3392,0.46625 0.5488,0.67513 0.3687,0.36712 0.7726,0.65687 1.0888,0.78094 l 0.1524,0.0598 0.062,-0.0743 c 0.034,-0.0408 0.1451,-0.17729 0.2455,-0.30322 0.2066,-0.25918 0.2835,-0.31125 0.4263,-0.2885 0.1065,0.0169 0.4989,0.18976 0.9653,0.42485 0.415,0.20894 0.4139,0.20745 0.3967,0.52146 -0.02,0.38775 -0.1271,0.61035 -0.3932,0.8239 -0.1604,0.12877 -0.3948,0.25264 -0.5586,0.29528 -0.1801,0.0469 -0.5704,0.0407 -0.8267,-0.0129 z"
       id="path302" />
  </g>
</svg>
