<?xml version="1.0" encoding="UTF-8" standalone="no"?>
<!-- Created with Inkscape (http://www.inkscape.org/) -->

<svg
   width="14.889553mm"
   height="14.886751mm"
   viewBox="0 0 14.889553 14.886751"
   version="1.1"
   id="svg1"
   inkscape:version="1.4 (86a8ad7, 2024-10-11)"
   sodipodi:docname="logo.svg"
   xmlns:inkscape="http://www.inkscape.org/namespaces/inkscape"
   xmlns:sodipodi="http://sodipodi.sourceforge.net/DTD/sodipodi-0.dtd"
   xmlns="http://www.w3.org/2000/svg"
   xmlns:svg="http://www.w3.org/2000/svg">
  <sodipodi:namedview
     id="namedview1"
     pagecolor="#ffffff"
     bordercolor="#000000"
     borderopacity="0.25"
     inkscape:showpageshadow="2"
     inkscape:pageopacity="0.0"
     inkscape:pagecheckerboard="0"
     inkscape:deskcolor="#d1d1d1"
     inkscape:document-units="mm"
     inkscape:zoom="2.9540685"
     inkscape:cx="18.787649"
     inkscape:cy="32.159038"
     inkscape:window-width="1141"
     inkscape:window-height="1000"
     inkscape:window-x="770"
     inkscape:window-y="0"
     inkscape:window-maximized="0"
     inkscape:current-layer="layer1" />
  <defs
     id="defs1" />
  <g
     inkscape:label="Camada 1"
     inkscape:groupmode="layer"
     id="layer1"
     transform="translate(-187.8542,-158.75)">
    <path
       style="fill:#448fae;fill-opacity:1;stroke:#448fae;stroke-width:0.109392;stroke-opacity:1"
       d="m 193.74065,170.96441 c -1.49,-2.52145 -1.5494,-2.61694 -1.6499,-2.64712 -0.175,-0.0525 -0.5365,-0.31078 -0.7348,-0.52503 -0.233,-0.25171 -0.4055,-0.57607 -0.487,-0.9159 -0.05,-0.20924 -0.06,-0.31457 -0.048,-0.57148 l 0.014,-0.31497 -0.6709,-1.18105 -0.6708,-1.18106 -0.1773,-0.1184 c -0.7759,-0.51811 -1.0353,-1.5043 -0.6152,-2.33922 0.2196,-0.4367 0.505,-0.66883 1.3527,-1.10039 0.5747,-0.29259 0.9494,-0.45197 1.5351,-0.6532 0.8048,-0.27646 1.7234,-0.47843 2.6105,-0.57395 0.5063,-0.0545 1.8341,-0.0453 2.3443,0.0167 1.3988,0.16922 2.6562,0.53825 3.8351,1.12559 0.6693,0.33348 0.9922,0.53445 1.2061,0.75072 0.5585,0.56461 0.6739,1.46444 0.2773,2.16218 -0.1178,0.20732 -0.4144,0.51726 -0.5979,0.62518 l -0.1476,0.0868 -2.8993,4.98549 c -1.5948,2.74204 -2.907,4.98539 -2.9162,4.98525 -0.01,-1.1e-4 -0.7119,-1.17736 -1.5619,-2.61606 z m 2.0357,0.092 c 0.2478,-0.42529 0.4503,-0.77818 0.4503,-0.78419 0,-0.006 -0.079,-0.0745 -0.176,-0.15212 -0.4484,-0.35958 -0.7502,-0.99933 -0.7502,-1.58998 0,-0.29458 0.076,-0.60786 0.2215,-0.90878 0.1105,-0.22912 0.1708,-0.31128 0.3818,-0.52098 0.1377,-0.13692 0.3244,-0.29221 0.4145,-0.34508 0.5044,-0.29568 1.1579,-0.3588 1.7075,-0.16493 0.1168,0.0412 0.2309,0.0778 0.2532,0.0812 0.027,0.004 0.3447,-0.51552 0.8751,-1.42646 0.4588,-0.78799 0.8344,-1.44041 0.8348,-1.44982 0,-0.009 -0.07,-0.0328 -0.1548,-0.0519 -0.1208,-0.0269 -0.4015,-0.14706 -0.5986,-0.25605 -0.01,-0.005 -0.032,0.0691 -0.052,0.16422 -0.019,0.0951 -0.096,0.29394 -0.1703,0.44183 -0.1093,0.21842 -0.181,0.31549 -0.3826,0.51731 -0.2055,0.2056 -0.2956,0.27186 -0.5231,0.38415 -0.3197,0.15782 -0.5822,0.22024 -0.9262,0.22024 -0.3433,0 -0.6061,-0.0624 -0.924,-0.2192 -0.2221,-0.10965 -0.3162,-0.1783 -0.5068,-0.36968 -0.3981,-0.39964 -0.5877,-0.81989 -0.6152,-1.3638 -0.014,-0.27532 -0.01,-0.34618 0.098,-0.7867 0.014,-0.0615 0.01,-0.0628 -0.2124,-0.0497 -0.9407,0.0554 -1.6963,0.20643 -2.4668,0.49329 -0.3034,0.11298 -0.953,0.4233 -1.3206,0.63082 -0.1273,0.0719 -0.3195,0.15345 -0.427,0.1812 -0.1075,0.0278 -0.1953,0.0605 -0.1953,0.0729 0,0.0199 0.5512,1.0068 0.6551,1.17299 0.041,0.0647 0.041,0.0643 0.2499,-0.11144 0.4144,-0.34908 0.8194,-0.4989 1.3527,-0.50035 0.3822,-9.1e-4 0.5946,0.0462 0.9152,0.20316 1.058,0.51838 1.4582,1.8562 0.8612,2.87907 -0.2376,0.40723 -0.6666,0.75572 -1.1194,0.90944 -0.1386,0.0471 -0.2489,0.0948 -0.2448,0.106 0.037,0.10016 2.0094,3.40002 2.0244,3.38567 0.011,-0.0105 0.2229,-0.36695 0.4705,-0.79223 z m 1.4954,-2.57207 c 0.3166,-0.54449 0.5758,-1.0001 0.5758,-1.01247 0,-0.0602 -0.3023,-0.12043 -0.5464,-0.10876 -0.3168,0.0151 -0.5612,0.12101 -0.7768,0.33658 -0.4621,0.46222 -0.4639,1.18808 -0.01,1.66516 0.077,0.0799 0.1479,0.13716 0.1577,0.12734 0.01,-0.01 0.2772,-0.46336 0.5938,-1.00785 z m -3.9297,-0.98986 c 0.3461,-0.15926 0.5737,-0.42605 0.6712,-0.78668 0.2174,-0.80279 -0.5089,-1.60976 -1.3201,-1.46687 -0.9717,0.17117 -1.3417,1.32435 -0.6477,2.01848 0.2353,0.2351 0.4991,0.33287 0.8673,0.32114 0.2097,-0.007 0.2933,-0.0234 0.4293,-0.086 z m 4.1962,-3.20501 c 0.468,-0.14451 0.8302,-0.62557 0.8302,-1.10205 0,-0.13568 -0.01,-0.14315 -0.1086,-0.18797 -0.4322,-0.18589 -1.349,-0.433 -1.8537,-0.49968 -0.1757,-0.0232 -0.1839,-0.0214 -0.2339,0.0509 -0.1442,0.20857 -0.2092,0.57041 -0.1513,0.8404 0.1491,0.6949 0.8439,1.10635 1.5173,0.89838 z m -6.9494,-1.40203 c 0.068,-0.0232 0.2672,-0.12214 0.4425,-0.21987 1.469,-0.81986 3.1664,-1.21073 4.7825,-1.10112 1.3891,0.0942 2.5773,0.44391 3.7703,1.10972 0.3985,0.2224 0.5312,0.26462 0.7755,0.24701 0.3451,-0.0248 0.6328,-0.22432 0.7843,-0.54352 0.062,-0.13072 0.075,-0.20063 0.075,-0.39088 0,-0.41742 -0.1621,-0.64246 -0.6653,-0.9274 -1.2766,-0.72285 -2.6341,-1.16325 -4.11,-1.33339 -0.5285,-0.0609 -1.6696,-0.0688 -2.1562,-0.0148 -1.5681,0.17383 -2.988,0.62773 -4.2692,1.36462 -0.3176,0.18269 -0.4562,0.31189 -0.5582,0.52029 -0.1106,0.22585 -0.1118,0.5524 0,0.78161 0.1188,0.25064 0.3403,0.4422 0.6047,0.52286 0.1217,0.0372 0.3964,0.0294 0.5271,-0.015 z"
       id="path282-8" />
  </g>
</svg>
