<?xml version="1.0" encoding="UTF-8" standalone="no"?>
<!-- Created with Inkscape (http://www.inkscape.org/) -->

<svg
   width="14.889553mm"
   height="14.886751mm"
   viewBox="0 0 14.889553 14.886751"
   version="1.1"
   id="svg1"
   inkscape:version="1.4 (86a8ad7, 2024-10-11)"
   sodipodi:docname="midiaSocial.svg"
   xmlns:inkscape="http://www.inkscape.org/namespaces/inkscape"
   xmlns:sodipodi="http://sodipodi.sourceforge.net/DTD/sodipodi-0.dtd"
   xmlns="http://www.w3.org/2000/svg"
   xmlns:svg="http://www.w3.org/2000/svg">
  <sodipodi:namedview
     id="namedview1"
     pagecolor="#ffffff"
     bordercolor="#000000"
     borderopacity="0.25"
     inkscape:showpageshadow="2"
     inkscape:pageopacity="0.0"
     inkscape:pagecheckerboard="0"
     inkscape:deskcolor="#d1d1d1"
     inkscape:document-units="mm"
     inkscape:zoom="2.9540685"
     inkscape:cx="18.787649"
     inkscape:cy="32.159038"
     inkscape:window-width="1141"
     inkscape:window-height="1000"
     inkscape:window-x="770"
     inkscape:window-y="0"
     inkscape:window-maximized="0"
     inkscape:current-layer="layer1" />
  <defs
     id="defs1" />
  <g
     inkscape:label="Camada 1"
     inkscape:groupmode="layer"
     id="layer1"
     transform="translate(-187.8542,-158.75)">
    <path
       style="fill:#448fae;fill-opacity:1;stroke-width:0.098681"
       d="m 192.88149,172.85518 c -0.2842,-0.0115 -0.6366,-0.0346 -0.7833,-0.0514 -1.8506,-0.21196 -3.0402,-1.30745 -3.3469,-3.08176 -0.081,-0.46732 -0.096,-0.88906 -0.1101,-2.97971 -0.022,-3.30464 0.023,-4.01071 0.3061,-4.81393 0.1739,-0.49359 0.4196,-0.88683 0.7894,-1.2632 0.5883,-0.59877 1.304,-0.93477 2.261,-1.06152 0.5322,-0.0705 1.7704,-0.097 3.8547,-0.0826 2.4786,0.0172 2.8749,0.0446 3.5379,0.2448 0.5911,0.17854 1.021,0.42993 1.4519,0.84921 0.6247,0.60775 0.9545,1.32816 1.0854,2.37071 0.027,0.21247 0.034,0.93495 0.034,3.21145 0,2.6431 0,2.97032 -0.046,3.26692 -0.1405,1.0219 -0.4754,1.73671 -1.0941,2.33527 -0.6404,0.61943 -1.4177,0.93317 -2.5545,1.03106 -0.401,0.0345 -4.66,0.054 -5.3861,0.0247 z m 4.8232,-1.20171 c 0.6759,-0.0292 1.0218,-0.0734 1.345,-0.17195 0.4233,-0.12916 0.7266,-0.3163 1.021,-0.6303 0.4131,-0.44058 0.6014,-0.93164 0.678,-1.7689 0.043,-0.46963 0.063,-4.1278 0.028,-5.06521 -0.033,-0.87247 -0.074,-1.21237 -0.1908,-1.57899 -0.1363,-0.42645 -0.3016,-0.69748 -0.5998,-0.9829 -0.4629,-0.4432 -1.0072,-0.63146 -1.9861,-0.68685 -1.336,-0.0756 -5.1501,-0.0517 -5.8198,0.0364 -1.2685,0.16699 -2.0013,0.83317 -2.2273,2.02498 -0.086,0.45209 -0.104,1.03797 -0.1041,3.36747 0,2.80008 0.023,3.21681 0.2119,3.79891 0.1341,0.41356 0.2942,0.66452 0.6216,0.97452 0.1831,0.17333 0.2788,0.24021 0.4928,0.3448 0.4454,0.21752 0.8747,0.30356 1.6834,0.33733 0.7036,0.0294 4.1691,0.0299 4.8457,6.9e-4 z m -2.6747,-2.04139 c -0.6062,-0.041 -1.2466,-0.28224 -1.7711,-0.66726 -0.1902,-0.13957 -0.5415,-0.49218 -0.6944,-0.69675 -0.1652,-0.22127 -0.3235,-0.50692 -0.4336,-0.78196 -0.1726,-0.43176 -0.2372,-0.78165 -0.2363,-1.28125 0,-0.94944 0.3579,-1.78511 1.0446,-2.44982 0.5131,-0.49664 1.1152,-0.80138 1.821,-0.9217 0.3713,-0.0633 1.0251,-0.0396 1.3664,0.0495 0.6875,0.17943 1.1991,0.47946 1.6808,0.98565 0.6134,0.6446 0.9299,1.44397 0.9299,2.34877 0,0.96254 -0.352,1.79415 -1.042,2.4622 -0.3903,0.37778 -0.7873,0.62052 -1.29,0.78871 -0.448,0.14991 -0.8587,0.19886 -1.3752,0.16393 z m 0.7404,-1.23478 c 0.4257,-0.0879 0.7909,-0.28622 1.1018,-0.59821 0.4499,-0.45137 0.6628,-0.95609 0.6638,-1.57362 0,-0.46444 -0.1175,-0.85793 -0.3739,-1.24321 -0.4171,-0.62695 -1.0918,-0.98516 -1.8531,-0.98386 -0.593,0.001 -1.0951,0.20434 -1.5392,0.62332 -0.6705,0.6325 -0.868,1.67946 -0.4767,2.52653 0.2892,0.62596 0.8807,1.10373 1.5411,1.24495 0.2405,0.0514 0.6974,0.0534 0.9362,0.004 z m 2.8496,-4.9921 c -0.1953,-0.0664 -0.4316,-0.31183 -0.4943,-0.51333 -0.1564,-0.50295 0.1812,-0.99488 0.7064,-1.02918 0.2686,-0.0175 0.4262,0.0409 0.6125,0.22718 0.1863,0.18631 0.2447,0.34384 0.2271,0.6125 -0.02,0.30155 -0.1694,0.53196 -0.4278,0.65841 -0.1839,0.0899 -0.4369,0.10796 -0.6239,0.0444 z"
       id="path284-9" />
  </g>
</svg>
