<?xml version="1.0" encoding="UTF-8" standalone="no"?>
<!-- Created with Inkscape (http://www.inkscape.org/) -->

<svg
   width="14.889553mm"
   height="14.886751mm"
   viewBox="0 0 14.889553 14.886751"
   version="1.1"
   id="svg1"
   inkscape:version="1.4 (86a8ad7, 2024-10-11)"
   sodipodi:docname="pincel.svg"
   xmlns:inkscape="http://www.inkscape.org/namespaces/inkscape"
   xmlns:sodipodi="http://sodipodi.sourceforge.net/DTD/sodipodi-0.dtd"
   xmlns="http://www.w3.org/2000/svg"
   xmlns:svg="http://www.w3.org/2000/svg">
  <sodipodi:namedview
     id="namedview1"
     pagecolor="#ffffff"
     bordercolor="#000000"
     borderopacity="0.25"
     inkscape:showpageshadow="2"
     inkscape:pageopacity="0.0"
     inkscape:pagecheckerboard="0"
     inkscape:deskcolor="#d1d1d1"
     inkscape:document-units="mm"
     inkscape:zoom="4"
     inkscape:cx="21.875"
     inkscape:cy="42"
     inkscape:window-width="1141"
     inkscape:window-height="1000"
     inkscape:window-x="770"
     inkscape:window-y="0"
     inkscape:window-maximized="0"
     inkscape:current-layer="layer1" />
  <defs
     id="defs1" />
  <g
     inkscape:label="Camada 1"
     inkscape:groupmode="layer"
     id="layer1"
     transform="translate(-187.8542,-158.75)">
    <path
       style="fill:#448fae;fill-opacity:1;stroke:#448fae;stroke-width:0.206497;stroke-dasharray:none;stroke-opacity:1"
       d="m 189.69177,173.49137 c -0.49733,-0.0562 -1.11119,-0.21512 -1.45511,-0.3765 -0.30773,-0.14442 -0.34412,-0.46527 -0.0857,-0.75539 0.26506,-0.29741 0.44111,-0.66969 0.51916,-1.09802 0.0249,-0.13334 0.0638,-0.51147 0.0897,-0.84028 0.0249,-0.32882 0.0638,-0.69971 0.0887,-0.82423 0.20007,-1.05495 0.9218,-1.92094 1.93511,-2.32214 0.40372,-0.15984 0.6011,-0.19564 1.13233,-0.20528 l 0.49574,-0.009 0.27962,-0.38432 c 2.07705,-2.8533 4.26925,-5.31854 5.86582,-6.59677 0.9814,-0.7854 1.86522,-1.20348 2.54448,-1.20348 0.20954,0 0.56432,0.0905 0.75412,0.19246 0.18941,0.10169 0.46933,0.38157 0.571,0.571 0.10079,0.18869 0.1924,0.54453 0.1922,0.75005 0,0.88731 -0.64397,2.04789 -1.97418,3.56415 -0.381,0.43431 -1.64552,1.70867 -2.20256,2.21958 -1.00593,0.92269 -2.21851,1.94948 -3.35095,2.83785 l -0.39096,0.30663 0.016,0.38055 c 0.0249,0.59066 -0.0698,1.08068 -0.30883,1.58921 -0.5414,1.1552 -1.65269,1.89924 -3.23102,2.1631 -0.33026,0.0551 -1.15576,0.0779 -1.48393,0.0409 z m 1.20232,-0.86915 c 1.15217,-0.15337 2.0612,-0.63005 2.51926,-1.32101 0.50262,-0.75813 0.59513,-1.67142 0.23805,-2.35081 -0.35319,-0.67198 -0.95529,-1.0354 -1.7145,-1.03489 -1.02507,7.7e-4 -1.89872,0.6465 -2.18771,1.61703 -0.0797,0.26519 -0.10895,0.47901 -0.14614,1.04309 -0.0568,0.85675 -0.1573,1.30924 -0.38777,1.74327 -0.0658,0.12356 -0.0877,0.19108 -0.0668,0.20419 0.0259,0.0163 0.37521,0.0789 0.68285,0.12276 0.18441,0.0262 0.78861,0.0129 1.06235,-0.0235 z m 4.11643,-4.64254 0.59841,-0.47915 -0.70547,-0.7064 -0.70568,-0.7064 -0.46653,0.62474 c -0.25669,0.34361 -0.46673,0.63103 -0.46673,0.63869 0,0.008 0.0867,0.0699 0.19309,0.13841 0.24363,0.15709 0.64567,0.55701 0.7945,0.79022 0.0628,0.0982 0.12401,0.17864 0.13697,0.17877 0.0139,1.2e-4 0.29228,-0.21535 0.62144,-0.47888 z m 2.21592,-1.86754 c 2.59552,-2.30408 4.19279,-4.21151 4.48108,-5.35184 0.11843,-0.46829 0.0179,-0.7888 -0.30404,-0.96422 -0.13637,-0.0745 -0.52355,-0.0639 -0.77297,0.0209 -0.96765,0.32927 -2.31949,1.45776 -4.04695,3.37832 -0.57588,0.64004 -1.83143,2.14706 -1.83143,2.19796 0,0.0103 0.34322,0.36205 0.7628,0.78187 l 0.763,0.76328 0.24522,-0.21007 c 0.13508,-0.11552 0.45148,-0.39287 0.70319,-0.61631 z"
       id="path289-0" />
  </g>
</svg>
