<?xml version="1.0" encoding="UTF-8" standalone="no"?>
<!-- Created with Inkscape (http://www.inkscape.org/) -->

<svg
   width="14.889553mm"
   height="14.886751mm"
   viewBox="0 0 14.889553 14.886751"
   version="1.1"
   id="svg1"
   inkscape:version="1.4 (86a8ad7, 2024-10-11)"
   sodipodi:docname="ppt.svg"
   xmlns:inkscape="http://www.inkscape.org/namespaces/inkscape"
   xmlns:sodipodi="http://sodipodi.sourceforge.net/DTD/sodipodi-0.dtd"
   xmlns="http://www.w3.org/2000/svg"
   xmlns:svg="http://www.w3.org/2000/svg">
  <sodipodi:namedview
     id="namedview1"
     pagecolor="#ffffff"
     bordercolor="#000000"
     borderopacity="0.25"
     inkscape:showpageshadow="2"
     inkscape:pageopacity="0.0"
     inkscape:pagecheckerboard="0"
     inkscape:deskcolor="#d1d1d1"
     inkscape:document-units="mm"
     inkscape:zoom="2.9540685"
     inkscape:cx="18.787649"
     inkscape:cy="32.159038"
     inkscape:window-width="1141"
     inkscape:window-height="1000"
     inkscape:window-x="770"
     inkscape:window-y="0"
     inkscape:window-maximized="0"
     inkscape:current-layer="layer1" />
  <defs
     id="defs1" />
  <g
     inkscape:label="Camada 1"
     inkscape:groupmode="layer"
     id="layer1"
     transform="translate(-187.8542,-158.75)">
    <path
       style="fill:#448fae;fill-opacity:1;stroke-width:0.146762"
       d="m 193.17168,173.57975 c -0.2624,-0.13405 -0.4214,-0.50506 -0.3241,-0.75658 0.022,-0.0556 0.3021,-0.45266 0.6236,-0.88224 l 0.5846,-0.78105 -2.3191,-0.0108 c -2.3053,-0.0109 -2.3203,-0.0113 -2.5067,-0.0974 -0.2918,-0.13465 -0.4677,-0.29632 -0.6119,-0.5621 l -0.1324,-0.24445 -0.02,-3.98016 -0.02,-3.98016 -0.1998,-0.18586 c -0.1161,-0.10817 -0.2378,-0.27048 -0.2912,-0.38831 -0.088,-0.19463 -0.092,-0.23848 -0.092,-1.13439 v -0.93194 l 0.1046,-0.19833 c 0.1551,-0.2938 0.272,-0.41475 0.5438,-0.56211 l 0.2446,-0.13267 h 6.5431 6.543 l 0.2445,0.13255 c 0.2657,0.1441 0.4274,0.32009 0.562,0.61186 0.082,0.1771 0.087,0.23826 0.087,1.10005 0,0.87552 0,0.92074 -0.092,1.11498 -0.053,0.11783 -0.1751,0.28014 -0.2912,0.38831 l -0.1997,0.18586 -0.02,3.96074 -0.02,3.96074 -0.1017,0.21694 c -0.1293,0.27573 -0.3376,0.48396 -0.6133,0.61328 l -0.2169,0.10173 -2.3192,0.0109 -2.3191,0.0109 0.5846,0.78105 c 0.3215,0.42958 0.6021,0.82658 0.6236,0.88223 0.057,0.14766 0.01,0.42499 -0.1014,0.56787 -0.2047,0.26824 -0.5884,0.32461 -0.8464,0.12435 -0.07,-0.0539 -0.4323,-0.50974 -0.806,-1.01287 -0.3738,-0.50313 -0.6883,-0.91479 -0.699,-0.91479 -0.011,0 -0.3252,0.41166 -0.699,0.91479 -0.3737,0.50313 -0.7344,0.95736 -0.8014,1.0094 -0.1623,0.12604 -0.4529,0.15742 -0.6283,0.0678 z m 7.7203,-7.39256 v -3.72776 h -5.5916 -5.5916 v 3.72776 3.72776 h 5.5916 5.5916 z m -9.5738,2.43056 c -0.2596,-0.11309 -0.4045,-0.40881 -0.3488,-0.71229 0.023,-0.12533 0.1708,-0.29031 1.0609,-1.18383 0.5689,-0.57102 1.0943,-1.06662 1.1674,-1.10135 0.1964,-0.0931 0.381,-0.0519 0.9039,0.20205 l 0.4607,0.22358 0.5365,-0.5281 c 0.7091,-0.69796 0.6963,-0.69529 1.4937,-0.31188 l 0.4573,0.21983 0.8435,-0.83941 c 0.9088,-0.90429 0.9449,-0.92864 1.2786,-0.86602 0.1911,0.0359 0.4233,0.26814 0.4592,0.45929 0.064,0.34152 0.057,0.35126 -1.0804,1.49288 -0.7372,0.73993 -1.0936,1.07102 -1.1856,1.10137 -0.196,0.0647 -0.3662,0.0208 -0.8711,-0.22428 l -0.4569,-0.22186 -0.5333,0.5282 c -0.7061,0.69916 -0.6958,0.69701 -1.4961,0.31225 l -0.4576,-0.2201 -0.8236,0.82145 c -0.4531,0.4518 -0.8729,0.83977 -0.933,0.86214 -0.1462,0.0544 -0.3307,0.049 -0.4752,-0.0139 z m 10.1953,-8.0222 v -0.62129 h -6.2131 -6.213 v 0.62129 0.6213 h 6.213 6.2131 z"
       id="path281-2" />
  </g>
</svg>
