<?xml version="1.0" encoding="UTF-8" standalone="no"?>
<!-- Created with Inkscape (http://www.inkscape.org/) -->

<svg
   width="14.889553mm"
   height="14.886751mm"
   viewBox="0 0 14.889553 14.886751"
   version="1.1"
   id="svg1"
   inkscape:version="1.4 (86a8ad7, 2024-10-11)"
   sodipodi:docname="site.svg"
   xmlns:inkscape="http://www.inkscape.org/namespaces/inkscape"
   xmlns:sodipodi="http://sodipodi.sourceforge.net/DTD/sodipodi-0.dtd"
   xmlns="http://www.w3.org/2000/svg"
   xmlns:svg="http://www.w3.org/2000/svg">
  <sodipodi:namedview
     id="namedview1"
     pagecolor="#ffffff"
     bordercolor="#000000"
     borderopacity="0.25"
     inkscape:showpageshadow="2"
     inkscape:pageopacity="0.0"
     inkscape:pagecheckerboard="0"
     inkscape:deskcolor="#d1d1d1"
     inkscape:document-units="mm"
     inkscape:zoom="2.9540685"
     inkscape:cx="18.787649"
     inkscape:cy="32.159038"
     inkscape:window-width="1141"
     inkscape:window-height="1000"
     inkscape:window-x="770"
     inkscape:window-y="0"
     inkscape:window-maximized="0"
     inkscape:current-layer="layer1" />
  <defs
     id="defs1" />
  <g
     inkscape:label="Camada 1"
     inkscape:groupmode="layer"
     id="layer1"
     transform="translate(-187.8542,-158.75)">
    <path
       style="fill:#448fae;fill-opacity:1;stroke-width:0.122983"
       d="m 189.69268,173.61443 c -0.1836,-0.0304 -0.5172,-0.15235 -0.7159,-0.26156 -0.274,-0.15066 -0.7291,-0.60754 -0.8679,-0.87125 -0.056,-0.10738 -0.1369,-0.29773 -0.1787,-0.42301 l -0.076,-0.22777 v -5.64558 -5.64557 l 0.076,-0.22778 c 0.132,-0.39565 0.2593,-0.59837 0.5736,-0.91245 0.3139,-0.31407 0.5167,-0.44147 0.9124,-0.57346 l 0.2276,-0.076 h 5.6457 5.6456 l 0.2277,0.076 c 0.3816,0.12732 0.599,0.26244 0.8982,0.55828 0.2959,0.29275 0.4537,0.53741 0.5878,0.91137 l 0.075,0.21151 0.01,3.61397 0.01,3.61398 -0.073,0.11002 c -0.1679,0.24925 -0.5016,0.31858 -0.7223,0.15016 -0.246,-0.18763 -0.2292,-0.0237 -0.2393,-2.33733 l -0.01,-2.07584 h -6.4098 -6.4099 l 0.01,4.07555 0.01,4.07555 0.1028,0.19643 c 0.1194,0.22841 0.3237,0.42865 0.5694,0.55808 l 0.1739,0.0915 3.5482,0.0163 c 3.9597,0.0182 3.6188,-0.004 3.8097,0.24652 0.168,0.22031 0.099,0.55425 -0.1488,0.7214 l -0.1089,0.0733 -3.5339,-0.005 c -1.9435,-0.003 -3.5705,-0.0105 -3.6152,-0.0179 z m 12.0007,-12.02535 -0.01,-0.95177 -0.093,-0.17896 c -0.1246,-0.24024 -0.3216,-0.4394 -0.558,-0.56409 l -0.1953,-0.10297 h -5.548 -5.548 l -0.1838,0.0932 c -0.2282,0.11566 -0.4505,0.33926 -0.5706,0.57391 l -0.091,0.17896 -0.01,0.95177 -0.01,0.95178 h 6.4138 6.4139 z m -11.3503,0 c -0.2352,-0.16007 -0.3083,-0.3766 -0.212,-0.62845 0.1586,-0.41576 0.7336,-0.43246 0.9299,-0.027 0.1658,0.34259 -0.076,0.72867 -0.4572,0.72867 -0.1052,0 -0.1868,-0.0229 -0.2607,-0.0732 z m 1.7368,0.0108 c -0.1975,-0.12039 -0.3006,-0.36657 -0.2421,-0.57803 0.043,-0.15678 0.2139,-0.32887 0.3675,-0.37015 0.2318,-0.0625 0.5209,0.0769 0.6111,0.29445 0.056,0.13474 0.026,0.39316 -0.059,0.51275 -0.1398,0.19632 -0.4728,0.26566 -0.6772,0.14098 z m 1.7522,0.008 c -0.1598,-0.0789 -0.2457,-0.22111 -0.2604,-0.43185 -0.01,-0.14937 0,-0.20073 0.063,-0.29321 0.1061,-0.15614 0.2665,-0.24206 0.4519,-0.24206 0.2713,0 0.4989,0.22739 0.4989,0.49817 0,0.39595 -0.3987,0.64399 -0.7538,0.46895 z m 7.5562,11.98258 c -0.1162,-0.0506 -0.1805,-0.12982 -0.6292,-0.77517 -0.1833,-0.26374 -0.3443,-0.48631 -0.3577,-0.49459 -0.013,-0.008 -0.1517,0.15083 -0.3072,0.35356 -0.3556,0.46347 -0.4227,0.53062 -0.6235,0.62489 -0.3944,0.18507 -0.8881,0.012 -1.0914,-0.38252 -0.07,-0.13488 -0.7801,-4.10426 -0.7789,-4.35138 0,-0.28099 0.1989,-0.58821 0.4671,-0.72641 0.1684,-0.0867 0.4233,-0.10808 0.6059,-0.0507 0.1781,0.0559 3.6876,2.0759 3.8194,2.19833 0.3971,0.369 0.2965,1.09923 -0.1851,1.34501 -0.072,0.0371 -0.3377,0.13228 -0.5887,0.2115 -0.2508,0.0791 -0.4597,0.14763 -0.464,0.15206 -0.01,0.005 0.1757,0.2701 0.4004,0.59036 0.2246,0.32027 0.4217,0.61713 0.4377,0.65971 0.085,0.22121 -0.026,0.5222 -0.2302,0.63107 -0.132,0.0701 -0.3323,0.0762 -0.4746,0.0143 z m -1.7277,-2.05482 c 0.2118,-0.27748 0.4183,-0.52625 0.4589,-0.55283 0.04,-0.0266 0.3359,-0.13016 0.6561,-0.23019 0.3203,-0.10003 0.5932,-0.19186 0.6065,-0.20408 0.013,-0.0122 -0.5781,-0.36979 -1.3143,-0.79462 -0.736,-0.42482 -1.3436,-0.76698 -1.3503,-0.76037 -0.019,0.0182 0.5183,3.04864 0.5395,3.04754 0.01,-5e-4 0.1918,-0.22798 0.4036,-0.50545 z"
       id="path264-2" />
  </g>
</svg>
