<?xml version="1.0" encoding="UTF-8" standalone="no"?>
<!-- Created with Inkscape (http://www.inkscape.org/) -->

<svg
   width="14.889553mm"
   height="14.886751mm"
   viewBox="0 0 14.889553 14.886751"
   version="1.1"
   id="svg1"
   inkscape:version="1.4 (86a8ad7, 2024-10-11)"
   sodipodi:docname="video.svg"
   xmlns:inkscape="http://www.inkscape.org/namespaces/inkscape"
   xmlns:sodipodi="http://sodipodi.sourceforge.net/DTD/sodipodi-0.dtd"
   xmlns="http://www.w3.org/2000/svg"
   xmlns:svg="http://www.w3.org/2000/svg">
  <sodipodi:namedview
     id="namedview1"
     pagecolor="#ffffff"
     bordercolor="#000000"
     borderopacity="0.25"
     inkscape:showpageshadow="2"
     inkscape:pageopacity="0.0"
     inkscape:pagecheckerboard="0"
     inkscape:deskcolor="#d1d1d1"
     inkscape:document-units="mm"
     inkscape:zoom="2.9540685"
     inkscape:cx="18.787649"
     inkscape:cy="32.159038"
     inkscape:window-width="1141"
     inkscape:window-height="1000"
     inkscape:window-x="770"
     inkscape:window-y="0"
     inkscape:window-maximized="0"
     inkscape:current-layer="layer1" />
  <defs
     id="defs1" />
  <g
     inkscape:label="Camada 1"
     inkscape:groupmode="layer"
     id="layer1"
     transform="translate(-187.8542,-158.75)">
    <path
       style="fill:#448fae;fill-opacity:1;stroke-width:0.109955"
       d="m 191.5094,173.6175 c -0.2513,-0.0634 -0.5158,-0.24318 -0.6662,-0.45257 l -0.092,-0.12857 h -1.2135 -1.2136 l -0.1552,-0.081 c -0.1256,-0.0656 -0.1704,-0.11053 -0.2361,-0.23607 -0.1034,-0.19806 -0.1034,-0.33149 0,-0.52957 0.065,-0.12551 0.1105,-0.17047 0.2361,-0.23605 l 0.1552,-0.0811 1.2259,-3.3e-4 1.2256,-3.2e-4 0.1389,-0.15841 c 0.101,-0.11449 0.2009,-0.18903 0.3622,-0.26875 0.2066,-0.10213 0.2416,-0.11024 0.472,-0.10931 0.6937,0.003 1.1738,0.47221 1.1742,1.14814 0,0.64147 -0.4449,1.10845 -1.0953,1.14867 -0.1145,0.008 -0.2575,4.4e-4 -0.3179,-0.0148 z m 2.914,-0.66214 c -0.1255,-0.0656 -0.1705,-0.11052 -0.2361,-0.23606 -0.1033,-0.19806 -0.1033,-0.3315 0,-0.52957 0.066,-0.12552 0.1106,-0.17047 0.2361,-0.23605 l 0.1551,-0.081 h 3.8482 3.848 l 0.1552,0.081 c 0.1255,0.0657 0.1705,0.11053 0.236,0.23605 0.1034,0.19807 0.1034,0.33151 0,0.52957 -0.066,0.12554 -0.1105,0.17049 -0.236,0.23606 l -0.1552,0.081 h -3.848 -3.8482 z m -4.6179,-2.88993 c -0.4781,-0.0795 -0.8939,-0.29857 -1.2582,-0.66302 -0.3739,-0.37386 -0.5826,-0.77673 -0.6648,-1.28264 -0.043,-0.26115 -0.043,-7.12827 0,-7.38942 0.083,-0.50591 0.2909,-0.90878 0.6648,-1.28264 0.3737,-0.37385 0.7766,-0.58259 1.2825,-0.66457 0.2632,-0.0425 10.6756,-0.0425 10.9387,0 0.5059,0.0819 0.9088,0.29072 1.2825,0.66457 0.3739,0.37386 0.5826,0.77673 0.6647,1.28264 0.02,0.11924 0.03,0.93206 0.032,2.20041 v 2.01132 l -0.081,0.15506 c -0.065,0.12552 -0.1105,0.17048 -0.2361,0.23605 -0.198,0.10347 -0.3314,0.10347 -0.5295,0 -0.1256,-0.0655 -0.1706,-0.11053 -0.236,-0.23605 l -0.081,-0.15506 v -1.97352 c 0,-1.35043 -0.01,-2.0222 -0.033,-2.12768 -0.094,-0.44517 -0.4472,-0.79795 -0.8924,-0.8924 -0.219,-0.0464 -10.4987,-0.0464 -10.7176,0 -0.4452,0.0944 -0.7979,0.44723 -0.8925,0.8924 -0.047,0.21776 -0.047,6.9506 0,7.16836 0.095,0.44517 0.4473,0.79795 0.8925,0.89241 0.2189,0.0464 10.4986,0.0464 10.7176,0 0.3293,-0.0699 0.6433,-0.30751 0.7877,-0.59625 0.083,-0.16617 0.1018,-0.23566 0.1356,-0.50767 0.035,-0.2791 0.1312,-0.43575 0.3271,-0.53336 0.195,-0.0971 0.3276,-0.0958 0.5214,0.006 0.3448,0.18012 0.4046,0.59105 0.1827,1.25725 -0.1089,0.32711 -0.2802,0.59426 -0.5614,0.87534 -0.3738,0.37385 -0.7766,0.58258 -1.2826,0.66456 -0.2358,0.0383 -10.7329,0.0367 -10.963,-9.4e-4 z m 4.2684,-3.11637 c -0.354,-0.12418 -0.6163,-0.39274 -0.7239,-0.74149 -0.054,-0.1789 -0.059,-0.27025 -0.059,-1.78251 0,-1.51225 0,-1.6036 0.059,-1.78251 0.1925,-0.62317 0.9105,-0.97191 1.4894,-0.7233 0.168,0.0722 2.4383,1.38515 2.6998,1.5614 0.2177,0.14669 0.3216,0.26778 0.431,0.50185 0.066,0.1434 0.077,0.20407 0.077,0.44256 0,0.2385 -0.011,0.29916 -0.077,0.44256 -0.1094,0.23406 -0.2132,0.35516 -0.431,0.50185 -0.2585,0.17419 -2.5299,1.48833 -2.6998,1.56191 -0.215,0.0931 -0.5296,0.10048 -0.7655,0.0177 z m 1.5962,-1.82443 c 0.6439,-0.37232 1.171,-0.68712 1.171,-0.69957 0,-0.016 -2.0627,-1.22739 -2.3638,-1.3882 -0.012,-0.006 -0.022,0.61827 -0.022,1.3882 0,0.76993 0.011,1.39462 0.022,1.3882 0.012,-0.006 0.5489,-0.31629 1.1928,-0.68863 z"
       id="path269-8" />
  </g>
</svg>
