<?xml version="1.0" encoding="UTF-8" standalone="no"?>
<!-- Created with Inkscape (http://www.inkscape.org/) -->

<svg
   width="117.21521mm"
   height="36.190098mm"
   viewBox="0 0 117.21521 36.190098"
   version="1.1"
   id="svg1"
   inkscape:version="1.4 (86a8ad7, 2024-10-11)"
   sodipodi:docname="criativadeTexto.svg"
   xmlns:inkscape="http://www.inkscape.org/namespaces/inkscape"
   xmlns:sodipodi="http://sodipodi.sourceforge.net/DTD/sodipodi-0.dtd"
   xmlns="http://www.w3.org/2000/svg"
   xmlns:svg="http://www.w3.org/2000/svg">
  <sodipodi:namedview
     id="namedview1"
     pagecolor="#ffffff"
     bordercolor="#000000"
     borderopacity="0.25"
     inkscape:showpageshadow="2"
     inkscape:pageopacity="0.0"
     inkscape:pagecheckerboard="0"
     inkscape:deskcolor="#d1d1d1"
     inkscape:document-units="mm"
     inkscape:zoom="0.73851712"
     inkscape:cx="144.2079"
     inkscape:cy="92.753436"
     inkscape:window-width="1920"
     inkscape:window-height="1009"
     inkscape:window-x="-8"
     inkscape:window-y="-8"
     inkscape:window-maximized="1"
     inkscape:current-layer="layer1" />
  <defs
     id="defs1" />
  <g
     inkscape:label="Camada 1"
     inkscape:groupmode="layer"
     id="layer1"
     transform="translate(-67.023253,-124.07309)">
    <path
       id="path49-6-5-8"
       style="fill:#ffffff;fill-opacity:1;stroke:#2b2b2b;stroke-width:3.52366;stroke-linecap:round;stroke-linejoin:round;stroke-dasharray:none;stroke-opacity:1;paint-order:stroke markers fill"
       d="m 79.613562,125.83695 c -0.6182,0.0172 -1.2585,0.14402 -1.8939,0.39496 -3.8309,1.51304 -6.4253,4.79933 -7.778,8.5464 -1.3527,3.74707 -1.5239,8.00066 -0.4649,11.79143 1.059,3.79079 3.4187,7.17428 7.1541,8.79013 3.7354,1.61585 8.6592,1.37387 14.5705,-1.48445 a 1.4077059,1.4077059 0 0 0 0.6541,-1.87972 1.4077059,1.4077059 0 0 0 -1.8797,-0.65537 c -5.4244,2.62291 -9.4053,2.65633 -12.2272,1.43564 -2.8219,-1.2207 -4.6718,-3.78609 -5.5595,-6.9637 -0.8877,-3.1776 -0.743,-6.91051 0.4004,-10.07772 1.1434,-3.16722 3.2251,-5.72222 6.1651,-6.88343 1.011,-0.39927 1.5249,-0.27441 2.0962,0.10052 0.5713,0.37491 1.1639,1.16816 1.6116,2.19536 0.8953,2.05439 1.1099,5.06524 0.9344,5.92012 a 1.4077059,1.4077059 0 0 0 1.0959,1.66137 1.4077059,1.4077059 0 0 0 1.6627,-1.09592 c 0.4049,-1.97228 0.055,-4.93302 -1.1117,-7.61039 -0.5834,-1.33869 -1.3954,-2.60144 -2.6481,-3.42357 -0.6264,-0.41106 -1.3718,-0.67034 -2.1723,-0.7427 -0.2001,-0.0181 -0.4037,-0.0247 -0.6097,-0.019 z m 17.218,11.73621 a 1.4077059,1.4077059 0 0 0 -1.4395,1.37624 1.4077059,1.4077059 0 0 0 0.4284,1.02078 c 0.028,0.0889 0.068,0.20929 0.113,0.44889 0.1153,0.60867 0.2177,1.5433 0.2925,2.52802 0.1496,1.96945 0.2035,4.11657 0.2559,4.9793 a 1.4077059,1.4077059 0 0 0 1.4902,1.32037 1.4077059,1.4077059 0 0 0 1.3204,-1.49151 c -0.041,-0.67855 -0.1021,-2.95127 -0.2595,-5.02169 -0.079,-1.03521 -0.1785,-2.02524 -0.3326,-2.83884 -0.077,-0.40681 -0.1577,-0.76242 -0.3144,-1.13574 -0.078,-0.18665 -0.1695,-0.38396 -0.375,-0.61907 -0.2055,-0.23512 -0.6258,-0.55407 -1.1794,-0.56675 z m 7.506698,0.15445 c -0.2399,-0.009 -0.4693,0.0215 -0.6535,0.0896 -0.4909,0.18166 -0.7637,0.45346 -1.0024,0.71702 -0.4775,0.52712 -0.8094,1.13123 -1.1191,1.7683 -0.3096,0.63707 -0.5695,1.29333 -0.7574,1.86045 -0.094,0.28355 -0.1704,0.54184 -0.2258,0.78766 -0.055,0.2458 -0.1779,0.33349 -0.046,0.971 a 1.4077059,1.4077059 0 0 0 1.6627,1.09335 1.4077059,1.4077059 0 0 0 1.0933,-1.66394 c 0.021,0.10383 0.031,0.16339 0.038,0.2161 0.025,-0.11036 0.078,-0.29969 0.15,-0.51826 0.1457,-0.43969 0.3718,-1.00954 0.6178,-1.51559 0.08,-0.16444 0.1355,-0.21564 0.2183,-0.36059 0.3865,0.64148 0.7626,1.44746 1.0488,2.47086 0.1224,0.43797 0.2318,0.88841 0.3365,1.34059 -0.7217,1.5e-4 -1.484,0.0723 -2.2676,0.31725 a 1.4077059,1.4077059 0 0 0 -0.08,0.0353 1.4077059,1.4077059 0 0 0 -0.079,0.035 1.4077059,1.4077059 0 0 0 -0.4013,0.26779 1.4077059,1.4077059 0 0 0 -0.038,0.044 1.4077059,1.4077059 0 0 0 -0.2643,0.3956 1.4077059,1.4077059 0 0 0 -0.02,0.0388 1.4077059,1.4077059 0 0 0 -0.095,0.47716 1.4077059,1.4077059 0 0 0 -0.01,0.0498 c 0,-0.10532 0,-0.1691 0.01,-0.2129 -0.01,0.0317 -0.016,0.0702 -0.033,0.10629 -0.071,0.15025 -0.2034,0.38738 -0.3798,0.66018 -0.3529,0.54562 -0.8864,1.2415 -1.5253,1.8884 -1.145798,1.16019 -2.573198,2.02642 -3.887198,2.10898 -0.085,-0.24436 -0.1836,-0.56562 -0.2672,-0.99124 -0.1004,-0.51151 -0.1863,-1.07712 -0.279,-1.59715 -0.093,-0.52003 -0.1226,-0.92484 -0.4113,-1.50243 -0.8234,-1.64671 -2.4187,-2.339 -3.9698,-2.70655 0.28,-0.20889 0.5903,-0.32277 0.8397,-0.59564 0.6354,-0.69522 1.1167,-1.69415 1.0985,-2.8122 a 1.4078467,1.4078467 0 0 0 -0.048,-0.33844 c -0.2714,-1.01888 -1.3005,-1.64275 -2.091,-1.78146 v -3.2e-4 c -0.7906,-0.13871 -1.5318,-0.0469 -2.2622,0.0851 -1.4608,0.26391 -3.0001,0.79526 -3.3157,0.86762 l 0.029,-0.006 c -1.4625,0.30308 -2.6251,0.93689 -3.3218,1.92467 -0.6966,0.98778 -0.8051,2.20668 -0.5728,3.27329 0.4647,2.13323 2.0401,4.01114 3.9287,5.33734 a 1.4077059,1.4077059 0 0 0 1.9609,-0.3423 1.4077059,1.4077059 0 0 0 -0.3432,-1.96096 c -0.4937,-0.34663 -0.8911,-0.81653 -1.2963,-1.26706 0.01,6.2e-4 0.024,0.005 0.034,0.006 0.077,0.007 0.1603,0.0123 0.2925,0.004 6e-4,-6e-5 0,-0.001 0.01,-0.001 1.1965,-0.004 2.6616,-0.0506 3.9261,0.16377 1.3179,0.22339 2.1885,0.6526 2.5704,1.38265 -0.017,-0.006 0.1026,0.35902 0.1747,0.76422 0.083,0.46552 0.1712,1.05236 0.2877,1.64564 0.1165,0.59328 0.2492,1.18664 0.4977,1.76348 0.1243,0.28842 0.2751,0.58153 0.5449,0.87628 0.2698,0.29476 0.7268,0.60398 1.278,0.65409 2.745,0.24955 5.015498,-1.37211 6.599598,-2.97596 0.792,-0.80192 1.4276,-1.62684 1.8871,-2.33729 0.2025,-0.3132 0.3652,-0.59961 0.5009,-0.87147 0.4372,-0.0566 0.925,-0.0574 1.4594,-0.0295 0.045,0.16868 0.091,0.33456 0.139,0.4945 0.1857,0.61908 0.49622,1.45277 0.76232,2.28142 0.2661,0.82865 0.4502,1.71916 0.4502,1.85563 a 1.4077059,1.4077059 0 0 0 1.4077,1.40642 1.4077059,1.4077059 0 0 0 1.4077,-1.40642 c 0,-0.95687 -0.294,-1.81168 -0.5847,-2.71714 -0.2081,-0.64794 -0.4315,-1.28165 -0.5909,-1.75226 0.4258,-0.0131 0.8647,-0.0547 1.3153,-0.14481 0.1939,-0.0388 0.371,-0.11236 0.4954,-0.17276 a 1.4077059,1.4077059 0 0 0 1.1804,-1.38907 1.4077059,1.4077059 0 0 0 -1.4077,-1.4077 c -0.3286,0 -0.7428,0.13504 -0.9386,0.22958 -0.4021,0.0663 -0.8617,0.0736 -1.3663,0.0533 -0.1623,-0.72289 -0.3399,-1.4951 -0.5567,-2.27082 -0.4935,-1.76485 -1.1208,-3.5909 -2.61672,-4.78761 -0.2338,-0.18705 -0.5536,-0.30336 -0.8772,-0.34967 -0.081,-0.0115 -0.1622,-0.0186 -0.2422,-0.0215 z m -1.8884,8.70438 c 0.013,-0.0693 0.01,-0.0989 0,0 z m 0.8785,-2.86485 c -1e-4,6.2e-4 -5e-4,0.002 -6e-4,0.002 -0.02,0.0874 0.03,0.20098 6e-4,-0.002 z m 39.86647,-5.06439 c -0.11902,0.004 -0.23794,0.0112 -0.35673,0.0231 -0.95037,0.0958 -1.88427,0.46367 -2.66514,1.18807 -0.5397,0.50068 -0.9736,1.17173 -1.36177,1.92596 a 1.4077059,1.4077059 0 0 0 -0.0582,-0.0206 1.4077059,1.4077059 0 0 0 -1.59973,1.18453 c -0.57841,3.87683 -0.0157,7.63768 -0.0157,11.10686 a 1.4078467,1.4078467 0 0 0 2.77303,0.0424 1.4077059,1.4077059 0 0 0 0.74398,0.63481 c 1.54634,-0.12213 4.26909,-0.60699 6.74664,-1.63215 1.23876,-0.51258 2.41666,-1.15167 3.33848,-2.0682 0.91936,-0.91411 1.57312,-2.25571 1.36787,-3.70614 -0.20361,-1.59455 -1.04972,-3.1867 -2.19664,-4.6627 -1.15071,-1.48089 -2.61312,-2.8158 -4.30851,-3.54623 -0.74175,-0.31956 -1.57435,-0.49503 -2.40762,-0.46977 z m -11.39168,0.0292 c -0.3508,-0.004 -0.6882,-0.002 -1.0015,0.007 l -3e-4,3.1e-4 c -0.6266,0.0195 -0.984,-0.0935 -1.785,0.30698 -0.7148,0.35741 -0.8654,0.8943 -0.9697,1.25004 -0.1044,0.35573 -0.1371,0.66799 -0.158,0.97068 -0.042,0.60538 -0.014,1.20052 -0.014,1.40065 0,2.79586 -0.1638,5.58476 -0.6991,8.26094 0,0.0162 -0.034,0.13877 -0.04,0.16633 -0.3781,-0.91215 -0.7211,-1.86715 -1.0583,-2.87866 -0.5024,-1.5072 -0.9857,-2.55288 -0.8496,-3.54013 a 1.4077059,1.4077059 0 0 0 -1.2026,-1.58752 1.4077059,1.4077059 0 0 0 -1.5862,1.20284 c -0.2764,2.00493 0.5502,3.5647 0.9672,4.81554 0.3882,1.16457 0.7879,2.3798 1.3203,3.5777 0.3253,0.73182 0.6106,1.83266 1.5619,2.78393 a 1.4078467,1.4078467 0 0 0 10e-4,0 c 0.1991,0.19912 0.5542,0.4232 0.971,0.45886 0.4168,0.0357 0.7845,-0.11767 1.0037,-0.26459 0.4385,-0.29382 0.5385,-0.542 0.6577,-0.76197 0.2383,-0.43993 0.3733,-0.8691 0.5086,-1.32775 0.2704,-0.9173 0.4639,-1.88182 0.506,-2.09229 0.5871,-2.93528 0.7536,-5.90845 0.7536,-8.81323 0,-0.32556 -0.01,-0.7482 0.01,-1.11037 0.1332,-0.0237 0.031,0.001 0.1921,-0.004 0.5161,-0.016 1.1989,-0.006 1.9015,0.017 1.4053,0.0463 2.8255,0.14321 3.57546,0.14321 a 1.4077059,1.4077059 0 0 0 1.40771,-1.40769 1.4077059,1.4077059 0 0 0 -1.40771,-1.40803 c -0.45546,0 -2.01746,-0.0924 -3.48196,-0.14064 -0.3662,-0.012 -0.7301,-0.0214 -1.0809,-0.0253 z m 33.59545,0.22348 c -0.24769,0.006 -0.4966,0.032 -0.74593,0.0822 -0.99729,0.2008 -1.9595,0.86739 -2.51357,1.84954 -1.10812,1.9643 -0.96677,4.78296 0.38596,9.08039 a 1.4077059,1.4077059 0 0 0 1.76574,0.91996 1.4077059,1.4077059 0 0 0 0.91995,-1.76574 c -1.24865,-3.96672 -1.00765,-6.16165 -0.61876,-6.85099 0.19444,-0.34467 0.32969,-0.41427 0.6165,-0.47202 0.28683,-0.0577 0.76569,-0.0183 1.33129,0.2039 1.1312,0.44441 2.50125,1.59615 3.26687,2.91366 0.75247,1.29489 0.94717,2.58624 0.32527,3.80954 -0.62631,0.8758 -1.24199,1.15977 -2.12632,1.3788 -0.91445,0.2265 -2.08156,0.25706 -3.34809,0.76936 a 1.4077059,1.4077059 0 0 0 -0.77805,1.83252 1.4077059,1.4077059 0 0 0 1.83381,0.77674 c 0.64171,-0.25956 1.70263,-0.33291 2.96953,-0.6467 1.26689,-0.31379 2.77057,-1.02237 3.84003,-2.58871 a 1.4078467,1.4078467 0 0 0 0.08,-0.13101 c 1.19301,-2.2365 0.7427,-4.71505 -0.36156,-6.6153 -1.10426,-1.90025 -2.81481,-3.38982 -4.67104,-4.11908 -0.46406,-0.18231 -0.9449,-0.31918 -1.4334,-0.38467 -0.24425,-0.0328 -0.49053,-0.048 -0.73821,-0.0424 z m -46.73455,0.11752 c -0.4625,-0.01 -1.1477,0.049 -1.6697,0.045 -0.1616,-0.002 -0.3235,-0.0272 -0.4842,-0.0206 -0.1198,0.005 -0.2476,0.0348 -0.3702,0.0437 -1.56677,0.003 -3.08337,-0.0377 -4.79367,0.12747 a 1.4077059,1.4077059 0 0 0 -1.2658,1.53614 1.4077059,1.4077059 0 0 0 1.5365,1.26578 c 0.6747,-0.0652 1.2667,-0.0187 1.9513,-0.0507 -0.028,0.24846 -0.06,0.48989 -0.087,0.7549 -0.094,0.90066 -0.1384,1.7527 -0.1384,2.25348 0,1.80568 -0.1198,3.74049 0,5.71848 0.097,1.55361 0.3603,2.85229 0.3603,4.09113 a 1.4077059,1.4077059 0 0 0 1.40757,1.40771 1.4077059,1.4077059 0 0 0 1.408,-1.40771 c 0,-1.601 -0.2851,-2.96152 -0.3666,-4.26581 -0.1088,-1.74178 0,-3.62108 0,-5.5438 0,-0.30919 0.039,-1.16502 0.1227,-1.96096 0.059,-0.56331 0.1369,-0.85087 0.1939,-1.12288 0.1845,2e-4 0.3865,-0.0159 0.5658,-0.0145 0.3844,0.006 0.785,0.0165 1.2863,0.0581 1.0394,0.0863 2.1568,0.17475 3.2996,-0.0411 0.066,-0.001 0.1513,0.002 0.2139,-0.001 0.1153,-0.006 0.2161,-0.008 0.3991,-0.0459 0.071,-0.0147 0.19,-0.0579 0.3253,-0.11657 h 10e-4 c 0.039,-0.0172 0.045,-0.008 0.095,-0.034 0.1105,-0.0587 0.2597,-0.14535 0.4271,-0.34358 0.1674,-0.19822 0.3362,-0.55527 0.3362,-0.91738 a 1.4078467,1.4078467 0 0 0 -1.9016,-1.29146 c 0.042,-0.0117 0.1233,-0.0487 0.1455,-0.0533 0.1,-0.0207 0.076,-0.0119 0.032,-0.01 -0.09,0.004 -0.3127,0.006 -0.5982,10e-4 -0.5711,-0.01 -1.4233,-0.04 -2.4369,-0.0619 z m 38.98351,1.85853 c -0.24583,0.002 -0.48963,0.048 -0.69648,0.15124 -0.55891,0.27946 -0.51684,0.41238 -0.60206,0.52918 -0.0852,0.1168 -0.14837,0.22001 -0.21608,0.3349 -0.13543,0.22977 -0.27772,0.49839 -0.43671,0.81174 -0.31797,0.62671 -0.69516,1.42126 -1.06798,2.22459 -0.3728,0.80332 -0.74008,1.61424 -1.03041,2.25508 -0.29033,0.64084 -0.54028,1.18236 -0.54618,1.19418 -0.72997,1.45993 -1.77806,3.04626 -1.96,5.23649 a 1.4077059,1.4077059 0 0 0 1.28665,1.51849 1.4077059,1.4077059 0 0 0 1.51911,-1.28537 c 0.0497,-0.59911 0.25649,-1.16519 0.49771,-1.74646 0.6661,0.0224 1.42811,0.0349 1.81679,0.0925 0.60727,0.09 0.82498,0.19441 1.04615,0.38564 0.44233,0.38246 1.08593,1.78316 2.27563,4.92022 0.0462,0.12191 0.0892,0.23449 0.1856,0.39688 0.0964,0.16238 0.13042,0.58218 1.04228,0.73275 0.45593,0.0753 1.02026,-0.17025 1.2552,-0.40779 0.23493,-0.23754 0.29346,-0.41347 0.33971,-0.53977 0.0924,-0.25259 0.095,-0.37304 0.10663,-0.49771 0.0461,-0.49867 0.007,-0.97288 -0.0546,-1.67101 -0.12112,-1.39627 -0.3885,-3.42097 -0.74624,-5.51104 -0.35774,-2.09007 -0.80018,-4.22501 -1.30239,-5.86683 -0.25108,-0.8209 -0.49878,-1.50728 -0.85668,-2.10416 -0.17895,-0.29844 -0.37157,-0.594 -0.77675,-0.8689 -0.20258,-0.13745 -0.50945,-0.23983 -0.83357,-0.27325 -0.081,-0.008 -0.16339,-0.0123 -0.24534,-0.0115 z m 18.79399,0.46078 c -0.32585,0.004 -0.64366,0.0275 -0.99766,0.12491 -0.354,0.0975 -0.81744,0.27344 -1.16752,0.79857 -0.5585,0.83776 -0.52997,1.52229 -0.56803,2.35785 -0.038,0.83554 -0.002,1.76755 0.061,2.69306 0.0815,1.17824 0.20953,2.3053 0.31661,3.15481 -0.14787,0.0561 -0.29469,0.11307 -0.43927,0.17179 a 1.4077059,1.4077059 0 0 0 -0.77449,1.8338 1.4077059,1.4077059 0 0 0 1.43628,0.86408 c 0.007,0.0877 0.0131,0.17605 0.0214,0.26587 0.0408,0.42698 0.1147,0.89307 0.33973,1.38459 0.22498,0.49152 0.65328,1.00978 1.23784,1.30207 0.69286,0.34643 1.13239,0.24977 1.58495,0.20518 0.45258,-0.0446 0.90193,-0.1337 1.34123,-0.22798 0.8786,-0.18858 1.86003,-0.37281 1.88101,-0.37281 a 1.4077059,1.4077059 0 0 0 1.40769,-1.4077 1.4077059,1.4077059 0 0 0 -1.40769,-1.40771 c -0.91736,0 -1.67212,0.26402 -2.47216,0.43574 -0.40002,0.0859 -0.77558,0.15357 -1.02559,0.17821 -0.007,6.2e-4 -0.007,-0.002 -0.0132,-0.001 -0.0246,-0.0825 -0.0534,-0.16599 -0.0716,-0.35674 -0.0227,-0.23627 -0.0221,-0.53036 -0.0263,-0.85734 1.03418,-0.24902 2.08848,-0.39752 3.06393,-0.39752 a 1.4077059,1.4077059 0 0 0 1.4077,-1.4077 1.4077059,1.4077059 0 0 0 -1.4077,-1.4077 c -1.11995,0 -2.25099,0.14187 -3.34811,0.38307 -0.0881,-0.74488 -0.18148,-1.63866 -0.24308,-2.52899 -0.0597,-0.86224 -0.088,-1.71702 -0.0582,-2.37132 0.0188,-0.4127 0.0326,-0.43671 0.0619,-0.58248 0.3505,0.004 0.84749,0.0502 1.37849,0.14578 0.57074,0.10271 1.16176,0.24605 1.6238,0.38339 0.46205,0.13735 0.9007,0.37366 0.70386,0.24019 a 1.4077059,1.4077059 0 0 0 1.95517,-0.37505 1.4077059,1.4077059 0 0 0 -0.37505,-1.95485 c -0.54041,-0.36643 -0.90887,-0.43912 -1.48186,-0.60945 -0.573,-0.17033 -1.24527,-0.3321 -1.92823,-0.455 -0.68295,-0.12291 -1.36544,-0.20996 -2.01713,-0.20133 z m -33.12854,0.0485 c 0.34038,0.007 0.71742,0.11924 1.17555,0.3166 1.04712,0.45114 2.2737,1.49729 3.19912,2.68825 0.92542,1.19096 1.53778,2.55635 1.63086,3.30091 a 1.4078467,1.4078467 0 0 0 0.003,0.0267 c 0.0706,0.48856 -0.061,0.81405 -0.56802,1.31813 -0.50699,0.50408 -1.39591,1.03448 -2.42977,1.46228 -2.06774,0.85559 -4.71333,1.33421 -5.89186,1.42729 a 1.4077059,1.4077059 0 0 0 -0.45757,0.23312 c 0.006,-1.45856 0.0162,-2.95344 0.15285,-4.3204 0.34519,-3.4522 1.22949,-5.23762 1.95998,-5.91531 0.36515,-0.33875 0.70317,-0.50707 1.08115,-0.53398 h 3.2e-4 c 0.0471,-0.003 0.095,-0.004 0.14354,-0.004 z m -52.758248,0.43188 c -0.049,0.0707 -0.024,0.15157 -0.096,0.23055 -0.2714,0.29683 -0.7439,0.61719 -1.3021,0.89106 -0.5582,0.27386 -1.1879,0.50432 -1.7622,0.71219 -0.3686,0.13342 -0.7015,0.30692 -1.0378,0.46239 -0.031,2.9e-4 -0.053,-3.8e-4 -0.1249,0.009 -0.053,0.007 -0.2615,0.058 -0.262,0.0581 -3e-4,9e-5 -0.2998,0.13702 -0.2999,0.13711 -10e-5,5e-5 -0.2379,0.18201 -0.238,0.18206 0,5e-5 -0.2729,0.36054 -0.2729,0.3606 0,2e-5 -0.035,0.12612 -0.069,0.24756 -0.073,-0.17574 -0.2519,-0.392 -0.2854,-0.54619 -0.1129,-0.51823 -0.052,-0.80398 0.1226,-1.05224 0.1751,-0.24826 0.5866,-0.58207 1.5911,-0.79023 a 1.4078467,1.4078467 0 0 0 0.029,-0.006 c 0.8355,-0.19158 2.0578,-0.63803 3.1882,-0.84225 0.3634,-0.0656 0.5691,-0.0498 0.8191,-0.0533 z m 29.035388,1.12161 a 1.4077059,1.4077059 0 0 0 -1.2427,1.55444 l 0.9986,8.99049 c 0.031,0.27649 0.1278,0.50182 0.2059,0.64348 a 1.4077059,1.4077059 0 0 0 1.3743,1.15371 1.4077059,1.4077059 0 0 0 1.408,-1.4077 c 0,-0.24938 -0.1072,-0.46685 -0.1907,-0.70032 l -0.9987,-8.99145 a 1.4077059,1.4077059 0 0 0 -1.5547,-1.24265 z m 14.454,0.10918 a 1.4077059,1.4077059 0 0 0 -1.4976,1.31169 c -0.1154,1.75236 0.051,6.60775 0.051,10.42259 a 1.4077059,1.4077059 0 0 0 1.4076,1.40771 1.4077059,1.4077059 0 0 0 1.4068,-1.40771 c 0,-3.88703 -0.1304,-9.10578 -0.056,-10.23796 a 1.4077059,1.4077059 0 0 0 -1.312,-1.49632 z m -48.144788,1.26931 c -0.043,0.0283 -0.077,0.0227 -0.1214,0.0546 l 0.039,-0.0254 c 0.055,-0.0367 0.037,-0.003 0.082,-0.0292 z m 71.790578,0.73788 c 0.41366,1.37373 0.82255,3.32005 1.1566,5.24164 -0.65329,-0.47961 -1.41691,-0.7692 -2.22201,-0.88848 -0.26257,-0.0389 -0.64411,-0.0289 -0.92702,-0.0508 0.11785,-0.25055 0.23749,-0.51202 0.46463,-1.01339 0.28966,-0.63936 0.6547,-1.44314 1.02079,-2.23197 0.18128,-0.39061 0.33433,-0.69599 0.50701,-1.05706 z" />
  </g>
</svg>
