<?xml version="1.0" encoding="UTF-8" standalone="no"?>
<!-- Created with Inkscape (http://www.inkscape.org/) -->

<svg
   width="39.817852mm"
   height="8.3264608mm"
   viewBox="0 0 39.817852 8.3264608"
   version="1.1"
   id="svg1"
   inkscape:version="1.4 (86a8ad7, 2024-10-11)"
   sodipodi:docname="logoCor.svg"
   xmlns:inkscape="http://www.inkscape.org/namespaces/inkscape"
   xmlns:sodipodi="http://sodipodi.sourceforge.net/DTD/sodipodi-0.dtd"
   xmlns="http://www.w3.org/2000/svg"
   xmlns:svg="http://www.w3.org/2000/svg">
  <sodipodi:namedview
     id="namedview1"
     pagecolor="#ffffff"
     bordercolor="#000000"
     borderopacity="0.25"
     inkscape:showpageshadow="2"
     inkscape:pageopacity="0.0"
     inkscape:pagecheckerboard="0"
     inkscape:deskcolor="#d1d1d1"
     inkscape:document-units="mm"
     inkscape:zoom="0.73851712"
     inkscape:cx="-364.92045"
     inkscape:cy="76.504659"
     inkscape:window-width="1920"
     inkscape:window-height="1009"
     inkscape:window-x="-8"
     inkscape:window-y="-8"
     inkscape:window-maximized="1"
     inkscape:current-layer="layer1" />
  <defs
     id="defs1" />
  <g
     inkscape:label="Camada 1"
     inkscape:groupmode="layer"
     id="layer1"
     transform="translate(-201.87713,-128.32292)">
    <g
       id="g106"
       transform="matrix(0.53296448,0,0,0.53296448,-125.2217,112.89273)">
      <path
         id="path100-61"
         style="fill:#1a1a1a;stroke:none;stroke-width:1.73201;stroke-linecap:round;stroke-linejoin:round;paint-order:markers stroke fill"
         d="m 624.55787,29.500941 c -0.10136,0.0026 -0.20228,0.01801 -0.30076,0.04599 l -7.08432,1.978691 c -0.002,-4e-6 -0.003,-4e-6 -0.005,0 -0.30505,0.08677 -0.56512,0.29105 -0.72295,0.565857 l -0.062,0.10852 c -0.0741,0.1483 -0.10402,0.31474 -0.0863,0.479557 -0.0939,0.02558 -0.18283,0.06681 -0.26303,0.121957 l -1.69809,2.940389 c -0.49132,0.841977 0.30289,1.981667 1.26246,1.813326 7.6e-4,-1.31e-4 10e-4,1.34e-4 0.002,0 l 1.45469,-0.252181 0.48421,2.810164 v -0.07286 c -3.6e-4,0.04898 0.003,0.09791 0.0114,0.146244 l 0.0816,0.468705 c 0,6.89e-4 0,0.0014 0,0.0021 0.0677,0.391343 0.32389,0.725061 0.68317,0.893486 l 6.17585,2.907316 c 6.9e-4,6.9e-4 10e-4,0.0014 0.002,0.0021 0.39095,0.1828 0.85424,0.144201 1.20923,-0.101286 l 4.72478,-3.272669 c 0.29039,-0.201392 0.48047,-0.519745 0.5178,-0.871264 l 0.18551,-1.750798 c -0.008,-0.04443 -0.02,-0.08814 -0.0351,-0.130741 l 2.49184,-1.543058 c 0.0189,-0.01118 0.0373,-0.02308 0.0553,-0.03566 l 0.31626,-0.232027 c 0.54615,-0.395813 0.6603,-1.191526 0.24959,-1.72651 v -5.17e-4 -5.16e-4 -5.17e-4 -5.17e-4 -5.17e-4 l -2.66185,-3.446818 c -6.9e-4,-8.63e-4 -10e-4,-0.0017 -0.002,-0.0026 -0.17406,-0.223447 -0.42092,-0.378453 -0.6966,-0.439766 h -0.002 l -5.98517,-1.373043 c -0.0997,-0.0228 -0.20146,-0.03306 -0.30282,-0.03049 z m 38.41161,2.337842 -10e-4,0.001 c -0.10302,1.66e-4 -0.18791,0.09208 -0.29197,0.116789 l -0.0114,-0.0615 -0.002,0.0021 c -0.0178,0.02782 -0.034,0.05663 -0.0486,0.0863 -0.21507,0.06198 -0.44631,0.08611 -0.60823,0.243396 -0.2515,0.244162 -0.37406,0.537806 -0.44442,0.81132 0,6.89e-4 0,0.0014 0,0.0021 -0.19673,0.777552 -0.33826,1.353041 -0.42891,1.773535 -0.0695,0.276249 -0.14019,0.457331 -0.20981,0.716235 -0.12417,-0.401716 -0.34766,-0.961491 -0.42891,-1.291394 l -0.002,-0.0067 c -1.2e-4,-5.09e-4 1.3e-4,-0.0015 0,-0.0021 l -0.13953,-0.592728 c -10e-4,-0.0074 -0.003,-0.01483 -0.005,-0.02222 -0.006,-0.02596 -0.0123,-0.05165 -0.0201,-0.077 -0.0641,-0.211239 -0.13997,-0.4227 -0.30489,-0.641304 -0.18358,-0.243616 -0.51407,-0.48886 -0.94206,-0.48886 -0.34036,0 -0.70489,0.136388 -0.9617,0.382406 -0.24865,0.238295 -0.37452,0.521517 -0.45114,0.789616 -0.002,0.0052 -0.004,0.01032 -0.005,0.0155 l -0.73845,2.75487 c -0.14064,0.50288 -0.29082,0.85155 -0.43563,1.277959 -0.15383,-0.632405 -0.38257,-1.259169 -0.91726,-1.755449 -0.37935,-0.352118 -0.85881,-0.564303 -1.35341,-0.645438 -0.1863,-0.03061 -0.37486,-0.04493 -0.56379,-0.04238 -0.31556,0.0045 -0.63402,0.05256 -0.95291,0.134875 -0.53755,0.13877 -0.8253,0.554355 -1.18287,0.900204 0.10483,-0.313623 0.32039,-0.589366 0.32039,-0.933276 0,-0.941101 -0.42977,-1.831607 -1.15858,-2.452047 -0.52531,-0.457201 -1.21317,-0.59325 -1.8924,-0.703316 -0.002,-0.0036 -0.003,-0.0072 -0.005,-0.01085 h -0.002 l -0.002,0.0067 c -0.19521,-0.0311 -0.34291,-0.200867 -0.54363,-0.201021 -9.8e-4,-1e-6 -10e-4,-0.0026 -0.002,-0.0026 -0.002,0.0015 -0.005,0.0031 -0.007,0.0047 -1.26554,0.0027 -2.46879,0.570739 -3.52433,1.540991 -0.002,0.0022 -0.004,0.0045 -0.007,0.0067 -0.14572,0.136458 -0.24275,0.273397 -0.37155,0.406694 -0.0232,-0.180315 -0.015,-0.424975 -0.0532,-0.583427 -2.1e-4,-9.22e-4 -0.002,-0.0015 -0.002,-0.0026 -0.0791,-0.344689 -0.25614,-0.712596 -0.58601,-0.973067 -0.50671,-0.40903 -1.01583,-0.404687 -1.58957,-0.404627 -0.001,0 -0.002,-0.0021 -0.005,-0.0021 -1.01531,1.42e-4 -1.79379,0.07994 -2.44326,0.342615 -0.004,0.0015 -0.009,0.0031 -0.0129,0.0047 -0.67917,0.288148 -1.04593,1.054214 -1.04593,1.744596 0,0.198028 0.0313,0.488326 0.23461,0.762744 6.9e-4,6.9e-4 0.001,0.0014 0.002,0.0021 0.23552,0.315888 0.59006,0.449068 0.90847,0.449068 0.33486,0 0.63129,-0.06603 1.07022,-0.165882 0.0906,-0.04016 0.17361,-0.09557 0.24546,-0.163814 l -0.23203,0.159163 c 0.23046,-0.05634 0.31369,-0.05713 0.44856,-0.07493 0.0132,0.05635 0.003,0.01042 0.0114,0.07751 0.0402,0.337432 0.0661,0.837103 0.0661,1.472262 0,0.555773 -0.0423,0.973375 -0.0992,1.213879 -7.1e-4,0.0029 -0.001,0.0059 -0.002,0.0088 -0.0678,0.299484 -0.16213,0.43993 -0.42219,0.619084 -0.24239,0.167378 -0.49329,0.250114 -0.85783,0.250114 -0.41181,0 -0.72507,-0.117631 -1.08366,-0.435632 -0.18028,-0.159792 -0.41572,-0.567748 -0.53743,-1.3224 -6.9e-4,-0.0014 -10e-4,-0.0028 -0.002,-0.0041 -0.0462,-0.276929 -0.11858,-0.560892 -0.31832,-0.840259 -0.2166,-0.303083 -0.61384,-0.539502 -1.03043,-0.539502 -0.32886,0 -0.73181,0.07017 -1.0635,0.368969 -0.33698,0.303611 -0.45321,0.736487 -0.45321,1.087789 0,1.184352 0.39955,2.289341 1.14102,3.190503 6.9e-4,0.0016 10e-4,0.0031 0.002,0.0047 0.80022,0.962605 1.93017,1.521354 3.15536,1.521354 0.95277,0 1.86207,-0.299986 2.60863,-0.877982 0.6448,-0.499196 1.05788,-1.215663 1.35547,-1.987476 0.006,0.196518 0.009,0.554764 0.0155,0.72037 0.0151,0.398127 0.0318,0.705879 0.0506,0.939994 l -0.002,-0.0047 c 0.009,0.121111 0.0211,0.221798 0.0351,0.314193 l -0.002,-0.0047 c 0.009,0.06241 0.0197,0.107934 0.0243,0.128674 8e-5,3.48e-4 -7e-5,0.0016 0,0.0021 0.0154,0.0722 0.0852,0.265944 0.16588,0.380339 0.0147,0.01907 0.0302,0.03752 0.0465,0.05529 0.26767,0.32341 0.70542,0.492993 1.07021,0.492993 0.34605,0 0.66015,-0.106764 0.91313,-0.240812 0.005,-0.0053 0.01,-0.01062 0.015,-0.01602 l -0.004,0.0072 c 0.15962,-0.08786 0.33675,-0.20577 0.49299,-0.400493 0.16511,-0.205974 0.27854,-0.486706 0.27854,-0.780314 0,-0.279194 -0.0401,-0.587785 -0.10801,-0.931209 0.95992,-0.194553 1.91694,-0.386712 2.68408,-0.782381 0.006,-0.0028 0.008,-0.0085 0.0129,-0.01137 -0.10608,0.233431 -0.22433,0.468667 -0.18345,0.736389 0.0928,0.60668 0.61677,0.975856 1.20096,1.059367 0.2566,0.47558 0.61252,0.936001 1.21801,1.191658 1.02992,0.434838 2.29752,0.429148 3.98012,0.09509 0.16157,-0.03206 0.24857,-0.176074 0.3824,-0.258899 -0.0204,-0.02395 -0.0532,-0.06205 -0.0532,-0.06201 l 0.005,-0.0041 c 0.0247,0.03278 0.0369,0.05081 0.0486,0.06615 10e-4,-8.79e-4 0.003,-0.0012 0.005,-0.0021 0.084,0.126825 0.1614,0.254808 0.2961,0.371554 6.9e-4,10e-7 10e-4,10e-7 0.002,0 0.18895,0.163291 0.47379,0.320393 0.82476,0.320393 0.52529,0 0.8904,-0.369927 1.05265,-0.669726 l 0.002,-0.0026 c 0.0102,-0.01846 0.0182,-0.03619 0.0269,-0.05529 0.003,-0.0065 0.006,-0.01306 0.009,-0.01964 0.15413,-0.359664 0.25238,-0.646644 0.3142,-0.877982 0.001,-0.004 0.003,-0.01154 0.005,-0.0155 0.23995,-0.739991 0.31309,-0.990728 0.49351,-1.558561 l 0.39532,1.269173 0.005,0.01292 c 0.002,0.365382 0.10599,0.715973 0.26768,1.030428 0.006,0.01341 0.0114,0.02668 0.0176,0.03979 0.10234,0.182748 0.22531,0.36503 0.4222,0.530717 0.1969,0.165688 0.50009,0.309542 0.82269,0.309542 0.49345,0 0.82397,-0.309516 0.99942,-0.541569 0.0884,-0.116828 0.14232,-0.238979 0.1571,-0.274402 0.0275,-0.06598 0.0474,-0.125482 0.0708,-0.192237 0.048,-0.136463 0.10367,-0.309446 0.17209,-0.530717 0.12329,-0.398513 0.29814,-0.995103 0.49971,-1.69602 0.16778,0.57092 0.32501,1.105655 0.43563,1.44849 6.9e-4,1e-6 10e-4,1e-6 0.002,0 0.0687,0.212955 0.12483,0.381645 0.17466,0.515214 6.9e-4,6.9e-4 10e-4,0.0014 0.002,0.0021 0.0249,0.06641 0.048,0.124559 0.0775,0.19017 0.0145,0.03222 0.0606,0.13111 0.13695,0.236678 0.23188,0.317559 0.60692,0.482141 0.94413,0.482141 0.20993,0 0.29707,-0.158599 0.46198,-0.232544 0.26448,0.300298 0.62899,0.610299 1.12345,0.610299 0.5209,0 0.85141,-0.338511 1.02371,-0.570508 0.0749,-0.100776 0.11244,-0.211213 0.16795,-0.313676 1.22793,-0.230758 2.26161,-0.450309 3.19257,-0.663526 l 0.009,0.02015 c 0.004,0.01042 0.008,0.02076 0.0129,0.03101 0.005,0.0103 0.0102,0.02089 0.0155,0.03101 7.3e-4,0.0015 10e-4,0.0026 0.002,0.0041 0.11264,0.224807 0.23899,0.430617 0.42478,0.619084 0.19204,0.194869 0.50611,0.406693 0.91519,0.406693 0.24017,0 0.42117,-0.147028 0.62787,-0.242879 0.10166,0.209923 0.22796,0.419566 0.44028,0.54622 0.24123,0.143803 0.49914,0.187585 0.72089,0.187585 0.34638,0 0.66047,-0.108575 0.91053,-0.240812 h 0.002 c 0.0104,-0.005 0.0208,-0.01013 0.031,-0.0155 0.34503,-0.199725 0.74052,-0.614065 0.74052,-1.182873 0,-0.220574 -0.0336,-0.389205 -0.0641,-0.550871 l -0.0574,-0.320394 c -2.3e-4,-0.0017 2.2e-4,-0.005 0,-0.0067 -0.0523,-0.396157 -0.0668,-0.994208 -0.0863,-1.556494 l 2.4381,2.755387 c 0.0835,0.180273 0.21209,0.346189 0.401,0.464055 6.9e-4,10e-7 10e-4,10e-7 0.002,0 0.28608,0.178073 0.5498,0.192236 0.74518,0.192236 0.38183,0 0.79765,-0.05863 1.16943,-0.338481 0.39102,-0.294145 0.57258,-0.789477 0.57258,-1.207161 0,-0.143391 -0.0181,-0.305151 -0.0465,-0.484208 -0.002,-0.01466 2.6e-4,-0.02483 -0.002,-0.03979 -6.7e-4,-0.0043 -5.5e-4,-0.0067 -0.002,-0.01085 -0.0165,-0.107976 -0.0233,-0.187528 -0.0357,-0.289905 v -0.0021 c -0.0267,-0.364703 -0.046,-0.813757 -0.046,-1.348755 0,-0.771174 0.12015,-1.435006 0.18759,-2.147156 0.24217,0.325996 0.5454,0.748826 0.71882,0.964283 l 0.91312,1.207161 c -0.29373,0.533025 -0.59214,1.076592 -0.76274,1.39268 -0.11738,0.21743 -0.20676,0.384471 -0.26975,0.506429 -0.0333,0.06426 -0.0575,0.114993 -0.0775,0.157096 -0.0183,0.03841 -0.0333,0.07498 -0.0351,0.07958 -0.0279,0.06657 -0.0473,0.136352 -0.0579,0.207739 0.0152,-0.104784 -7.9e-4,-0.0088 0.002,-0.01964 -0.004,0.01522 -0.008,0.03056 -0.0114,0.04599 -0.005,0.03174 -0.003,0.03034 -0.005,0.03772 -4.3e-4,0.0037 4.2e-4,0.0074 0,0.01137 -4.3e-4,0.0038 -0.007,0.09498 -0.007,0.09508 0,0.519693 0.34717,0.921549 0.66559,1.12758 6.9e-4,6.9e-4 10e-4,0.0014 0.002,0.0021 0.2701,0.173539 0.6022,0.269751 0.91519,0.269751 0.65421,0 1.19552,-0.456941 1.47484,-0.942061 0.0205,-0.03689 0.0383,-0.07523 0.0532,-0.114722 l -0.0114,0.03101 c 0.12303,-0.274501 0.23535,-0.543278 0.34468,-0.807186 0.67665,-1.434491 1.60762,-2.958395 2.78174,-4.576981 l 0.005,-0.0041 c 6.9e-4,-0.0015 10e-4,-0.0031 0.002,-0.0046 l 0.53278,-0.698666 c 0.002,-0.0022 0.003,-0.0045 0.005,-0.0067 0.15121,-0.201596 0.27057,-0.367398 0.36742,-0.523999 0.074,-0.119703 0.24753,-0.334732 0.24753,-0.729671 0,-0.549132 -0.38165,-0.99571 -0.74104,-1.211296 -0.002,-8.66e-4 -0.003,-0.0017 -0.005,-0.0026 -0.29354,-0.172659 -0.63213,-0.271668 -0.9772,-0.271818 -6.9e-4,-10e-7 -0.001,-10e-7 -0.002,0 -0.49487,2.05e-4 -0.99077,0.250042 -1.29139,0.629935 -6.9e-4,-1e-6 -10e-4,-1e-6 -0.002,0 -0.0172,0.0206 -0.0334,0.04198 -0.0486,0.06408 -0.32238,0.488452 -0.5494,0.865323 -0.70745,1.149801 l -0.81959,1.389062 c -0.43295,-0.595553 -0.89159,-1.187749 -1.25832,-1.793172 l -0.002,-0.0047 c -0.12661,-0.211007 -0.2251,-0.376589 -0.30335,-0.501778 -0.044,-0.07059 -0.0822,-0.123818 -0.10128,-0.152445 v -5.17e-4 -5.17e-4 -5.17e-4 -5.17e-4 -5.16e-4 c -0.008,-0.01218 -0.0526,-0.06993 -0.0951,-0.123507 h 0.002 c -2.8e-4,-2.08e-4 -0.006,-0.0062 -0.007,-0.0067 -1.9e-4,-1.46e-4 -0.002,-0.0023 -0.002,-0.0026 -2.6e-4,-3.29e-4 -0.002,3.31e-4 -0.002,0 -0.0317,-0.02425 -0.32242,-0.247515 -0.32246,-0.24753 0,0 -0.0229,0.05466 -0.0269,0.06408 -0.16556,-0.133348 -0.27131,-0.302755 -0.57723,-0.302824 -0.21762,0 -0.37948,0.108718 -0.5457,0.201021 -0.0162,-0.02013 -0.005,-0.04192 -0.0222,-0.0615 -6.9e-4,-8.62e-4 -10e-4,-0.0017 -0.002,-0.0026 -0.20575,-0.223009 -0.46881,-0.257647 -0.71416,-0.298173 -0.0378,-0.0331 -0.0785,-0.06284 -0.12144,-0.08888 h -0.002 l -0.002,0.03566 c -0.0318,-0.0023 -0.0646,-0.04182 -0.0951,-0.04186 h -0.002 c -0.36201,2.48e-4 -0.74936,0.06905 -1.09657,0.309542 -0.35939,0.248994 -0.58203,0.664143 -0.63459,1.063501 -0.0517,0.383314 -0.0901,0.820812 -0.11937,1.339453 -9.4e-4,0.01187 -0.002,0.02376 -0.002,0.03566 -0.0102,0.411363 -0.0297,0.828834 -0.0486,1.25367 h 0.002 l -0.007,0.148311 -2.512,-2.916618 c -0.31848,-0.409886 -0.78354,-0.484208 -1.08778,-0.484208 -0.32353,0 -0.6585,0.04166 -0.98599,0.207739 -0.3371,0.171229 -0.61785,0.487614 -0.74724,0.846977 -0.084,0.227873 -0.0954,0.395055 -0.11059,0.588078 -0.0161,0.205624 -0.0222,0.445373 -0.0222,0.740523 0,0.254191 0.0323,1.222116 0.0574,2.036568 -0.4693,-0.925583 -0.94545,-1.803166 -1.37924,-2.965193 -9.2e-4,-0.0025 -10e-4,-0.0042 -0.002,-0.0067 l -0.19689,-0.600997 c -6.8e-4,-0.0016 -10e-4,-0.0031 -0.002,-0.0047 -0.0864,-0.258935 -0.16642,-0.503637 -0.3204,-0.767395 -0.22267,-0.397066 -0.70347,-0.735872 -1.21181,-0.735872 -6.9e-4,-8.63e-4 -0.001,-0.0017 -0.002,-0.0026 -0.66156,0 -1.36855,0.45943 -1.60765,1.103292 l -1.07435,2.894397 c -0.30209,0.774941 -0.59797,1.332566 -0.89349,1.910477 -0.3937,-1.067559 -0.78868,-2.301664 -1.16737,-3.924825 -4.4e-4,-0.0022 -0.002,-0.0044 -0.002,-0.0067 -0.056,-0.280578 -0.1145,-0.570182 -0.18345,-0.875398 -0.003,-0.01195 -0.006,-0.02383 -0.009,-0.03566 v -0.0021 c -0.0686,-0.256732 -0.14314,-0.489363 -0.29663,-0.734322 -0.0495,-0.07895 -0.22681,-0.101118 -0.30954,-0.183452 -0.1495,-0.249525 -0.41427,-0.407339 -0.70487,-0.420129 z m -38.68033,-1.171505 4.55476,1.177706 -4.64726,2.527494 -5.65651,-2.147156 z m 61.23399,1.985926 c -0.0205,0.01879 -0.0406,0.03681 -0.0594,0.05736 -0.01,0.01231 -0.0196,0.02489 -0.0289,0.03772 z m -4.10466,0.665592 h 10e-4 l -5.1e-4,5.17e-4 z m -1.50017,1.528072 c 0.0104,0.02622 0.0222,0.05192 0.0351,0.077 0.0102,0.01695 0.007,0.04132 0.0176,0.05788 z m -32.24454,0.176733 h 5.2e-4 c 6.9e-4,0 10e-4,-2e-6 0.002,0 0.28276,3.56e-4 0.5458,0.07464 0.82941,0.247531 2.2e-4,1.27e-4 -2e-4,0.0023 0,0.0026 0.30336,0.188193 0.26717,0.177629 0.26717,0.298173 0,0.09918 -0.0358,0.252042 -0.30283,0.548287 -0.11848,0.128205 -1.10993,0.300843 -1.98127,0.453203 -8.5e-4,-0.08201 -0.007,-0.163296 -0.007,-0.245463 0,-0.2218 0.009,-0.438084 0.0155,-0.656291 0.45763,-0.381265 0.87947,-0.647649 1.17616,-0.648023 z m 21.49843,2.177645 c 0.0714,0.168174 0.16035,0.376256 0.22376,0.526583 -0.15351,0.04476 -0.32248,0.0803 -0.48214,0.12144 0.0974,-0.246172 0.17523,-0.440355 0.25838,-0.648023 z m -11.64942,3.674195 0.006,0.02274 h -0.015 c 0.003,-0.0077 0.006,-0.01509 0.009,-0.02274 z m -0.86144,0.02274 c -5.6e-4,3.43e-4 -0.0842,0.05111 -0.11421,0.06873 0.006,-0.01219 7.2e-4,-0.02742 0.007,-0.03979 0.0243,-0.0064 0.10602,-0.02855 0.10749,-0.02894 z m 16.56849,0.170533 c 0.0322,0.0092 0.12487,0.03494 0.12558,0.03514 l -0.17415,0.05995 c 0.0242,-0.02417 0.0253,-0.06897 0.0486,-0.09508 z m -17.38136,0.04651 c 0.0353,0.06717 0.0311,0.156159 0.0708,0.220659 -10e-6,1.1e-5 -0.002,-7e-6 -0.002,0 -0.0105,-0.02471 -0.0904,-0.213981 -0.0904,-0.213941 0,0 0.0197,-0.0061 0.0217,-0.0067 z m 0.0641,0.219108 c 5e-5,6.6e-5 0.005,0.0018 0.005,0.0021 v 0.0021 c 2.8e-4,3.69e-4 0.003,0.0035 0.005,0.0041 1.4e-4,1.8e-4 -1.4e-4,0.0023 0,0.0026 5e-4,8.4e-4 0.002,0.0012 0.002,0.0021 1.7e-4,2.35e-4 -2e-4,0.0022 0,0.0026 l -0.002,-0.0047 -0.005,-0.0067 z m 18.77198,0.667143 -0.0749,0.03307 c 0.0102,-0.0038 0.0186,-0.0067 0.0284,-0.01085 0.0157,-0.0069 0.0312,-0.01435 0.0465,-0.02222 z"
         sodipodi:nodetypes="sccccccccscccccccccccccccccccccccccccccsccccccscccccccccccssccccsscscscccccsccsccsccscccsccscccccssccssccssssccssccccccscccscccsscccccsscccccccscsscsccccccsssscscccccscscssccccscsscsscccscccccccscscscccscccssscccccssccscccccccccssscsccccccccsccccccccsccccscscccccssscccccccsccsscscccccccccscsccscsccccccccccccccccccsscscsccscscccccccccccccccccsccccscssccccccccc" />
      <path
         id="path1-8-8-8-2-3-1-4"
         style="fill:#bbe3f3;fill-opacity:1;stroke:#1a1a1a;stroke-width:1.73201;stroke-linecap:round;stroke-linejoin:round;stroke-dasharray:none;paint-order:markers stroke fill"
         d="m 624.21665,29.82624 c -0.0577,-0.01303 -0.11767,-0.01131 -0.17449,0.005 l -7.08853,1.97869 c -0.0882,0.02509 -0.16303,0.08361 -0.20868,0.16309 l -0.0635,0.11037 0.63019,3.6696 0.64217,3.73733 v 6.4e-4 l 0.0804,0.46828 c 0.0196,0.113199 0.0932,0.20969 0.19727,0.25844 l 6.17773,2.90748 c 0.11326,0.05297 0.24613,0.04181 0.34897,-0.0293 l 4.7255,-3.27025 c 0.084,-0.05825 0.1385,-0.150176 0.1493,-0.25183 l 0.18647,-1.75146 -2.78217,1.72268 c -0.114,0.0699 -0.26334,0.02924 -0.32618,-0.0888 l -2.7348,-5.10743 -5.74842,-2.10703 5.95228,-1.66091 5.0193,1.14825 -4.68951,2.63706 2.49376,4.65475 5.67706,-3.51609 0.3178,-0.23206 c 0.16034,-0.116187 0.19317,-0.341791 0.0726,-0.49886 l -2.66111,-3.44656 c -0.0503,-0.06452 -0.12157,-0.109478 -0.20147,-0.12712 z m -7.88362,2.85892 -1.70048,2.94286 c -0.15103,0.258805 0.0701,0.575831 0.36517,0.52346 l 1.87555,-0.3232 z"
         sodipodi:nodetypes="cccscccccccccccccccccccccccccccccc" />
      <path
         style="-inkscape-font-specification:'Anime Ace 2.0 BB';fill:#ffffff;fill-opacity:1;stroke:#1a1a1a;stroke-width:1.73201;stroke-linecap:round;stroke-linejoin:round;stroke-dasharray:none;paint-order:markers stroke fill"
         d="m 662.51904,32.15563 c -0.13874,0 -0.26349,0.0485 -0.36033,0.14253 -0.0969,0.0941 -0.16498,0.23041 -0.20977,0.40454 -0.19888,0.78608 -0.34124,1.37263 -0.42684,1.77204 -0.32869,1.30585 -0.65904,2.42208 -1.00276,3.40889 -0.60075,-1.57853 -1.05985,-2.94167 -1.31927,-3.99725 l -0.15057,-0.64355 a 0.07194492,0.07194492 0 0 0 -6.5e-4,-0.004 c -0.0488,-0.16074 -0.102,-0.28316 -0.16849,-0.37129 -0.0665,-0.0882 -0.15483,-0.14363 -0.2514,-0.14363 -0.13874,0 -0.26399,0.0485 -0.3618,0.14216 -0.0978,0.0937 -0.16854,0.22942 -0.21817,0.40309 l -0.73893,2.75581 c -0.29269,1.04783 -0.59487,1.94506 -0.92421,2.70722 l -0.22621,0.49007 a 0.07194492,0.07194492 0 0 0 0,9.1e-4 c -0.10539,0.23947 -0.16736,0.4036 -0.16736,0.52077 0,0.17162 0.0734,0.37127 0.21817,0.60371 3.7e-4,6.5e-4 6.5e-4,7.2e-4 6.5e-4,9.1e-4 2.9e-4,4.6e-4 -3e-4,3.9e-4 0,9.2e-4 0.073,0.12604 0.14725,0.22434 0.22656,0.29307 0.08,0.0692 0.16806,0.11038 0.25984,0.11038 0.11718,0 0.21853,-0.0831 0.29126,-0.21816 a 0.07194492,0.07194492 0 0 0 0.002,-0.005 c 0.14241,-0.33229 0.22766,-0.58929 0.27626,-0.77329 l 6.5e-4,-0.002 c 0.65629,-2.02283 1.07723,-3.37481 1.33972,-4.22782 l 1.26371,4.07032 c -0.005,0.0316 -0.0102,0.0643 -0.0102,0.0914 0,0.21248 0.0602,0.43173 0.17796,0.65743 a 0.07194492,0.07194492 0 0 0 6.5e-4,0.002 c 0.13804,0.2465 0.29853,0.39651 0.48896,0.39651 0.11682,0 0.22019,-0.0766 0.31209,-0.19879 0.0193,-0.0247 0.0288,-0.0476 0.0442,-0.0845 0.0154,-0.0369 0.0331,-0.0849 0.054,-0.14473 0.042,-0.11955 0.0966,-0.28675 0.16298,-0.50139 0.13282,-0.4293 0.31471,-1.04978 0.54671,-1.85937 0.26087,-0.90433 0.52002,-1.80803 0.77365,-2.71272 0.24936,0.84758 0.49267,1.69621 0.7349,2.55264 0.22257,0.76717 0.4,1.35429 0.53174,1.76254 0.0659,0.20414 0.12101,0.36373 0.16407,0.47911 0.0216,0.0577 0.0402,0.10449 0.0566,0.14106 0.0159,0.0353 0.0264,0.0588 0.0442,0.0815 0.0602,0.0842 0.1537,0.12425 0.2474,0.12425 0.18146,0 0.35925,-0.11026 0.5277,-0.29857 0.16759,-0.18727 0.26386,-0.3712 0.26386,-0.54962 0,-0.0168 -0.002,-0.0197 -0.005,-0.0264 -6.5e-4,-0.007 -0.002,-0.0138 -0.005,-0.022 -0.005,-0.016 -0.0113,-0.0362 -0.0205,-0.0619 -0.0181,-0.0517 -0.0444,-0.12375 -0.0802,-0.21818 -0.0712,-0.18873 -0.17841,-0.46341 -0.32049,-0.82334 a 0.07194492,0.07194492 0 0 0 0,-3.7e-4 0.07194492,0.07194492 0 0 0 0,-3.6e-4 0.07194492,0.07194492 0 0 0 0,-3.7e-4 0.07194492,0.07194492 0 0 0 0,-3.5e-4 c -0.48042,-1.19637 -0.94417,-2.75426 -1.38832,-4.66272 v -0.003 c -0.0566,-0.28312 -0.11309,-0.56696 -0.17943,-0.86063 a 0.07194492,0.07194492 0 0 0 -6.6e-4,-0.002 c -0.0579,-0.21679 -0.11917,-0.38306 -0.19332,-0.5014 -0.0742,-0.1183 -0.17032,-0.19587 -0.28322,-0.19587 z m -20.87968,0.0774 c -0.96086,0 -1.65917,0.0928 -2.11994,0.27919 -0.33938,0.14399 -0.5182,0.47589 -0.5182,0.94724 0,0.0987 0.017,0.18276 0.0649,0.24741 0.0481,0.0645 0.12863,0.0994 0.21561,0.0994 0.17504,0 0.45871,-0.0485 0.87706,-0.14362 a 0.07194492,0.07194492 0 0 0 6.5e-4,-9.2e-4 c 0.42276,-0.10336 0.74141,-0.14909 0.94871,-0.14909 0.20729,0 0.3293,0.0482 0.37421,0.1188 a 0.07194492,0.07194492 0 0 0 6.6e-4,9e-4 c 0.0794,0.11509 0.15492,0.37776 0.20171,0.77072 0.0467,0.39296 0.0706,0.91816 0.0706,1.57433 0,0.59334 -0.0386,1.06259 -0.12165,1.41318 -0.11004,0.486 -0.36313,0.85636 -0.7762,1.14092 -0.3856,0.26626 -0.83233,0.40308 -1.34959,0.40308 -0.61707,0 -1.16665,-0.21938 -1.65731,-0.6545 -0.39851,-0.35323 -0.67852,-0.96085 -0.81895,-1.83161 -0.0342,-0.2051 -0.0873,-0.3641 -0.16847,-0.47766 -0.0812,-0.11357 -0.19666,-0.17832 -0.32744,-0.17832 -0.20457,0 -0.3697,0.044 -0.48348,0.14654 -0.11384,0.10256 -0.16701,0.25777 -0.16701,0.44586 0,0.9997 0.31974,1.88005 0.94469,2.6396 0.66433,0.79913 1.50225,1.20852 2.48756,1.20852 0.78098,0 1.48109,-0.23239 2.08012,-0.69616 0.59827,-0.46319 1.01476,-1.07365 1.24581,-1.83418 0.31474,-1.01097 0.46667,-2.08808 0.46667,-3.22101 0,-0.67489 -0.0463,-1.18042 -0.13376,-1.54 v -9.2e-4 c -0.0497,-0.21772 -0.14162,-0.38569 -0.2803,-0.493 -0.19031,-0.15673 -0.54094,-0.21414 -1.05832,-0.21414 z m 6.14386,0.008 c -1.01497,0 -1.99982,0.44642 -2.94621,1.31634 -0.60141,0.5632 -0.91289,1.00464 -0.91289,1.37845 0,0.21989 0.0584,0.40094 0.16189,0.55109 0.0238,1.5087 0.0488,2.6542 0.0782,3.4348 0.0148,0.39222 0.0302,0.69294 0.0471,0.9034 0.008,0.10528 0.017,0.18692 0.0264,0.2485 0.005,0.0308 0.0102,0.0558 0.0149,0.0774 0.005,0.0216 0.0102,0.0392 0.0264,0.0622 a 0.07194492,0.07194492 0 0 0 0.002,0.002 c 0.0982,0.12016 0.23811,0.17797 0.40455,0.17797 0.17502,0 0.34065,-0.0518 0.50833,-0.14069 a 0.07194492,0.07194492 0 0 0 0,-3.8e-4 0.07194492,0.07194492 0 0 0 0,-3.5e-4 0.07194492,0.07194492 0 0 0 0,-3.6e-4 0.07194492,0.07194492 0 0 0 0,-3.7e-4 c 0.1,-0.055 0.17917,-0.11409 0.23497,-0.18384 0.0558,-0.0696 0.087,-0.15164 0.087,-0.23863 0,-0.21479 -0.0299,-0.48394 -0.0969,-0.80944 l 6.5e-4,9.1e-4 c -0.0702,-0.39541 -0.1097,-0.62213 -0.12276,-0.73237 1.27551,-0.18238 2.37544,-0.48298 3.26488,-0.94173 1.29155,-0.66015 1.96024,-1.53025 1.96024,-2.61038 0,-0.70973 -0.287,-1.31147 -0.85807,-1.7958 -0.53284,-0.46503 -1.16635,-0.7002 -1.88241,-0.7002 z m 31.41544,0.10348 c -0.25079,0 -0.4548,0.0485 -0.60627,0.15348 -0.15147,0.10494 -0.24363,0.26769 -0.26934,0.46813 -0.0477,0.35271 -0.0849,0.7705 -0.11334,1.27358 a 0.07194492,0.07194492 0 0 0 0,0.002 c -0.0102,0.42489 -0.0293,0.85014 -0.0482,1.27612 l -0.10529,2.32716 -3.95995,-4.60205 c -0.0864,-0.11117 -0.23379,-0.15056 -0.40599,-0.15056 -0.23927,0 -0.43762,0.0352 -0.59386,0.1147 -0.15623,0.0794 -0.26824,0.20603 -0.32598,0.36874 -0.0292,0.0771 -0.0463,0.1907 -0.0596,0.36033 -0.0134,0.17089 -0.0205,0.39486 -0.0205,0.67533 0,0.33544 0.0286,1.35648 0.0856,3.05109 0.0238,0.91855 0.0462,1.61669 0.0677,2.09548 0.0113,0.23939 0.0211,0.42391 0.0304,0.55401 0.005,0.065 0.0102,0.11594 0.0139,0.15457 0.005,0.0379 0.005,0.0566 0.0154,0.0856 1.7e-4,4.5e-4 -1.7e-4,7.3e-4 0,9.2e-4 0.0286,0.0838 0.0837,0.1541 0.1586,0.19881 0.076,0.0453 0.16922,0.0666 0.27774,0.0666 0.17503,0 0.33918,-0.0522 0.50689,-0.14106 a 0.07194492,0.07194492 0 0 0 0.002,-9.1e-4 c 0.19166,-0.11094 0.31064,-0.25836 0.31064,-0.43233 0,-0.11287 -0.0211,-0.23796 -0.0498,-0.39066 l -0.0661,-0.36872 6.6e-4,0.002 c -0.0847,-0.63932 -0.13267,-1.45131 -0.13267,-2.424 0,-0.4818 0.0208,-1.00091 0.0511,-1.5301 l 4.04875,4.58011 c 0.005,0.0731 0.0405,0.14191 0.10302,0.1809 0.0726,0.0452 0.16812,0.0608 0.2887,0.0608 0.27862,0 0.49563,-0.0498 0.64794,-0.16447 0.15231,-0.11457 0.22767,-0.29466 0.22767,-0.5138 0,-0.0991 -0.0102,-0.22599 -0.0384,-0.38957 v -9.2e-4 c -0.0273,-0.17331 -0.0354,-0.29811 -0.0456,-0.37128 -0.0283,-0.38621 -0.0486,-0.85776 -0.0486,-1.41464 0,-1.49173 0.12351,-2.8888 0.36872,-4.18069 0.0285,-0.15185 0.0492,-0.272 0.0636,-0.36179 0.0144,-0.0898 0.0223,-0.14319 0.0223,-0.18127 0,-0.12982 -0.0309,-0.24 -0.10233,-0.31755 -0.0716,-0.0776 -0.17871,-0.11471 -0.30113,-0.11471 z m -10.4309,0.0859 c -0.38118,0 -0.66572,0.18511 -0.79702,0.53866 l -1.0788,2.90602 c -0.43449,1.11458 -0.86832,2.0485 -1.31048,2.80112 -0.12289,0.17989 -0.237,0.35874 -0.34973,0.53721 -0.16294,0.25878 -0.2569,0.43404 -0.2569,0.5774 0,0.20007 0.0838,0.41397 0.25142,0.63112 0.16802,0.21745 0.35188,0.33987 0.55949,0.33987 0.12116,0 0.22699,-0.0839 0.3289,-0.22111 0.0958,-0.12886 0.1926,-0.32202 0.29528,-0.56204 1.70974,-0.31473 3.14213,-0.61213 4.29141,-0.89096 l 0.28068,0.68376 a 0.07194492,0.07194492 0 0 0 0.002,0.004 c 0.0873,0.17469 0.17605,0.30849 0.26824,0.40199 0.0921,0.0935 0.19237,0.14911 0.29821,0.14911 0.18068,0 0.36701,-0.0752 0.54708,-0.22511 0.18066,-0.15057 0.28175,-0.32312 0.28175,-0.50944 0,-0.0666 -0.026,-0.13443 -0.0692,-0.22803 -0.0431,-0.0936 -0.10562,-0.20951 -0.18672,-0.34791 a 0.07194492,0.07194492 0 0 0 -6.6e-4,-9e-4 l -0.33986,-0.53867 -6.5e-4,-9.2e-4 c -0.7443,-1.25325 -1.44259,-2.75252 -2.09402,-4.49861 l -6.5e-4,-0.002 -0.2072,-0.63259 c -0.0852,-0.25541 -0.16052,-0.46492 -0.25143,-0.61724 -0.10359,-0.18641 -0.26536,-0.29271 -0.45974,-0.29271 z m 17.50226,0.0102 c -0.24702,1.1e-4 -0.46073,0.10653 -0.61431,0.30116 a 0.07194492,0.07194492 0 0 0 -0.005,0.004 c -0.31315,0.47446 -0.531,0.83449 -0.67424,1.09231 l -1.51368,2.56359 c -0.76584,-0.96425 -1.45848,-1.94378 -2.06365,-2.94329 -0.12792,-0.2132 -0.22679,-0.3776 -0.29821,-0.49187 -0.0357,-0.0572 -0.0651,-0.10087 -0.0869,-0.13378 -0.0197,-0.0297 -0.0295,-0.0462 -0.0457,-0.0636 -2.9e-4,-3.7e-4 -6.4e-4,3.7e-4 -6.4e-4,0 -0.0809,-0.10086 -0.1637,-0.16992 -0.26385,-0.16994 -0.16364,0 -0.30096,0.12947 -0.42942,0.33694 -0.12698,0.20514 -0.19075,0.37756 -0.19075,0.53062 0,0.15798 0.0531,0.32314 0.16299,0.493 a 0.07194492,0.07194492 0 0 0 6.5e-4,0.003 c 0.57802,0.81489 1.03272,1.42181 1.34669,1.81189 l 1.26807,1.6741 c -0.45362,0.82043 -0.80222,1.45534 -1.03054,1.87838 -0.1167,0.21614 -0.20388,0.38004 -0.26239,0.49335 -0.0293,0.0566 -0.0509,0.10041 -0.0661,0.13228 -0.008,0.016 -0.0134,0.0293 -0.0179,0.0402 -6.6e-4,0.004 -0.003,0.0102 -0.005,0.0154 -6.4e-4,0.002 -6.4e-4,0.004 -0.002,0.0102 -6.6e-4,0.005 -0.002,0.0189 -0.002,0.0194 0,0.15257 0.097,0.28903 0.26933,0.40052 0.14272,0.0917 0.29104,0.13412 0.44583,0.13412 0.2942,0 0.53836,-0.18345 0.72542,-0.50834 a 0.07194492,0.07194492 0 0 0 0.002,-0.008 c 0.12301,-0.27445 0.23777,-0.54833 0.35082,-0.82152 0.70723,-1.49934 1.66905,-3.06789 2.86874,-4.72118 l 6.6e-4,-9.2e-4 0.54853,-0.71811 c 0.14268,-0.19024 0.25002,-0.3431 0.32305,-0.46119 0.073,-0.11804 0.11769,-0.19115 0.11769,-0.27371 0,-0.18914 -0.11794,-0.34728 -0.3194,-0.46813 -0.1709,-0.10052 -0.35472,-0.15195 -0.5383,-0.15203 z m -39.0463,1.16724 c 0.44971,0 0.88096,0.12818 1.28708,0.37713 0.46008,0.28525 0.67681,0.61774 0.67681,1.03714 0,0.3659 -0.16855,0.73518 -0.53025,1.13398 -0.50456,0.54881 -1.66707,0.86809 -3.45565,0.93225 -0.0247,-0.43619 -0.0361,-0.87234 -0.0361,-1.30939 0,-0.38567 0.0102,-0.76155 0.0278,-1.138 0.69485,-0.68857 1.37063,-1.03311 2.03042,-1.03311 z m 21.47096,0.76927 c 0.63175,1.4712 1.12387,2.62088 1.4406,3.38802 -0.93187,0.34037 -1.97041,0.59457 -3.10373,0.78608 0.8405,-2.1718 1.3944,-3.55156 1.66313,-4.1741 z m -15.47914,1.1241 c -0.23729,0.003 -0.48828,0.0392 -0.74879,0.10641 -0.57597,0.14869 -1.03441,0.58358 -1.41573,1.11352 -0.2753,0.38258 -0.38051,0.86389 -0.4875,1.33424 l -0.49446,0.076 c -0.27728,0.0425 -0.46771,0.30121 -0.42537,0.5785 0.0425,0.27728 0.30122,0.46772 0.5785,0.42537 l 0.30405,-0.0467 c 0.14897,0.49408 0.44008,0.96215 1.01666,1.20559 0.78068,0.32962 1.87753,0.36082 3.47648,0.0431 0.27556,-0.0547 0.45432,-0.32278 0.39908,-0.59824 -0.0547,-0.27557 -0.3228,-0.45431 -0.59825,-0.39907 -1.49265,0.2966 -2.41655,0.2147 -2.88262,0.0179 -0.27692,-0.11694 -0.39804,-0.25385 -0.46667,-0.41296 l 3.44468,-0.52477 c 0.2779,-0.0425 0.46853,-0.30255 0.42537,-0.58031 -0.11916,-0.76249 -0.31855,-1.42677 -0.80947,-1.88243 -0.24544,-0.22782 -0.55361,-0.36928 -0.90446,-0.42684 -0.13158,-0.0216 -0.26912,-0.0312 -0.4115,-0.0293 z m -0.0405,0.99948 c 0.57002,-0.0276 0.78431,0.3751 0.97538,1.00901 l -2.49563,0.3797 c 0.14261,-0.57138 0.51287,-1.05979 1.0649,-1.29807 0.17352,-0.0547 0.32382,-0.0842 0.45535,-0.0906 z"
         id="path18-3-5-2-8-1" />
      <path
         id="path100-2-9-5-1"
         style="fill:#1a1a1a;fill-opacity:1;stroke:#1a1a1a;stroke-width:0.883453;stroke-linecap:round;stroke-linejoin:round;stroke-dasharray:none;stroke-opacity:1;paint-order:markers stroke fill"
         d="m 621.064,35.780183 c -0.66939,0.01499 -1.11394,0.561005 -1.21727,1.172293 -0.0963,0.569575 0.10818,1.212007 0.61213,1.656942 0,0.0073 9e-4,0.01239 0.002,0.02083 l 0.0536,0.838108 c 9.2e-4,0.01749 0.005,0.0352 0.0104,0.05196 0.0634,0.195457 0.18182,0.383781 0.38988,0.475017 0.20806,0.09122 0.48122,0.02666 0.69352,-0.178328 0.0377,-0.03686 0.0612,-0.08611 0.0642,-0.138707 l 0.0664,-0.896482 c 1.30553,-0.773153 0.74822,-2.965339 -0.60998,-3.001669 -0.0146,-4.58e-4 -0.0332,-6.2e-5 -0.052,0 -0.005,-6.2e-5 -0.008,-6.2e-5 -0.0123,0 z" />
      <path
         id="path100-2-9-3"
         style="fill:#f7f7f7;fill-opacity:1;stroke:#1a1a1a;stroke-width:0.848438;stroke-linecap:round;stroke-linejoin:round;stroke-dasharray:none;stroke-opacity:1;paint-order:markers stroke fill"
         d="m 620.88039,35.63068 c -0.64286,0.0144 -1.06979,0.53877 -1.16902,1.12583 -0.0925,0.547 0.10389,1.16397 0.58786,1.59127 0,0.007 8.7e-4,0.0119 0.002,0.02 l 0.0515,0.80489 c 8.8e-4,0.0168 0.005,0.0338 0.01,0.0499 0.0609,0.18771 0.17462,0.36857 0.37443,0.45619 0.19981,0.0876 0.46215,0.0256 0.66603,-0.17126 0.0362,-0.0354 0.0588,-0.0827 0.0617,-0.13321 l 0.0638,-0.86095 c 1.25379,-0.74251 0.71857,-2.84781 -0.5858,-2.8827 -0.014,-4.4e-4 -0.0319,-6e-5 -0.0499,0 -0.005,-6e-5 -0.008,-6e-5 -0.0118,0 z" />
      <path
         style="fill:#ffffff;fill-opacity:1;stroke:none;stroke-width:0.968999;stroke-linecap:round;stroke-linejoin:round;stroke-dasharray:none;stroke-opacity:1;paint-order:markers stroke fill"
         d="m 620.34934,32.490424 3.85298,-1.025261 3.43959,0.744141 -3.39198,1.6807 z"
         id="path103-42"
         sodipodi:nodetypes="ccccc" />
    </g>
  </g>
</svg>
